<?xml version="1.0" encoding="UTF-8"?>
<!DOCTYPE svg  PUBLIC '-//W3C//DTD SVG 1.1//EN'  'http://www.w3.org/Graphics/SVG/1.1/DTD/svg11.dtd'>
<svg version="1.1" xmlns="http://www.w3.org/2000/svg">
<defs>
<font id="CatalishHuntera" horiz-adv-x="871">
<font-face font-family="Catalish Huntera" font-weight="400" ascent="800" bbox="-552.081 -506.757 1493.51 1178.14" cap-height="835" descent="-200" panose-1="2 0 6 0 0 0 0 0 0 0" underline-position="-100" underline-thickness="50" unicode-range="U+0020-00FE" units-per-em="1000" x-height="483"/>
<missing-glyph/>
<glyph glyph-name="space" horiz-adv-x="275" unicode=" "/>
<glyph glyph-name="space" horiz-adv-x="275" unicode=" "/>
<glyph d="M73 4q0 -11 4 -26q8 -23 34 -30q8 -2 15 -2q25 4 43 20q17 18 25 43q2 5 5 14q3 10 5 14q32 99 146 437q49 147 52 155q20 55 58 162q8 24 10 37q1 15 -8 24q-11 11 -26 16q-40 13 -81 -1q-24 -9 -32 -30l-9 -27q-7 -17 -10 -26q-10 -32 -31 -96q-31 -98 -47 -146 q-57 -175 -102 -326q-30 -106 -42 -160q-8 -34 -9 -52zM90 -103q-62 -1 -86 -61q-4 -14 -3 -29q8 -36 44 -52q26 -11 49 -11q38 1 60 23q17 17 27 40q5 11 3 20q-7 33 -30 48q-32 22 -64 22z" glyph-name="exclam" horiz-adv-x="481" unicode="!"/>
<glyph d="M134 895q-34 -1 -56 -22q-30 -32 -41 -66q-20 -60 -29 -90q-8 -28 -8 -50q1 -34 33 -46q17 -6 33 -5q21 2 31 10q11 9 4 20q-4 6 -3 10q4 18 7 28q19 56 53 109q21 30 32 58q9 24 -15 36q-17 8 -41 8zM298 895q-34 -1 -56 -22q-28 -30 -41 -66q-20 -60 -29 -90 q-8 -34 -8 -50q3 -34 33 -46q18 -6 33 -5q21 2 32 10q11 9 3 20q-3 7 -2 10q1 11 7 28q21 61 53 109q23 35 31 58q7 24 -14 36q-17 8 -42 8z" glyph-name="quotedbl" horiz-adv-x="370" unicode='"'/>
<glyph d="M90 38q-1 -23 2 -37q5 -15 18 -23q31 -15 54 10q2 3 4 5t4 6q3 4 4 6q7 11 19 36q8 18 13 26q7 12 21 13h16q12 1 18 1q13 0 13 -4q-1 -3 -3 -10q-31 -104 -42 -150q-4 -18 -5 -27q0 -21 17 -28q29 -12 57 0q16 6 24 21q12 24 21 48q12 32 49 139q10 10 16 11h6 q44 -1 100 -8q21 -3 42 3q19 9 9 26q-4 7 -14 15l-1 1q-18 11 -34 18q-30 13 -80 20q-11 2 -12 5q1 3 3 10q5 15 41 103q10 10 15 11q26 -1 80 -5q17 -1 31 3q19 9 11 26q-6 8 -13 14q-13 11 -34 20q-18 7 -53 15q-8 1 -8 5q0 2 1 5q2 10 8 30q6 21 8 31q4 20 5 32 q0 23 -18 31q-37 17 -66 -7q-6 -6 -10 -12q-11 -14 -15 -23q-19 -33 -37 -72q-6 -10 -14 -9q-7 0 -20 -1h-18q-7 0 -7 2t1 6q4 22 4 34q0 22 -21 33q-15 8 -34 8q-47 -1 -64 -37q-14 -30 -19 -45q-5 -10 -16 -12q-46 -6 -70 -9q-34 -6 -52 -16q-29 -18 -7 -44q11 -13 32 -22 q31 -12 62 -8q6 1 6 -2q0 -2 -1 -4q-16 -46 -26 -80q-3 -6 -8 -8q-10 0 -27 -2q-30 -2 -50 -12q-32 -16 -14 -43q3 -4 5 -6q13 -13 24 -19q21 -10 39 -13q9 -7 10 -12v-19zM327 281h4q5 -3 3 -7q-9 -11 -61 -83q-6 -8 -10 -14q-1 -1 -2 -3q-5 -4 -8 -3q-1 2 -1.5 2.5 t0.5 4.5l2 3l30 87q4 9 8 10q3 1 7 1q5 0 14 1h14v1zM281 171q14 20 39 55q2 -3 1 -7q-2 -7 -7 -21q-4 -13 -6 -20q-7 -9 -13 -9q-11 1 -14 2z" glyph-name="numbersign" horiz-adv-x="623" unicode="#"/>
<glyph d="M119 200q-33 -3 -42 -6q-62 -21 -72 -75q-8 -42 13 -67q10 -12 20 -19q30 -23 72 -35q9 -3 9 -6t-1 -6q-16 -65 -31 -149q-8 -38 -12 -56q-1 -15 11 -20q10 -2 20 -1q17 3 24 15q1 6 5 13q5 16 16 46q11 31 16 46q7 18 20 56l15 42q3 9 8 9q2 1 5 1q14 0 39 4 q58 10 107 39q31 20 47 44q25 44 10 94q-10 33 -38 69q-10 12 -31 38q-21 25 -31 37q-7 10 -5 21q58 190 71 232q6 18 8 28q4 6 10 8t10 2q9 0 12 -7q3 -5 6 -8q18 -12 41 -3q3 1 4 2q7 6 6 15q-1 4 -1 8q-2 12 -10 19t-14 10q-15 8 -37 12q-7 2 -7 5q0 2 1 5v2q7 20 19 62 q13 42 19 62l9 30q4 22 -18 29h-2q-2 1 -3 1q-39 3 -50 -27q-1 -1 -2 -4q-18 -48 -26 -73q-13 -39 -28 -86q-5 -9 -13 -12q-52 -11 -94 -35q-60 -35 -89 -85q-29 -49 -20 -107q5 -24 23 -58q21 -36 58 -74q7 -9 4 -16q-3 -10 -9 -31q-9 -28 -13 -42q-2 -7 -7 -6q-2 1 -4 1 q-22 5 -48 7zM227 50v3.5t1 3.5l1 3q24 73 41 130l1 2l1 2q2 3 5 1q1 -1 2 -4q15 -24 23 -49q4 -10 4 -22q2 -31 -24 -51q-21 -13 -50 -20q-4 0 -5 1zM89 117q1 20 10 33q13 15 32 13q3 0 27 -6q6 -3 5 -8q-4 -14 -12 -43l-12 -42q-4 -6 -9 -4q-20 12 -33 28q-8 10 -8 29z M252 431q-11 43 17 86q10 14 20 22q-2 -21 -33 -98q-2 -6 -4 -10z" glyph-name="dollar" horiz-adv-x="492" unicode="$"/>
<glyph d="M821 819q0 -4 -3 -7q-4 -5 -13 -15t-13 -15q-16 -18 -47 -55l-42 -48l-48 -57q-39 -46 -58 -68q-98 -113 -164 -196q-82 -101 -237 -304q-62 -79 -133 -182q-20 -29 -57 -86q-8 -14 4 -23q6 -4 13 -7q20 -5 37 -2q20 4 31 17q2 2 19 22q24 29 150 185q134 166 202 249 q51 63 162 192q114 131 170 202q75 91 118 160q16 28 27 52q8 17 -7 33q-6 6 -13 8q-2 0 -6 1q-3 1 -4 1q-22 4 -48 4q-11 0 -31 -2q-22 -2 -32 -2q-52 -4 -78 -5q-12 -1 -38 -3q-25 -1 -37 -2q-56 -4 -84 -5q-49 -4 -76 -5q-11 0 -32 -1q-40 -2 -59 -2q-41 -1 -73 -19 q-56 -34 -89 -93q-21 -44 -15 -82q12 -68 79 -87q74 -17 138 23q44 28 64 69q23 56 -11 104q-2 2 -7 8q-4 5 -6 7q-4 4 -5 6q-2 4 2 6q3 1 4 1q44 2 67 4q54 2 81 4l51 3q38 3 56 4q38 4 57 5zM335 669q0 12 7 34q8 24 25 51q6 6 10 2q23 -22 27 -48q0 -15 -2 -21 q-11 -38 -48 -59q-9 -2 -13 5q-6 13 -6 36zM564 -255q71 1 125 45q32 27 44 58q13 35 -4 64q-37 60 -72 96q-4 5 -5 8q-3 8 -12 13q-12 7 -26 7q-34 2 -65 -16q-69 -43 -101 -110q-14 -29 -14 -58q4 -68 66 -95q27 -12 64 -12zM635 -127q-2 -43 -40 -65q-7 -5 -16 -8 q-8 -2 -13 3q-8 10 -11 23q-4 20 3 44q12 43 48 89q5 3 8 -2q13 -25 18 -41q2 -10 2 -16q0 -19 1 -27z" glyph-name="percent" horiz-adv-x="956" unicode="%"/>
<glyph d="M683 298q1 2 4 3l1 1q33 11 64 18q20 4 29 2q16 -2 34 -1t31 9q20 17 3 37q-8 8 -20 13q-28 10 -64 12q-65 1 -150 -25q-99 -29 -213 -93q-48 -29 -75 -65q-20 -31 -20 -59q1 -29 27 -39q48 -14 77 16l38 38q29 26 81 66q18 12 49 18q8 1 13 -5q8 -12 9 -20q7 -31 -7 -61 q-20 -42 -61 -77q-78 -67 -178 -93q-64 -18 -108 -11q-31 4 -51 18q-39 29 -43 80q-2 46 21 96q34 66 94 116q73 59 151 80q17 4 24 4q13 0 32 6q12 5 18 10q20 16 5 34l-4 4q-9 6 -22 11q-22 8 -32 12q-39 15 -68 34q-26 17 -31 50q-4 45 26 78q36 39 91 50q43 7 69 -27 q24 -35 17 -69q-2 -13 -12 -34q-17 -37 -32 -58q-8 -15 9 -20q5 -1 11 0q3 1 9 2q4 2 5 2q42 19 73 47q29 26 41 48q20 38 10 80q-13 45 -58 72q-40 23 -89 29q-13 2 -14 5q1 4 4 12q18 48 24 73q3 19 -13 27q-27 11 -55 1q-12 -5 -17 -19l-15 -45q-7 -21 -10 -46 q-1 -8 -6 -9q-2 -1 -4 -1q-69 -11 -123 -44q-58 -36 -81 -86q-31 -68 13 -126q5 -7 10 -12q23 -22 62 -42q8 -3 10 -5q-1 -3 -5 -4l-1 -1q-78 -29 -148 -85q-62 -51 -97 -107q-46 -74 -41 -149q5 -55 44 -93q31 -30 76 -48q40 -16 100 -23q9 -1 9 -4q-1 -2 -2 -7l-6 -21 q-3 -11 -5 -16q-7 -26 -13 -73q0 -20 19 -26q12 -3 21 -2q25 0 34 19q2 3 3 6q26 62 40 111q0 1 1 3q4 13 9 14h4q5 1 7 1q150 25 266 114q59 46 92 100q22 36 27 68q9 57 -38 94q-9 6 -9 7z" glyph-name="ampersand" unicode="&amp;"/>
<glyph d="M134 895q-34 -1 -56 -22q-30 -32 -41 -66q-20 -60 -29 -90q-8 -28 -8 -50q1 -34 33 -46q17 -6 33 -5q21 2 31 10q11 9 4 20q-4 6 -3 10q4 18 7 28q19 56 53 109q21 30 32 58q9 24 -15 36q-17 8 -41 8z" glyph-name="quotesingle" horiz-adv-x="206" unicode="'"/>
<glyph d="M0 118q0 -40 11 -99q13 -67 49 -129q46 -74 112 -117q32 -20 61 -17q16 2 26 8q14 13 0 26l-18 15q-22 18 -31 29q-41 48 -61 108q-35 100 -32 209q3 66 17 136q29 122 85 218q64 112 152 183q61 49 127 72q23 8 66 18q12 2 18 7q13 10 0 19q-7 5 -20 7q-24 4 -51 1 q-60 -5 -124 -33q-118 -55 -209 -164q-75 -93 -118 -197q-58 -141 -60 -300z" glyph-name="parenleft" horiz-adv-x="601" unicode="("/>
<glyph d="M591 451q0 40 -11 98q-14 70 -50 130q-45 75 -111 117q-32 20 -61 17q-17 -2 -26 -9q-14 -13 0 -26q3 -2 9 -7t9 -7q19 -16 31 -29q38 -44 61 -108q34 -97 31 -210q-2 -66 -17 -136q-26 -116 -84 -217q-64 -112 -152 -183q-60 -50 -128 -73q-22 -7 -65 -17q-14 -5 -18 -7 q-13 -10 0 -20q5 -3 20 -7q18 -3 51 -1q58 4 124 34q116 52 209 164q72 87 118 197q58 141 60 300z" glyph-name="parenright" horiz-adv-x="601" unicode=")"/>
<glyph d="M150 500q0 -3 -1 -7t-1 -6q-11 -44 -11 -60q0 -20 18 -27q17 -6 39 -3q24 6 33 25l9 18l15 39q4 5 8 2q5 -4 11 -10q5 -4 14 -13l15 -12q11 -9 26 -15q23 -7 43 -1q26 11 12 34q-10 15 -13 18q-40 48 -61 72q-3 8 -3 7q2 1 7 1h1h1h32q21 1 31 1q22 0 38 7q11 5 13 13 q-1 7 -10 14q-8 5 -29 11q-3 1 -39 6q2 3 6 4q5 2 14 8q10 5 15 7q40 22 58 37q11 8 19 20q7 15 -4 27q-8 8 -23 11q-26 7 -55 -1q-13 -3 -32 -13l-9 -2q2 10 2 15q1 21 -18 30q-8 4 -12 5q-25 6 -47 2q-32 -8 -43 -33q-2 -6 -6 -13l-4 -7q-3 2 -6 6q-13 14 -30 20 q-25 7 -53 4q-20 -4 -35 -13q-17 -14 -12 -35q6 -13 7 -16q15 -25 34 -42q8 -9 10 -12q-19 1 -52 5q-25 1 -41 -7q-21 -12 -6 -31q10 -9 20 -14q23 -9 52 -11q2 0 4 -1q5 0 7 -1l-15 -9q-61 -41 -67 -46q-14 -13 -20 -20q-9 -14 3 -24q5 -3 14 -7q30 -7 55 5l60 33 q11 5 12 5z" glyph-name="asterisk" horiz-adv-x="476" unicode="*"/>
<glyph d="M71 281h-16q-23 -2 -34 -7q-28 -16 -9 -39l2 -2q14 -14 40 -23q27 -8 70 -6q6 1 6 -2q0 -2 -1 -4q-1 -8 -5 -22q-5 -16 -6 -23q-11 -44 -12 -72q-2 -32 31 -37h3q44 -2 57 37q24 82 36 122q8 11 13 11q17 1 49 2l51 3q23 2 34 6q15 8 17 15q1 9 -13 19l-1 1q-11 6 -28 11 q-15 4 -58 6q0 1 -17 1l-16 -1q-6 1 -7 3q0 2 1 6q3 12 11 33l9 27q4 26 -21 35q-26 7 -49 1q-18 -7 -27 -22q-8 -14 -15 -39q-2 -5 -6 -17q-3 -12 -5 -17q-3 -8 -11 -8h-8q-10 0 -31 1q-22 1 -34 1z" glyph-name="plus" horiz-adv-x="408" unicode="+"/>
<glyph d="M65 -154q12 6 29 19q33 27 67 71q12 15 19 39q5 20 1 43q-12 32 -41 33t-50 -20q-12 -13 -10 -28q2 -14 1 -20q-1 -7 -3 -23q-3 -15 -4 -22q-6 -26 -27 -49q-11 -8 -16 -10q-6 -2 -15 -7q-10 -8 -13 -16q-3 -12 7 -18q11 -4 20 -3q21 4 35 11z" glyph-name="comma" horiz-adv-x="194" unicode=","/>
<glyph d="M115 204h30q37 2 108 4q64 2 96 4q16 2 26 8q15 10 5 24q-5 8 -14 13q-9 6 -30 12q-33 7 -107 7h-108q-38 2 -68 -1q-24 -2 -38 -10q-19 -11 -8 -29q1 -1 1 -2q9 -10 16 -15q18 -11 47 -15q3 -1 38 0h6z" glyph-name="hyphenminus" horiz-adv-x="397" unicode="-"/>
<glyph d="M115 204h30q37 2 108 4q64 2 96 4q16 2 26 8q15 10 5 24q-5 8 -14 13q-9 6 -30 12q-33 7 -107 7h-108q-38 2 -68 -1q-24 -2 -38 -10q-19 -11 -8 -29q1 -1 1 -2q9 -10 16 -15q18 -11 47 -15q3 -1 38 0h6z" glyph-name="hyphenminus" horiz-adv-x="397" unicode="­"/>
<glyph d="M15 2q-17 -30 -10 -64q1 -7 7 -18q10 -12 25 -11q6 0 17 2q12 2 21 8q28 22 38 59q4 21 -1 39q-7 30 -36 32q-10 0 -19 -3q-12 -6 -19 -12q-15 -15 -23 -32z" glyph-name="period" horiz-adv-x="126" unicode="."/>
<glyph d="M47 -220q26 1 43 16q24 22 44 47l36 45q43 55 64 82q82 108 173 224q176 230 265 345q76 98 152 205q40 54 58 83q10 18 12 23q4 15 -8 24q-6 4 -13 7q-46 12 -77 -18q-16 -16 -41 -45q-71 -88 -145 -184q-132 -176 -198 -265q-102 -136 -153 -205q-201 -269 -214 -287 q-23 -32 -38 -61q-9 -20 10 -30q15 -6 30 -6z" glyph-name="slash" horiz-adv-x="908" unicode="/"/>
<glyph d="M0 158q0 -46 7 -85q8 -52 31 -97q47 -85 145 -87q90 -2 158 69q40 43 72 104q49 96 71 210q14 66 14 128q1 41 -5 85q-11 63 -36 104q-25 42 -72 60q-37 14 -85 9q-25 -4 -40 -17l-2 -2t-4 -1l-2 -1q-51 -12 -99 -60q-32 -33 -58 -76q-93 -158 -95 -343zM143 130 q0 100 32 214q21 79 54 141q33 60 78 107q8 6 17 1q13 -11 19 -21q18 -28 29 -73q13 -53 11 -114q-7 -169 -80 -306q-33 -60 -72 -97q-14 -13 -28 -22q-10 -4 -16 2q-19 23 -29 54q-15 52 -15 114z" glyph-name="zero" horiz-adv-x="509" unicode="0"/>
<glyph d="M46 -93h6q35 3 47 30q1 2 2 6q2 3 2 4q17 42 34 89q7 17 60 177q1 3 1 4q18 55 55 164q35 101 51 151q6 18 17 54q7 24 10 35q4 21 -14 32l-8 4q-34 11 -68 1q-18 -7 -27 -22q-12 -22 -16 -34q-28 -66 -83 -234q-15 -46 -67 -220q-34 -118 -46 -208q-1 -20 14 -27 q13 -6 30 -6z" glyph-name="one" horiz-adv-x="345" unicode="1"/>
<glyph d="M254 282q0 -2 -1 -3l-3 -3l-1 -3q-80 -106 -123 -157q-18 -21 -53 -64q-41 -52 -62 -76q-15 -20 4 -36q15 -10 32 -13q22 -5 65 1q58 6 79 5q62 -4 91 -9q40 -8 63 -23q22 -15 56 -10q18 4 27 13q14 14 5 31q-8 12 -19 19q-20 14 -50 25q-76 23 -158 28h-9q-5 3 -2 6 q4 5 9 10q25 25 110 122q78 91 138 182q46 73 65 140q15 53 10 93q-4 35 -25 61q-18 21 -50 35q-64 25 -132 10q-118 -27 -190 -136q-34 -57 -28 -112q10 -82 85 -119q30 -14 67 -17zM238 439q0 23 9 44q32 72 100 109q1 0 5 2q3 2 4 2q10 2 14 -6q10 -22 9 -51 q-6 -44 -27 -92q-29 -60 -60 -109l-3 -6q-3 -2 -5 0q-3 2 -5 4q-33 35 -39 80q-2 20 -2 23z" glyph-name="two" horiz-adv-x="541" unicode="2"/>
<glyph d="M193 290q-3 -3 -9 -8q-9 -7 -12 -10q-16 -14 -19 -18q-13 -18 1 -33q8 -8 22 -13q29 -9 56 -5q11 1 30 1q20 -1 35 -14q24 -25 27 -56q3 -59 -40 -106q-15 -17 -37 -26q-27 -8 -40 -3q-22 10 -33 23q-18 24 -26 37q-12 24 -16 41q-2 12 5 18q2 3 3 4q9 14 -3 25 q-7 6 -19 9q-48 10 -86 -13q-33 -21 -30 -61q4 -23 10 -38q13 -35 44 -75q14 -18 34 -29q22 -14 52 -22q56 -16 118 -8q106 14 166 84q62 74 39 162q-13 42 -44 68q-33 26 -69 38q-8 4 -9 5q2 3 6 6q30 23 59 50q47 42 74 87q32 50 39 99q8 67 -38 109q-19 17 -44 26 q-59 21 -118 9q-116 -22 -184 -115q-45 -61 -41 -135q4 -64 58 -97q16 -10 39 -16zM375 536q0 -37 -21 -78q-22 -45 -61 -83q-5 -4 -16 -14q-20 -18 -30 -26q-1 -1 -3 -2q-2 -2 -3 -2q-5 -3 -7 2q0 1 -1.5 3.5t-1.5 3.5q-25 70 8 136q32 65 91 99q9 6 20 9q10 1 14 -5 q12 -19 11 -43z" glyph-name="three" horiz-adv-x="537" unicode="3"/>
<glyph d="M192 233q1 4 5 10q74 95 128 185q35 58 49 94q5 13 6 25q2 27 -20 38q-40 21 -80 -3q-13 -8 -21 -18q-51 -63 -85 -117q-70 -110 -129 -189q-24 -34 -36 -57q-11 -27 12 -43q12 -7 20 -10q27 -8 53 -5q23 2 52 10l51 15q2 0 98 19q3 1 5 1q12 2 12 -2l-3 -9 q-16 -45 -42 -132q-25 -77 -28 -84q-7 -24 13 -34q38 -17 74 0q12 5 18 17q2 4 8 13q5 9 7 13l51 114q21 48 59 144q21 53 31 79q14 37 44 109q29 73 43 109q22 55 35 99q7 24 -14 35l-7 3q-36 12 -70 1q-17 -7 -26 -21q-8 -14 -11 -21l-21 -45q-7 -17 -11 -25 q-6 -13 -19 -40l-27 -60q-31 -69 -75 -188q-5 -10 -15 -12q-66 -9 -106 -14q-2 0 -3.5 -0.5l-3 -1t-4 -0.5t-3.5 -0.5t-3.5 -0.5h-3.5h-4z" glyph-name="four" horiz-adv-x="638" unicode="4"/>
<glyph d="M273 329q0 5 4 13q40 82 78 152q18 34 36 62q12 16 27 19l33 6l51 9q17 4 28 13q16 15 0 30q-10 8 -22 11q-22 6 -43 6q-42 2 -71 -2q-50 -6 -72 -13q-47 -15 -76 -48q-23 -25 -47 -62q-32 -50 -79 -137q-21 -41 -58 -135q-8 -19 -12 -39q-3 -17 9 -31q13 -10 23 -14 q75 -22 126 22q43 37 86 55q25 9 46 11q12 0 19 -9q8 -16 11 -29q6 -33 -4 -63q-23 -74 -88 -131q-37 -31 -79 -37q-29 -4 -58 -3q-12 0 -14 5l-2 8q-8 27 -33 32q-42 6 -75 -24q-20 -19 -9 -44q4 -8 9 -13t14 -12q20 -12 46 -19q62 -15 140 -8q54 6 106 21q140 41 199 170 q28 65 11 127q-16 57 -68 84q-20 10 -38 14q-55 15 -121 7q-5 0 -15 -2q-12 -1 -18 -2z" glyph-name="five" horiz-adv-x="555" unicode="5"/>
<glyph d="M168 199q0 1 -0.5 1h-0.5v1q0 1 0.5 3.5t0.5 3.5q9 40 26 85q59 146 178 252q39 33 74 47q10 4 18 2q13 -4 30 -2q18 2 29 14q11 14 1 29q-7 8 -18 14q-29 14 -69 13q-65 -2 -130 -35q-64 -32 -125 -91q-53 -52 -103 -130q-68 -108 -76 -213q-5 -84 18 -147 q29 -74 94 -109q74 -37 160 -25q147 24 228 148q31 51 24 100q-7 43 -39 71q-31 25 -74 33q-96 17 -185 -25q-22 -11 -52 -35q-8 -5 -9 -5zM403 131q1 -34 -21 -69q-38 -61 -106 -84q-2 -1 -3 -1q-43 -13 -72 16q-5 4 -8 8q-12 14 -23 41q-2 9 2 17q9 12 20 24q48 47 91 75 q20 14 70 34q16 5 30 -8q21 -22 20 -53z" glyph-name="six" horiz-adv-x="543" unicode="6"/>
<glyph d="M110 263q1 -3 -1 -7l-1 -1q-36 -63 -57 -134q-15 -52 -15 -94q1 -8 -1 -22v-1q-4 -28 -3 -56q3 -22 17 -30q28 -14 59 -2q10 8 14 16l3 9q3 9 4 13q12 45 39 102q65 133 76 153l42 75q5 7 13 6q19 -2 26 -4q11 -3 30 -7q13 -1 24 4q14 7 7 22q-6 9 -15 15q-10 6 -23 11 q-12 4 -19 6q-5 4 -2 8q1 2 3 4q4 5 5 7q73 99 119 150q28 30 45 53q8 9 15 22q14 29 -11 49q-12 9 -30 14q-26 6 -51 6h-74q-66 0 -99 -1q-4 0 -140 -3q-22 0 -61 -2q-20 -2 -30 -6q-15 -8 -17 -14q-1 -3 -1 -5q2 -12 19 -18q10 -4 16 -5q17 -4 48 -6q16 0 49 -1 q48 -1 72 0q29 1 166 1q6 -1 7 -3q-50 -47 -101 -103q-71 -78 -108 -134q-7 -8 -15 -9q-28 -3 -53 -9q-42 -8 -62 -17q-19 -7 -29 -20q-13 -18 1 -31q9 -10 29 -15q21 -5 45 5q22 8 26 9z" glyph-name="seven" horiz-adv-x="534" unicode="7"/>
<glyph d="M224 -103h15q71 2 129 35q89 50 102 150q4 27 1 55q-6 51 -38 113q-8 15 -34 59q-5 7 2 11l1 1q45 29 82 74q37 44 53 95q20 71 -28 120q-19 19 -43 29q-37 16 -86 16q-115 -6 -178 -88q-60 -80 -29 -170q10 -29 22 -51q2 -8 -3 -12q-1 0 -3 -1q-42 -30 -81 -77 q-55 -64 -93 -161q-21 -55 10 -105q31 -48 92 -74q50 -20 107 -19zM141 65q-2 29 21 72q35 65 77 114q2 3 3 4q7 3 10 -1q14 -24 23 -44q28 -60 33 -94q5 -33 0 -58q-11 -59 -72 -85q-20 -6 -41 2q-20 9 -35 27q-20 27 -19 63zM422 515q-2 -31 -11 -52q-16 -40 -49 -77 q-7 -5 -11 1q-19 41 -22 71q-3 48 29 94q10 16 25 25q10 6 18 -2q19 -22 21 -60z" glyph-name="eight" horiz-adv-x="564" unicode="8"/>
<glyph d="M400 589q-3 -1 -5 1v1q-14 12 -34 19q-32 8 -68 7q-109 -10 -171 -100q-35 -49 -50 -120q-11 -57 -2 -104q16 -63 75 -75q58 -8 103 27q33 25 54 50q7 9 13 11l-6 -18q-42 -108 -76 -184q-28 -59 -66 -94q-41 -36 -100 -70q-12 -6 -22 -5q-19 2 -33 -8q-18 -15 0 -30 q8 -6 16 -9q20 -7 51 -3q36 5 82 31q36 20 112 77q33 25 63 63q60 74 93 183q7 21 20 65t20 65q32 103 43 143q16 57 20 84q3 27 -22 39q-26 11 -58 6q-37 -8 -45 -38q-5 -12 -7 -14zM191 295q3 66 29 125q25 62 60 102q15 17 34 29q11 6 19 -1q8 -6 17 -17q7 -10 11 -13 q6 -5 2 -12q-12 -21 -33 -62q-31 -58 -80 -109q-20 -21 -49 -45q-5 -4 -8 -4q-2 2 -2 6v1z" glyph-name="nine" horiz-adv-x="545" unicode="9"/>
<glyph d="M15 2q-17 -30 -10 -64q1 -7 7 -18q10 -12 25 -11q6 0 17 2q12 2 21 8q28 22 38 59q4 21 -1 39q-7 30 -36 32q-10 0 -19 -3q-12 -6 -19 -12q-15 -15 -23 -32zM144 481q-17 -30 -10 -64q1 -7 7 -18q10 -12 25 -11q6 0 17 2q12 2 21 8q28 22 38 59q4 21 -1 39q-7 30 -36 32 q-10 0 -19 -3q-12 -6 -19 -12q-15 -15 -23 -32z" glyph-name="colon" horiz-adv-x="255" unicode=":"/>
<glyph d="M65 -154q12 6 29 19q33 27 67 71q12 15 19 39q5 20 1 43q-12 32 -41 33t-50 -20q-12 -13 -10 -28q2 -14 1 -20q-1 -7 -3 -23q-3 -15 -4 -22q-6 -26 -27 -49q-11 -8 -16 -10q-6 -2 -15 -7q-10 -8 -13 -16q-3 -12 7 -18q11 -4 20 -3q21 4 35 11zM213 481q-17 -30 -10 -64 q1 -7 7 -18q10 -12 25 -11q6 0 17 2q12 2 21 8q28 22 38 59q4 21 -1 39q-7 30 -36 32q-10 0 -19 -3q-12 -6 -19 -12q-15 -15 -23 -32z" glyph-name="semicolon" horiz-adv-x="324" unicode=";"/>
<glyph d="M2 217q4 -37 31 -68q34 -38 65 -74q49 -57 103 -98q36 -27 67 -40q28 -10 57 -7q21 3 32 12q13 11 3 25q-5 6 -15 14q-13 9 -34 26q-54 50 -103 108q-41 50 -54 107q-5 29 16 48q13 10 17 13q28 20 83 57q85 58 112 80q10 8 14 13q11 16 -3 28q-7 6 -22 10q-38 8 -75 -10 q-27 -12 -48 -26q-84 -50 -126 -76t-70 -48q-20 -17 -29 -29q-23 -31 -21 -65z" glyph-name="less" horiz-adv-x="414" unicode="&lt;"/>
<glyph d="M116 208h-35q-21 1 -48 -4q-13 -2 -19 -6q-18 -11 -6 -29q7 -9 19 -16q22 -12 62 -16q11 -1 34 2q14 2 20 2q54 4 82 4q95 4 140 7q22 2 38 10q17 12 3 27q-11 9 -26 14q-24 7 -53 7q-123 2 -211 -2zM155 334q-51 2 -82 -2q-20 -2 -29 -6q-22 -11 -10 -32q3 -4 11 -12 q34 -23 85 -22q14 0 41 2q30 2 44 3q40 1 112 5q37 2 54 6q13 2 19 7q11 10 4 23q-8 9 -18 15q-21 11 -47 13q-40 4 -119 2q-46 -2 -65 -2z" glyph-name="equal" horiz-adv-x="426" unicode="="/>
<glyph d="M402 186q-4 37 -31 68l-42 48q-16 18 -23 26q-48 56 -102 98q-38 27 -68 40q-27 10 -57 7q-21 -3 -32 -12q-12 -11 -3 -25q6 -7 16 -14q12 -9 33 -26q54 -48 103 -108q41 -50 54 -107q5 -29 -16 -48q-13 -10 -17 -13q-28 -20 -83 -57q-85 -58 -112 -80q-10 -8 -14 -13 q-11 -16 3 -28q8 -7 22 -10q38 -8 75 10q22 9 49 26q84 50 125 76q36 22 70 48q20 17 29 29q23 31 21 65z" glyph-name="greater" horiz-adv-x="414" unicode="&gt;"/>
<glyph d="M97 697q1 -67 36 -110q31 -35 74 -58q29 -15 68 -15q24 2 37 10q15 10 4 24q-2 3 -3 4q-26 23 -55 68q-22 34 -25 69q-5 58 35 97q23 21 49 28q12 2 20 -3q18 -10 30 -33q18 -32 20 -77q2 -46 -14 -100q-27 -86 -86 -171q-45 -63 -129 -160q-40 -48 -57 -74 q-21 -34 -27 -56q-2 -8 -7 -26q-5 -17 -7 -25q-7 -25 -7 -42q-3 -63 57 -78q21 -4 43 -1q23 2 38 14q16 14 3 27q-3 3 -6 5q-9 5 -6 15q4 27 15 51t19 33t22 27q15 19 22 28q22 29 68 85t68 85q71 94 104 161q41 84 45 162q3 58 -17 106q-38 86 -123 110q-50 13 -105 8 q-93 -11 -155 -77q-46 -48 -48 -111zM92 -246q52 0 89 45q7 10 10 22q4 12 -2 23l-12 18q-13 20 -33 27q-2 0 -5 2q-6 1 -9 2q-49 13 -91 -10q-27 -16 -35 -45q-6 -33 9 -51q9 -12 19 -17q25 -16 60 -16z" glyph-name="question" horiz-adv-x="557" unicode="?"/>
<glyph d="M424 273q2 -2 2 -4v-1q4 -26 11 -45q31 -72 102 -84q57 -8 109 22q36 21 68 58q42 50 67 108q19 46 29 107q5 40 3 66q-3 46 -24 93q-34 77 -104 120q-66 38 -149 46q-77 5 -155 -21q-95 -35 -175 -111q-41 -41 -71 -84q-66 -92 -101 -193q-28 -81 -32 -151 q-5 -67 2 -113q13 -94 65 -167q43 -62 104 -93q73 -38 153 -32q40 3 74 16q64 24 114 71q40 39 80 85q50 58 73 94q17 24 25 45q2 5 4 16q-1 14 -13 19q-13 3 -21 -8q-3 -4 -6 -11q-5 -12 -16 -31q-13 -20 -38 -55q-44 -56 -91 -106q-35 -38 -67 -60q-65 -45 -133 -44 q-72 2 -124 51q-43 41 -64 106q-20 68 -17 153q3 69 19 131q29 122 84 219q51 94 118 151q57 49 120 70q67 20 126 2q49 -16 92 -52q36 -29 55 -66q16 -32 23 -74q13 -75 -5 -137q-17 -61 -51 -109q-28 -41 -57 -63q-28 -23 -58 -31q-11 -1 -19 3q-9 6 -15 15q-10 18 -13 31 q-7 38 -1 78q5 31 21 90q13 41 14 48q3 16 -12 25q-1 1 -2 1q-30 9 -54 -5q-9 -4 -15 0q-14 8 -38 13q-25 4 -56 -1q-57 -9 -88 -49q-65 -86 -57 -191q0 -15 7 -34q9 -25 31 -32q35 -10 66 7q14 9 25 23q19 21 41 54zM338 257q0 5 2 9q20 64 33 95q12 28 28 47q12 11 15 13 q6 2 8 -1q7 -9 15 -32q0 -5 -3 -9q-38 -50 -58 -74q-5 -7 -16 -20q-13 -16 -19 -23z" glyph-name="at" horiz-adv-x="827" unicode="@"/>
<glyph d="M264 204q0 -2 -1 -4l-1.5 -3l-1.5 -3l-2 -2q-20 -26 -60 -79q-63 -83 -93 -124q-57 -81 -71 -103l-3 -6q-2 -3 -3 -5q-3 -13 8 -19q7 -4 17 -4q27 1 45 23q12 15 34 45q24 31 35 46q134 179 175 237q7 8 16 10q36 2 106 2q59 0 89 -3q5 0 15 -2q11 -1 16 -1q8 -6 8 -11 v-8q-1 -6 -1 -9q-2 -85 5 -137q13 -81 35 -135q32 -75 81 -119q58 -51 133 -53q19 -1 67 6q53 9 88 24q13 5 21 13q15 14 1 25q-4 3 -7 4q-13 3 -24 2q-6 -1 -18 -4l-12 -3q-10 -2 -29 -4q-18 -3 -27 -4q-27 -3 -51 12q-21 13 -39 36q-34 41 -54 105q-29 92 -26 203 q0 37 3 74q2 37 8 108q5 43 25 175q13 73 45 216q14 63 17 93q0 30 -26 38h-5q-3 1 -4 1q-56 4 -84 -39q-38 -59 -158 -221q-92 -126 -139 -189q-48 -64 -89 -122q-8 -8 -16 -9q-19 -1 -57 -4q-40 -2 -59 -4q-55 -5 -91 -15q-50 -15 -79 -37q-10 -9 -16 -17q-14 -24 5 -44 q24 -23 61 -20q6 1 13 6q10 9 31 19q44 20 116 38q23 5 28 5zM672 653q1 -5 -1 -11q-18 -61 -36 -150q-25 -135 -29 -159l-3 -27q-3 -21 -4 -31q-1 -3 -1 -6q-2 -8 -5 -8t-7 1q-61 13 -137 15q-7 1 -20 1q-14 1 -20 1q-6 1 -7 2q-2 3 2 6l1 1l39 54q26 35 39 53 q118 164 179 245q6 9 10 13z" glyph-name="A" unicode="A"/>
<glyph d="M284 536q1 3 2 5q7 16 38 80q34 75 51 129q12 40 13 52q2 33 -28 46q-23 9 -52 6q-32 -6 -48 -32l-3 -6q-34 -56 -73 -131q-50 -96 -83 -169q-36 -80 -49 -122q-29 -87 -49 -197q-2 -14 -2 -21q0 -31 28 -41q20 -6 46 -3q30 6 42 28q1 2 5 7t5 7q74 123 152 233 q74 103 150 183q55 57 100 94q58 48 116 77q6 4 9 5q7 0 7 -5q0 -7 -1 -10q-3 -19 -9 -36q-25 -77 -74 -146q-45 -61 -89 -97q-55 -44 -154 -92q-2 -2 -7 -4q-8 -4 -11 -7q-14 -18 1 -31q11 -8 19 -11q25 -7 47 -5q24 3 51 14q14 5 39 11q44 10 79 14q51 5 83 1 q31 -5 45 -31q19 -39 14 -74q-1 -8 -4 -24q-2 -13 -3 -19q-16 -77 -39 -127q-29 -65 -81 -120q-45 -49 -97 -79q-32 -17 -92 -38q-58 -18 -105 -12q-54 8 -84 21q-26 14 -37 29q-16 23 -1 48q7 10 18 18q30 23 66 34q30 9 62 15q54 8 80 7q37 -3 56 -21q7 -7 22 -16 q20 -11 39 -10q23 4 33 23q7 18 -6 37q-17 21 -51 35q-36 13 -92 17q-59 1 -116 -9q-83 -14 -142 -38q-50 -21 -83 -58q-46 -49 -10 -107q15 -23 36 -39q34 -25 82 -42q108 -36 222 -24q112 13 208 61q91 46 152 117q99 114 120 245q9 59 5 96q-10 64 -57 101q-26 19 -60 32 q-38 15 -106 21q-10 0 -11 1q1 3 4 6l1 1q45 35 83 79q60 72 86 144q21 56 19 98q-3 53 -47 73q-21 9 -46 11q-41 2 -83 -15q-52 -20 -111 -64q-64 -47 -112 -93q-42 -42 -63 -64q-42 -48 -65 -72z" glyph-name="B" horiz-adv-x="948" unicode="B"/>
<glyph d="M182 79q-1 34 5 72q14 80 44 164q30 80 65 143q67 119 153 194q73 61 155 87q35 12 62 11q45 -4 66 -38q19 -30 13 -66q-11 -79 -80 -135q-22 -17 -44 -25q-13 -5 -14 -14q1 -10 13 -15q8 -4 22 -6q39 -3 75 15q34 18 68 47q50 46 72 104q17 46 6 89q-17 56 -70 85 q-55 31 -133 34q-33 1 -81 -6q-95 -16 -176 -61q-109 -63 -199 -159q-43 -45 -78 -98q-54 -79 -87 -171q-32 -92 -36 -167q-5 -93 18 -166q35 -110 133 -170q83 -50 192 -55q70 -4 147 17q116 31 214 109q60 48 93 94q22 31 27 59q3 13 7 36q4 30 0 45q-8 30 -34 40 q-21 7 -44 4q-21 -2 -32 -12q-15 -13 -4 -27q6 -9 5 -16q-4 -34 -14 -53q-33 -68 -75 -109q-80 -79 -184 -107q-60 -16 -108 -7q-100 21 -141 114q-22 54 -21 120z" glyph-name="C" horiz-adv-x="950" unicode="C"/>
<glyph d="M285 482q-2 3 -1 8q38 93 72 189q24 64 32 97q4 15 6 30q0 20 -18 30q-15 7 -31 7q-52 0 -75 -37q-13 -20 -21 -37q-7 -15 -21 -47t-21 -47q-44 -92 -82 -193q-32 -87 -60 -179q-20 -68 -28 -122q-5 -34 -2 -56q4 -30 31 -38q58 -13 91 26q8 10 11 14q9 12 25 37 q11 18 17 26q23 32 62 95q14 23 41 68q27 46 41 68q86 144 157 230q62 74 117 112q24 18 41 25q9 4 15 -2l2 -2q12 -16 17 -28q29 -73 37 -151q2 -22 2 -63q-4 -73 -9 -110q-27 -180 -107 -324q-57 -100 -120 -159q-57 -53 -115 -79q-84 -34 -164 -16q-33 7 -54 23 q-22 16 -10 41q5 10 13 17q21 16 55 25q29 6 69 10q71 7 117 -6q27 -8 53 -5q26 4 37 14q21 16 4 38l-11 8q-10 7 -27 14q-50 18 -128 18q-81 0 -147 -15q-64 -16 -94 -30q-47 -26 -67 -64q-25 -49 8 -89q14 -15 28 -24q36 -23 75 -33q91 -25 189 -17q53 4 113 22 q134 44 238 154q49 53 89 118q59 100 91 217q31 111 31 210q0 97 -14 156q-15 70 -42 121q-21 35 -41 51q-46 35 -109 35q-74 -1 -142 -48q-71 -50 -147 -148q-56 -75 -105 -161q-5 -9 -14 -24z" glyph-name="D" horiz-adv-x="950" unicode="D"/>
<glyph d="M287 382q-2 -3 -8 -5q-42 -15 -86 -35q-69 -35 -114 -81q-54 -58 -78 -116q-22 -61 -16 -108q9 -73 67 -128q58 -56 142 -88q51 -18 113 -26q80 -11 150 -4q102 10 204 59q86 41 138 95q26 26 37 45q11 18 11 36q0 42 -13 70q-12 25 -34 35q-26 10 -51 6q-10 -2 -15 -6 q-14 -10 -6 -23q4 -5 6 -11q2 -31 -10 -55q-10 -20 -26 -39q-33 -43 -97 -79q-70 -40 -163 -53q-69 -8 -119 3q-71 17 -117 63q-40 42 -37 98q5 43 24 82q33 64 91 127q46 51 111 72q59 19 95 20q16 0 24 2q22 4 32 12q20 17 2 36q-9 8 -13 10q-17 8 -30 11q-36 8 -53 13 q-42 14 -60 26q-35 25 -27 67q3 15 12 36q24 50 69 92q110 98 251 100q31 -1 49 -11q34 -25 30 -74q-2 -20 -12 -44q-19 -39 -54 -73q-27 -24 -93 -65l-9 -6q-17 -15 1 -30q7 -5 20 -9q24 -7 55 -1q37 7 85 33q81 47 128 129q17 28 21 60q5 59 -39 102q-36 32 -88 47 q-68 20 -143 17q-134 -7 -246 -58q-86 -41 -141 -100q-43 -47 -62 -96q-11 -28 -10 -48q1 -50 37 -87q27 -25 56 -39z" glyph-name="E" horiz-adv-x="974" unicode="E"/>
<glyph d="M641 253q-1 4 1 11q59 203 93 288q32 80 55 117q34 54 63 80q42 36 88 38q43 0 65 2q22 4 33 7q11 4 15 8q14 14 2 29q-11 12 -26 18q-15 5 -33 7q-40 4 -119 -6q-6 0 -19 -3q-13 -2 -19 -3q-246 -16 -321 -26q-60 -8 -89 -13q-84 -17 -165 -45q-89 -32 -143 -67 q-50 -34 -81 -71q-37 -43 -50 -96q-11 -54 9 -95q20 -40 56 -70q44 -36 104 -54q38 -12 66 -8q13 1 24 7q11 9 3 21q-4 4 -11 8q-9 5 -17 8q-50 21 -93 70q-32 39 -25 91q6 41 35 78q36 45 96 76q62 33 148 58q107 31 253 46q28 2 41 4q4 1 13 1.5t13 0.5q-1 -2 -3 -5l-2 -3 q-28 -28 -40 -44q-59 -78 -95 -160q-45 -107 -91 -270q-3 -13 -11 -40q-7 -26 -10 -39q-4 -11 -13 -14q-5 -1 -25 -9q-87 -33 -147 -69q-92 -58 -148 -134q-44 -63 -51 -126q-4 -53 20 -92q27 -41 75 -58q94 -32 181 18q44 25 89 75q49 55 83 128q53 114 89 225q6 14 16 17 q74 20 122 28q20 3 40 3q8 -1 8 -8v-4q-2 -33 2 -49q9 -26 29 -37q24 -12 51 -9q19 4 26 11q12 12 -1 21q-11 8 -11 20t1 17q5 56 30 103q14 22 21 48q6 24 -15 34q-11 6 -23 6q-48 4 -69 -29q-19 -28 -24 -52q-3 -11 -6 -11q-4 0 -9 1q-33 3 -59 2q-42 -3 -77 -10 q-12 -2 -18 -2zM418 98q1 -1 0 -4v-1q-43 -123 -67 -169q-30 -56 -54 -87q-29 -35 -71 -62q-5 -3 -10 -5q-12 -6 -18 3l-2 2q-19 27 -16 64q3 59 45 112q60 75 159 131l12 6q9 5 13 7q6 3 9 3z" glyph-name="F" horiz-adv-x="990" unicode="F"/>
<glyph d="M585 39q1 -4 -2 -9v-1q-46 -115 -93 -188q-54 -83 -108 -132q-56 -51 -132 -73q-32 -8 -61 3q-31 14 -17 44q10 20 32 34q45 29 97 43q24 5 41 0q22 -7 38 -6q17 2 26 9q12 11 4 25q-4 9 -15 15q-13 8 -28 11q-43 13 -100 4q-89 -16 -176 -76q-9 -6 -20 -19 q-36 -43 -10 -90q7 -12 17 -21q16 -14 29 -21q46 -22 108 -26q69 -4 140 19q105 35 194 120q65 66 123 169q64 120 99 251q11 40 16 86q1 20 -13 33q-13 11 -33 16q-73 13 -112 -33q-1 -2 -5 -5q-3 -4 -4 -5q-57 -65 -64 -72q-39 -39 -118 -106q-55 -45 -111 -77 q-40 -22 -73 -30q-21 -5 -40 9l-11 11q-31 38 -35 97q-2 33 5 82q9 58 37 135q41 107 89 189q66 111 166 205q61 56 133 85q30 10 53 13q47 3 76 -33q37 -50 13 -111q-16 -39 -52 -82q-30 -38 -72 -56q-10 -6 -13 -10q-5 -10 1 -19q5 -5 10 -6q20 -10 43 -7q41 5 75 28 q63 41 101 95q28 39 37 68q22 74 -24 128q-38 42 -86 59q-81 26 -167 11q-104 -18 -196 -79q-102 -67 -184 -168q-111 -135 -176 -300q-38 -97 -35 -190q4 -64 26 -109q33 -65 98 -95q68 -29 149 -20q55 7 115 37q73 36 162 112q23 21 33 29z" glyph-name="G" horiz-adv-x="895" unicode="G"/>
<glyph d="M224 233q-1 -4 -3 -10q-30 -86 -47 -129q-11 -26 -29 -80q-13 -39 -20 -58q-3 -10 -10 -31q-15 -41 -20 -62q-9 -34 -9 -46q-1 -24 16 -33l6 -3q24 -10 57 -7q30 6 45 27q8 14 23 48q5 12 28 72q10 25 29 73q16 38 23 56q16 41 50 120q22 50 32 75q5 9 15 10q22 2 34 2 q59 4 119 6h64q24 1 71 -5q11 -1 11 -7q0 -3 -1 -6q-10 -46 -14 -69q-12 -64 -15 -96q-5 -63 -3 -105q4 -52 17 -86q19 -51 53 -77q6 -4 17 -12q12 -9 17 -13q66 -46 133 -60q51 -10 88 0q23 6 33 16q13 13 9 24q-6 11 -22 13q-22 1 -44 -5q-17 -5 -34 1q-43 17 -75 46 q-12 11 -17 22q-20 39 -22 85q0 59 7 109q16 103 33 172q43 173 96 313q46 120 66 182q12 40 13 61q2 22 -18 33q-40 21 -79 4q-22 -10 -34 -30q-1 -3 -5 -7q-3 -5 -4 -7q-42 -86 -63 -130q-54 -117 -87 -219q-18 -57 -23 -74q-3 -8 -7 -7q-2 1 -4 1q-2 1 -8 3q-4 1 -6 2 q-51 15 -106 18q-95 6 -142 4q-14 0 -14 4q1 4 4 12q37 83 65 158q39 108 44 124q15 60 15 96q-1 50 -39 75q-26 17 -63 21q-41 5 -90 -8q-116 -35 -199 -93q-63 -45 -92 -84q-26 -39 -31 -65q-5 -50 31 -78q36 -24 76 -29q26 -1 42 7q23 11 5 28l-2 2q-2 1 -4 3q-4 3 -5 4 q-14 9 -16 11q-15 15 -17 29q-1 27 7 43q10 21 26 42q24 25 50 44q52 37 115 60q20 8 52 17q9 2 11 -6v-2q0 -17 -2 -25q-15 -55 -48 -142q-19 -47 -60 -140q-32 -72 -47 -108q-5 -9 -14 -11q-17 -1 -101 -11q-59 -7 -108 -31q-27 -15 -38 -30q-17 -30 3 -54q33 -35 82 -32 q13 1 20 8q6 8 22 15q13 4 38 12q18 5 48 10z" glyph-name="H" horiz-adv-x="980" unicode="H"/>
<glyph d="M701 736q2 -4 0 -7q-5 -28 -21 -79q-52 -168 -57 -182l-36 -111q-42 -131 -65 -195q-50 -134 -112 -234q-46 -70 -92 -109q-39 -32 -81 -45q-26 -6 -49 -1q-25 8 -31 32q-3 20 6 38q24 49 74 76q8 4 17 1q25 -10 44 -13q23 -1 36 5q26 14 12 38q-1 1 -1 2q-3 7 -13 15 l-1 1q-15 11 -41 18q-65 17 -134 -8q-52 -19 -96 -61q-28 -28 -44 -55q-17 -28 -13 -54q5 -38 39 -68q30 -24 70 -35q94 -27 188 -6q93 20 178 99q37 35 77 94q36 55 71 128q49 103 87 212q1 3 87 270q31 103 54 209q8 44 7 65q-1 31 -28 48q-10 5 -27 11q-39 8 -80 -2 q-12 -4 -52 -20q-113 -49 -174 -89q-56 -37 -91 -78q-22 -27 -29 -58q-9 -41 14 -71q41 -51 105 -46q14 2 26 11q6 7 0 13q-1 1 -4 3q-24 10 -30 48q-1 14 1 23q10 28 23 46q18 20 41 39q53 44 127 75q13 6 18 7z" glyph-name="I" horiz-adv-x="796" unicode="I"/>
<glyph d="M834 758q2 -5 -2 -11q-6 -18 -16 -55q-12 -36 -17 -54q-55 -184 -101 -318q-49 -139 -112 -265q-25 -52 -59 -105q-5 -7 -12 -7q-32 -2 -48 -4q-104 -15 -125 -19q-79 -16 -133 -36q-84 -31 -137 -75q-42 -34 -60 -69q-28 -61 15 -108q16 -15 31 -23q32 -17 78 -22 q80 -9 171 20q89 30 177 99q82 66 140 140q8 8 16 8q42 -2 63 -4q62 -5 106 -19q40 -14 64 -39q17 -18 34 -29q23 -15 44 -10q27 5 48 27q29 30 8 64q-2 5 -5 8q-7 9 -22 22q-26 22 -73 38q-62 22 -163 31q-2 0 -40 3q-6 2 -4 7q1 1 3 4q48 77 89 171q54 121 106 296 q14 47 40 138q33 116 45 168q11 46 11 78q-1 28 -25 41q-26 12 -65 10q-39 -3 -106 -29q-31 -12 -92 -36q-44 -17 -65 -25q-191 -74 -319 -144q-88 -47 -147 -95q-68 -56 -101 -119q-23 -46 -23 -81q1 -50 38 -79q12 -9 27 -15q39 -18 89 -13q32 4 54 14q10 6 17 12 q17 17 -1 28l-6 3q-8 3 -20 3q-40 -1 -52 35q-1 6 -2 11q-3 31 11 65q25 55 81 101q70 58 169 108q134 70 370 154q1 0 3 1h5zM451 -153q-3 -5 -14 -18q-78 -87 -163 -134q-38 -21 -67 -25q-16 -1 -30 4q-25 12 -21 38q4 20 23 39q26 27 58 43q50 27 109 40q34 7 99 13h6z " glyph-name="J" horiz-adv-x="942" unicode="J"/>
<glyph d="M327 227q2 3 9 6q90 40 162 76q24 12 72 37q49 24 73 36q106 50 202 125q88 68 135 123q38 44 56 77q19 35 23 64q5 38 -23 55q-38 21 -81 11q-24 -8 -30 -29q-12 -38 -35 -74q-34 -54 -84 -102q-52 -51 -108 -89q-76 -47 -86 -53l-39 -24q-42 -25 -63 -37 q-78 -40 -117 -61q-14 -6 -21 -10q-2 3 0 7l1 1q11 34 33 100q23 67 34 100q34 106 49 160q9 35 9 58q0 27 -25 35q-29 10 -59 -1q-19 -7 -29 -23q-2 -3 -4 -6.5t-3 -6t-3 -7t-3 -6t-3 -7t-2.5 -6.5t-2.5 -8l-3 -6q-12 -32 -37 -96l-24 -60q-52 -130 -119 -317 q-7 -17 -25 -19q-22 -1 -53 -10q-15 -5 -27 -13q-24 -15 -9 -35q4 -5 9 -8q13 -8 29 -11q22 -3 40 -2q0 -4 -2 -9q-24 -70 -37 -105q-51 -140 -87 -280q-3 -13 6 -23q10 -8 20 -11q32 -10 70 -1q27 10 38 36q2 4 5 12l6 12q27 55 44 97q41 101 83 224q0 3 2 6q3 4 7 2 q4 -3 5 -4q32 -26 61 -55l93 -93q89 -90 180 -137q113 -57 194 -80q80 -22 145 -18q30 4 51 12q12 6 19 15q10 15 -2 27q-9 7 -23 11q-22 5 -49 0q-28 -6 -57 0q-63 13 -141 47q-58 27 -96 65q-74 79 -87 94q-72 83 -118 123q-71 58 -140 84q-7 4 -8 5z" glyph-name="K" horiz-adv-x="907" unicode="K"/>
<glyph d="M621 288v3.5t1 3.5l1 3q32 118 47 177q42 172 63 279q8 38 8 59q-3 21 -19 31q-20 11 -52 11q-29 -3 -58 -21q-12 -8 -37 -22q-25 -16 -37 -23q-84 -54 -123 -86q-60 -48 -93 -94q-55 -75 -40 -167q14 -84 80 -146q35 -31 70 -40q14 -3 14 -8q-1 -3 -4 -11 q-21 -56 -69 -163q-3 -8 -17 -35q-4 -8 -9 -6q-2 0 -5 1q-1 1 -2 1q-67 21 -134 13q-96 -13 -161 -82q-24 -28 -36 -61q-10 -34 -7 -79q7 -51 50 -78q39 -26 90 -29q73 -5 145 36q47 28 103 86q7 8 11 6q2 -2 5 -4q38 -31 89 -64q122 -74 241 -91q66 -10 122 -3q54 6 107 34 q38 19 62 38q18 15 26 31q10 25 -11 42q-28 21 -69 12q-11 -3 -19 -7q-9 -7 -11 -13q-3 -9 -12 -16q-38 -27 -67 -38q-32 -12 -61 -11q-30 0 -66 14q-53 22 -115 67q-38 27 -107 84q-6 4 -18 14t-18 14q-5 7 -2 12q2 4 3 5q6 10 17 30q19 34 28 50q36 73 72 173q5 10 10 11 q2 1 6 1q63 6 116 33q36 20 52 58q6 16 6 23q-1 11 -7 17q-13 14 -37 11q-6 -1 -9 -2q-8 -7 -8 -13q1 -7 -4 -12q-12 -21 -33 -33q-25 -12 -32 -15q-22 -10 -36 -11zM592 727q-4 -16 -7 -25q-18 -56 -46 -167q-28 -101 -47 -160q-6 -18 -9 -26q-3 -7 -4 -7q-3 -1 -6 4v1 q-8 10 -19 27q-26 48 -36 92q-10 50 13 104q20 44 67 86q27 25 84 66q7 4 10 5zM124 -149q0 15 5 26q20 51 65 83q2 2 8 4q6 4 8 5q19 7 35 -1q15 -8 46 -30q5 -4 0 -11q-17 -25 -39 -52q-23 -27 -47 -50q-19 -18 -45 -30q-9 -3 -15 3q-21 22 -21 53z" glyph-name="L" horiz-adv-x="849" unicode="L"/>
<glyph d="M1017 459q1 -3 0 -6q-5 -22 -17 -63q-46 -160 -65 -293q-13 -80 -4 -144q10 -52 30 -79q6 -10 10 -14q49 -74 118 -118q86 -53 177 -41q33 5 56 20q8 7 12 13q8 19 -11 25q-3 1 -14 3q-23 0 -44 -3q-35 -7 -66 13q-53 33 -94 95q-10 16 -14 31q-6 32 -7 49q-3 61 5 113 q8 59 34 172q9 36 62 231q36 140 38 152q12 61 13 78q0 30 -24 44q-12 6 -19 7q-23 6 -47 3q-39 -7 -55 -38q-34 -65 -91 -148q-28 -41 -83 -121q-56 -81 -83 -121q-71 -105 -167 -253q-3 -3 -8 -10q-1 1 -1 4l1 2q27 126 57 252q1 3 54 234q5 21 15 62q15 63 22 94 q9 47 10 61q0 30 -28 43q-32 12 -64 6q-33 -8 -48 -32q-2 -3 -24 -39q-83 -133 -96 -151q-31 -44 -91 -133q-61 -89 -91 -133l-96 -141q-31 -44 -92 -127q-108 -144 -170 -209q-2 -2 -5 -6l-6 -6q-7 -13 5 -22q5 -3 13 -5q30 -6 59 11q20 12 33 25q59 57 130 149 q31 39 162 224q3 3 4 5q20 28 59 85q62 90 94 135q3 4 5 5l-2 -11q-2 -8 -4.5 -15.5t-5 -18t-3.5 -15.5t-4.5 -17.5t-4 -15t-4.5 -18.5l-3 -15q-19 -88 -38 -210q-9 -56 -10 -97q-3 -56 1 -105q4 -35 10 -51q9 -20 26 -29q30 -12 63 -5q25 7 36 27q8 14 23 42q22 42 34 62 q84 144 130 214q27 42 185 265q7 9 12 17z" glyph-name="M" horiz-adv-x="1218" unicode="M"/>
<glyph d="M451 316l-2 1q2 8 4 12q33 99 43 127q5 14 14 43q14 41 20 61q29 109 32 158q1 27 -5 47q-22 72 -94 92q-71 19 -150 2q-154 -38 -248 -156q-44 -57 -54 -116q-10 -65 38 -103q41 -31 92 -22q15 2 23 9q10 10 2 20q-2 2 -6 5l-6 6q-17 16 -24 29q-21 41 -2 90 q21 50 65 90q65 58 152 83q19 6 35 6q15 0 23 -12q9 -18 11 -34q4 -29 -5 -77q-3 -18 -22 -91q-19 -74 -45 -139q-39 -93 -70 -163q-49 -111 -78 -224q-24 -95 -41 -178q-6 -32 -6 -47q1 -19 17 -27q23 -10 54 -5q22 6 30 25l4 8q2 5 3 7q10 30 37 76q76 132 173 259 q23 30 71 90t71 90q38 49 94 114q30 34 93 101q57 63 97 99q2 2 23 20q0 -4 -2 -11q-25 -57 -73 -170q-57 -137 -87 -227q-20 -57 -33 -112q-17 -70 -22 -160q-2 -25 2 -73v-1q4 -37 16 -68q10 -25 30 -43q49 -48 111 -75q92 -41 179 -32q37 4 57 17q10 6 14 13q8 12 -3 22 q-6 5 -14 7q-27 7 -55 4q-29 -3 -55 6q-51 15 -95 51q-15 12 -25 31q-8 20 -11 36q-6 47 4 108q4 31 26 109q20 77 66 228q34 108 62 182q41 105 61 171q11 29 12 60q0 37 -34 53q-6 2 -13 4q-45 12 -85 -6q-28 -12 -57 -36q-58 -45 -125 -105q-79 -72 -153 -158 q-96 -113 -154 -192q-1 -1 -4 -5q-2 -3 -3 -4z" glyph-name="N" horiz-adv-x="1003" unicode="N"/>
<glyph d="M486 757q-1 15 -13 21q-22 10 -48 7q-39 -3 -77 -23q-64 -35 -120 -100q-72 -86 -123 -203q-19 -43 -49 -128q-38 -113 -37 -242q2 -55 15 -107q21 -77 72 -127q81 -77 198 -77q94 -1 189 49q74 42 147 111q93 92 157 196q60 98 90 198q27 89 29 178q0 58 -8 104 q-11 62 -29 101q-43 86 -130 107q-49 11 -106 3q-79 -14 -146 -62q-9 -5 -11 -6zM477 748q-21 -18 -33 -31q-74 -78 -104 -180q-15 -57 -8 -111q1 -8 2 -24l3 -24q10 -69 38 -117q40 -68 118 -72q46 -3 82 15q19 9 29 25q14 25 -11 40q-14 7 -25 7t-16 -1q-10 0 -14 9 q-13 32 -24 80l-3 18q-2 13 -3 19q-5 38 8 92q26 99 77 170q32 45 77 75q23 14 33 10q7 -3 19 -12q27 -23 46 -63q23 -54 26 -115q7 -102 -32 -215q-36 -101 -86 -187q-43 -72 -93 -130q-51 -58 -106 -101q-60 -47 -123 -66q-11 -4 -19 -5q-44 -6 -80 36q-29 36 -42 90 q-17 68 -11 145q9 115 40 222q49 167 118 276q38 60 72 95q17 17 31 25q8 5 14 5z" glyph-name="O" horiz-adv-x="935" unicode="O"/>
<glyph d="M299 302q-1 4 1 10v1q14 45 45 134q22 62 32 92q35 103 51 179q6 37 5 56q-3 28 -27 37q-40 14 -80 -4q-15 -9 -19 -22q-3 -10 -9 -25t-17 -44q-19 -50 -28 -75q-36 -102 -55 -153q-34 -93 -44 -123q-47 -145 -89 -320q-46 -195 -50 -231q-6 -44 -3 -66q4 -35 38 -44 q23 -7 49 -2q34 9 53 35q15 21 40 71q59 158 125 304l57 126q1 1 2 3l4 4l2 -2q19 -30 55 -48q30 -15 71 -23q64 -13 144 -5q48 5 93 28q56 32 96 101q33 61 57 152q31 119 34 232q1 54 -14 93q-17 45 -63 62q-65 23 -139 -4q-42 -15 -99 -62q-68 -59 -134 -150 q-83 -116 -153 -253l-16 -32q-10 -22 -15 -32zM437 361q1 6 4 11q60 112 95 165q56 85 110 144q51 55 98 83q14 8 17 2q2 -4 3 -11q4 -25 3 -51q-10 -162 -55 -301q-26 -74 -67 -118q-10 -11 -29 -26q-13 -9 -26 -8q-36 4 -58 17q-25 17 -23 44q0 16 -7 30q-12 25 -42 24 q-3 -1 -5 -1q-3 -1 -9 -2q-6 -2 -9 -2z" glyph-name="P" horiz-adv-x="916" unicode="P"/>
<glyph d="M516 -137q5 1 12 5q49 21 101 58q94 69 177 177q70 90 117 205q43 107 46 214q2 60 -6 104q-11 58 -26 93q-38 81 -121 102q-51 13 -103 4q-76 -12 -139 -57q-8 -5 -9 -5q1 14 -12 21q-22 8 -45 7q-39 -3 -73 -21q-48 -25 -94 -70q-38 -39 -78 -99q-45 -70 -83 -162 q-33 -81 -47 -139q-14 -56 -18 -139q-1 -64 9 -114q27 -123 134 -180q5 -4 6 -5q-7 -2 -10 -2q-47 -7 -100 -20q-52 -14 -89 -39q-21 -13 -33 -28q-28 -34 -3 -64q5 -6 11 -10q20 -14 43 -19q25 -3 42 6l26 13q69 33 127 48q50 12 133 18q65 5 117 1q25 -2 53 -8 q15 -4 22 -12q14 -14 20 -22q25 -25 49 -35q22 -8 45 2q19 11 21 32q-1 17 -10 32q-13 19 -32 37q-43 34 -115 55q-11 3 -34 8q-21 5 -31 8zM497 -54l15 24q9 17 14 25q7 12 23 37q25 43 38 64q9 15 30 44q11 16 16 23q30 46 45 81q6 16 7 24q3 23 -17 32q-17 7 -36 7 q-18 -1 -22 5q-3 5 -6 14q-20 58 -23 114q-2 26 10 73q24 91 75 161q34 44 74 69q22 14 31 9q6 -3 17 -11q25 -21 43 -61q21 -49 24 -109q4 -99 -34 -202q-33 -93 -84 -177q-42 -70 -89 -122q-48 -54 -102 -95q-16 -12 -47 -31zM554 755q-1 -3 -5 -6q-92 -80 -126 -196 q-14 -47 -8 -101q1 -8 2 -22q1 -16 2 -23q9 -66 33 -111q28 -46 71 -63q7 -2 7 -4q0 -3 -3 -7q-17 -23 -39 -65q-20 -38 -61 -111q-33 -58 -59 -107l-4 -8q-5 -9 -10 -5q-2 1 -3 2q-23 21 -38 55q-17 36 -24 92q-8 62 6 151q26 168 98 322q39 82 96 153q28 33 53 49 q8 5 12 5z" glyph-name="Q" horiz-adv-x="984" unicode="Q"/>
<glyph d="M273 305h-2q1 1 1 5q2 4 2 5q11 35 36 104q17 47 25 70q50 138 67 210q10 41 11 76q-1 28 -23 38q-43 18 -86 -3q-13 -7 -18 -21q-6 -16 -9 -23q-12 -34 -38 -97q-9 -26 -28 -78t-28 -78q-7 -18 -21 -53q-19 -50 -28 -75q-42 -126 -87 -296q-31 -120 -41 -210 q-5 -36 -1 -58q7 -23 26 -32q28 -12 62 -6q34 7 54 37q11 16 18 31q9 18 79 165q38 82 76 167q7 11 17 5q1 -1 4 -3t4 -3q33 -30 60 -78q15 -27 49 -97q39 -75 58 -104q41 -59 80 -88q90 -67 191 -92q84 -19 148 -9q30 7 43 12q15 6 23 16q9 14 -3 24q-7 5 -16 7 q-28 6 -53 0q-41 -7 -71 -3q-56 7 -124 43q-34 19 -55 58q-21 42 -65 147q-42 93 -81 141l-3 3q0 3 3 5q7 0 11 -1q60 -3 109 5q98 20 154 104q32 49 56 121q33 100 45 207q10 86 3 130q-3 24 -12 46q-15 33 -48 50q-16 8 -38 13q-75 13 -144 -24q-32 -18 -66 -45 q-73 -61 -143 -158q-76 -105 -145 -234zM413 364q-2 2 0 6l1 1q85 156 154 244q55 72 108 116q21 18 46 32q6 4 9 5q8 2 10 -4q5 -20 5 -37q0 -40 -4 -72q-16 -122 -41 -210q-21 -69 -47 -114q-23 -37 -55 -64q-21 -17 -46 -13q-30 6 -47 16q-21 15 -22 39l-3 27 q-9 30 -40 33q-7 0 -12 -1q-3 -1 -9 -2q-5 -2 -7 -2z" glyph-name="R" horiz-adv-x="892" unicode="R"/>
<glyph d="M330 -130q-65 3 -140 25q-32 9 -49 25q-20 18 -4 40q9 11 19 18q58 42 128 48q36 1 60 -8q6 -2 18 -7t18 -7q33 -11 56 -11q19 0 20 17q0 4 -1 8q-4 11 -10 17q-18 21 -49 36q-76 34 -158 33q-99 -4 -178 -48q-44 -24 -68 -56q-20 -29 -8 -61q11 -24 36 -46 q31 -28 86 -53q78 -34 189 -49q66 -8 118 -11q69 -3 129 1q76 6 125 21q43 12 73 32q65 47 51 122q-8 34 -24 64q-39 73 -105 151q-5 6 -79 88q-10 11 -28 29q-75 82 -103 120q-35 47 -47 91q-20 79 33 139q23 24 48 41q101 68 220 79q37 2 55 -2q13 -5 18 -18q5 -16 3 -33 q-6 -52 -38 -85q-33 -33 -76 -63q-34 -22 -77 -40q-15 -7 -16 -17q0 -11 14 -19q22 -12 44 -12q30 2 50 8q102 32 168 98q33 33 55 73q22 44 7 85q-12 28 -37 48q-29 23 -70 38q-91 32 -203 23q-69 -6 -145 -30q-99 -32 -160 -77q-54 -40 -79 -86q-24 -44 -24 -85 q0 -58 27 -113q25 -53 77 -113q13 -15 113 -121q13 -13 23 -24q96 -103 110 -119q5 -7 9 -12q16 -18 33 -43q20 -36 24 -61q4 -27 -7 -46q-11 -14 -27 -22q-24 -10 -58 -15q-85 -11 -189 -5z" glyph-name="S" horiz-adv-x="873" unicode="S"/>
<glyph d="M370 828h-50q-68 -2 -128 -16q-63 -13 -110 -42q-36 -22 -56 -51q-11 -17 -14 -38q-2 -28 17 -46q24 -20 58 -17q11 4 12 9q1 9 9 17q41 38 90 59q76 32 183 34q51 1 130 -10q10 -2 10 -3q0 -3 -3 -10q-35 -81 -67 -174q-17 -51 -49 -150q-56 -173 -68 -214 q-11 -39 -47 -161q-4 -14 -12 -41q-14 -44 -19 -66q-16 -60 -18 -65q-3 -12 -7 -33q-3 -16 9 -27q10 -7 21 -11q30 -10 60 -3q32 7 44 35q1 4 5 12l4 8q31 68 76 189q47 127 95 285q44 150 80 243q17 46 33 98q12 38 18 56q3 10 9 9q3 -1 4 -1q34 -4 103 -8q87 -4 172 3 q50 4 87 14q69 21 137 71q21 16 31 32q16 30 -10 49q-22 16 -49 18q-21 1 -34 -3q-13 -7 -15 -15q-1 -7 -9 -14q-57 -39 -109 -51q-74 -17 -169 -19q-72 -1 -158 12q-27 4 -80 12q-54 9 -81 12q-78 11 -135 12z" glyph-name="T" horiz-adv-x="644" unicode="T"/>
<glyph d="M779 365q2 -1 3 -1q-2 -6 -4 -13q-20 -63 -32 -117q-19 -81 -18 -154q0 -31 9 -62q23 -75 69 -138q46 -61 97 -91q80 -46 175 -33q35 7 60 23q10 6 15 16q8 19 -10 26q-9 3 -19 3q-31 1 -59 -3q-25 -4 -47 8q-21 13 -37 29q-48 47 -80 117q-18 43 -17 88q1 35 8 78 q9 63 35 158q32 113 64 202q48 136 71 205q6 20 13 49q3 24 -17 39q-2 1 -5 3q-5 3 -8 4q-45 15 -88 2q-22 -9 -34 -25l-24 -36q-13 -19 -37 -58q-20 -32 -30 -47q-32 -48 -98 -144q-55 -80 -82 -120q-17 -25 -50 -75q-34 -51 -51 -76q-82 -123 -160 -215q-47 -57 -99 -108 q-6 -6 -15 -12q4 25 12 50q11 43 51 155q93 264 128 375q36 119 45 188q9 64 2 105q-8 44 -26 69q-29 41 -85 54q-64 13 -127 -10q-41 -16 -81 -43q-75 -49 -131 -114q-24 -27 -40 -58q-27 -50 -19 -98q12 -70 74 -95q37 -15 76 -7q15 4 23 10q12 13 0 25q-5 4 -10 7 q-12 8 -21 18q-37 52 -16 110q10 26 30 53q54 67 124 108q29 18 50 25q11 2 15 -6q4 -7 8 -20q8 -40 0 -88q-6 -43 -22 -102q-26 -101 -76 -233q-64 -174 -78 -218q-39 -122 -51 -210q-9 -50 -4 -86q8 -45 45 -62q35 -16 82 -9q36 5 73 31q24 16 53 44q60 58 117 130 q81 103 138 182q13 17 39 53q46 62 68 93q6 9 18 26q12 18 18 26z" glyph-name="U" horiz-adv-x="1024" unicode="U"/>
<glyph d="M494 156h-2v13q-2 112 -4 168q-8 223 -28 344q-9 54 -26 94q-31 70 -107 80q-61 7 -125 -27q-39 -21 -83 -67q-68 -74 -93 -142q-29 -75 -19 -140q11 -53 48 -75q48 -27 109 1q7 4 9 7q14 16 -3 28q-3 2 -10 4q-21 9 -32 31q-10 20 -12 46q-2 45 16 97q26 74 88 133 q8 8 23 19q13 6 21 -3l9 -15q12 -23 19 -60q12 -62 13 -111q5 -102 13 -290q4 -96 7 -143q6 -100 18 -201q11 -104 19 -139q10 -41 42 -48q8 -1 15 -2q40 -1 75 20q26 18 36 43q7 17 11 31q6 18 40 136q27 102 57 177q41 103 82 193q32 70 51 104q57 107 131 226 q59 94 106 161q50 73 90 118q16 17 31 22q15 3 28 20q16 23 -7 38q-12 6 -23 8q-33 3 -62 -7q-37 -14 -69 -39t-77 -77q-39 -47 -82 -110q-83 -117 -171 -271q-24 -44 -67 -129l-33 -66q-42 -95 -68 -186q-1 -3 -2 -9q-2 -4 -2 -5z" glyph-name="V" horiz-adv-x="792" unicode="V"/>
<glyph d="M669 356q-1 -16 -3 -43q-6 -67 -3 -134q2 -44 4 -66q10 -102 23 -151q10 -36 31 -71q19 -30 54 -36q17 -2 46 2q42 9 60 42q2 4 6 13l6 12q27 65 49 141q10 33 30 100t29 100q4 13 42 133q33 104 66 197q25 70 53 122q28 56 65 95q57 58 148 118q31 20 53 28q16 7 25 18 q11 15 -3 27q-6 4 -15 7q-27 8 -57 2q-31 -6 -65 -22q-99 -48 -194 -141q-42 -43 -63 -97q-8 -21 -22 -58q-7 -20 -52 -157q-21 -64 -31 -104q-70 -246 -108 -359q-3 -7 -5 -8q0 3 -1 7v6q0 97 7 231q2 46 10 138q6 74 8 111q4 56 4 85q-3 42 -43 51q-23 4 -46 0 q-53 -12 -68 -51q-4 -9 -6 -13q-6 -12 -17 -35q-18 -40 -28 -59q-18 -35 -54 -103q-37 -69 -55 -103q-56 -109 -91 -182q-4 -9 -6 -13q-1 1 -1.5 2.5t-0.5 3.5l1 2l6 33q6 38 18 112q20 120 28 180q19 151 16 236q-2 57 -18 93q-23 51 -69 71q-18 7 -44 11q-59 6 -124 -16 q-75 -25 -145 -88q-46 -42 -82 -98q-43 -65 -52 -138q-8 -70 54 -108q64 -36 141 -17q20 6 28 16q12 14 -3 25q-1 1 -3.5 2t-3.5 1.5t-4 2.5l-4 1q-21 7 -34 13q-18 11 -20 13q-51 57 -31 121q12 39 39 76q44 58 110 98q31 18 58 26q20 6 30 -7q2 -3 3 -5q11 -18 14 -36 q8 -43 7 -92q-4 -72 -20 -181q-28 -172 -38 -239q-9 -62 -25 -185q-17 -124 -17 -176q2 -40 7 -72q8 -31 38 -38q13 -3 25 -3q46 3 72 30q9 10 15 24q31 56 70 148l69 159q18 38 101 209q3 7 6 10z" glyph-name="W" horiz-adv-x="1104" unicode="W"/>
<glyph d="M594 163q4 -16 12 -43q27 -90 55 -148q36 -69 94 -102q102 -57 203 -84q108 -28 196 -12q48 9 75 28q11 7 14 13q11 21 -10 28q-12 4 -28 2q-7 -1 -21 -2q-16 -2 -23 -3q-33 -6 -81 3q-82 17 -166 60q-28 14 -41 26q-34 30 -52 68q-30 65 -50 156l-21 90q-11 51 -19 82 q-2 10 5 18q12 15 36 44q25 30 37 44q15 19 47 56q31 38 46 56q76 90 118 131q81 81 155 123q10 8 11 9q13 16 -4 27q-9 5 -19 7q-22 4 -44 -2q-36 -9 -70 -29q-50 -28 -115 -75q-84 -60 -140 -111q-56 -50 -106 -103q-8 -9 -11 -4l-2 6q-29 88 -76 162q-45 71 -96 109 q-74 55 -168 48q-55 -5 -107 -26q-154 -67 -193 -223q-16 -69 7 -139q13 -35 42 -55q27 -17 60 -19q22 -2 45 5q13 4 19 10q16 17 -4 27q-5 2 -7 2q-20 4 -38 28q-28 42 -27 97q2 71 42 128q50 70 128 93q33 7 55 -9q1 -2 5 -4l4 -4q28 -24 51 -60q27 -41 63 -128 q33 -82 65 -203q2 -15 -4 -25q-48 -71 -86 -127q-95 -138 -160 -244q-50 -82 -82 -145q-19 -38 -29 -67q-8 -26 -8 -40q3 -32 31 -42q27 -6 50 -2q25 6 38 17q12 11 10 22q-2 8 3 18q9 21 28 58q55 95 163 248q50 72 76 108q2 3 6 8q8 10 13 15z" glyph-name="X" horiz-adv-x="956" unicode="X"/>
<glyph d="M979 284q1 -6 -1 -9q-3 -11 -11 -34q-6 -16 -8 -24q-13 -37 -56 -143q-54 -134 -121 -247q-61 -103 -142 -165q-41 -30 -77 -46q-50 -20 -92 -14q-18 2 -33 13q-17 14 -7 33q7 12 11 16q60 55 126 52q13 -1 35 -1q21 1 34 7q19 10 6 28q-6 7 -15 12q-19 11 -43 16 q-50 9 -97 2q-108 -15 -180 -89q-10 -10 -16 -20q-18 -28 -3 -57q9 -16 22 -29q32 -28 75 -44q62 -20 130 -19q87 2 162 34q104 45 183 135q61 69 118 170q59 103 118 256q84 213 127 399q14 66 12 100q-4 32 -30 46q-25 12 -52 12q-61 0 -88 -46q-10 -18 -32 -54 q-24 -40 -35 -60l-21 -36q-62 -99 -201 -280q-38 -50 -118 -137q-63 -65 -104 -97q-39 -30 -68 -42q-11 -4 -16 2q-2 2 -3 4q-8 12 -13 31q-8 37 -2 79q8 58 30 133q12 44 41 132q18 56 26 83q46 147 54 228q6 61 -3 109q-27 120 -143 158q-41 11 -98 13q-56 0 -113 -17 q-55 -17 -112 -54q-72 -48 -98 -116q-22 -58 -8 -111q16 -58 75 -95q38 -23 90 -30q41 -5 81 5q12 4 17 8q14 12 1 25q-10 7 -29 13t-20 6q-62 23 -75 85q-9 64 32 117q32 41 87 67q30 15 63 21q45 5 66 -31q8 -13 12 -25q9 -29 11 -65q1 -61 -13 -116q-18 -75 -61 -201 q-49 -142 -67 -230q-14 -74 -14 -114q0 -42 11 -76q31 -83 109 -110q32 -10 67 -10q54 -1 101 19q45 19 95 62q71 59 132 131q79 92 155 199q11 15 24 33z" glyph-name="Y" horiz-adv-x="1249" unicode="Y"/>
<glyph d="M572 281q-1 -3 -4 -8q-13 -16 -25 -34q-4 -6 -99 -131q-3 -3 -4 -5q-2 -3 -51 -60q-7 -9 -12 -7l-6 2q-86 32 -184 14q-61 -12 -103 -45q-34 -27 -48 -63q-23 -62 26 -105q21 -18 47 -27q62 -21 138 -10q77 12 151 54q12 8 18 4q3 -2 7 -5l3 -3q38 -28 79 -52 q79 -44 164 -63q83 -20 153 -13q6 0 18 2t18 2q65 9 117 23q53 15 85 35q10 6 18 15q19 26 -8 43l-6 4q-32 10 -61 1q-14 -6 -18 -16q-4 -6 -9 -8q-10 -4 -15 -5q-39 -13 -103 -22q-21 -3 -38 -2q-71 5 -145 42q-54 28 -147 99q-7 6 -7 8t6 8l1 1q32 28 60 60q34 38 70 89 q37 51 86 135q6 9 16 28q12 18 17 27t11 8q2 -1 5 -1q15 -5 19 -7q50 -16 63 -17q11 -1 18 2q23 8 17 28q-2 5 -4 9q-7 12 -22 22q-23 13 -55 23q-8 2 -8 4q1 3 4 9q50 87 91 149q82 127 169 233q10 12 14 22q8 19 -5 33q-5 6 -11 9q-13 7 -28 10q-24 6 -60 4q-25 -1 -72 -1 h-21q-15 -1 -22 -1q-52 2 -153 -2q-84 -3 -152 -10q-87 -11 -139 -27q-83 -25 -137 -71q-50 -44 -68 -90q-27 -76 22 -135q40 -45 100 -54q26 -3 45 3q14 6 4 17q-10 10 -27 35q-19 27 -22 61q-2 62 43 105q36 33 93 53q68 22 165 26q28 1 84 2l84 3h1h1h1h1h1h1h1h1h1h1h1 h1h1h1l1 1h1h1h1h1h1h1h1h1h1h1h1h1h1h1h1h1h1h1h1h1h1h1h1h1h1h1h1h1h1l1 1h1h1h1h1h1h1h1h1h1h1h1h1h1h1h1h1h1h1h1h1h1h1h1h1h1h1h1h1l1 1h1h1h1h1h1h1h1h1h1h1h1h1h2h1q2 1 3 1l6 -3q1 -2 -2 -4l-1 -1l-3 -3q-24 -28 -67 -81q-12 -16 -140 -188q-14 -19 -41 -58 q-16 -23 -24 -34q-6 -7 -13 -8q-76 -8 -145 -24q-41 -9 -64 -17q-34 -13 -50 -30q-24 -27 2 -50q2 -2 4 -3q2 -2 5 -4q29 -17 68 -14q23 2 37 16q3 3 11 9q27 18 68 28q4 1 7 -1zM186 -89q-3 32 25 51q6 5 12 7q9 3 20 0q26 -7 46 -19q6 -5 1 -9q-44 -33 -77 -47l-9 -3 q-7 -1 -11 3q-7 11 -7 17z" glyph-name="Z" horiz-adv-x="990" unicode="Z"/>
<glyph d="M498 832q-11 0 -64 -2q-48 -4 -70 -9q-48 -10 -73 -52q-13 -23 -35 -70q-4 -9 -48 -125q-36 -97 -48 -138q-21 -68 -59 -203q-6 -22 -19 -67q-11 -38 -16 -57q-25 -92 -55 -220q-11 -49 -11 -94q1 -21 17 -36q14 -12 29 -16q25 -8 52 -10q16 0 45 2q63 2 124 12 q39 5 66 14q18 7 23 13q14 14 -2 27q-8 5 -20 8q-20 4 -43 1q-84 -12 -148 -12h-9q-4 0 -4 3v3q0 3 2 8l15 48q11 36 66 215l60 192q13 41 38 122q26 82 38 122q7 22 24 67q22 63 32 95q8 25 26 72q7 11 18 13q10 1 32 4q12 1 18 2q48 8 73 7q7 0 22 2q12 2 18 5q20 12 5 28 q-6 6 -12 9q-17 8 -32 11q-32 8 -75 6z" glyph-name="bracketleft" horiz-adv-x="638" unicode="["/>
<glyph d="M850 -220q16 0 30 6q19 11 10 30q-15 30 -38 61q-71 98 -214 287q-109 148 -153 205q-67 90 -198 265q-48 63 -145 184q-26 30 -41 45q-32 30 -77 18q-8 -4 -13 -7q-12 -9 -8 -24q1 -3 3 -6.5t2.5 -5t3.5 -6.5l3 -5q19 -30 58 -83q66 -93 153 -205q176 -230 265 -345 q132 -172 172 -224q34 -44 101 -127q14 -18 43 -47q18 -16 43 -16z" glyph-name="backslash" horiz-adv-x="907" unicode="\"/>
<glyph d="M130 -267q21 -1 64 3q48 4 70 8q49 12 73 52q17 30 34 71q6 15 49 124q34 92 48 138q24 78 59 203q8 31 35 125q26 93 55 220q11 48 11 93q-1 22 -17 36q-12 10 -29 17q-26 9 -52 9q-9 1 -27 0q-12 -1 -18 -1q-62 -3 -125 -12q-42 -8 -65 -15q-15 -4 -24 -13 q-13 -15 2 -26q9 -6 20 -9q26 -3 43 -1q82 12 148 13q7 0 10 -1q4 -2 4 -5q0 -4 -2 -8q-2 -7 -6 -20q-7 -20 -9 -29q-37 -121 -67 -215q-46 -147 -59 -191q-18 -57 -77 -245q-8 -26 -26 -77q-20 -57 -29 -85q-11 -31 -26 -71q-6 -11 -18 -13q-31 -4 -50 -7q-42 -7 -73 -7 q-9 0 -22 -2q-12 -2 -18 -5q-21 -11 -5 -28l12 -9q11 -5 32 -11q25 -6 75 -6z" glyph-name="bracketright" horiz-adv-x="638" unicode="]"/>
<glyph d="M151 776q1 -3 9 -21q12 -31 27 -55q25 -38 72 -34q8 1 17 5q12 8 10 21q0 2 -2 5q-1 4 -1 5q-3 8 -8 22q-6 16 -8 23l-12 33q-5 21 -22 54q-19 34 -57 39q-46 4 -65 -27q-20 -34 -59 -85q-33 -43 -40 -56q-17 -36 17 -45q4 -1 8 -1h2q28 -2 50 23q21 26 36 54 q17 29 26 40z" glyph-name="asciicircum" horiz-adv-x="298" unicode="^"/>
<glyph d="M577 -67h5q25 3 22 27q-4 19 -14 31q-12 13 -27 14q-4 1 -12 1q-8 1 -12 1q-47 5 -307 5h-12q-8 -1 -12 -1q-33 3 -71 1q-17 -1 -52 -2q-33 -2 -49 -2l-21 -3q-12 -3 -14 -15q-1 -30 25 -42q7 -3 13 -4q49 -5 89 -5q36 -1 104 -1q221 -1 263 -3q54 -2 82 -2z" glyph-name="underscore" horiz-adv-x="617" unicode="_"/>
<glyph d="M61 869q-19 1 -38 -7q-23 -15 -21 -41q5 -44 46 -82q15 -13 33 -24q13 -8 38 -25l27 -18q37 -19 46 -23q26 -11 51 -7q17 4 25 12q9 12 0 22q-3 2 -27 21q-18 14 -51 37q-30 21 -53 61q-20 32 -30 49q-17 27 -46 25z" glyph-name="grave" horiz-adv-x="286" unicode="`"/>
<glyph d="M310 163l2 -1q-1 -6 -1.5 -19t-0.5 -19q-3 -44 5 -72q18 -57 71 -72q64 -16 111 29q13 12 44 55q93 123 110 148q18 28 20 34q4 11 -1 20q-8 5 -19 2q-21 -6 -36 -26q-17 -22 -49 -65q-34 -44 -50 -65q-35 -48 -60 -71q-9 -8 -14 -11q-5 -2 -7 3q-2 12 -2 17 q-1 49 18 111q5 17 16 49q12 33 16 50q10 36 13 42q22 56 32 84q5 13 15 38q5 14 5 27q-1 17 -14 27q-15 9 -31 11q-42 5 -69 -13q-11 -8 -21 -23q-4 -5 -9 -14q-6 -5 -10 -1q-1 1 -2 3l-3 3q-25 28 -65 36q-47 8 -92 2q-64 -12 -106 -47q-27 -23 -56 -61q-30 -39 -46 -74 q-40 -94 -45 -169q-3 -39 6 -68q22 -62 72 -80q32 -11 69 -6t66 29q18 15 32 34l30 42q19 27 29 41q5 7 13 20q10 14 14 20zM354 340q-23 -15 -48 -56q-1 -2 -2 -3q-60 -95 -106 -162q-34 -48 -55 -68q-8 -6 -9 -6q-3 2 -4 10q-3 14 1 45q9 83 31 147q20 55 50 107 q18 28 44 51l3 3q2 1 3 2q26 17 41 1l8 -10q8 -12 16 -30q13 -25 27 -31z" glyph-name="a" horiz-adv-x="614" unicode="a"/>
<glyph d="M221 470q0 4 3 12q2 8 8 22q6 16 8 23q13 36 39 107l39 108q42 116 45 127q6 22 9 41q1 25 -19 36q-8 5 -16 6q-25 7 -54 2q-31 -6 -48 -33q-23 -40 -34 -68q-20 -51 -58 -150q-1 -3 -54 -150q-35 -90 -68 -201q-35 -128 -27 -220q4 -39 17 -69q36 -72 106 -89 q77 -18 155 16q51 23 96 76q28 33 58 77q5 7 14 9q54 10 81 16q69 15 111 31q18 7 28 14q10 12 9 18q-3 8 -18 10q-16 1 -32 -5q-47 -18 -121 -32q-15 -4 -35 -7q-6 -1 -6 2q0 2 1 4l2 5q11 26 18 49q21 67 8 135q-9 48 -54 76q-36 20 -82 25q-57 5 -101 -11q-5 -2 -16 -7 q-8 -3 -12 -5zM159 255q2 0 3 -2l1 -1q40 -61 121 -89q11 -3 11 -5q0 -4 -5 -11q-35 -58 -81 -89q-10 -7 -22 -13q-8 -3 -13 3q-14 16 -18 32q-14 40 -11 88q3 40 12 81q1 4 2 6zM350 341q1 -58 -18 -108q-1 -2 -1 -3q-5 -6 -9 -3q-6 5 -14 13q-24 30 -30 61q-4 22 2 45 q9 34 22 53q6 8 15 16q10 6 17 -2q12 -16 14 -34q2 -33 2 -38z" glyph-name="b" horiz-adv-x="621" unicode="b"/>
<glyph d="M154 -28h28q86 9 167 65q85 57 148 109q55 45 78 66q7 6 12 15q6 15 -9 21q-6 2 -17 0q-21 -4 -41 -21q-29 -21 -86 -65q-58 -44 -87 -65q-42 -30 -85 -51q-47 -22 -87 -21q-16 2 -24 14q-10 16 -13 35q-6 33 3 81q22 100 87 187q27 35 70 62q11 7 14 1l2 -8 q10 -52 -18 -89q-11 -14 -13 -17q-8 -18 7 -30q9 -6 13 -7q61 -18 103 21q44 43 44 104q-1 29 -15 53q-27 38 -72 50q-43 10 -98 2q-88 -14 -153 -74q-84 -79 -118 -192q-21 -74 0 -143q27 -78 102 -97q29 -7 58 -6z" glyph-name="c" horiz-adv-x="541" unicode="c"/>
<glyph d="M429 39v19q3 43 12 86q8 40 29 107q48 159 94 295q35 107 73 198q43 109 44 112q1 2 1 3q6 24 8 36q4 33 -27 45q-33 11 -67 1q-15 -5 -26 -16q-13 -15 -18 -24q-24 -42 -34 -64q-32 -65 -49 -110q-6 -17 -20 -51q-24 -56 -33 -85q-13 -42 -37 -123q-3 -10 -5 -12 q-2 1 -3 1q-19 16 -52 23q-45 9 -91 1q-63 -10 -106 -46q-25 -22 -58 -64q-25 -33 -37 -57q-45 -94 -52 -183q-4 -62 23 -106q19 -26 47 -39q28 -12 65 -10q36 2 64 20q26 18 46 45q25 33 70 98q5 7 9 10q-2 -7 -4 -29q-6 -53 15 -101q11 -21 24 -31q43 -31 97 -12 q31 10 57 41q18 21 54 65q35 43 53 64l24 30q23 30 34 45q7 11 9 18q3 17 -13 20h-5q-10 -1 -20 -7q-11 -7 -21 -19q-42 -46 -124 -144q-21 -27 -50 -50zM124 68q5 83 26 152q20 68 58 133q18 29 45 52l3 3q3 2 4 3q25 17 41 -1q3 -4 5 -7q10 -16 14 -24q14 -27 18 -32 q3 -2 4 -3q4 -4 -1 -10q-22 -20 -60 -82q-8 -14 -13 -22q-62 -94 -94 -139q-12 -16 -35 -41q-1 0 -3 -2q-1 -2 -2 -2q-5 -2 -7 3q-3 11 -3 19z" glyph-name="d" horiz-adv-x="610" unicode="d"/>
<glyph d="M135 117q0 20 4 51q1 6 6 7h3q34 -5 88 1q105 13 171 98q29 38 42 84q7 20 7 42q-1 36 -31 62q-19 17 -57 26q-39 10 -83 5q-54 -6 -103 -32q-54 -30 -97 -77q-66 -74 -93 -169q-10 -33 -10 -71t14 -75q20 -48 63 -75q64 -38 141 -23q66 13 117 49q88 58 188 137 q45 36 72 63q7 8 10 14q4 14 -8 20q-6 2 -12 0q-17 -2 -35 -16q-3 -2 -129 -102q-68 -54 -146 -88q-42 -18 -72 -23q-19 -2 -31 14q-8 14 -10 22q-10 29 -9 56zM316 391q-5 -30 -7 -37q-18 -47 -61 -88q-24 -23 -57 -29q-4 -1 -12 -2q-8 -2 -12 -2q-6 -1 -6 1q0 3 1 6 q7 19 20 42q29 52 67 88q23 21 51 36q5 2 7 2q5 1 7 -4q0 -6 2 -13z" glyph-name="e" horiz-adv-x="545" unicode="e"/>
<glyph d="M-125 -236q0 -31 2 -46q12 -53 36 -79q49 -50 128 -39q36 6 72 38q35 35 66 96q9 19 22 73q21 80 17 140q-4 56 -17 91q-10 31 -29 50q-7 7 -2 10q2 0 4 1q18 6 62 28q68 37 91 54q34 25 48 44q8 16 3 24q-6 8 -22 6q-17 -4 -37 -20q-25 -22 -62 -44q-58 -34 -100 -47 q-7 -3 -14 -4q-6 -1 -6 3v2q1 2 2 5q14 38 21 56l63 156q11 27 33 80l33 81q12 32 16 48q4 21 -12 33q-9 6 -20 9q-24 7 -53 2q-34 -7 -51 -34q-24 -37 -45 -78q-40 -82 -58 -123q-50 -111 -59 -132q-29 -72 -68 -184q-38 -107 -52 -190q-13 -70 -12 -110zM103 40 q4 -5 8 -18q19 -57 12 -110q-11 -75 -18 -99q-11 -37 -29 -82q-16 -32 -41 -56q-6 -6 -8 1q-1 1 -1 2q-6 32 -4 48q8 86 47 215q6 22 29 89q4 9 5 10z" glyph-name="f" horiz-adv-x="333" unicode="f"/>
<glyph d="M402 427q0 1 -1 2l-1 1q-24 37 -68 48q-50 12 -101 3q-54 -8 -96 -40q-24 -18 -50 -49q-42 -54 -55 -81q-17 -35 -33 -89q-19 -66 -17 -122q2 -29 9 -46q18 -43 48 -61q48 -29 106 -13q32 9 54 30q25 25 43 50q13 19 38 54q4 5 6 6q0 -2 -3 -9q-3 -11 -11 -31 q-7 -21 -10 -31q-4 -9 -13 -16q-96 -64 -141 -104q-35 -31 -58 -61q-39 -56 -22 -119q12 -41 44 -91q20 -29 52 -44q58 -26 111 3q20 12 34 29q17 20 31 53q31 74 65 174q57 168 67 195q9 25 19 31q5 4 16 10q150 91 188 115q9 4 15 12q8 12 -5 19q-12 3 -20 2 q-17 -3 -36 -13t-131 -75q-8 -5 -9 -5q-1 3 0 7q5 12 19 52q40 102 56 154q9 27 16 62q3 29 -21 40q-1 1 -8 3q-20 8 -45 6q-56 -3 -75 -50q-1 -1 -2 -3q-3 -6 -5 -8zM354 339q-23 -14 -51 -60q-4 -7 -6 -10q-76 -118 -116 -175q-18 -24 -39 -45q-6 -4 -8 -4q-3 2 -3 8 q-3 17 -1 36q7 63 20 114q22 82 63 151q15 25 46 52q8 7 19 12q17 4 27 -7q14 -20 19 -32l10 -20q8 -12 20 -20zM226 -61q-10 -33 -28 -99q-27 -100 -42 -148q-4 0 -7 5v1q-20 32 -27 49q-21 55 9 100q16 23 61 66q3 3 9 8q12 10 17 15q7 3 8 3z" glyph-name="g" horiz-adv-x="623" unicode="g"/>
<glyph d="M188 326l-2 1q2 7 4 10q9 27 28 79q18 54 27 80q98 285 125 365q2 5 6 17q3 11 5 16q6 19 -12 33q-4 3 -11 6q-45 18 -93 0q-20 -9 -28 -28q-1 -3 -3 -8q-2 -6 -3 -8l-51 -141q-63 -177 -148 -421q-18 -52 -76 -229q-4 -12 -12 -38t-12 -38q-7 -23 14 -37l14 -7 q37 -12 70 -1q32 12 40 35q6 20 18 38l18 30q53 88 108 160q51 67 120 135q7 6 9 7q1 -4 -2 -13q-18 -46 -26 -70q-40 -109 -39 -218q2 -37 18 -70q4 -7 11 -16q32 -34 83 -27q20 4 35 14q19 13 35 33q13 16 78 91q79 98 89 111q9 14 11 20q5 15 -8 17q-4 1 -8 0 q-14 -3 -24 -12q-11 -10 -26 -29q-18 -20 -52 -60q-35 -40 -52 -60q-30 -34 -46 -50q-10 -9 -14 -11q-2 6 0 13q4 15 10 45q7 29 10 44q14 66 60 189q26 74 31 121q3 47 -37 64q-31 11 -63 7q-37 -6 -73 -32q-54 -39 -121 -115q-7 -8 -21 -25q-9 -12 -14 -17z" glyph-name="h" horiz-adv-x="584" unicode="h"/>
<glyph d="M-17 89v-31q0 -8 4 -21q18 -61 71 -76q56 -15 101 19q15 12 27 27q13 18 55 74q71 93 94 129q7 13 9 17q4 12 -1 19q-7 6 -18 3q-16 -4 -25 -13t-22 -26q-18 -24 -55 -72q-37 -49 -55 -73t-46 -49q-9 -7 -12 -7q-3 3 -4 14q-2 51 17 119q5 16 16 48q14 42 20 63 q3 12 15 45q16 36 34 85q10 26 12 40q3 28 -20 39q-48 21 -94 -6q-8 -6 -16 -15q-37 -55 -58 -108q-12 -31 -33 -102q-14 -51 -16 -142zM144 572q0 -4 2 -15q1 -7 1 -10q4 -15 17 -21q31 -15 60 -6q13 4 19 14q17 27 27 52q20 51 42 99q11 26 13 35q1 12 -6 20q-8 6 -12 8 q-49 26 -88 -11q-6 -6 -10 -12q-38 -52 -57 -110q-8 -21 -8 -43z" glyph-name="i" horiz-adv-x="290" unicode="i"/>
<glyph d="M137 154q-1 0 -1 0.5v0.5h-1q3 9 10 28t10 28q39 99 56 155q9 29 16 63q4 27 -20 40q-6 2 -8 3q-26 9 -55 5q-32 -4 -49 -22q-12 -16 -17 -28q-34 -79 -41 -98q-74 -192 -107 -289q-6 -11 -12 -16q-51 -32 -105 -74q-55 -42 -87 -81q-55 -69 -24 -152q12 -30 37 -69 q21 -30 53 -44q59 -26 112 4q18 11 32 27q16 19 31 54q24 54 65 174q61 177 73 208q5 12 17 22q25 14 70 41q71 42 130 79q10 7 15 13q8 13 -4 18q-11 4 -21 3q-18 -3 -34 -12q-6 -3 -123 -70q-2 -1 -3 -2zM-106 -70q-2 -23 -58 -210q-11 -35 -13 -39q-28 42 -38 73 q-3 13 -3 26q1 30 17 54q18 28 63 69q26 23 32 27zM148 578q0 -3 3 -27q4 -14 17 -22q31 -14 60 -6q13 5 20 16q19 32 30 62q10 25 30 70q15 30 19 48q5 20 -12 31q-40 26 -80 1q-11 -8 -19 -18q-39 -52 -61 -116q-7 -21 -7 -39z" glyph-name="j" horiz-adv-x="287" unicode="j"/>
<glyph d="M192 223q0 -1 2 -9v-10q13 -90 68 -173q16 -23 41 -40q45 -31 101 -13q24 9 42 26q8 8 23 26q13 15 19 22q62 69 107 127q23 31 29 41q12 20 -7 24h-8q-20 -1 -36 -20q-14 -16 -41 -48q-46 -53 -69 -78q-30 -34 -46 -50q-17 -15 -31 -24q-6 -3 -9 2q-6 16 -7 24 q-4 37 -5 52q-4 56 -8 84q-1 9 -3 28q-1 18 -2 27q0 8 7 11q4 2 11 5q11 4 15 6q76 33 115 92q25 38 32 71q11 57 -44 75q-45 13 -88 -5q-39 -16 -73 -44q-22 -16 -57 -49q-64 -59 -84 -82q-6 -6 -7 -6q0 3 -0.5 3.5t0.5 3.5l1 2q21 62 43 123q46 135 142 400q7 21 12 44 q3 24 -17 36q-8 4 -12 5q-28 9 -59 5q-43 -8 -57 -43q-19 -46 -33 -88q-48 -146 -113 -327q-14 -41 -42 -121q-29 -82 -43 -122q-53 -160 -63 -198q-1 -5 -2 -9q-3 -14 -2 -25q1 -12 10 -19q9 -6 17 -9q31 -10 63 0q20 7 30 23q7 11 17 35q7 15 10 21q7 14 26 67q3 7 8 14 q20 20 53 61q22 24 24 26zM279 314q50 51 92 80q-38 -61 -92 -80z" glyph-name="k" horiz-adv-x="574" unicode="k"/>
<glyph d="M110 30q-1 9 0 15q2 36 5 53q8 56 30 125q42 140 101 319q34 101 70 189q35 84 45 117q8 23 10 38q3 32 -27 44q-33 11 -68 1q-12 -4 -26 -16q-10 -12 -18 -24q-20 -35 -35 -65q-30 -61 -47 -107l-48 -123q-23 -66 -62 -207q-5 -18 -15 -55q-11 -47 -18 -69 q-25 -87 -32 -156q-4 -57 16 -101q9 -21 24 -31q43 -29 96 -12q32 11 58 42q37 44 106 129q26 32 58 75q6 7 9 18q4 15 -10 19q-5 1 -9 1q-11 -2 -20 -8q-10 -7 -20 -18q-58 -65 -102 -118q-41 -48 -49 -56q-14 -13 -22 -19z" glyph-name="l" horiz-adv-x="289" unicode="l"/>
<glyph d="M567 372l1 -1q-1 -4 -4 -11l-3 -12q-31 -97 -47 -209q-7 -55 -1 -93q4 -20 10 -36q8 -19 23 -33q31 -24 78 -18q26 6 48 31q9 11 27 35l18 24q13 17 40 52q37 47 54 70q7 9 20 28q10 13 14 19q7 14 2 21q-7 7 -22 3q-14 -5 -30 -23q-52 -66 -79 -99q-39 -48 -68 -78 l-10 -6q0 38 1 45q10 60 33 148q10 42 39 137q13 40 12 66q-3 40 -37 56q-29 12 -66 7q-28 -3 -60 -24q-44 -28 -81 -65q-6 -5 -8 -5q0 4 1 13q2 17 2 25q-1 36 -33 48q-29 11 -60 6q-24 -4 -42 -17q-19 -13 -33 -28q-64 -66 -109 -124q-8 -9 -10 -11q0 3 3 12q12 32 34 93 q5 18 5 22q2 16 -12 29q-7 6 -15 9q-48 18 -96 0q-20 -9 -29 -27q-1 -3 -3 -7q-2 -5 -3 -7q-20 -49 -31 -80q-8 -25 -25 -77t-25 -77q-15 -45 -37 -134q-6 -29 -4 -74q3 -23 24 -32q31 -12 62 -3q17 6 25 17q6 9 19 27t19 27q21 32 49 71q122 171 134 188q5 5 6 5 q-2 -8 -4 -11l-9 -27q-7 -18 -10 -27q-18 -54 -44 -161q-5 -24 -5 -41q1 -17 16 -27l12 -6q29 -7 53 -1q24 7 34 26q16 31 23 51q13 39 28 63q62 95 113 159q38 48 60 68q6 5 13 11z" glyph-name="m" horiz-adv-x="797" unicode="m"/>
<glyph d="M179 296q-1 1 0 3v1q8 19 23 58q10 27 15 39q12 30 14 47q1 14 -9 24q-6 5 -12 8q-53 23 -104 0q-14 -7 -22 -22q-13 -27 -23 -52q-50 -128 -94 -270q-19 -56 -23 -111q-1 -40 35 -50q56 -11 85 30q20 31 44 62q108 146 135 181q60 76 120 132l8 4q0 -4 -2 -9l-12 -33 q-15 -36 -54 -153q-22 -71 -21 -135q4 -44 36 -71q38 -31 87 -14q13 4 23 11q18 14 39 38q24 30 73 85q42 47 94 113q7 10 10 17q4 16 -12 17q-10 0 -25 -8q-14 -9 -29 -27q-19 -21 -56 -65q-38 -43 -57 -64q-30 -32 -52 -50q-8 -4 -10 -4q-1 7 1 18q9 50 23 87 q15 41 47 118q36 86 43 109q13 41 14 68q1 26 -13 39q-16 14 -34 18q-42 12 -88 -3q-58 -20 -110 -70q-63 -63 -103 -113z" glyph-name="n" horiz-adv-x="595" unicode="n"/>
<glyph d="M-11 148q2 -53 17 -93q20 -47 49 -69q72 -52 163 -28q63 19 121 80q41 45 67 93q4 5 11 7l60 9q86 14 146 38q17 7 35 17q16 9 23 21q8 15 -8 21q-6 1 -14 1q-23 -5 -27 -7q-7 -2 -43 -17q-58 -21 -134 -33q-12 -2 -18 -2q-4 0 -4 3v2l2 4q10 28 24 83q14 59 4 113 q-14 68 -73 94q-45 18 -100 10q-78 -12 -117 -66q-7 -7 -16 -7q-39 1 -73 -25q-21 -18 -42 -51q-51 -88 -53 -198zM149 234l21 -28q39 -43 100 -62q8 -2 19 -4q5 -4 3 -9q-9 -15 -28 -40q-35 -43 -76 -65q-8 -4 -12 1q-1 2 -2 3q-10 17 -17 45q-16 60 -13 114q2 29 5 45z M271 290q6 76 38 121l9 9q4 4 9 0q8 -9 10 -13q9 -17 15 -50q4 -28 -4 -78q-10 -44 -17 -65q-4 -10 -5 -14q-3 -8 -9 -3q-15 8 -25 21q-20 28 -21 63v9z" glyph-name="o" horiz-adv-x="631" unicode="o"/>
<glyph d="M194 349q-1 3 0 9q10 32 15 49q8 26 10 40q2 11 -6 21q-10 9 -15 11q-51 21 -99 -2q-14 -7 -20 -21q-3 -8 -9 -23q-58 -162 -73 -211q-12 -41 -39 -121q-20 -58 -29 -86q-9 -27 -28 -81q-23 -69 -34 -103q-33 -111 -38 -132q-4 -19 -6 -40q1 -28 26 -37q41 -15 78 1 q13 5 23 18q15 19 24 42q34 86 66 184l42 138q1 1 2 4l3 6q2 0 3 -0.5t2 -2.5l2 -2l24 -24q11 -11 31 -19q18 -5 40 -7q78 -4 145 47q62 49 106 130q38 72 61 170q13 53 1 97q-15 57 -69 75q-30 9 -61 6q-49 -5 -81 -33q-40 -34 -75 -77q-14 -17 -22 -26zM339 388v-28 q-10 -98 -52 -203q-24 -57 -64 -105q-9 -10 -21 -19q-6 -3 -12 1q-30 26 -47 58q-1 2 -4 7q-5 8 -8 12q-4 4 1 8q15 15 36 46q18 26 52 78q21 33 32 49q34 55 77 91q6 5 10 5z" glyph-name="p" horiz-adv-x="543" unicode="p"/>
<glyph d="M401 426q-2 2 -2 3q-23 38 -66 49q-44 10 -88 6q-78 -9 -130 -57q-19 -19 -50 -58q-28 -38 -38 -60q-36 -81 -47 -153q-6 -48 1 -82q12 -48 44 -74q46 -36 111 -21q31 8 53 27q29 24 52 60q3 4 8 11q8 11 12 16q1 -2 -1 -6l-1 -1q-43 -120 -74 -216q-29 -90 -34 -149 q-3 -31 3 -53q9 -30 32 -40q55 -21 98 11q25 18 47 45q44 55 78 109q23 34 30 64q9 43 1 67q-13 40 -35 60q-5 6 -13 14q-5 8 -1 16q5 8 11 15q14 14 72 62q35 28 129 96q11 7 31 22q21 15 31 22q11 8 16 16q4 10 -6 15q-10 2 -15 1q-19 -3 -38 -14q-54 -31 -105 -69 q-56 -40 -85 -60q-9 -5 -10 -5q0 3 3 10l30 75q14 35 43 104q26 61 38 91q14 40 18 60q4 28 -21 41q-37 16 -74 3q-21 -7 -30 -24l-21 -39q-4 -7 -7 -10zM352 340q-23 -15 -51 -62q-5 -8 -8 -13q-74 -114 -114 -170q-15 -21 -41 -47q-6 -5 -8 1q-1 1 -1 2q-3 14 -1 32 q5 58 16 106q22 93 70 169q15 25 45 51q9 5 19 10q11 4 20 -4q15 -14 22 -30q1 -3 4 -7q2 -6 3 -8q13 -22 25 -30zM350 -69q17 -36 14 -61q-5 -33 -24 -64q-4 -7 -8 -13t-10 -14l-9 -12t-11 -13.5t-9 -11t-11 -12.5l-10 -12l-5 -5q0 7 4 18q5 14 44 116q5 13 15 37 q10 25 15 37q4 9 5 10z" glyph-name="q" horiz-adv-x="630" unicode="q"/>
<glyph d="M223 430q-1 8 1 17q-1 14 -11 25q-5 5 -14 10q-39 17 -80 7q-20 -7 -30 -21q-8 -9 -17 -28q-20 -43 -41 -104q-42 -115 -64 -201q-5 -17 -18 -63t-18 -63q-7 -30 19 -45q7 -3 13 -5q10 -4 38 -6q44 1 61 38q24 57 33 88q4 14 62 165q5 14 9 25q6 13 13 19q73 59 77 62 q25 19 55 35l18 9q5 0 7 -4q1 -5 1 -12q-2 -26 -8 -55q-4 -24 -19 -40q-4 -5 -6 -7q-9 -15 1 -27q7 -9 17 -12q62 -22 107 16q1 1 5 4l6 6q43 44 50 92q5 47 -28 79q-42 41 -113 38q-50 -2 -103 -30q-15 -8 -23 -12z" glyph-name="r" horiz-adv-x="499" unicode="r"/>
<glyph d="M237 487h-23q-14 -2 -23 -4q-112 -25 -166 -111q-37 -62 -29 -125q8 -65 38 -126q8 -15 23 -45q20 -41 30 -60q5 -9 1 -12q-2 -2 -4 -3q-75 -54 -101 -78q-27 -26 -41 -51q-16 -34 -1 -66q17 -36 52 -53q85 -39 165 -10q62 24 89 85q13 31 13 62q-2 50 -14 90 q-10 30 -16 44q-3 9 3 13q4 2 10 6q4 3 6 4q175 103 188 111l75 48q11 8 16 15q11 15 -6 20q-2 1 -3 1q-11 1 -19 -1q-20 -5 -33 -13l-45 -27q-28 -16 -84 -49q-80 -48 -121 -71q-10 -6 -13 -1q-1 3 -2 5q-12 24 -34 69q-29 72 -21 128q9 53 38 91q19 23 40 34q7 1 9 -3 q12 -29 9 -51q-4 -28 -17 -47q-11 -18 -20 -27q-13 -17 4 -31q11 -7 19 -8q41 -8 71 6q61 32 77 100q5 25 1 50q-9 42 -44 65q-44 27 -97 26zM133 -120q1 -12 -3 -31q-6 -31 -40 -58q-5 -4 -12 -5q-37 0 -54 32q-6 14 -5 27q0 8 6 19q7 15 16 24q38 39 64 60q4 3 6 4 q5 2 7 -3q8 -16 13 -39q3 -17 2 -30z" glyph-name="s" horiz-adv-x="478" unicode="s"/>
<glyph d="M110 30q-2 9 0 18q3 36 9 73q5 27 30 113q98 316 120 383q5 14 8 15q4 1 15 0q72 -4 432 -2h1h1q61 -8 81 -19q4 -2 7 -4q14 -7 29 -6q24 1 23 21q-1 7 -4 13q-7 11 -19 21q-22 16 -52 28q-44 16 -184 18q-93 2 -264 2q-2 0 -29 3q-10 1 -10 4t2 9q2 7 8 20l21 54 q15 35 19 66q3 33 -27 43q-31 11 -66 2q-15 -5 -26 -16q-14 -14 -23 -31q0 -1 -66 -133q-5 -11 -16 -11q-430 0 -452 -1q-65 -5 -112 -18q-45 -14 -75 -35q-26 -20 -37 -40q-15 -30 7 -55q27 -29 68 -34q16 1 25 8q8 9 1 17q-5 8 1 12q16 12 40 22q42 17 169 24q112 5 330 9 q12 0 12 -2q0 -3 -2 -9q-7 -23 -21 -73q-26 -88 -46 -158q-4 -16 -12 -47q-9 -40 -15 -59q-28 -91 -36 -168q-4 -60 19 -106q15 -26 38 -36q45 -17 88 2q30 14 56 46q16 21 51 63q35 41 51 62q50 64 53 68q8 10 11 21q4 16 -10 19q-4 1 -7 1q-12 -1 -24 -9q-3 -2 -24 -24 q-41 -45 -91 -105q-40 -50 -64 -72q-7 -6 -12 -7z" glyph-name="t" horiz-adv-x="295" unicode="t"/>
<glyph d="M417 44q1 6 3 11q13 48 28 88q28 79 92 232q15 35 25 77q5 25 -15 38q-4 2 -13 7q-32 10 -64 6q-47 -7 -65 -47q-45 -99 -58 -135q-3 -9 -11 -18q-9 -11 -29 -32q-19 -22 -28 -32q-115 -133 -155 -173q-5 -6 -9 -7q0 10 4 25q14 68 49 164q10 26 31 77q13 33 20 50 q15 39 23 74q5 29 -20 42q-11 7 -26 10q-23 4 -49 1q-46 -8 -63 -46q-1 -3 -4 -8q-3 -6 -4 -9q-30 -76 -46 -114q-35 -89 -49 -154q-11 -55 -8 -89q6 -40 13 -60q17 -40 55 -52q56 -15 100 13q41 27 89 80q32 38 49 56q5 6 7 6q2 -4 0 -10q-4 -34 -3 -51q2 -33 15 -57 q23 -41 70 -42q6 0 11 1q26 3 49 21q2 2 42 41l6 6q51 51 144 154l12 15q7 8 10 11q6 8 9 16q4 15 -10 18h-5h-4q-3 -1 -4 -1q-16 -5 -30 -17q-17 -14 -55 -54q-16 -16 -47 -50q-48 -50 -72 -74q-5 -5 -10 -8z" glyph-name="u" horiz-adv-x="605" unicode="u"/>
<glyph d="M183 15q-3 5 -3 10q-6 46 -8 69q-4 27 -2 40q1 15 1 43q0 14 4 41q6 42 7 64q3 60 10 110q2 12 4 29q2 27 -19 40q-8 4 -12 5q-47 17 -94 0q-21 -9 -32 -29q-16 -34 -23 -66q-16 -80 -17 -121q-5 -109 11 -172q14 -48 27 -72q30 -57 90 -69q23 -4 46 -3q43 1 79 27 q20 15 40 38q59 69 96 130q10 16 35 61q6 9 14 8q32 -6 82 -4q33 0 66 9q38 10 54 22q7 6 10 12q5 11 -6 15q-5 2 -13 2q-19 1 -46 -8q-55 -18 -118 -10q-2 1 -6.5 1.5t-6.5 0.5q-5 3 -4 8q1 2 3 8q1 4 2 6q23 69 20 139q-5 66 -68 82q-30 7 -64 2q-26 -4 -40 -13 q-68 -42 -70 -123q1 -46 36 -80q20 -18 50 -35q10 -5 10 -7q0 -4 -4 -12q-49 -94 -126 -184q-9 -10 -15 -14zM357 298q-10 15 -12 33q-4 38 11 69q0 1 2 2q1 2 1 3q3 5 6 0q2 -8 4 -19q1 -27 -6 -64z" glyph-name="v" horiz-adv-x="606" unicode="v"/>
<glyph d="M268 97q1 -5 2 -12q2 -5 2 -7q8 -37 26 -71q33 -59 96 -71q18 -4 41 -2q44 1 79 28q23 17 40 37q48 57 77 101q30 44 54 90q4 8 9 8q2 -1 5 -1q55 -7 114 -1q36 5 72 20q16 9 23 16q12 14 -4 20q-2 1 -3 1q-4 1 -10 1q-20 1 -43 -7q-57 -19 -123 -10q-14 2 -14 6 q1 4 3 11q25 74 22 145q-4 69 -70 83q-3 1 -5 1q-30 3 -50 1q-37 -4 -67 -27q-42 -38 -49 -96q-5 -45 24 -82q12 -15 29 -27q24 -16 37 -22q7 -4 5 -9q-1 -2 -2 -3l-2 -4q-48 -89 -89 -139q-6 -8 -18 -22q-17 -21 -25 -31l-9 -6q-3 4 -3 10q-2 12 -4 34q-4 23 -5 34 q-2 31 -1 39q1 16 1 45q0 15 4 40q6 48 7 73q2 44 6 66q2 11 4 31q3 21 4 31q2 30 -21 43q-1 0 -3.5 1.5t-3.5 1.5q-50 19 -99 0q-20 -9 -29 -27q-10 -19 -14 -34q-13 -40 -26 -137q-3 -24 -3 -70q-1 -11 -5 -17q-3 -3 -5 -6t-7 -9l-4 -6q-83 -109 -94 -123q-7 -10 -19 -20 q1 9 1 19l3 21q14 89 47 205q5 20 17 59q18 63 26 94q4 11 5 19q2 15 -10 26q-13 9 -25 12q-35 9 -66 1q-29 -8 -45 -31q-13 -19 -28 -54q-55 -132 -71 -246q-8 -51 -1 -97q7 -41 31 -71q32 -39 88 -37q44 1 71 30q2 2 6 8l7 7l42 57q1 1 45 59zM618 298q-8 14 -12 33 q-3 41 12 69q0 1 2 2q1 2 1 3q3 2 5 0q4 -7 4 -17q2 -34 -9 -86q-2 -3 -3 -4z" glyph-name="w" horiz-adv-x="860" unicode="w"/>
<glyph d="M148 285q-5 8 -7 17q-18 49 -37 107q-8 24 -18 44q-11 21 -33 29q-33 12 -73 4q-10 -3 -23 -10q-16 -11 -18 -27q-1 -19 1 -35q17 -90 62 -187q6 -13 19 -39q8 -17 12 -25q3 -8 -2 -14l-18 -21q-2 -3 -87 -111q-19 -23 -28 -43q-8 -20 10 -29q42 -17 74 6q12 10 37 37 q7 9 22 26q15 18 22 27q2 2 5 6q8 9 11 13q7 7 11 2q1 -3 2 -4l1 -1q18 -31 54 -75q27 -33 69 -42q54 -12 94 12q40 23 67 58q8 10 11 13q57 62 101 117q20 23 55 66q9 12 12 21q3 16 -13 16q-9 -1 -17 -5q-15 -6 -25 -18q-12 -12 -33 -35q-17 -19 -50 -56q-33 -38 -50 -56 q-40 -43 -96 -79q-10 -5 -15 3q-13 21 -21 40q-3 7 -43 116q-3 9 -6 16q-1 7 3 13q26 28 76 84q52 55 77 83q43 50 53 64q8 12 11 18q6 18 -8 28l-3 3q-3 1 -4 2q-36 15 -71 -1q-11 -5 -18 -12l-34 -34q-33 -34 -92 -101q-4 -4 -12 -13q-11 -13 -17 -18z" glyph-name="x" horiz-adv-x="511" unicode="x"/>
<glyph d="M276 103q-9 -19 -25 -52q-4 -8 -12 -12q-93 -49 -148 -85q-43 -29 -71 -60q-44 -52 -33 -119q8 -39 32 -89q20 -35 50 -52q64 -31 120 -2q32 17 56 57q31 52 88 172q75 162 99 207q4 8 14 15q68 30 101 45q78 36 116 55q10 6 16 11q8 11 -3 19q-10 3 -17 3q-20 1 -45 -10 q-3 -1 -132 -57q-7 -4 -13 -4q7 15 8 17q9 18 28 55q31 59 45 89q29 61 42 102q6 26 -15 41q-1 1 -5 2q-3 2 -4 2q-37 18 -77 9q-21 -5 -35 -22q-10 -12 -13 -18q-36 -64 -41 -74q-11 -18 -20 -22q-3 -2 -7 -7q-3 -3 -51 -60q-16 -20 -24 -29q-33 -33 -63 -69 q-35 -40 -85 -80q-9 -6 -11 -5q-3 2 -1 11v1q12 63 26 108q12 39 73 202q13 36 16 51q4 23 -17 39l-6 3q-3 2 -5 3q-32 13 -65 9q-35 -6 -54 -34q-19 -31 -35 -66q-53 -118 -71 -214q-14 -65 4 -121q16 -47 59 -63q28 -11 62 -8q47 5 86 42q38 38 56 59q3 4 7 5zM206 -53 q-89 -219 -96 -236q-4 -1 -6 2v1q-14 26 -20 46q-21 67 27 116q25 24 66 54q23 15 29 17z" glyph-name="y" horiz-adv-x="617" unicode="y"/>
<glyph d="M259 484q-60 3 -102 -4q-79 -15 -148 -64q-33 -24 -53 -57q-29 -50 8 -94q37 -43 97 -50q20 -3 36 4q26 11 11 31l-2 2q-2 3 -2 4q-17 15 -31 31q-21 23 -4 49q7 8 13 13q54 49 130 63q34 6 64 2q17 -3 18 -20q-1 -24 -9 -39q-21 -33 -41 -53q-53 -52 -112 -97 q-61 -47 -109 -74q-49 -30 -89 -63q-18 -18 1 -32l4 -2q36 -18 65 0q35 22 108 41q17 4 26 3q10 0 11 -7q1 -2 1 -4q1 -24 -4 -43q-4 -8 -10 -12q-16 -8 -24 -13q-84 -42 -150 -86q-41 -28 -57 -51q-12 -18 -15 -28q-9 -32 2 -67q7 -22 21 -65q8 -22 31 -59q6 -9 17 -17 q33 -23 58 -28q62 -12 98 33q37 48 54 85q11 23 34 70q36 73 52 110q34 77 37 132q1 7 7 11l211 122h1l2 1q5 3 12 8q9 11 -3 18q-11 4 -23 3l-90 -43q-52 -26 -124 -63q-9 -3 -13 1l-2 2q-25 26 -51 38q-19 8 -33 11q-3 1 -4 3q0 1 1 2l1 1q0 1 2 2l2 1q63 40 145 115 q30 27 48 51q20 24 25 45q9 32 -5 57q-11 19 -33 34q-43 27 -111 36zM112 -73q0 -3 -3 -12q-17 -36 -32 -70q-11 -22 -19 -51q-15 -48 -39 -93q-4 -5 -5 -6l-2 1q-27 60 -33 84q-11 36 15 66q14 15 37 31q45 31 74 48q6 2 7 2z" glyph-name="z" horiz-adv-x="437" unicode="z"/>
<glyph d="M130 358q0 2 3 3l1 1q35 20 62 39q41 32 60 55q17 22 34 53q36 71 43 85q48 92 122 148q32 24 63 37q13 5 22 4q12 -1 22 4q20 12 4 28q-5 3 -12 7q-10 5 -19 6q-44 8 -89 -7q-125 -40 -207 -152q-25 -33 -54 -90q-11 -24 -33 -67q-26 -46 -51 -69q-13 -11 -50 -35 q-31 -22 -39 -31q-16 -19 2 -35q3 -2 4 -3q31 -19 41 -60q9 -33 5 -88q-1 -18 -5 -52q-5 -43 -6 -65q-3 -49 5 -89q5 -22 6 -40q9 -72 22 -118q5 -22 14 -37q12 -23 34 -33q25 -9 54 -3q5 1 12 5q11 9 11 16q-2 10 -14 12q-9 4 -12 12q-7 18 -10 41q-7 39 -11 95q-2 37 2 55 q7 35 12 75q10 66 12 101q3 28 1 64q-2 31 -10 57q-17 43 -47 67z" glyph-name="braceleft" horiz-adv-x="587" unicode="{"/>
<glyph d="M51 -248q22 -1 37 8q10 4 13 12q1 3 11 25q13 32 35 95l36 108q32 93 47 140q10 32 31 96q21 63 31 95q1 3 84 267q24 78 38 139q5 20 10 47q3 30 -24 41q-1 0 -7 2q-26 7 -55 -1q-18 -7 -28 -21q-5 -9 -13 -26q-15 -39 -34 -91q-1 -3 -42 -132q-9 -31 -28 -91l-21 -69 q-23 -75 -65 -222q-40 -134 -57 -202q-5 -17 -14 -51q-27 -92 -34 -138q-2 -9 4 -17q7 -7 17 -10q16 -5 28 -4z" glyph-name="bar" horiz-adv-x="437" unicode="|"/>
<glyph d="M447 224q-2 -2 -5 -4q-42 -24 -61 -39q-40 -30 -60 -55q-20 -23 -34 -53q-7 -14 -21 -43q-15 -28 -22 -42q-48 -89 -122 -147q-35 -26 -63 -37q-13 -5 -22 -4q-11 1 -23 -4q-19 -10 -6 -25l3 -3q5 -5 12 -8l18 -6q44 -7 90 7q124 40 207 152q22 30 53 91q6 11 17 33 t17 33q23 46 50 69q19 17 51 36q23 15 39 31q17 19 -2 34q-3 2 -4 3q-30 19 -42 60q-9 39 -4 89q1 20 5 58q5 40 6 59q2 52 -6 89q0 1 -6 40q-9 71 -21 117q-8 26 -14 37q-14 25 -35 33q-24 9 -53 3q-6 -1 -13 -5q-11 -10 -11 -16q3 -9 15 -12q9 -3 12 -11q5 -18 10 -41 q8 -41 11 -96q2 -32 -2 -54q-3 -14 -13 -75q-8 -53 -12 -101q-2 -43 -1 -64q2 -29 11 -57q15 -43 47 -67z" glyph-name="braceright" horiz-adv-x="587" unicode="}"/>
<glyph d="M280 191q38 -1 71 17q27 16 37 40q11 35 -21 50q-19 8 -41 7q-31 -3 -44 -25q-1 -1 -2 -4l-3 -3q-12 -17 -18 -16q-5 1 -18 8q-60 33 -111 36q-50 1 -87 -17q-28 -17 -38 -49q-6 -22 11 -32q2 -2 3 -2q28 -13 58 -9q19 4 28 12q20 16 30 26q7 7 13 4l4 -2l45 -21 q41 -20 83 -20z" glyph-name="asciitilde" horiz-adv-x="406" unicode="~"/>
<glyph d="M398 483q0 11 -4 26q-8 22 -34 29q-8 2 -15 2q-25 -2 -43 -20q-16 -17 -25 -42q-2 -5 -5 -14q-3 -10 -5 -15q-24 -74 -146 -436q-41 -126 -52 -155q-20 -55 -58 -162q-8 -24 -10 -37q-1 -16 8 -25q11 -10 26 -15q42 -13 81 1q24 9 32 30q3 9 10 26l9 27q9 29 28 87 q33 103 50 154q58 180 102 326q29 103 42 161q8 34 9 52zM381 590q62 1 86 61q5 17 3 29q-8 36 -44 52q-23 10 -49 10q-38 1 -60 -22q-18 -19 -27 -40q-5 -11 -3 -20q7 -33 30 -48q32 -22 64 -22z" glyph-name="exclamdown" horiz-adv-x="481" unicode="¡"/>
<glyph d="M206 51q-1 2 1 7l1 1v1q19 47 23 59q3 7 7 23t6 23q22 63 42 126q10 32 31 96t31 96q19 64 21 68q2 11 8 7q3 -1 4 -2q21 -14 34 -34q10 -13 12 -14q12 -9 24 -5q10 4 17 9q25 20 13 50q-11 19 -29 33q-21 15 -55 24q-6 2 -7 3q0 3 1 6q1 2 1 4q38 121 63 190q4 16 -9 22 q-19 7 -39 1q-11 -6 -15 -14q-6 -14 -8 -22q-34 -107 -62 -179q-5 -10 -13 -12q-45 -9 -88 -35q-52 -31 -100 -89q-82 -105 -109 -229q-16 -72 -3 -136q7 -33 21 -57q28 -45 72 -61q9 -3 9 -5q-1 -3 -2 -8q-1 -6 -5 -18q-3 -11 -4 -17q-28 -96 -41 -144q-6 -24 -8 -36 q1 -10 6 -15q15 -8 33 -3q12 5 17 19q8 26 13 39q23 58 38 101q11 29 25 70q7 11 15 13q3 0 24 6q77 24 160 67q43 22 73 46q15 12 23 25q11 18 -6 27q-6 2 -11 2q-13 -2 -21 -7t-17 -14q-23 -20 -72 -47q-76 -39 -136 -60q-7 -2 -9 -1zM127 67q-5 6 -7 12q-10 27 -12 56 q-2 62 21 136q38 118 109 207q16 21 44 47q-24 -77 -78 -229q-53 -152 -77 -229z" glyph-name="cent" horiz-adv-x="499" unicode="¢"/>
<glyph d="M280 364v-4q0 -2 -1 -6t-1 -6q-30 -116 -65 -209q-16 -45 -43 -99q-33 -65 -89 -133q-36 -45 -61 -67q-8 -6 -10 -8q-14 -15 2 -27q5 -4 18 -8q22 -4 43 2q16 5 49 11q91 17 207 19q92 3 171 -1q40 -2 81 -6q40 -6 61 -18q2 -1 8 -3t8 -3q24 -4 40 5q16 12 6 29 q-6 9 -18 16q-22 11 -56 20q-51 10 -133 14q-57 3 -103 2h-20q-14 -1 -20 -1q-19 0 -52 -2q-56 -1 -124 -8q-9 1 -10 1q0 2 3 5l1 1q21 22 40 46q65 80 110 179q30 67 56 167q6 19 16 59q5 22 8 32q2 10 7 10q3 0 6 -1q24 -4 39 -10q5 -3 16 -6l9 -3q20 -4 29 -3q21 3 17 20 q-1 5 -5 10q-13 12 -20 16q-34 18 -75 24q-8 2 -8 5t1 6q22 93 42 152q23 64 48 105q28 43 57 66q19 15 38 21q10 2 17 -3q11 -11 18 -25q3 -12 1 -18q-1 -5 3 -9q13 -6 22 2q17 18 20 21q20 32 -6 59q-2 1 -3 2q-15 10 -32 16q-36 9 -78 3q-76 -14 -134 -73 q-35 -38 -59 -85q-29 -58 -48 -130q-10 -34 -26 -101q-5 -10 -13 -11q-1 0 -3 -1q-34 -3 -69 -12q-33 -8 -51 -23q-9 -8 -13 -14q-7 -16 4 -27q4 -4 9 -7q23 -12 51 -8q13 2 20 10q13 13 47 23z" glyph-name="sterling" horiz-adv-x="721" unicode="£"/>
<glyph d="M191 296v-2l-2 -2q-57 -73 -36 -148q0 -6 -4 -9q-3 -3 -11 -8q-7 -6 -10 -8q-26 -19 -75 -52q-28 -19 -40 -33q-17 -22 3 -38q28 -22 68 -15q16 3 26 10q23 16 36 29l54 51q10 8 20 4q32 -14 76 -16q46 0 89 18q8 4 10 0q1 -2 2 -3q2 -3 33 -51q13 -20 44 -51 q22 -20 53 -13q21 6 38 23q26 28 2 55q-3 3 -8 10q-6 7 -8 10q-18 22 -25 27q-8 6 -22 20q-24 22 -37 30q-4 5 -1 10q1 1 3 4q27 35 20 80q-5 41 -7 48q0 8 5 10q6 2 15 7q17 13 48 34q44 30 98 94q5 5 10 12q7 15 -1 26l-9 9q-31 20 -69 17q-21 -2 -43 -17 q-65 -51 -96 -102q-5 -6 -12 -4q-14 5 -34 10q-25 5 -47 2q-36 -5 -72 -20q-10 -5 -12 0l-2 6q-11 31 -57 99l-10 15q-14 18 -36 17l-15 -3q-30 -7 -49 -28q-13 -15 -7 -32q5 -13 10 -22q27 -45 40 -62q29 -36 54 -48zM271 174q1 38 21 73q31 49 69 71q1 1 4 3q7 0 9 -4 q6 -19 9 -39q2 -26 4 -40q0 -9 -2 -18q-8 -43 -19 -62q-18 -31 -53 -44q-16 -4 -27 8q-13 17 -15 42v10z" glyph-name="currency" horiz-adv-x="674" unicode="¤"/>
<glyph d="M530 622q1 -4 -1 -7q-11 -36 -31 -107q-33 -119 -52 -178l-24 -72q-3 -8 -7 -8h-3q-31 0 -90 -4q-23 -2 -47 -8q-17 -4 -30 -15q-24 -21 -2 -43q16 -14 37 -17q6 0 26 7q31 14 85 21q6 1 6 -3q0 -2 -1 -4q-3 -9 -10 -26l-9 -27q-4 -6 -10 -7q-18 -2 -53 -6 q-27 -4 -45 -14q-11 -6 -15 -13q-8 -14 1 -24q5 -7 17 -13q20 -7 47 -4q7 1 20 3q4 0 4 -2v-4q0 -1 -1 -1v-1q-28 -61 -54 -93q-33 -41 -62 -59q-58 -35 -118 -50q-2 0 -6 -1q-5 -1 -7 -1q-7 1 -10 5q-4 8 -7 11q-12 16 -29 13q-17 -4 -25 -14q-16 -17 -2 -37q9 -8 16 -12 q13 -6 28 -9q42 -5 88 4q58 13 115 41q52 28 71 42q51 38 91 103q17 28 38 70q6 7 11 8q33 0 49 -1q10 -1 17 -7q8 -6 12 -8q12 -7 30 -6q20 2 19 20q-1 7 -4 13q-6 8 -15 16q-25 18 -68 27q-2 0 -8 2q-6 1 -8 1q-5 3 -4 7l21 57q5 5 7 5q50 -6 62 -11q5 -3 9 -5q8 -5 16 -8 q14 -6 21 -6q13 1 18 7q4 9 -2 19q-8 10 -14 15q-15 12 -36 20q-22 10 -51 16q-10 2 -10 4q0 4 2 9q2 8 7 24q6 21 9 31q32 106 48 160q40 136 57 205q14 62 16 93t-25 44q-13 5 -28 7q-52 4 -80 -33q-28 -39 -57 -86q-43 -69 -80 -116q-33 -42 -82 -96q-67 -74 -112 -117 q-18 -16 -36 -30q-22 -16 -42 -26q-6 -1 -9 4q-3 9 -5 18q-6 39 1 95q6 44 26 107q17 52 78 208q8 20 10 31q4 26 -18 36q-5 2 -12 4q-22 5 -45 1q-26 -7 -38 -27q-32 -60 -47 -90q-38 -77 -62 -168q-15 -56 -17 -109q0 -49 11 -88q1 -4 6 -19q25 -54 89 -61q52 -4 100 24 q27 15 63 48q38 37 121 130q82 94 120 143q2 2 20 23z" glyph-name="yen" horiz-adv-x="692" unicode="¥"/>
<glyph d="M48 -225q37 3 50 29q1 1 2 3q2 4 3 5q30 62 47 121q7 21 19 63q18 61 28 91q21 61 30 109q6 24 6 38q-3 19 -15 25q-33 15 -63 -6q-13 -10 -19 -22q-10 -22 -15 -34q-7 -17 -19 -52q-7 -20 -10 -30q-6 -17 -19 -52q-16 -44 -23 -65q-5 -16 -14 -47q-10 -35 -16 -51 q-14 -40 -17 -76q-4 -39 30 -47q6 -1 11 -2h4zM391 844q-15 0 -26 -3q-24 -7 -33 -30q-5 -14 -16 -43q-11 -28 -16 -42l-45 -126q-33 -92 -48 -161q-3 -19 -11 -52q-2 -14 9 -22q1 -1 5 -2q3 -2 4 -2q26 -9 51 0q13 5 21 18q2 5 6 13l7 14q24 52 42 107q58 163 72 209 q18 63 23 83q5 23 -16 33q-15 6 -29 6z" glyph-name="brokenbar" horiz-adv-x="451" unicode="¦"/>
<glyph d="M179 160q24 -14 62 -25q49 -11 89 -9q25 2 43 10q31 13 34 40q1 12 -5 29q-4 13 -22 44q-6 11 -19 33q-23 41 -33 61q-22 49 -26 82q-1 35 18 60q11 12 36 18q10 1 24 -9q1 0 3.5 -2t3.5 -2q25 -12 50 1q24 15 13 40q-2 4 -4 7q-6 6 -9 8q-15 13 -43 20q-35 8 -77 5 q-56 -8 -91 -23q-49 -23 -69 -61q-22 -42 -9 -95q10 -42 44 -100q41 -69 54 -92q4 -8 3 -10q-2 -2 -9 1h-1q-24 7 -30 7q-33 1 -43 -20q-7 20 -8 22q-8 31 10 55q2 2 5 6q4 4 5 6q8 13 -3 22q-5 5 -9 6q-17 7 -34 6q-54 -5 -89 -43q-33 -37 -17 -82q7 -19 16 -34 q17 -26 38 -47q11 -12 34 -36l33 -36q20 -22 43 -55q7 -16 8 -18q-2 -1 -3 -1q-72 20 -106 39q-20 10 -33 12q-26 3 -39 -4q-21 -13 -9 -32q7 -8 10 -11q18 -16 55 -33q45 -20 126 -39q37 -8 65 -6q35 2 58 17q30 22 22 57q-6 28 -28 59q-18 23 -48 54l-68 71q-12 12 -21 27 z" glyph-name="section" horiz-adv-x="468" unicode="§"/>
<glyph d="M82 695q44 2 74 39q12 14 3 30q-8 16 -10 25t-12 15q-11 6 -21 9q-33 8 -67 -4q-25 -11 -37 -29q-17 -28 1 -56q10 -12 26 -20q16 -7 43 -9zM335 695q44 2 74 39q12 14 3 30q-8 16 -10 25t-12 15t-21 9q-33 8 -67 -4q-25 -11 -37 -29q-17 -28 1 -56q10 -12 26 -20 q16 -7 43 -9z" glyph-name="dieresis" horiz-adv-x="428" unicode="¨"/>
<glyph d="M325 -138q34 0 50 2q102 11 192 64q67 39 132 116q85 105 87 247q1 85 -59 144q-15 14 -52 55q-42 45 -77 74q-13 10 -53 37q-22 14 -49 19q-50 6 -94 -4q-80 -16 -158 -65q-107 -71 -177 -185q-32 -54 -49 -106q-19 -62 -15 -127q3 -53 24 -102q36 -78 118 -124 q84 -46 180 -45zM643 251q0 -31 -8 -61q-25 -86 -74 -146q-45 -55 -118 -89q-36 -17 -79 -25q-83 -12 -148 45q-42 39 -56 112q-13 77 19 162q41 109 123 191q59 61 105 89q27 17 52 27q12 3 19 -3q67 -66 105 -118q12 -19 16 -29q27 -66 32 -82q12 -36 12 -73zM425 265 l2 -2q12 -17 38 -14q28 6 43 38q11 31 -14 51q-15 10 -33 15q-26 7 -56 2q-42 -7 -69 -35q-16 -16 -32 -43q-25 -45 -15 -94q5 -18 16 -31q45 -48 113 -34q30 7 49 27q11 13 6 23q-7 10 -23 9h-3q-19 -3 -40 -15q-13 -6 -15 7q-1 8 1 20q8 34 28 72z" glyph-name="copyright" horiz-adv-x="797" unicode="©"/>
<glyph d="M117 479q-2 -16 -2 -20q3 -16 15 -21q12 -4 25 -1t19 15q1 4 4 11q4 12 6 17q19 53 22 58q13 29 19 60q3 16 -11 22q-19 6 -35 4q-3 -1 -8 -3q-8 -4 -11 -4q-2 0 -17 6q-2 2 -4 2q-45 11 -83 -14q-37 -28 -50 -77q-8 -30 8 -60q10 -18 30 -23q36 -7 59 15l6 6q6 5 8 7z M96 519q7 26 19 45q5 5 10 3q4 -4 2 -8q-23 -32 -31 -40z" glyph-name="ordfeminine" horiz-adv-x="238" unicode="ª"/>
<glyph d="M2 217q4 -37 31 -68q34 -38 65 -74q49 -57 103 -98q36 -27 67 -40q28 -10 57 -7q21 3 32 12q13 11 3 25q-5 6 -15 14q-13 9 -34 26q-54 50 -103 108q-41 50 -54 107q-5 29 16 48q13 10 17 13q28 20 83 57q85 58 112 80q10 8 14 13q11 16 -3 28q-7 6 -22 10q-38 8 -75 -10 q-27 -12 -48 -26q-84 -50 -126 -76t-70 -48q-20 -17 -29 -29q-23 -31 -21 -65zM244 217q4 -37 31 -68q34 -38 65 -74q49 -57 103 -98q36 -27 67 -40q28 -10 57 -7q21 3 32 12q13 11 3 25q-5 6 -15 14q-13 9 -34 26q-54 50 -103 108q-41 50 -54 107q-5 29 16 48q13 10 17 13 q28 20 83 57q85 58 112 80q10 8 14 13q11 16 -3 28q-7 6 -22 10q-38 8 -75 -10q-27 -12 -48 -26q-84 -50 -126 -76t-70 -48q-20 -17 -29 -29q-23 -31 -21 -65z" glyph-name="guillemotleft" horiz-adv-x="656" unicode="«"/>
<glyph d="M376 269q-6 0 -52 -2q-17 0 -51 -1h-50q-61 -2 -178 -10q-15 0 -28 -6q-20 -8 -10 -25q1 -3 2 -4q5 -7 13 -12q21 -14 50 -17q22 -2 83 0q80 6 120 8q11 0 35 2q23 2 34 2h22q16 1 23 1t7 -5v-4q-2 -16 -6 -31q-2 -9 -7 -29q-9 -31 -12 -47q-6 -30 -5 -44q1 -23 20 -35 q14 -7 26 -8q26 -1 34 20q1 3 21 60q26 77 32 91q1 3 3 7q2 5 3 7q12 37 -19 60q-22 15 -52 20q-13 2 -58 2z" glyph-name="logicalnot" horiz-adv-x="524" unicode="¬"/>
<glyph d="M264 228q38 -1 79 8q156 36 264 162q48 59 60 127q11 61 -17 109q-4 8 -11 21q-39 72 -90 121q-35 32 -70 49q-42 21 -82 18q-37 -4 -52 -5q-8 0 -17 -2q-116 -16 -204 -106q-34 -35 -61 -80q-68 -114 -50 -227q20 -117 119 -167q61 -29 132 -28zM150 451q0 61 27 128 q37 88 99 146q46 40 83 52q11 4 19 5q33 2 52 -15q59 -58 90 -131q12 -28 10 -72q-3 -54 -27 -103q-15 -32 -40 -62q-44 -53 -109 -82q-41 -19 -79 -22q-58 -2 -94 46q-22 31 -29 79q-2 27 -2 31zM330 597q-7 15 -28 21q-47 7 -66 -33q-15 -37 -24 -73q-8 -37 -7 -66 q1 -21 20 -28t39 -1q14 4 20 17q7 18 15 32q5 5 9 2q5 -6 10 -10q34 -28 71 -27q14 1 24 7q12 10 1 20l-3 3q-11 6 -18 20q-2 9 4 12q17 7 30 18q21 16 28 31q19 36 -9 62q-8 7 -18 11q-46 16 -87 -10q-7 -5 -11 -8zM366 560q-7 -18 -24 -27q4 13 24 27z" glyph-name="registered" horiz-adv-x="684" unicode="®"/>
<glyph d="M116 783h-35q-21 1 -48 -4q-13 -2 -19 -6q-18 -11 -6 -29q7 -9 19 -16q22 -12 62 -16q11 -1 34 2q14 2 20 2q54 4 82 4q95 4 140 7q22 2 38 10q17 12 3 27q-11 9 -26 14q-24 7 -53 7q-123 2 -211 -2z" glyph-name="macron" horiz-adv-x="426" unicode="¯"/>
<glyph d="M129 642q13 0 19 1q55 9 99 53q19 21 26 45q4 22 -3 37q-22 38 -28 47q-30 36 -70 41q-6 0 -17 2q-17 3 -25 3q-63 -6 -102 -48q-28 -34 -27 -70q2 -49 40 -80q34 -29 88 -31zM114 717q0 22 8 39q11 30 39 56q7 4 10 -1q7 -15 6 -25q-1 -6 -3 -19q-1 -13 -2 -19 q-7 -37 -44 -53q-8 0 -11 5q-3 10 -3 17z" glyph-name="degree" horiz-adv-x="286" unicode="°"/>
<glyph d="M162 281h-16q-23 -2 -34 -7q-28 -16 -9 -39l2 -2q14 -14 40 -23q27 -8 70 -6q6 1 6 -2q0 -2 -1 -4q-2 -8 -6 -22q-4 -16 -5 -23q-11 -44 -12 -72q-2 -32 31 -37h3q44 -2 57 37q24 82 36 122q8 11 13 11q17 1 49 2l51 3q23 2 34 6q15 8 17 15q1 9 -13 19l-1 1 q-11 6 -28 11q-15 4 -58 6q0 1 -16 1l-17 -1q-6 1 -7 3q0 2 1 6q3 12 11 33l9 27q4 26 -21 35q-26 7 -49 1q-18 -7 -27 -22q-8 -14 -15 -39q-2 -5 -5 -17q-4 -12 -6 -17q-3 -8 -11 -8h-8q-10 0 -31 1q-22 1 -34 1zM115 -93h30q37 2 108 4q64 2 96 4q16 2 26 8q15 10 5 24 q-5 8 -14 13q-9 6 -30 12q-33 7 -107 7h-108q-38 2 -68 -1q-24 -2 -38 -10q-19 -11 -8 -29q1 -1 1 -2q9 -10 16 -15q18 -11 47 -15q3 -1 38 0h6z" glyph-name="plusminus" horiz-adv-x="499" unicode="±"/>
<glyph d="M126 473q3 4 9 10q7 8 10 11q35 45 45 78t-17 56q-11 9 -24 12q-43 11 -85 -12q-18 -11 -29 -25q-19 -32 8 -56q10 -8 25 -13q1 0 3 -1t3 -1q5 -1 3 -6q-1 -2 -3 -4q-3 -4 -4 -5q-11 -14 -32 -35q-9 -8 -17 -12q-7 -3 -14 -10q-10 -13 2 -23q9 -6 13 -7q27 -6 45 1 q21 8 43 0q7 -2 18 -4q18 1 27 6q11 9 3 20q-7 9 -19 14q-1 1 -4 2q-6 2 -9 4z" glyph-name="twosuperior" horiz-adv-x="207" unicode="²"/>
<glyph d="M108 414q30 2 43 8q41 18 46 62q2 30 -21 46l-2 1q-3 3 -1 6q1 2 5 6t5 6q12 16 16 30q12 37 -17 60q-13 8 -23 11q-52 10 -91 -20q-24 -20 -23 -52q3 -29 25 -42q3 -3 3 -7q-1 -14 10 -21q7 -3 18 -5q6 -3 6 -8q-2 -12 -9 -22q-4 -4 -8 -2q-18 11 -23 19q-6 9 -14 12 q-21 8 -41 -4q-13 -9 -9 -24q2 -8 7 -13q40 -44 98 -47zM115 588q-1 15 7 22q3 -10 -7 -22z" glyph-name="threesuperior" horiz-adv-x="218" unicode="³"/>
<glyph d="M215 869q-30 2 -46 -25q-11 -18 -30 -49q-24 -41 -53 -61q-34 -24 -51 -37l-27 -21q-10 -12 0 -22q9 -8 25 -12q26 -4 51 7q11 4 46 23l27 18q26 18 38 25q18 11 33 24q42 39 46 82q2 27 -21 41q-20 8 -38 7z" glyph-name="acute" horiz-adv-x="286" unicode="´"/>
<glyph d="M-39 75q-1 -7 -5 -19q-4 -14 -5 -20q-3 -14 -11 -40q-7 -27 -10 -40q0 -2 -1 -4q-1 -4 -1 -5l-1 -9q-8 -43 23 -75q18 -18 40 -28q13 -5 27 -7q28 -3 41 22q13 30 25 73q8 28 11 42q27 4 50 18q53 37 89 80q2 2 16 19q12 14 33 37l1 2l3 3q2 1 3 1q1 -2 1 -4q-1 -3 -1 -4 v-2q-5 -25 -3 -51q0 -30 15 -57q30 -45 81 -41q28 4 49 21q13 12 34 33l14 14q66 68 129 138l8 8q5 6 7 8q14 16 21 25l1 1q6 8 9 16q1 10 -2 14q-5 4 -13 4q-5 0 -7 -1h-1q-16 -5 -30 -17q-34 -30 -49 -47q-3 -4 -6 -7l-44 -46q-38 -40 -75 -78l-1 -2q-3 -4 -9 -6q1 2 1 4 q0 1 1 3q1 3 1 4q13 48 28 88q39 107 81 206q9 22 11 26q15 35 25 77q6 25 -15 38q-6 4 -13 7q-32 10 -64 6q-45 -6 -65 -47q-7 -13 -11 -23q-29 -63 -47 -112q-3 -10 -11 -18q-9 -11 -29 -32q-19 -22 -28 -32l-32 -38q-58 -71 -123 -135l-1 -2q-1 -1 -3 -2q-2 -2 -5 -3 q0 11 3 20q0 4 1 5q16 80 49 164l27 69q16 38 24 58q15 39 23 74q5 28 -20 42q-11 7 -26 10q-27 5 -49 1q-43 -6 -63 -46l-4 -8l-2 -4q-2 -4 -2 -5q-25 -61 -31 -76q-2 -7 -8 -19q-5 -13 -7 -19q-32 -77 -72 -250z" glyph-name="mu" horiz-adv-x="605" unicode="µ"/>
<glyph d="M326 487q-26 0 -57 -5q-128 -20 -214 -97q-35 -33 -47 -67q-9 -26 -5 -50q6 -23 22 -48q20 -26 58 -50q42 -25 86 -38q10 -3 11 -6q-1 -3 -3 -10q-3 -11 -10 -32q-9 -29 -13 -42q-14 -52 -21 -77q-4 -17 11 -24q22 -11 46 -5q22 6 30 25q10 26 34 77q20 44 29 65 q4 7 13 8q0 -1 16 -1l16 1q12 0 12 -3t-3 -10q-30 -94 -44 -141q-12 -43 -16 -72q-5 -33 24 -47q12 -4 14 -5q49 -14 79 21q6 8 10 16t11 24q8 15 11 23q33 80 75 203q20 62 29 85q22 58 19 115q-2 42 -17 70q-26 45 -79 70q-54 25 -127 27zM267 395q1 -4 -1 -7 q-10 -24 -50 -147l-6 -21q-5 -13 -7 -20q-4 -6 -9 -4q-24 13 -38 31q-27 35 -9 75q10 21 35 44q33 28 80 48q3 1 5 1zM386 378q3 -5 5 -16q4 -26 -3 -68q-9 -50 -13 -68q-3 -18 -19 -70q-3 -8 -9 -8h-3q-22 4 -32 6q-6 3 -5 8q1 4 4 11q3 8 4 11q44 114 63 172l3 9q3 9 5 13 z" glyph-name="paragraph" horiz-adv-x="561" unicode="¶"/>
<glyph d="M243 -183q1 28 -15 65q-23 46 -59 88q-28 36 -41 54q-16 21 -49 21q-14 0 -24 -6q-21 -10 -20 -33q2 -16 7 -26q8 -20 32 -58q32 -54 48 -88q8 -19 11 -36q1 -10 -3 -21q-4 -6 -10 -4q-11 6 -23 17q-21 23 -24 53q-1 9 4 14q5 9 -3 16q-22 16 -49 1q-10 -7 -15 -16 q-11 -27 -8 -59q2 -12 14 -26q26 -28 66 -41q53 -18 103 -1q45 19 57 65q1 5 1 21z" glyph-name="cedilla" horiz-adv-x="254" unicode="¸"/>
<glyph d="M26 432q24 0 33 17q1 3 2 5q20 48 37 98q10 25 16 55q1 17 -13 23q-14 4 -21 3q-26 -1 -36 -23q-25 -50 -34 -106l-9 -48q1 -20 19 -23q3 -1 6 -1z" glyph-name="onesuperior" horiz-adv-x="126" unicode="¹"/>
<glyph d="M66 430q30 -1 52 19q22 19 45 54q21 31 26 66q4 31 -20 53q-5 4 -9 6q-25 15 -53 11q-34 -6 -62 -35q-31 -35 -40 -78q-6 -26 -1 -47q15 -49 62 -49zM117 540q-9 26 3 48q13 -21 -3 -48zM84 484q-1 13 4 23q3 4 10 1q2 -3 0 -7q-9 -11 -14 -17z" glyph-name="ordmasculine" horiz-adv-x="202" unicode="º"/>
<glyph d="M644 186q-4 37 -31 68l-42 48q-16 18 -23 26q-48 56 -102 98q-38 27 -68 40q-27 10 -57 7q-21 -3 -32 -12q-12 -11 -3 -25q6 -7 16 -14q12 -9 33 -26q54 -48 103 -108q41 -50 54 -107q5 -29 -16 -48q-13 -10 -17 -13q-28 -20 -83 -57q-85 -58 -112 -80q-10 -8 -14 -13 q-11 -16 3 -28q8 -7 22 -10q38 -8 75 10q22 9 49 26q84 50 125 76q36 22 70 48q20 17 29 29q23 31 21 65zM402 186q-4 37 -31 68l-42 48q-16 18 -23 26q-48 56 -102 98q-38 27 -68 40q-27 10 -57 7q-21 -3 -32 -12q-12 -11 -3 -25q6 -7 16 -14q12 -9 33 -26q54 -48 103 -108 q41 -50 54 -107q5 -29 -16 -48q-13 -10 -17 -13q-28 -20 -83 -57q-85 -58 -112 -80q-10 -8 -14 -13q-11 -16 3 -28q8 -7 22 -10q38 -8 75 10q22 9 49 26q84 50 125 76q36 22 70 48q20 17 29 29q23 31 21 65z" glyph-name="guillemotright" horiz-adv-x="656" unicode="»"/>
<glyph d="M42 -144q26 1 42 19q12 13 34 39q24 27 35 40q92 105 138 163q19 25 58 75t58 75l123 162q48 62 70 98q10 18 13 28q3 14 -8 23q-8 4 -12 5q-45 12 -74 -17q-35 -35 -61 -68q-34 -42 -142 -171q-109 -129 -166 -207q-65 -88 -126 -190q-16 -29 -20 -43q-4 -17 10 -25 q14 -6 28 -6zM427 16q1 5 4 8q32 47 62 110q1 2 3 7t3 7q3 14 -9 23q-12 5 -25 7q-35 3 -51 -16q-39 -47 -65 -88q-18 -31 -28 -59q-8 -23 15 -38q6 -2 7 -2q23 -8 50 -3q3 1 30 6q4 1 4 -2v-2t-1 -3v-3q-9 -26 -13 -69q0 -12 9 -17q14 -5 29 -3q17 5 22 17q4 9 14 26 q6 10 8 14q31 55 61 136q3 8 3 15q-1 11 -8 16q-20 14 -50 5q-12 -4 -19 -11q-12 -14 -20 -34q-10 -24 -14 -36q-6 -10 -14 -11h-7zM207 376q29 1 39 25q3 7 8 19q6 14 9 20q20 50 40 126q3 14 -10 21q-16 7 -34 4q-19 -4 -28 -21q-4 -9 -13 -33q-28 -74 -37 -118 q0 -3 -2 -8q-1 -8 -2 -11q0 -13 11 -19q12 -5 19 -5z" glyph-name="onequarter" horiz-adv-x="626" unicode="¼"/>
<glyph d="M44 -139q26 1 42 16l17 17q3 3 101 104q21 21 58 62q81 95 123 147l81 105q55 70 82 104q52 68 75 103q9 15 13 26q8 21 -12 30q-15 6 -34 5q-27 -2 -49 -24q-27 -25 -82 -89q-27 -30 -79 -90q-53 -60 -79 -90q-85 -100 -123 -147q-91 -113 -145 -197q-19 -28 -28 -51 q-6 -16 8 -24q15 -7 31 -7zM463 -63q3 3 7 8q5 6 7 8q33 34 50 63q20 35 25 60q9 48 -35 66q-2 1 -3 1q-6 2 -15 4q-58 9 -108 -26q-30 -24 -42 -56q-7 -22 4 -40q6 -9 12 -13q13 -10 30 -13q10 -2 10 -4l-5 -9q-15 -18 -33 -33q-24 -22 -37 -33q-14 -11 -1 -25q6 -6 16 -9 q23 -6 40 -3q36 7 72 3q12 -2 18 -6q15 -11 35 -11q20 3 30 12q10 10 3 24q-5 6 -14 13q-15 9 -36 14q-3 0 -30 5zM434 42q0 25 19 46q-1 -25 -19 -46zM312 586q-28 0 -39 -19l-4 -10q-18 -51 -29 -95q-2 -10 -7 -32q-5 -21 -7 -31q-1 -10 5 -15q20 -14 43 0q7 5 11 12 q3 8 11 24q8 15 11 23q27 66 39 114q4 19 -14 26q-14 4 -20 3z" glyph-name="onehalf" horiz-adv-x="651" unicode="½"/>
<glyph d="M48 -156q34 2 53 21q67 67 131 137q74 82 110 123q20 22 60 67q42 48 63 71q46 51 137 150q42 48 58 73q6 8 9 16q4 15 -7 24q-5 4 -11 6q-43 12 -72 -12t-49 -44l-61 -61q-71 -70 -105 -107q-66 -70 -98 -106q-18 -21 -145 -173q-3 -4 -5 -6q-27 -33 -108 -141 q-11 -18 6 -29q11 -7 34 -9zM495 96q3 6 7 13q1 4 5 11q5 21 -12 29q-22 10 -48 4q-18 -5 -31 -24q-23 -35 -45 -62q-25 -32 -42 -64t18 -46q6 -2 9 -2q23 -5 42 -2q6 1 16 3q11 2 16 3q11 3 11 -2q0 -3 -1 -7q-4 -16 -11 -65q-1 -14 12 -20q17 -6 36 -2q12 4 18 14 q4 8 13 24q19 35 25 54q2 6 11 31q20 54 27 83q3 21 -17 30q-19 6 -34 4q-8 -1 -25 -7zM428 6q10 12 28 35q14 19 21 27q-8 -25 -10 -29q-1 -4 -5 -16q-1 -2 -1 -5q-3 -8 -6 -11q-10 -3 -27 -1zM280 479q-2 -3 -7 -7q-11 -10 0 -21q4 -5 12 -7q5 -3 9 -3q6 -4 4 -9 q-6 -11 -15 -4l-3 3q-1 2 -2 3q-6 7 -11 9q-27 10 -51 -3q-21 -12 -8 -34q8 -10 18 -18q20 -13 43 -22q46 -17 94 1q19 7 30 24q20 29 2 57q-6 8 -13 14t-4 9l4 4q9 9 20 28q18 34 -12 62q-4 4 -8 6q-46 28 -96 4q-11 -5 -20 -12q-28 -24 -15 -55q7 -14 20 -23q7 -3 9 -6z " glyph-name="threequarters" horiz-adv-x="683" unicode="¾"/>
<glyph d="M450 -210q-1 67 -36 109q-30 35 -74 59q-30 15 -68 14q-23 -1 -37 -9q-15 -10 -4 -25l3 -3q28 -26 55 -68q22 -34 25 -70q5 -57 -35 -96q-25 -22 -49 -29q-12 -1 -20 3q-18 11 -30 34q-18 32 -20 77q-2 46 14 99q27 87 86 171q49 69 129 161q35 40 57 74q21 34 27 55 q2 8 6 22q5 21 8 30q7 25 7 42q3 63 -57 78q-21 4 -43 1q-23 -2 -38 -14q-16 -14 -3 -27q3 -3 6 -5q9 -5 6 -15q-5 -27 -15 -51t-19 -34t-26 -32q-12 -15 -18 -22q-23 -31 -73 -91q-43 -53 -63 -79q-71 -94 -104 -161q-41 -84 -45 -162q-3 -59 17 -106q38 -86 123 -110 q51 -14 105 -8q93 11 155 77q46 48 48 111zM455 733q-52 0 -89 -45q-7 -10 -10 -22q-4 -12 2 -23l6 -9q4 -7 6 -10q14 -19 33 -26q2 -1 8 -3q4 -1 6 -2q49 -12 91 11q27 16 35 45q6 33 -9 51q-9 12 -19 17q-27 16 -60 16z" glyph-name="questiondown" horiz-adv-x="557" unicode="¿"/>
<glyph d="M264 204q0 -2 -1 -4l-1.5 -3l-1.5 -3l-2 -2q-20 -26 -60 -79q-63 -83 -93 -124q-57 -81 -71 -103l-3 -6q-2 -3 -3 -5q-3 -13 8 -19q7 -4 17 -4q27 1 45 23q12 15 34 45q24 31 35 46q134 179 175 237q7 8 16 10q36 2 106 2q59 0 89 -3q5 0 15 -2q11 -1 16 -1q8 -6 8 -11 v-8q-1 -6 -1 -9q-2 -85 5 -137q13 -81 35 -135q32 -75 81 -119q58 -51 133 -53q19 -1 67 6q53 9 88 24q13 5 21 13q15 14 1 25q-4 3 -7 4q-13 3 -24 2q-6 -1 -18 -4l-12 -3q-10 -2 -29 -4q-18 -3 -27 -4q-27 -3 -51 12q-21 13 -39 36q-34 41 -54 105q-29 92 -26 203 q0 37 3 74q2 37 8 108q5 43 25 175q13 73 45 216q14 63 17 93q0 30 -26 38h-5q-3 1 -4 1q-56 4 -84 -39q-38 -59 -158 -221q-92 -126 -139 -189q-48 -64 -89 -122q-8 -8 -16 -9q-19 -1 -57 -4q-40 -2 -59 -4q-55 -5 -91 -15q-50 -15 -79 -37q-10 -9 -16 -17q-14 -24 5 -44 q24 -23 61 -20q6 1 13 6q10 9 31 19q44 20 116 38q23 5 28 5zM672 653q1 -5 -1 -11q-18 -61 -36 -150q-25 -135 -29 -159l-3 -27q-3 -21 -4 -31q-1 -3 -1 -6q-2 -8 -5 -8t-7 1q-61 13 -137 15q-7 1 -20 1q-14 1 -20 1q-6 1 -7 2q-2 3 2 6l1 1l39 54q26 35 39 53 q118 164 179 245q6 9 10 13zM737 1178q-19 1 -38 -7q-23 -15 -21 -41q5 -44 46 -82q15 -14 33 -24q13 -8 38 -25l27 -18q37 -19 46 -23q26 -11 51 -7q17 4 25 12q9 12 0 22q-3 2 -27 21q-18 14 -51 37q-30 21 -53 61q-20 32 -30 49q-17 27 -46 25z" glyph-name="Agrave" unicode="À"/>
<glyph d="M264 204q0 -2 -1 -4l-1.5 -3l-1.5 -3l-2 -2q-20 -26 -60 -79q-63 -83 -93 -124q-57 -81 -71 -103l-3 -6q-2 -3 -3 -5q-3 -13 8 -19q7 -4 17 -4q27 1 45 23q12 15 34 45q24 31 35 46q134 179 175 237q7 8 16 10q36 2 106 2q59 0 89 -3q5 0 15 -2q11 -1 16 -1q8 -6 8 -11 v-8q-1 -6 -1 -9q-2 -85 5 -137q13 -81 35 -135q32 -75 81 -119q58 -51 133 -53q19 -1 67 6q53 9 88 24q13 5 21 13q15 14 1 25q-4 3 -7 4q-13 3 -24 2q-6 -1 -18 -4l-12 -3q-10 -2 -29 -4q-18 -3 -27 -4q-27 -3 -51 12q-21 13 -39 36q-34 41 -54 105q-29 92 -26 203 q0 37 3 74q2 37 8 108q5 43 25 175q13 73 45 216q14 63 17 93q0 30 -26 38h-5q-3 1 -4 1q-56 4 -84 -39q-38 -59 -158 -221q-92 -126 -139 -189q-48 -64 -89 -122q-8 -8 -16 -9q-19 -1 -57 -4q-40 -2 -59 -4q-55 -5 -91 -15q-50 -15 -79 -37q-10 -9 -16 -17q-14 -24 5 -44 q24 -23 61 -20q6 1 13 6q10 9 31 19q44 20 116 38q23 5 28 5zM672 653q1 -5 -1 -11q-18 -61 -36 -150q-25 -135 -29 -159l-3 -27q-3 -21 -4 -31q-1 -3 -1 -6q-2 -8 -5 -8t-7 1q-61 13 -137 15q-7 1 -20 1q-14 1 -20 1q-6 1 -7 2q-2 3 2 6l1 1l39 54q26 35 39 53 q118 164 179 245q6 9 10 13zM907 1153q-30 2 -46 -25q-11 -18 -30 -49q-24 -41 -53 -61q-34 -24 -51 -37l-27 -21q-10 -12 0 -22q9 -8 25 -12q26 -4 51 7q11 4 46 23l27 18q26 18 38 25q18 11 33 24q42 39 46 82q2 27 -21 41q-20 8 -38 7z" glyph-name="Aacute" unicode="Á"/>
<glyph d="M264 204q0 -2 -1 -4l-1.5 -3l-1.5 -3l-2 -2q-20 -26 -60 -79q-63 -83 -93 -124q-57 -81 -71 -103l-3 -6q-2 -3 -3 -5q-3 -13 8 -19q7 -4 17 -4q27 1 45 23q12 15 34 45q24 31 35 46q134 179 175 237q7 8 16 10q36 2 106 2q59 0 89 -3q5 0 15 -2q11 -1 16 -1q8 -6 8 -11 v-8q-1 -6 -1 -9q-2 -85 5 -137q13 -81 35 -135q32 -75 81 -119q58 -51 133 -53q19 -1 67 6q53 9 88 24q13 5 21 13q15 14 1 25q-4 3 -7 4q-13 3 -24 2q-6 -1 -18 -4l-12 -3q-10 -2 -29 -4q-18 -3 -27 -4q-27 -3 -51 12q-21 13 -39 36q-34 41 -54 105q-29 92 -26 203 q0 37 3 74q2 37 8 108q5 43 25 175q13 73 45 216q14 63 17 93q0 30 -26 38h-5q-3 1 -4 1q-56 4 -84 -39q-38 -59 -158 -221q-92 -126 -139 -189q-48 -64 -89 -122q-8 -8 -16 -9q-19 -1 -57 -4q-40 -2 -59 -4q-55 -5 -91 -15q-50 -15 -79 -37q-10 -9 -16 -17q-14 -24 5 -44 q24 -23 61 -20q6 1 13 6q10 9 31 19q44 20 116 38q23 5 28 5zM672 653q1 -5 -1 -11q-18 -61 -36 -150q-25 -135 -29 -159l-3 -27q-3 -21 -4 -31q-1 -3 -1 -6q-2 -8 -5 -8t-7 1q-61 13 -137 15q-7 1 -20 1q-14 1 -20 1q-6 1 -7 2q-2 3 2 6l1 1l39 54q26 35 39 53 q118 164 179 245q6 9 10 13zM825 1030q1 -3 9 -21q12 -31 27 -55q25 -38 72 -34q8 1 17 5q12 8 10 21q0 2 -2 5q-1 4 -1 5q-3 8 -8 22q-6 16 -8 23l-12 33q-5 21 -22 54q-19 34 -57 39q-46 4 -65 -27q-20 -34 -59 -85q-33 -43 -40 -56q-17 -36 17 -45q4 -1 8 -1h2 q28 -2 50 23q21 26 36 54q17 29 26 40z" glyph-name="Acircumflex" unicode="Â"/>
<glyph d="M264 204q0 -2 -1 -4l-1.5 -3l-1.5 -3l-2 -2q-20 -26 -60 -79q-63 -83 -93 -124q-57 -81 -71 -103l-3 -6q-2 -3 -3 -5q-3 -13 8 -19q7 -4 17 -4q27 1 45 23q12 15 34 45q24 31 35 46q134 179 175 237q7 8 16 10q36 2 106 2q59 0 89 -3q5 0 15 -2q11 -1 16 -1q8 -6 8 -11 v-8q-1 -6 -1 -9q-2 -85 5 -137q13 -81 35 -135q32 -75 81 -119q58 -51 133 -53q19 -1 67 6q53 9 88 24q13 5 21 13q15 14 1 25q-4 3 -7 4q-13 3 -24 2q-6 -1 -18 -4l-12 -3q-10 -2 -29 -4q-18 -3 -27 -4q-27 -3 -51 12q-21 13 -39 36q-34 41 -54 105q-29 92 -26 203 q0 37 3 74q2 37 8 108q5 43 25 175q13 73 45 216q14 63 17 93q0 30 -26 38h-5q-3 1 -4 1q-56 4 -84 -39q-38 -59 -158 -221q-92 -126 -139 -189q-48 -64 -89 -122q-8 -8 -16 -9q-19 -1 -57 -4q-40 -2 -59 -4q-55 -5 -91 -15q-50 -15 -79 -37q-10 -9 -16 -17q-14 -24 5 -44 q24 -23 61 -20q6 1 13 6q10 9 31 19q44 20 116 38q23 5 28 5zM672 653q1 -5 -1 -11q-18 -61 -36 -150q-25 -135 -29 -159l-3 -27q-3 -21 -4 -31q-1 -3 -1 -6q-2 -8 -5 -8t-7 1q-61 13 -137 15q-7 1 -20 1q-14 1 -20 1q-6 1 -7 2q-2 3 2 6l1 1l39 54q26 35 39 53 q118 164 179 245q6 9 10 13zM913 910q38 -1 71 17q27 16 37 40q11 35 -21 50q-19 8 -41 7q-31 -3 -44 -25l-3 -3q-1 -3 -2 -4q-12 -17 -18 -16q-5 1 -18 8q-60 33 -111 36q-50 1 -87 -17q-28 -17 -38 -49q-6 -22 11 -32q2 -2 3 -2q28 -13 58 -9q19 4 28 12q20 16 30 26 q7 7 13 4l4 -2l45 -21q41 -20 83 -20z" glyph-name="Atilde" unicode="Ã"/>
<glyph d="M264 204q0 -2 -1 -4l-1.5 -3l-1.5 -3l-2 -2q-20 -26 -60 -79q-63 -83 -93 -124q-57 -81 -71 -103l-3 -6q-2 -3 -3 -5q-3 -13 8 -19q7 -4 17 -4q27 1 45 23q12 15 34 45q24 31 35 46q134 179 175 237q7 8 16 10q36 2 106 2q59 0 89 -3q5 0 15 -2q11 -1 16 -1q8 -6 8 -11 v-8q-1 -6 -1 -9q-2 -85 5 -137q13 -81 35 -135q32 -75 81 -119q58 -51 133 -53q19 -1 67 6q53 9 88 24q13 5 21 13q15 14 1 25q-4 3 -7 4q-13 3 -24 2q-6 -1 -18 -4l-12 -3q-10 -2 -29 -4q-18 -3 -27 -4q-27 -3 -51 12q-21 13 -39 36q-34 41 -54 105q-29 92 -26 203 q0 37 3 74q2 37 8 108q5 43 25 175q13 73 45 216q14 63 17 93q0 30 -26 38h-5q-3 1 -4 1q-56 4 -84 -39q-38 -59 -158 -221q-92 -126 -139 -189q-48 -64 -89 -122q-8 -8 -16 -9q-19 -1 -57 -4q-40 -2 -59 -4q-55 -5 -91 -15q-50 -15 -79 -37q-10 -9 -16 -17q-14 -24 5 -44 q24 -23 61 -20q6 1 13 6q10 9 31 19q44 20 116 38q23 5 28 5zM672 653q1 -5 -1 -11q-18 -61 -36 -150q-25 -135 -29 -159l-3 -27q-3 -21 -4 -31q-1 -3 -1 -6q-2 -8 -5 -8t-7 1q-61 13 -137 15q-7 1 -20 1q-14 1 -20 1q-6 1 -7 2q-2 3 2 6l1 1l39 54q26 35 39 53 q118 164 179 245q6 9 10 13zM676 904q44 2 74 39q12 13 3 30q-8 16 -10 25t-12 15q-11 6 -21 9q-33 8 -67 -4q-25 -11 -37 -29q-17 -28 1 -56q10 -12 26 -20q16 -7 43 -9zM929 904q44 2 74 39q12 13 3 30q-8 16 -10 25t-12 15t-21 9q-33 8 -67 -4q-25 -11 -37 -29 q-17 -28 1 -56q10 -12 26 -20q16 -7 43 -9z" glyph-name="Adieresis" unicode="Ä"/>
<glyph d="M264 204q0 -2 -1 -4l-1.5 -3l-1.5 -3l-2 -2q-20 -26 -60 -79q-63 -83 -93 -124q-57 -81 -71 -103l-3 -6q-2 -3 -3 -5q-3 -13 8 -19q7 -4 17 -4q27 1 45 23q12 15 34 45q24 31 35 46q134 179 175 237q7 8 16 10q36 2 106 2q59 0 89 -3q5 0 15 -2q11 -1 16 -1q8 -6 8 -11 v-8q-1 -6 -1 -9q-2 -85 5 -137q13 -81 35 -135q32 -75 81 -119q58 -51 133 -53q19 -1 67 6q53 9 88 24q13 5 21 13q15 14 1 25q-4 3 -7 4q-13 3 -24 2q-6 -1 -18 -4l-12 -3q-10 -2 -29 -4q-18 -3 -27 -4q-27 -3 -51 12q-21 13 -39 36q-34 41 -54 105q-29 92 -26 203 q0 37 3 74q2 37 8 108q5 43 25 175q13 73 45 216q14 63 17 93q0 30 -26 38h-5q-3 1 -4 1q-56 4 -84 -39q-38 -59 -158 -221q-92 -126 -139 -189q-48 -64 -89 -122q-8 -8 -16 -9q-19 -1 -57 -4q-40 -2 -59 -4q-55 -5 -91 -15q-50 -15 -79 -37q-10 -9 -16 -17q-14 -24 5 -44 q24 -23 61 -20q6 1 13 6q10 9 31 19q44 20 116 38q23 5 28 5zM672 653q1 -5 -1 -11q-18 -61 -36 -150q-25 -135 -29 -159l-3 -27q-3 -21 -4 -31q-1 -3 -1 -6q-2 -8 -5 -8t-7 1q-61 13 -137 15q-7 1 -20 1q-14 1 -20 1q-6 1 -7 2q-2 3 2 6l1 1l39 54q26 35 39 53 q118 164 179 245q6 9 10 13zM852 926q13 0 19 1q55 9 99 53q19 21 26 45q4 22 -3 37q-22 38 -28 47q-30 36 -70 41q-6 0 -17 2q-17 3 -25 3q-63 -6 -102 -48q-28 -34 -27 -70q2 -49 40 -80q34 -29 88 -31zM837 1001q0 22 8 39q11 30 39 56q7 4 10 -1q7 -15 6 -25 q-1 -6 -2 -19q-2 -13 -3 -19q-7 -37 -44 -53q-8 0 -11 5q-3 10 -3 17z" glyph-name="Aring" unicode="Å"/>
<glyph d="M672 653q1 -3 1 -5q-1 -2 -2 -5v-1q-21 -74 -36 -150q-11 -54 -29 -159q-4 -26 -5 -39q-1 -3 -1.5 -9.5t-0.5 -9.5l-1 -1v-5q-2 -5 -3 -7t-9 0q-68 15 -137 15l-34 2h-8h-3q-1 0 -1 1l-1 1q-2 1 0 3q1 2 2 3l1 1l32 44q7 10 23 32q16 21 23 31q28 40 43 59 q77 107 136 186l6 8q3 3 4 5zM581 145q-21 -51 -17 -108q11 -76 67 -128q28 -70 81 -119q57 -51 133 -53q27 0 60 5q3 1 7 1q45 6 88 24q13 5 21 13q5 6 6 10h5q3 1 4 1q106 12 204 59q80 36 138 95l2 2q19 20 35 43q11 18 11 36q1 34 -13 70q-11 25 -34 35q-26 10 -50 6 q-9 -2 -16 -6q-13 -10 -5 -23q3 -4 5 -11q4 -28 -10 -55q-10 -20 -26 -39q-41 -49 -96 -79q-78 -42 -164 -53q-61 -9 -119 3q-68 14 -117 63q-20 22 -29 45q-4 14 -7 32v21q3 42 23 82q39 72 92 127q46 51 110 72q49 17 96 20h4q6 0 19 2q19 2 32 12q19 16 3 36q-5 5 -14 10 q-15 8 -30 11q-21 4 -53 13q-30 9 -60 26q-35 28 -27 67q4 19 12 36q27 54 69 92q107 97 252 100q27 1 48 -11q37 -29 30 -74q-3 -24 -12 -44q-20 -41 -54 -73q-41 -34 -89 -63q-1 -1 -3 -2t-3 -1q-3 -2 -6 -5q-18 -15 0 -30q9 -7 20 -9q26 -7 55 -1q45 9 85 33 q81 47 128 129q16 28 21 60q5 60 -39 102q-36 33 -88 47q-73 20 -142 17q-126 -5 -247 -58q-81 -37 -141 -100q-32 -34 -50 -70q16 80 28 130q0 1 2 7l2 12q10 41 15 81q1 30 -26 38q-4 1 -9 1q-52 6 -84 -39q-63 -95 -116 -165l-42 -56l-94 -128q-30 -40 -45 -61 q-5 -6 -7 -9q-65 -90 -82 -113q-3 -4 -6 -6q-5 -3 -10 -3q-5 -1 -13 -1q-67 -4 -103 -7q-46 -5 -91 -15q-41 -10 -79 -37q-10 -9 -16 -17q-14 -24 5 -44q27 -24 61 -20q7 2 13 6q12 10 31 19q58 25 116 38q2 1 3 1q10 2 25 4q0 -5 -1 -6l-4 -4l-1 -2q-8 -10 -23 -30 q-28 -37 -41 -55q-60 -78 -89 -118l-6 -9q-29 -39 -65 -94q-3 -4 -6 -11q-3 -14 8 -19q7 -4 17 -4q27 1 45 23q46 60 69 91q118 158 175 237q5 8 16 10q70 2 106 2h2q44 1 87 -3q12 -1 31 -3q5 -2 7 -3q1 -2 1 -8q0 -5 -1 -7v-10q0 -10 -1 -15zM802 427q25 -25 55 -39 q2 -1 3 -1q1 -1 4 -2q0 -1 1 -1l1 -2l-2 -3q-1 -1 -4 -2h-2q-44 -15 -85 -35l-28 -14q1 3 1 6q9 76 21 153q10 -36 35 -60z" glyph-name="AE" horiz-adv-x="1553" unicode="Æ"/>
<glyph d="M317 -249q12 -29 26 -48l6 -10q28 -44 48 -88q8 -19 11 -36q2 -11 -3 -21q-2 -3 -3 -5q-2 -1 -6 1h-1q-11 6 -23 17q-21 23 -24 53q0 6 4 14q6 9 -3 16q-17 10 -35 6q-20 -6 -29 -21q-12 -30 -8 -59q4 -15 14 -26q30 -29 66 -41q52 -19 103 -1q46 18 57 65q2 12 1 17v4 q0 34 -15 65q-25 48 -59 88q-4 6 -11 15q-10 12 -15 19q36 3 75 14q116 31 214 109q51 40 93 94q19 27 27 59l2 10q4 19 5 26q4 23 0 45q-8 30 -34 40q-21 7 -44 4q-19 -2 -32 -12q-15 -12 -4 -27q6 -9 5 -16q-2 -27 -14 -53q-29 -61 -75 -109q-80 -79 -184 -107 q-52 -16 -108 -7q-100 19 -141 114q-23 55 -21 120q-1 33 5 72q15 83 44 164q26 73 65 143q61 111 153 194q68 58 155 87q32 11 62 11q44 -3 66 -38q19 -31 13 -66q-15 -85 -80 -135q-19 -15 -44 -25q-7 -2 -10 -4q-4 -5 -4 -10q1 -6 4 -9q5 -5 9 -6q11 -5 22 -6 q39 -3 75 15q34 18 68 47q50 45 72 104q16 44 6 89q-17 57 -70 85q-63 32 -133 34q-40 1 -81 -6q-92 -14 -176 -61q-110 -64 -199 -159q-46 -49 -78 -98q-54 -79 -87 -171q-30 -81 -36 -167q-6 -84 18 -166q36 -111 133 -170q73 -43 156 -52q2 -15 7 -24z" glyph-name="Ccedilla" horiz-adv-x="950" unicode="Ç"/>
<glyph d="M287 382q-2 -3 -8 -5q-42 -15 -86 -35q-69 -35 -114 -81q-54 -58 -78 -116q-22 -61 -16 -108q9 -73 67 -128q58 -56 142 -88q51 -18 113 -26q80 -11 150 -4q102 10 204 59q86 41 138 95q26 26 37 45q11 18 11 36q0 42 -13 70q-12 25 -34 35q-26 10 -51 6q-10 -2 -15 -6 q-14 -10 -6 -23q4 -5 6 -11q2 -31 -10 -55q-10 -20 -26 -39q-33 -43 -97 -79q-70 -40 -163 -53q-69 -8 -119 3q-71 17 -117 63q-40 42 -37 98q5 43 24 82q33 64 91 127q46 51 111 72q59 19 95 20q16 0 24 2q22 4 32 12q20 17 2 36q-9 8 -13 10q-17 8 -30 11q-36 8 -53 13 q-42 14 -60 26q-35 25 -27 67q3 15 12 36q24 50 69 92q110 98 251 100q31 -1 49 -11q34 -25 30 -74q-2 -20 -12 -44q-19 -39 -54 -73q-27 -24 -93 -65l-9 -6q-17 -15 1 -30q7 -5 20 -9q24 -7 55 -1q37 7 85 33q81 47 128 129q17 28 21 60q5 59 -39 102q-36 32 -88 47 q-68 20 -143 17q-134 -7 -246 -58q-86 -41 -141 -100q-43 -47 -62 -96q-11 -28 -10 -48q1 -50 37 -87q27 -25 56 -39zM536 1117q-19 1 -38 -7q-23 -15 -21 -41q5 -44 46 -82q15 -13 33 -24q13 -8 38 -25l27 -18q37 -19 46 -23q26 -11 51 -7q17 4 25 12q9 12 0 22 q-3 2 -27 21q-18 14 -51 37q-30 21 -53 61q-20 32 -30 49q-17 27 -46 25z" glyph-name="Egrave" horiz-adv-x="974" unicode="È"/>
<glyph d="M287 382q-2 -3 -8 -5q-42 -15 -86 -35q-69 -35 -114 -81q-54 -58 -78 -116q-22 -61 -16 -108q9 -73 67 -128q58 -56 142 -88q51 -18 113 -26q80 -11 150 -4q102 10 204 59q86 41 138 95q26 26 37 45q11 18 11 36q0 42 -13 70q-12 25 -34 35q-26 10 -51 6q-10 -2 -15 -6 q-14 -10 -6 -23q4 -5 6 -11q2 -31 -10 -55q-10 -20 -26 -39q-33 -43 -97 -79q-70 -40 -163 -53q-69 -8 -119 3q-71 17 -117 63q-40 42 -37 98q5 43 24 82q33 64 91 127q46 51 111 72q59 19 95 20q16 0 24 2q22 4 32 12q20 17 2 36q-9 8 -13 10q-17 8 -30 11q-36 8 -53 13 q-42 14 -60 26q-35 25 -27 67q3 15 12 36q24 50 69 92q110 98 251 100q31 -1 49 -11q34 -25 30 -74q-2 -20 -12 -44q-19 -39 -54 -73q-27 -24 -93 -65l-9 -6q-17 -15 1 -30q7 -5 20 -9q24 -7 55 -1q37 7 85 33q81 47 128 129q17 28 21 60q5 59 -39 102q-36 32 -88 47 q-68 20 -143 17q-134 -7 -246 -58q-86 -41 -141 -100q-43 -47 -62 -96q-11 -28 -10 -48q1 -50 37 -87q27 -25 56 -39zM743 1103q-30 2 -46 -25q-11 -18 -30 -49q-24 -41 -53 -61q-34 -24 -51 -37l-27 -21q-10 -12 0 -22q9 -8 25 -12q26 -4 51 7q11 4 46 23l27 18 q26 18 38 25q18 11 33 24q42 39 46 82q2 27 -21 41q-20 8 -38 7z" glyph-name="Eacute" horiz-adv-x="974" unicode="É"/>
<glyph d="M287 382q-2 -3 -8 -5q-42 -15 -86 -35q-69 -35 -114 -81q-54 -58 -78 -116q-22 -61 -16 -108q9 -73 67 -128q58 -56 142 -88q51 -18 113 -26q80 -11 150 -4q102 10 204 59q86 41 138 95q26 26 37 45q11 18 11 36q0 42 -13 70q-12 25 -34 35q-26 10 -51 6q-10 -2 -15 -6 q-14 -10 -6 -23q4 -5 6 -11q2 -31 -10 -55q-10 -20 -26 -39q-33 -43 -97 -79q-70 -40 -163 -53q-69 -8 -119 3q-71 17 -117 63q-40 42 -37 98q5 43 24 82q33 64 91 127q46 51 111 72q59 19 95 20q16 0 24 2q22 4 32 12q20 17 2 36q-9 8 -13 10q-17 8 -30 11q-36 8 -53 13 q-42 14 -60 26q-35 25 -27 67q3 15 12 36q24 50 69 92q110 98 251 100q31 -1 49 -11q34 -25 30 -74q-2 -20 -12 -44q-19 -39 -54 -73q-27 -24 -93 -65l-9 -6q-17 -15 1 -30q7 -5 20 -9q24 -7 55 -1q37 7 85 33q81 47 128 129q17 28 21 60q5 59 -39 102q-36 32 -88 47 q-68 20 -143 17q-134 -7 -246 -58q-86 -41 -141 -100q-43 -47 -62 -96q-11 -28 -10 -48q1 -50 37 -87q27 -25 56 -39zM639 1010q1 -3 9 -21q12 -31 27 -55q25 -38 72 -34q8 1 17 5q12 8 10 21q0 2 -2 5q-1 4 -1 5q-3 8 -8 22q-6 16 -8 23l-12 33q-5 21 -22 54q-19 34 -57 39 q-46 4 -65 -27q-20 -34 -59 -85q-33 -43 -40 -56q-17 -36 17 -45q4 -1 8 -1h2q28 -2 50 23q21 26 36 54q17 29 26 40z" glyph-name="Ecircumflex" horiz-adv-x="974" unicode="Ê"/>
<glyph d="M287 382q-2 -3 -8 -5q-42 -15 -86 -35q-69 -35 -114 -81q-54 -58 -78 -116q-22 -61 -16 -108q9 -73 67 -128q58 -56 142 -88q51 -18 113 -26q80 -11 150 -4q102 10 204 59q86 41 138 95q26 26 37 45q11 18 11 36q0 42 -13 70q-12 25 -34 35q-26 10 -51 6q-10 -2 -15 -6 q-14 -10 -6 -23q4 -5 6 -11q2 -31 -10 -55q-10 -20 -26 -39q-33 -43 -97 -79q-70 -40 -163 -53q-69 -8 -119 3q-71 17 -117 63q-40 42 -37 98q5 43 24 82q33 64 91 127q46 51 111 72q59 19 95 20q16 0 24 2q22 4 32 12q20 17 2 36q-9 8 -13 10q-17 8 -30 11q-36 8 -53 13 q-42 14 -60 26q-35 25 -27 67q3 15 12 36q24 50 69 92q110 98 251 100q31 -1 49 -11q34 -25 30 -74q-2 -20 -12 -44q-19 -39 -54 -73q-27 -24 -93 -65l-9 -6q-17 -15 1 -30q7 -5 20 -9q24 -7 55 -1q37 7 85 33q81 47 128 129q17 28 21 60q5 59 -39 102q-36 32 -88 47 q-68 20 -143 17q-134 -7 -246 -58q-86 -41 -141 -100q-43 -47 -62 -96q-11 -28 -10 -48q1 -50 37 -87q27 -25 56 -39zM493 865q44 2 74 39q12 14 3 30q-8 16 -10 25t-12 15t-21 9q-33 8 -67 -4q-25 -11 -37 -29q-17 -28 1 -56q10 -12 26 -20q16 -7 43 -9zM746 865 q44 2 74 39q12 14 3 30q-8 16 -10 25t-12 15q-11 6 -21 9q-33 8 -67 -4q-25 -11 -37 -29q-17 -28 1 -56q10 -12 26 -20q16 -7 43 -9z" glyph-name="Edieresis" horiz-adv-x="974" unicode="Ë"/>
<glyph d="M701 736q2 -4 0 -7q-5 -28 -21 -79q-52 -168 -57 -182l-36 -111q-42 -131 -65 -195q-50 -134 -112 -234q-46 -70 -92 -109q-39 -32 -81 -45q-26 -6 -49 -1q-25 8 -31 32q-3 20 6 38q24 49 74 76q8 4 17 1q25 -10 44 -13q23 -1 36 5q26 14 12 38q-1 1 -1 2q-3 7 -13 15 l-1 1q-15 11 -41 18q-65 17 -134 -8q-52 -19 -96 -61q-28 -28 -44 -55q-17 -28 -13 -54q5 -38 39 -68q30 -24 70 -35q94 -27 188 -6q93 20 178 99q37 35 77 94q36 55 71 128q49 103 87 212q1 3 87 270q31 103 54 209q8 44 7 65q-1 31 -28 48q-10 5 -27 11q-39 8 -80 -2 q-12 -4 -52 -20q-113 -49 -174 -89q-56 -37 -91 -78q-22 -27 -29 -58q-9 -41 14 -71q41 -51 105 -46q14 2 26 11q6 7 0 13q-1 1 -4 3q-24 10 -30 48q-1 14 1 23q10 28 23 46q18 20 41 39q53 44 127 75q13 6 18 7zM691 1167q-19 1 -38 -7q-23 -15 -21 -41q5 -44 46 -82 q15 -13 33 -24q13 -8 38 -25l27 -18q37 -19 46 -23q26 -11 51 -7q17 4 25 12q9 12 0 22q-3 2 -27 21q-18 14 -51 37q-30 21 -53 61q-20 32 -30 49q-17 27 -46 25z" glyph-name="Igrave" horiz-adv-x="796" unicode="Ì"/>
<glyph d="M701 736q2 -4 0 -7q-5 -28 -21 -79q-52 -168 -57 -182l-36 -111q-42 -131 -65 -195q-50 -134 -112 -234q-46 -70 -92 -109q-39 -32 -81 -45q-26 -6 -49 -1q-25 8 -31 32q-3 20 6 38q24 49 74 76q8 4 17 1q25 -10 44 -13q23 -1 36 5q26 14 12 38q-1 1 -1 2q-3 7 -13 15 l-1 1q-15 11 -41 18q-65 17 -134 -8q-52 -19 -96 -61q-28 -28 -44 -55q-17 -28 -13 -54q5 -38 39 -68q30 -24 70 -35q94 -27 188 -6q93 20 178 99q37 35 77 94q36 55 71 128q49 103 87 212q1 3 87 270q31 103 54 209q8 44 7 65q-1 31 -28 48q-10 5 -27 11q-39 8 -80 -2 q-12 -4 -52 -20q-113 -49 -174 -89q-56 -37 -91 -78q-22 -27 -29 -58q-9 -41 14 -71q41 -51 105 -46q14 2 26 11q6 7 0 13q-1 1 -4 3q-24 10 -30 48q-1 14 1 23q10 28 23 46q18 20 41 39q53 44 127 75q13 6 18 7zM858 1143q-30 2 -46 -25q-11 -18 -30 -49q-24 -41 -53 -61 q-34 -24 -51 -37l-27 -21q-10 -12 0 -22q9 -8 25 -12q26 -4 51 7q11 4 46 23l27 18q26 18 38 25q18 11 33 24q42 39 46 82q2 27 -21 41q-20 8 -38 7z" glyph-name="Iacute" horiz-adv-x="796" unicode="Í"/>
<glyph d="M701 736q2 -4 0 -7q-5 -28 -21 -79q-52 -168 -57 -182l-36 -111q-42 -131 -65 -195q-50 -134 -112 -234q-46 -70 -92 -109q-39 -32 -81 -45q-26 -6 -49 -1q-25 8 -31 32q-3 20 6 38q24 49 74 76q8 4 17 1q25 -10 44 -13q23 -1 36 5q26 14 12 38q-1 1 -1 2q-3 7 -13 15 l-1 1q-15 11 -41 18q-65 17 -134 -8q-52 -19 -96 -61q-28 -28 -44 -55q-17 -28 -13 -54q5 -38 39 -68q30 -24 70 -35q94 -27 188 -6q93 20 178 99q37 35 77 94q36 55 71 128q49 103 87 212q1 3 87 270q31 103 54 209q8 44 7 65q-1 31 -28 48q-10 5 -27 11q-39 8 -80 -2 q-12 -4 -52 -20q-113 -49 -174 -89q-56 -37 -91 -78q-22 -27 -29 -58q-9 -41 14 -71q41 -51 105 -46q14 2 26 11q6 7 0 13q-1 1 -4 3q-24 10 -30 48q-1 14 1 23q10 28 23 46q18 20 41 39q53 44 127 75q13 6 18 7zM784 1023q1 -3 9 -21q12 -31 27 -55q25 -38 72 -34q8 1 17 5 q12 8 10 21q-1 1 -1 5q-2 4 -2 5q-2 7 -8 23q-6 15 -8 22l-12 33q-5 21 -22 54q-19 34 -57 39q-46 4 -65 -27q-20 -34 -59 -85q-33 -43 -40 -56q-17 -36 17 -45q4 -1 8 -1h2q28 -2 50 23q21 25 36 54q17 29 26 40z" glyph-name="Icircumflex" horiz-adv-x="796" unicode="Î"/>
<glyph d="M701 736q2 -4 0 -7q-5 -28 -21 -79q-52 -168 -57 -182l-36 -111q-42 -131 -65 -195q-50 -134 -112 -234q-46 -70 -92 -109q-39 -32 -81 -45q-26 -6 -49 -1q-25 8 -31 32q-3 20 6 38q24 49 74 76q8 4 17 1q25 -10 44 -13q23 -1 36 5q26 14 12 38q-1 1 -1 2q-3 7 -13 15 l-1 1q-15 11 -41 18q-65 17 -134 -8q-52 -19 -96 -61q-28 -28 -44 -55q-17 -28 -13 -54q5 -38 39 -68q30 -24 70 -35q94 -27 188 -6q93 20 178 99q37 35 77 94q36 55 71 128q49 103 87 212q1 3 87 270q31 103 54 209q8 44 7 65q-1 31 -28 48q-10 5 -27 11q-39 8 -80 -2 q-12 -4 -52 -20q-113 -49 -174 -89q-56 -37 -91 -78q-22 -27 -29 -58q-9 -41 14 -71q41 -51 105 -46q14 2 26 11q6 7 0 13q-1 1 -4 3q-24 10 -30 48q-1 14 1 23q10 28 23 46q18 20 41 39q53 44 127 75q13 6 18 7zM631 905q44 2 74 39q12 14 3 30q-8 16 -10 25t-12 15t-21 9 q-33 8 -67 -4q-25 -11 -37 -29q-17 -28 1 -56q10 -12 26 -20q16 -7 43 -9zM884 905q44 2 74 39q12 14 3 30q-8 16 -10 25t-12 15q-11 6 -21 9q-33 8 -67 -4q-25 -11 -37 -29q-17 -28 1 -56q10 -12 26 -20q16 -7 43 -9z" glyph-name="Idieresis" horiz-adv-x="796" unicode="Ï"/>
<glyph d="M54 359q-8 -1 -14 0q-48 2 -72 1l-24 -2q-26 -1 -77 -3l-20 -2q-13 -3 -14 -16q-1 -17 10 -30t27 -15q45 -4 90 -6q27 -1 79 -1h21q-16 -54 -23 -104q-5 -30 -2 -56q4 -30 31 -38q53 -14 91 26l11 14q24 35 26 38q3 6 10 16l6 9q42 62 61 94h19q6 0 15 -1q12 0 16 -1h6 q20 -1 57 -1q9 -1 25 -1h5q25 3 22 27q-3 17 -14 31q-10 14 -27 15h-1q-16 0 -24 1q-18 2 -43 3h-12l9 15q20 32 30 49q70 121 157 230q51 64 117 112q20 15 41 25q6 3 9 3q5 -3 8 -7q12 -16 17 -28q29 -73 37 -151q3 -35 2 -63q-2 -55 -9 -110q-24 -172 -107 -324 q-48 -88 -120 -159q-54 -52 -115 -79q-79 -34 -164 -16q-28 6 -54 23q-21 17 -10 41q5 10 13 17q24 19 55 25q31 7 69 10q58 8 117 -6q27 -8 53 -5q20 2 37 14q18 17 4 38q-6 5 -11 8q-18 10 -27 14q-62 19 -128 18q-73 1 -147 -15q-49 -11 -94 -30q-43 -22 -67 -64 q-24 -48 8 -89q15 -15 28 -24q35 -23 75 -33q91 -25 189 -17q53 4 113 22q140 47 238 154q53 57 89 118q59 101 91 217q29 102 31 210q1 84 -14 156q-14 63 -42 121q-15 30 -41 51q-49 36 -109 35q-78 -2 -142 -48q-84 -61 -147 -148q-56 -75 -105 -161l-10 -16l-4 -8l-2 4 q1 2 1 3v1q38 94 72 189q0 1 2 4q1 3 1 4q18 47 29 89v1q4 15 6 29q2 21 -18 30q-15 7 -31 7q-49 3 -75 -37q-13 -20 -21 -37q-3 -10 -11 -25q-11 -24 -31 -69q-47 -103 -82 -193q-15 -42 -43 -123h-28z" glyph-name="Eth" horiz-adv-x="950" unicode="Ð"/>
<glyph d="M451 316l-2 1q2 8 4 12q33 99 43 127q5 14 14 43q14 41 20 61q29 109 32 158q1 27 -5 47q-22 72 -94 92q-71 19 -150 2q-154 -38 -248 -156q-44 -57 -54 -116q-10 -65 38 -103q41 -31 92 -22q15 2 23 9q10 10 2 20q-2 2 -6 5l-6 6q-17 16 -24 29q-21 41 -2 90 q21 50 65 90q65 58 152 83q19 6 35 6q15 0 23 -12q9 -18 11 -34q4 -29 -5 -77q-3 -18 -22 -91q-19 -74 -45 -139q-39 -93 -70 -163q-49 -111 -78 -224q-24 -95 -41 -178q-6 -32 -6 -47q1 -19 17 -27q23 -10 54 -5q22 6 30 25l4 8q2 5 3 7q10 30 37 76q76 132 173 259 q23 30 71 90t71 90q38 49 94 114q30 34 93 101q57 63 97 99q2 2 23 20q0 -4 -2 -11q-25 -57 -73 -170q-57 -137 -87 -227q-20 -57 -33 -112q-17 -70 -22 -160q-2 -25 2 -73v-1q4 -37 16 -68q10 -25 30 -43q49 -48 111 -75q92 -41 179 -32q37 4 57 17q10 6 14 13q8 12 -3 22 q-6 5 -14 7q-27 7 -55 4q-29 -3 -55 6q-51 15 -95 51q-15 12 -25 31q-8 20 -11 36q-6 47 4 108q4 31 26 109q20 77 66 228q34 108 62 182q41 105 61 171q11 29 12 60q0 37 -34 53q-6 2 -13 4q-45 12 -85 -6q-28 -12 -57 -36q-58 -45 -125 -105q-79 -72 -153 -158 q-96 -113 -154 -192q-1 -1 -4 -5q-2 -3 -3 -4zM823 892q38 -1 71 17q27 16 37 40q11 35 -21 50q-19 8 -41 7q-31 -3 -44 -25l-3 -3q-1 -3 -2 -4q-12 -17 -18 -16q-5 1 -18 8q-60 33 -111 36q-50 1 -87 -17q-28 -17 -38 -49q-6 -22 11 -32q2 -2 3 -2q28 -13 58 -9q19 4 28 12 q20 16 30 26q7 7 13 4l4 -2l45 -21q41 -20 83 -20z" glyph-name="Ntilde" horiz-adv-x="1003" unicode="Ñ"/>
<glyph d="M486 757q-1 15 -13 21q-22 10 -48 7q-39 -3 -77 -23q-64 -35 -120 -100q-72 -86 -123 -203q-19 -43 -49 -128q-38 -113 -37 -242q2 -55 15 -107q21 -77 72 -127q81 -77 198 -77q94 -1 189 49q74 42 147 111q93 92 157 196q60 98 90 198q27 89 29 178q0 58 -8 104 q-11 62 -29 101q-43 86 -130 107q-49 11 -106 3q-79 -14 -146 -62q-9 -5 -11 -6zM477 748q-21 -18 -33 -31q-74 -78 -104 -180q-15 -57 -8 -111q1 -8 2 -24l3 -24q10 -69 38 -117q40 -68 118 -72q46 -3 82 15q19 9 29 25q14 25 -11 40q-14 7 -25 7t-16 -1q-10 0 -14 9 q-13 32 -24 80l-3 18q-2 13 -3 19q-5 38 8 92q26 99 77 170q32 45 77 75q23 14 33 10q7 -3 19 -12q27 -23 46 -63q23 -54 26 -115q7 -102 -32 -215q-36 -101 -86 -187q-43 -72 -93 -130q-51 -58 -106 -101q-60 -47 -123 -66q-11 -4 -19 -5q-44 -6 -80 36q-29 36 -42 90 q-17 68 -11 145q9 115 40 222q49 167 118 276q38 60 72 95q17 17 31 25q8 5 14 5zM566 1150q-19 1 -38 -7q-23 -15 -21 -41q5 -44 46 -82q15 -14 33 -24q13 -8 38 -25l27 -18q37 -19 46 -23q26 -11 51 -7q17 4 25 12q9 12 0 22q-3 2 -27 21q-18 14 -51 37q-30 21 -53 61 q-20 32 -30 49q-17 27 -46 25z" glyph-name="Ograve" horiz-adv-x="935" unicode="Ò"/>
<glyph d="M486 757q-1 15 -13 21q-22 10 -48 7q-39 -3 -77 -23q-64 -35 -120 -100q-72 -86 -123 -203q-19 -43 -49 -128q-38 -113 -37 -242q2 -55 15 -107q21 -77 72 -127q81 -77 198 -77q94 -1 189 49q74 42 147 111q93 92 157 196q60 98 90 198q27 89 29 178q0 58 -8 104 q-11 62 -29 101q-43 86 -130 107q-49 11 -106 3q-79 -14 -146 -62q-9 -5 -11 -6zM477 748q-21 -18 -33 -31q-74 -78 -104 -180q-15 -57 -8 -111q1 -8 2 -24l3 -24q10 -69 38 -117q40 -68 118 -72q46 -3 82 15q19 9 29 25q14 25 -11 40q-14 7 -25 7t-16 -1q-10 0 -14 9 q-13 32 -24 80l-3 18q-2 13 -3 19q-5 38 8 92q26 99 77 170q32 45 77 75q23 14 33 10q7 -3 19 -12q27 -23 46 -63q23 -54 26 -115q7 -102 -32 -215q-36 -101 -86 -187q-43 -72 -93 -130q-51 -58 -106 -101q-60 -47 -123 -66q-11 -4 -19 -5q-44 -6 -80 36q-29 36 -42 90 q-17 68 -11 145q9 115 40 222q49 167 118 276q38 60 72 95q17 17 31 25q8 5 14 5zM756 1144q-30 2 -46 -25q-11 -18 -30 -49q-24 -41 -53 -61q-34 -24 -51 -37l-27 -21q-10 -12 0 -22q9 -8 25 -12q26 -4 51 7q11 4 46 23l27 18q26 18 38 25q18 10 33 24q42 39 46 82 q2 27 -21 41q-20 8 -38 7z" glyph-name="Oacute" horiz-adv-x="935" unicode="Ó"/>
<glyph d="M486 757q-1 15 -13 21q-22 10 -48 7q-39 -3 -77 -23q-64 -35 -120 -100q-72 -86 -123 -203q-19 -43 -49 -128q-38 -113 -37 -242q2 -55 15 -107q21 -77 72 -127q81 -77 198 -77q94 -1 189 49q74 42 147 111q93 92 157 196q60 98 90 198q27 89 29 178q0 58 -8 104 q-11 62 -29 101q-43 86 -130 107q-49 11 -106 3q-79 -14 -146 -62q-9 -5 -11 -6zM477 748q-21 -18 -33 -31q-74 -78 -104 -180q-15 -57 -8 -111q1 -8 2 -24l3 -24q10 -69 38 -117q40 -68 118 -72q46 -3 82 15q19 9 29 25q14 25 -11 40q-14 7 -25 7t-16 -1q-10 0 -14 9 q-13 32 -24 80l-3 18q-2 13 -3 19q-5 38 8 92q26 99 77 170q32 45 77 75q23 14 33 10q7 -3 19 -12q27 -23 46 -63q23 -54 26 -115q7 -102 -32 -215q-36 -101 -86 -187q-43 -72 -93 -130q-51 -58 -106 -101q-60 -47 -123 -66q-11 -4 -19 -5q-44 -6 -80 36q-29 36 -42 90 q-17 68 -11 145q9 115 40 222q49 167 118 276q38 60 72 95q17 17 31 25q8 5 14 5zM635 1035q1 -3 9 -21q12 -31 27 -55q25 -38 72 -34q8 1 17 5q12 8 10 21q0 1 -2 5q-1 4 -1 5q-3 7 -8 23q-6 15 -8 22l-12 33q-5 21 -22 54q-19 34 -57 39q-46 4 -65 -27q-20 -34 -59 -85 q-33 -43 -40 -56q-17 -36 17 -45q4 -1 8 -1h2q28 -2 50 23q21 25 36 54q17 29 26 40z" glyph-name="Ocircumflex" horiz-adv-x="935" unicode="Ô"/>
<glyph d="M486 757q-1 15 -13 21q-22 10 -48 7q-39 -3 -77 -23q-64 -35 -120 -100q-72 -86 -123 -203q-19 -43 -49 -128q-38 -113 -37 -242q2 -55 15 -107q21 -77 72 -127q81 -77 198 -77q94 -1 189 49q74 42 147 111q93 92 157 196q60 98 90 198q27 89 29 178q0 58 -8 104 q-11 62 -29 101q-43 86 -130 107q-49 11 -106 3q-79 -14 -146 -62q-9 -5 -11 -6zM477 748q-21 -18 -33 -31q-74 -78 -104 -180q-15 -57 -8 -111q1 -8 2 -24l3 -24q10 -69 38 -117q40 -68 118 -72q46 -3 82 15q19 9 29 25q14 25 -11 40q-14 7 -25 7t-16 -1q-10 0 -14 9 q-13 32 -24 80l-3 18q-2 13 -3 19q-5 38 8 92q26 99 77 170q32 45 77 75q23 14 33 10q7 -3 19 -12q27 -23 46 -63q23 -54 26 -115q7 -102 -32 -215q-36 -101 -86 -187q-43 -72 -93 -130q-51 -58 -106 -101q-60 -47 -123 -66q-11 -4 -19 -5q-44 -6 -80 36q-29 36 -42 90 q-17 68 -11 145q9 115 40 222q49 167 118 276q38 60 72 95q17 17 31 25q8 5 14 5zM755 917q38 -1 71 17q27 16 37 40q11 35 -21 50q-19 8 -41 7q-31 -3 -44 -25q-1 -1 -3 -4q-1 -2 -2 -3q-12 -17 -18 -16q-5 1 -18 8q-60 33 -111 36q-50 1 -87 -17q-28 -17 -38 -49 q-6 -22 11 -32q2 -2 3 -2q28 -13 58 -9q19 4 28 12q20 16 30 26q7 7 13 4l4 -2l45 -21q41 -20 83 -20z" glyph-name="Otilde" horiz-adv-x="935" unicode="Õ"/>
<glyph d="M486 757q-1 15 -13 21q-22 10 -48 7q-39 -3 -77 -23q-64 -35 -120 -100q-72 -86 -123 -203q-19 -43 -49 -128q-38 -113 -37 -242q2 -55 15 -107q21 -77 72 -127q81 -77 198 -77q94 -1 189 49q74 42 147 111q93 92 157 196q60 98 90 198q27 89 29 178q0 58 -8 104 q-11 62 -29 101q-43 86 -130 107q-49 11 -106 3q-79 -14 -146 -62q-9 -5 -11 -6zM477 748q-21 -18 -33 -31q-74 -78 -104 -180q-15 -57 -8 -111q1 -8 2 -24l3 -24q10 -69 38 -117q40 -68 118 -72q46 -3 82 15q19 9 29 25q14 25 -11 40q-14 7 -25 7t-16 -1q-10 0 -14 9 q-13 32 -24 80l-3 18q-2 13 -3 19q-5 38 8 92q26 99 77 170q32 45 77 75q23 14 33 10q7 -3 19 -12q27 -23 46 -63q23 -54 26 -115q7 -102 -32 -215q-36 -101 -86 -187q-43 -72 -93 -130q-51 -58 -106 -101q-60 -47 -123 -66q-11 -4 -19 -5q-44 -6 -80 36q-29 36 -42 90 q-17 68 -11 145q9 115 40 222q49 167 118 276q38 60 72 95q17 17 31 25q8 5 14 5zM509 911q44 2 74 39q12 14 3 30q-8 16 -10 25t-12 15t-21 9q-33 8 -67 -4q-25 -11 -37 -29q-17 -28 1 -56q10 -12 26 -20q16 -7 43 -9zM762 911q44 2 74 39q12 14 3 30q-8 16 -10 25t-12 15 q-11 6 -21 9q-33 8 -67 -4q-25 -11 -37 -29q-17 -28 1 -56q10 -12 26 -20q16 -7 43 -9z" glyph-name="Odieresis" horiz-adv-x="935" unicode="Ö"/>
<glyph d="M295 80q11 1 23 6q19 12 9 30q-4 10 -11 18q-2 3 -72 99q-6 9 -2 13q2 2 4 3l78 63q32 27 34 29t3 4q17 22 -8 35h-3q-1 1 -2 1q-33 10 -62 -7q-10 -6 -27 -17q-38 -26 -57 -40q-9 -3 -12 3q0 1 -2 3t-2 3l-12 18q-8 13 -12 19q-6 11 -18 15q-38 13 -71 -8 q-14 -10 -9 -25q5 -11 14 -28q12 -21 39 -56q5 -7 1 -11l-2 -2q-6 -6 -18 -17q-13 -12 -19 -17q-5 -4 -55 -58q-7 -8 -12 -13q-16 -21 7 -32q6 -2 8 -2q30 -7 57 8q7 4 31 24q18 14 49 41q9 4 14 -2q2 -3 8 -10q5 -6 7 -9q41 -50 55 -64q21 -17 47 -17z" glyph-name="multiply" horiz-adv-x="384" unicode="×"/>
<glyph d="M219 -43q-2 8 -6 23q-17 73 -11 145q9 115 40 222q40 147 118 276q31 53 72 95q15 15 31 25l1 1q2 2 5 3t8 1q-5 -4 -10 -9q-6 -5 -23 -22q-74 -78 -104 -180q-16 -54 -8 -111l3 -24q0 -9 2 -24q8 -66 38 -117q18 -29 38 -45l-12 -16l-66 -89l-60 -80zM516 354l-2 10 q-4 24 -6 37q-4 50 8 92q24 96 77 170q32 45 77 75q18 12 27 12q9 -1 25 -14q27 -22 42 -54q-13 -17 -39 -50l-39 -51l-108 -144q-41 -56 -62 -83zM794 547q4 -104 -32 -204q-36 -101 -86 -187q-40 -68 -93 -130q-51 -58 -106 -101t-123 -66q-7 -3 -19 -5q-37 -2 -62 16 q23 28 37 47q14 17 40 53q28 36 41 53l92 118l37 48q28 3 55 15q19 9 29 25q12 26 -11 40q-1 1 -5 2q-3 2 -4 2l149 194q10 12 15 19q6 7 46 61zM304 -222q102 1 189 49q81 47 147 111q91 89 157 196q57 93 90 198q27 89 29 178q1 50 -8 104q-4 28 -16 66q2 2 4 6q3 3 4 5 q8 10 11 15q18 23 47 68l1 1q6 11 11 22q5 15 -8 24q-9 6 -13 7q-44 13 -77 -18q-13 -13 -34 -36q-35 34 -89 48q-53 12 -106 3q-80 -14 -146 -62l-2 -1q-4 -3 -9 -5q0 9 -3 14q-4 4 -10 7q-22 10 -48 7q-39 -3 -77 -23q-69 -37 -120 -100q-76 -93 -123 -203 q-24 -55 -49 -128q-40 -118 -37 -242q2 -55 15 -107q21 -75 72 -127l23 -20q-1 -2 -4 -5q-3 -4 -4 -6q-21 -29 -38 -61q-9 -20 10 -30q13 -6 30 -6q26 1 43 16q29 27 44 47l1 1q47 -14 93 -13z" glyph-name="Oslash" horiz-adv-x="935" unicode="Ø"/>
<glyph d="M779 365q2 -1 3 -1q-2 -6 -4 -13q-20 -63 -32 -117q-19 -81 -18 -154q0 -31 9 -62q23 -75 69 -138q46 -61 97 -91q80 -46 175 -33q35 7 60 23q10 6 15 16q8 19 -10 26q-9 3 -19 3q-31 1 -59 -3q-25 -4 -47 8q-21 13 -37 29q-48 47 -80 117q-18 43 -17 88q1 35 8 78 q9 63 35 158q32 113 64 202q48 136 71 205q6 20 13 49q3 24 -17 39q-2 1 -5 3q-5 3 -8 4q-45 15 -88 2q-22 -9 -34 -25l-24 -36q-13 -19 -37 -58q-20 -32 -30 -47q-32 -48 -98 -144q-55 -80 -82 -120q-17 -25 -50 -75q-34 -51 -51 -76q-82 -123 -160 -215q-47 -57 -99 -108 q-6 -6 -15 -12q4 25 12 50q11 43 51 155q93 264 128 375q36 119 45 188q9 64 2 105q-8 44 -26 69q-29 41 -85 54q-64 13 -127 -10q-41 -16 -81 -43q-75 -49 -131 -114q-24 -27 -40 -58q-27 -50 -19 -98q12 -70 74 -95q37 -15 76 -7q15 4 23 10q12 13 0 25q-5 4 -10 7 q-12 8 -21 18q-37 52 -16 110q10 26 30 53q54 67 124 108q29 18 50 25q11 2 15 -6q4 -7 8 -20q8 -40 0 -88q-6 -43 -22 -102q-26 -101 -76 -233q-64 -174 -78 -218q-39 -122 -51 -210q-9 -50 -4 -86q8 -45 45 -62q35 -16 82 -9q36 5 73 31q24 16 53 44q60 58 117 130 q81 103 138 182q13 17 39 53q46 62 68 93q6 9 18 26q12 18 18 26zM647 1148q-19 1 -38 -7q-23 -15 -21 -41q5 -44 46 -82q15 -14 33 -24q13 -8 38 -25l27 -18q37 -19 46 -23q26 -11 51 -7q17 4 25 12q9 12 0 22q-3 2 -27 21q-18 14 -51 37q-30 21 -53 61q-20 32 -30 49 q-17 27 -46 25z" glyph-name="Ugrave" horiz-adv-x="1024" unicode="Ù"/>
<glyph d="M779 365q2 -1 3 -1q-2 -6 -4 -13q-20 -63 -32 -117q-19 -81 -18 -154q0 -31 9 -62q23 -75 69 -138q46 -61 97 -91q80 -46 175 -33q35 7 60 23q10 6 15 16q8 19 -10 26q-9 3 -19 3q-31 1 -59 -3q-25 -4 -47 8q-21 13 -37 29q-48 47 -80 117q-18 43 -17 88q1 35 8 78 q9 63 35 158q32 113 64 202q48 136 71 205q6 20 13 49q3 24 -17 39q-2 1 -5 3q-5 3 -8 4q-45 15 -88 2q-22 -9 -34 -25l-24 -36q-13 -19 -37 -58q-20 -32 -30 -47q-32 -48 -98 -144q-55 -80 -82 -120q-17 -25 -50 -75q-34 -51 -51 -76q-82 -123 -160 -215q-47 -57 -99 -108 q-6 -6 -15 -12q4 25 12 50q11 43 51 155q93 264 128 375q36 119 45 188q9 64 2 105q-8 44 -26 69q-29 41 -85 54q-64 13 -127 -10q-41 -16 -81 -43q-75 -49 -131 -114q-24 -27 -40 -58q-27 -50 -19 -98q12 -70 74 -95q37 -15 76 -7q15 4 23 10q12 13 0 25q-5 4 -10 7 q-12 8 -21 18q-37 52 -16 110q10 26 30 53q54 67 124 108q29 18 50 25q11 2 15 -6q4 -7 8 -20q8 -40 0 -88q-6 -43 -22 -102q-26 -101 -76 -233q-64 -174 -78 -218q-39 -122 -51 -210q-9 -50 -4 -86q8 -45 45 -62q35 -16 82 -9q36 5 73 31q24 16 53 44q60 58 117 130 q81 103 138 182q13 17 39 53q46 62 68 93q6 9 18 26q12 18 18 26zM851 1121q-30 2 -46 -25q-11 -18 -30 -49q-24 -41 -53 -61q-34 -24 -51 -37l-27 -21q-10 -12 0 -22q9 -8 25 -12q26 -4 51 7q11 4 46 23l27 18q26 18 38 25q18 11 33 24q42 39 46 82q2 27 -21 41 q-20 8 -38 7z" glyph-name="Uacute" horiz-adv-x="1024" unicode="Ú"/>
<glyph d="M779 365q2 -1 3 -1q-2 -6 -4 -13q-20 -63 -32 -117q-19 -81 -18 -154q0 -31 9 -62q23 -75 69 -138q46 -61 97 -91q80 -46 175 -33q35 7 60 23q10 6 15 16q8 19 -10 26q-9 3 -19 3q-31 1 -59 -3q-25 -4 -47 8q-21 13 -37 29q-48 47 -80 117q-18 43 -17 88q1 35 8 78 q9 63 35 158q32 113 64 202q48 136 71 205q6 20 13 49q3 24 -17 39q-2 1 -5 3q-5 3 -8 4q-45 15 -88 2q-22 -9 -34 -25l-24 -36q-13 -19 -37 -58q-20 -32 -30 -47q-32 -48 -98 -144q-55 -80 -82 -120q-17 -25 -50 -75q-34 -51 -51 -76q-82 -123 -160 -215q-47 -57 -99 -108 q-6 -6 -15 -12q4 25 12 50q11 43 51 155q93 264 128 375q36 119 45 188q9 64 2 105q-8 44 -26 69q-29 41 -85 54q-64 13 -127 -10q-41 -16 -81 -43q-75 -49 -131 -114q-24 -27 -40 -58q-27 -50 -19 -98q12 -70 74 -95q37 -15 76 -7q15 4 23 10q12 13 0 25q-5 4 -10 7 q-12 8 -21 18q-37 52 -16 110q10 26 30 53q54 67 124 108q29 18 50 25q11 2 15 -6q4 -7 8 -20q8 -40 0 -88q-6 -43 -22 -102q-26 -101 -76 -233q-64 -174 -78 -218q-39 -122 -51 -210q-9 -50 -4 -86q8 -45 45 -62q35 -16 82 -9q36 5 73 31q24 16 53 44q60 58 117 130 q81 103 138 182q13 17 39 53q46 62 68 93q6 9 18 26q12 18 18 26zM746 1025q1 -3 9 -21q12 -31 27 -55q25 -38 72 -34q8 1 17 5q12 8 10 21q-1 1 -1 5q-2 4 -2 5q-2 7 -8 23q-6 15 -8 22l-12 33q-5 21 -22 54q-19 34 -57 39q-46 4 -65 -27q-20 -34 -59 -85q-33 -43 -40 -56 q-17 -36 17 -45q4 -1 8 -1h2q28 -2 50 23q21 25 36 54q17 29 26 40z" glyph-name="Ucircumflex" horiz-adv-x="1024" unicode="Û"/>
<glyph d="M779 365q2 -1 3 -1q-2 -6 -4 -13q-20 -63 -32 -117q-19 -81 -18 -154q0 -31 9 -62q23 -75 69 -138q46 -61 97 -91q80 -46 175 -33q35 7 60 23q10 6 15 16q8 19 -10 26q-9 3 -19 3q-31 1 -59 -3q-25 -4 -47 8q-21 13 -37 29q-48 47 -80 117q-18 43 -17 88q1 35 8 78 q9 63 35 158q32 113 64 202q48 136 71 205q6 20 13 49q3 24 -17 39q-2 1 -5 3q-5 3 -8 4q-45 15 -88 2q-22 -9 -34 -25l-24 -36q-13 -19 -37 -58q-20 -32 -30 -47q-32 -48 -98 -144q-55 -80 -82 -120q-17 -25 -50 -75q-34 -51 -51 -76q-82 -123 -160 -215q-47 -57 -99 -108 q-6 -6 -15 -12q4 25 12 50q11 43 51 155q93 264 128 375q36 119 45 188q9 64 2 105q-8 44 -26 69q-29 41 -85 54q-64 13 -127 -10q-41 -16 -81 -43q-75 -49 -131 -114q-24 -27 -40 -58q-27 -50 -19 -98q12 -70 74 -95q37 -15 76 -7q15 4 23 10q12 13 0 25q-5 4 -10 7 q-12 8 -21 18q-37 52 -16 110q10 26 30 53q54 67 124 108q29 18 50 25q11 2 15 -6q4 -7 8 -20q8 -40 0 -88q-6 -43 -22 -102q-26 -101 -76 -233q-64 -174 -78 -218q-39 -122 -51 -210q-9 -50 -4 -86q8 -45 45 -62q35 -16 82 -9q36 5 73 31q24 16 53 44q60 58 117 130 q81 103 138 182q13 17 39 53q46 62 68 93q6 9 18 26q12 18 18 26zM601 925q44 2 74 39q12 14 3 30q-8 16 -10 25t-12 15t-21 9q-33 8 -67 -4q-25 -11 -37 -29q-17 -28 1 -56q10 -12 26 -20q16 -7 43 -9zM854 925q44 2 74 39q12 14 3 30q-8 16 -10 25t-12 15q-11 6 -21 9 q-33 8 -67 -4q-25 -11 -37 -29q-17 -28 1 -56q10 -12 26 -20q16 -7 43 -9z" glyph-name="Udieresis" horiz-adv-x="1024" unicode="Ü"/>
<glyph d="M979 284q1 -6 -1 -9q-3 -11 -11 -34q-6 -16 -8 -24q-13 -37 -56 -143q-54 -134 -121 -247q-61 -103 -142 -165q-41 -30 -77 -46q-50 -20 -92 -14q-18 2 -33 13q-17 14 -7 33q7 12 11 16q60 55 126 52q13 -1 35 -1q21 1 34 7q19 10 6 28q-6 7 -15 12q-19 11 -43 16 q-50 9 -97 2q-108 -15 -180 -89q-10 -10 -16 -20q-18 -28 -3 -57q9 -16 22 -29q32 -28 75 -44q62 -20 130 -19q87 2 162 34q104 45 183 135q61 69 118 170q59 103 118 256q84 213 127 399q14 66 12 100q-4 32 -30 46q-25 12 -52 12q-61 0 -88 -46q-10 -18 -32 -54 q-24 -40 -35 -60l-21 -36q-62 -99 -201 -280q-38 -50 -118 -137q-63 -65 -104 -97q-39 -30 -68 -42q-11 -4 -16 2q-2 2 -3 4q-8 12 -13 31q-8 37 -2 79q8 58 30 133q12 44 41 132q18 56 26 83q46 147 54 228q6 61 -3 109q-27 120 -143 158q-41 11 -98 13q-56 0 -113 -17 q-55 -17 -112 -54q-72 -48 -98 -116q-22 -58 -8 -111q16 -58 75 -95q38 -23 90 -30q41 -5 81 5q12 4 17 8q14 12 1 25q-10 7 -29 13t-20 6q-62 23 -75 85q-9 64 32 117q32 41 87 67q30 15 63 21q45 5 66 -31q8 -13 12 -25q9 -29 11 -65q1 -61 -13 -116q-18 -75 -61 -201 q-49 -142 -67 -230q-14 -74 -14 -114q0 -42 11 -76q31 -83 109 -110q32 -10 67 -10q54 -1 101 19q45 19 95 62q71 59 132 131q79 92 155 199q11 15 24 33zM1005 1119q-30 2 -46 -25q-11 -18 -30 -49q-24 -41 -53 -61q-34 -24 -51 -37l-27 -21q-10 -12 0 -22q9 -8 25 -12 q26 -4 51 7q11 4 46 23l27 18q26 18 38 25q18 11 33 24q42 39 46 82q2 27 -21 41q-20 8 -38 7z" glyph-name="Yacute" horiz-adv-x="1249" unicode="Ý"/>
<glyph d="M299 302q-1 4 1 10v1q14 45 45 134q22 62 32 92q6 18 20 62q49 148 117 348q6 37 5 56q-3 28 -27 37q-40 14 -80 -4q-15 -9 -19 -22q-3 -10 -9 -25q-127 -340 -131 -350q-36 -102 -55 -153q-34 -93 -44 -123q-47 -145 -89 -320q-46 -195 -50 -231q-6 -44 -3 -66 q4 -35 38 -44q23 -7 49 -2q34 9 53 35q15 21 40 71q59 158 125 304l57 126q1 1 2 3l4 4l2 -2q19 -30 55 -48q30 -15 71 -23q64 -13 144 -5q48 5 93 28q56 32 96 101q33 61 57 152q31 119 34 232q1 54 -14 93q-17 45 -63 62q-65 23 -139 -4q-42 -15 -99 -62 q-68 -59 -134 -150q-83 -116 -153 -253l-16 -32q-10 -22 -15 -32zM437 361q1 6 4 11q60 112 95 165q56 85 110 144q51 55 98 83q14 8 17 2q2 -4 3 -11q4 -25 3 -51q-10 -162 -55 -301q-26 -74 -67 -118q-10 -11 -29 -26q-13 -9 -26 -8q-36 4 -58 17q-25 17 -23 44 q0 16 -7 30q-12 25 -42 24q-3 -1 -5 -1q-3 -1 -9 -2q-6 -2 -9 -2z" glyph-name="Thorn" horiz-adv-x="916" unicode="Þ"/>
<glyph d="M573 -227q9 0 40 2q41 5 71 20q46 26 53 73q3 16 -1 48v1q-8 59 -37 117q-8 14 -47 83q-18 32 -28 62q-12 39 1 75q8 22 23 49q19 31 60 88q58 77 94 137q50 86 55 156q2 42 -17 80q-19 34 -62 51q-71 25 -145 -5q-49 -20 -98 -66q-74 -67 -129 -173q-34 -68 -77 -172 q-19 -47 -63 -178q-40 -121 -115 -232l-51 -75q-23 -34 -34 -50q-15 -24 -36 -49q-8 -9 -21 -22q-12 -14 2 -24q7 -4 18 -8q17 -2 37 1q26 6 59 32q49 38 96 101q24 30 61 93q46 75 75 133q34 66 64 141q10 26 29 76q20 51 30 76q47 118 109 221q34 53 66 84q22 20 42 32 q9 3 13 -4q3 -7 5 -13q4 -24 1 -51q-4 -30 -22 -70q-28 -58 -82 -126q-60 -76 -88 -119q-33 -51 -49 -91q-24 -63 3 -124q15 -33 27 -54q44 -76 63 -115q16 -33 23 -64q4 -28 2 -41q-4 -25 -30 -33h-3q-3 -1 -4 -1q-29 -4 -65 5q-17 4 -27 17q-15 17 -34 23q-30 7 -54 -10 q-22 -18 -11 -43q7 -13 18 -22q27 -21 75 -32q45 -10 115 -10z" glyph-name="germandbls" horiz-adv-x="869" unicode="ß"/>
<glyph d="M310 163l2 -1q-1 -6 -1.5 -19t-0.5 -19q-3 -44 5 -72q18 -57 71 -72q64 -16 111 29q13 12 44 55q93 123 110 148q18 28 20 34q4 11 -1 20q-8 5 -19 2q-21 -6 -36 -26q-17 -22 -49 -65q-34 -44 -50 -65q-35 -48 -60 -71q-9 -8 -14 -11q-5 -2 -7 3q-2 12 -2 17 q-1 49 18 111q5 17 16 49q12 33 16 50q10 36 13 42q22 56 32 84q5 13 15 38q5 14 5 27q-1 17 -14 27q-15 9 -31 11q-42 5 -69 -13q-11 -8 -21 -23q-4 -5 -9 -14q-6 -5 -10 -1q-1 1 -2 3l-3 3q-25 28 -65 36q-47 8 -92 2q-64 -12 -106 -47q-27 -23 -56 -61q-30 -39 -46 -74 q-40 -94 -45 -169q-3 -39 6 -68q22 -62 72 -80q32 -11 69 -6t66 29q18 15 32 34l30 42q19 27 29 41q5 7 13 20q10 14 14 20zM354 340q-23 -15 -48 -56q-1 -2 -2 -3q-60 -95 -106 -162q-34 -48 -55 -68q-8 -6 -9 -6q-3 2 -4 10q-3 14 1 45q9 83 31 147q20 55 50 107 q18 28 44 51l3 3q2 1 3 2q26 17 41 1l8 -10q8 -12 16 -30q13 -25 27 -31zM306 804q-19 1 -38 -7q-23 -15 -21 -41q5 -44 46 -82q15 -14 33 -24q13 -8 38 -25l27 -18q37 -19 46 -23q26 -11 51 -7q17 4 25 12q9 12 0 22q-3 2 -27 21q-18 14 -51 37q-30 21 -53 61 q-20 32 -30 49q-17 27 -46 25z" glyph-name="agrave" horiz-adv-x="614" unicode="à"/>
<glyph d="M310 163l2 -1q-1 -6 -1.5 -19t-0.5 -19q-3 -44 5 -72q18 -57 71 -72q64 -16 111 29q13 12 44 55q93 123 110 148q18 28 20 34q4 11 -1 20q-8 5 -19 2q-21 -6 -36 -26q-17 -22 -49 -65q-34 -44 -50 -65q-35 -48 -60 -71q-9 -8 -14 -11q-5 -2 -7 3q-2 12 -2 17 q-1 49 18 111q5 17 16 49q12 33 16 50q10 36 13 42q22 56 32 84q5 13 15 38q5 14 5 27q-1 17 -14 27q-15 9 -31 11q-42 5 -69 -13q-11 -8 -21 -23q-4 -5 -9 -14q-6 -5 -10 -1q-1 1 -2 3l-3 3q-25 28 -65 36q-47 8 -92 2q-64 -12 -106 -47q-27 -23 -56 -61q-30 -39 -46 -74 q-40 -94 -45 -169q-3 -39 6 -68q22 -62 72 -80q32 -11 69 -6t66 29q18 15 32 34l30 42q19 27 29 41q5 7 13 20q10 14 14 20zM354 340q-23 -15 -48 -56q-1 -2 -2 -3q-60 -95 -106 -162q-34 -48 -55 -68q-8 -6 -9 -6q-3 2 -4 10q-3 14 1 45q9 83 31 147q20 55 50 107 q18 28 44 51l3 3q2 1 3 2q26 17 41 1l8 -10q8 -12 16 -30q13 -25 27 -31zM499 799q-30 2 -46 -25q-11 -18 -30 -49q-24 -41 -53 -61q-34 -24 -51 -37l-27 -21q-10 -12 0 -22q9 -8 25 -12q26 -4 51 7q11 4 46 23l27 18q26 18 38 25q18 11 33 24q42 39 46 82q2 27 -21 41 q-20 8 -38 7z" glyph-name="aacute" horiz-adv-x="614" unicode="á"/>
<glyph d="M310 163l2 -1q-1 -6 -1.5 -19t-0.5 -19q-3 -44 5 -72q18 -57 71 -72q64 -16 111 29q13 12 44 55q93 123 110 148q18 28 20 34q4 11 -1 20q-8 5 -19 2q-21 -6 -36 -26q-17 -22 -49 -65q-34 -44 -50 -65q-35 -48 -60 -71q-9 -8 -14 -11q-5 -2 -7 3q-2 12 -2 17 q-1 49 18 111q5 17 16 49q12 33 16 50q10 36 13 42q22 56 32 84q5 13 15 38q5 14 5 27q-1 17 -14 27q-15 9 -31 11q-42 5 -69 -13q-11 -8 -21 -23q-4 -5 -9 -14q-6 -5 -10 -1q-1 1 -2 3l-3 3q-25 28 -65 36q-47 8 -92 2q-64 -12 -106 -47q-27 -23 -56 -61q-30 -39 -46 -74 q-40 -94 -45 -169q-3 -39 6 -68q22 -62 72 -80q32 -11 69 -6t66 29q18 15 32 34l30 42q19 27 29 41q5 7 13 20q10 14 14 20zM354 340q-23 -15 -48 -56q-1 -2 -2 -3q-60 -95 -106 -162q-34 -48 -55 -68q-8 -6 -9 -6q-3 2 -4 10q-3 14 1 45q9 83 31 147q20 55 50 107 q18 28 44 51l3 3q2 1 3 2q26 17 41 1l8 -10q8 -12 16 -30q13 -25 27 -31zM383 706q1 -3 9 -21q12 -31 27 -55q25 -38 72 -34q8 1 17 5q12 8 10 21q0 2 -2 5q-1 4 -1 5q-3 8 -8 22q-6 16 -8 23l-12 33q-5 21 -22 54q-19 34 -57 39q-46 4 -65 -27q-20 -34 -59 -85 q-33 -43 -40 -56q-17 -36 17 -45q4 -1 8 -1h2q28 -2 50 23q21 26 36 54q17 29 26 40z" glyph-name="acircumflex" horiz-adv-x="614" unicode="â"/>
<glyph d="M310 163l2 -1q-1 -6 -1.5 -19t-0.5 -19q-3 -44 5 -72q18 -57 71 -72q64 -16 111 29q13 12 44 55q93 123 110 148q18 28 20 34q4 11 -1 20q-8 5 -19 2q-21 -6 -36 -26q-17 -22 -49 -65q-34 -44 -50 -65q-35 -48 -60 -71q-9 -8 -14 -11q-5 -2 -7 3q-2 12 -2 17 q-1 49 18 111q5 17 16 49q12 33 16 50q10 36 13 42q22 56 32 84q5 13 15 38q5 14 5 27q-1 17 -14 27q-15 9 -31 11q-42 5 -69 -13q-11 -8 -21 -23q-4 -5 -9 -14q-6 -5 -10 -1q-1 1 -2 3l-3 3q-25 28 -65 36q-47 8 -92 2q-64 -12 -106 -47q-27 -23 -56 -61q-30 -39 -46 -74 q-40 -94 -45 -169q-3 -39 6 -68q22 -62 72 -80q32 -11 69 -6t66 29q18 15 32 34l30 42q19 27 29 41q5 7 13 20q10 14 14 20zM354 340q-23 -15 -48 -56q-1 -2 -2 -3q-60 -95 -106 -162q-34 -48 -55 -68q-8 -6 -9 -6q-3 2 -4 10q-3 14 1 45q9 83 31 147q20 55 50 107 q18 28 44 51l3 3q2 1 3 2q26 17 41 1l8 -10q8 -12 16 -30q13 -25 27 -31zM481 591q38 -1 71 17q27 16 37 40q11 35 -21 50q-19 8 -41 7q-31 -3 -44 -25q-1 -1 -3 -4q-1 -2 -2 -3q-12 -17 -18 -16q-5 1 -18 8q-60 33 -111 36q-50 1 -87 -17q-28 -17 -38 -49q-6 -22 11 -32 q2 -2 3 -2q28 -13 58 -9q19 4 28 12q20 16 30 26q7 7 13 4l4 -2l45 -21q41 -20 83 -20z" glyph-name="atilde" horiz-adv-x="614" unicode="ã"/>
<glyph d="M310 163l2 -1q-1 -6 -1.5 -19t-0.5 -19q-3 -44 5 -72q18 -57 71 -72q64 -16 111 29q13 12 44 55q93 123 110 148q18 28 20 34q4 11 -1 20q-8 5 -19 2q-21 -6 -36 -26q-17 -22 -49 -65q-34 -44 -50 -65q-35 -48 -60 -71q-9 -8 -14 -11q-5 -2 -7 3q-2 12 -2 17 q-1 49 18 111q5 17 16 49q12 33 16 50q10 36 13 42q22 56 32 84q5 13 15 38q5 14 5 27q-1 17 -14 27q-15 9 -31 11q-42 5 -69 -13q-11 -8 -21 -23q-4 -5 -9 -14q-6 -5 -10 -1q-1 1 -2 3l-3 3q-25 28 -65 36q-47 8 -92 2q-64 -12 -106 -47q-27 -23 -56 -61q-30 -39 -46 -74 q-40 -94 -45 -169q-3 -39 6 -68q22 -62 72 -80q32 -11 69 -6t66 29q18 15 32 34l30 42q19 27 29 41q5 7 13 20q10 14 14 20zM354 340q-23 -15 -48 -56q-1 -2 -2 -3q-60 -95 -106 -162q-34 -48 -55 -68q-8 -6 -9 -6q-3 2 -4 10q-3 14 1 45q9 83 31 147q20 55 50 107 q18 28 44 51l3 3q2 1 3 2q26 17 41 1l8 -10q8 -12 16 -30q13 -25 27 -31zM259 587q44 2 74 39q12 14 3 30q-8 16 -10 25t-12 15t-21 9q-33 8 -67 -4q-25 -11 -37 -29q-17 -28 1 -56q10 -12 26 -20q16 -7 43 -9zM512 587q44 2 74 39q12 14 3 30q-8 16 -10 25t-12 15 q-11 6 -21 9q-33 8 -67 -4q-25 -11 -37 -29q-17 -28 1 -56q10 -12 26 -20q16 -7 43 -9z" glyph-name="adieresis" horiz-adv-x="614" unicode="ä"/>
<glyph d="M310 163l2 -1q-1 -6 -1.5 -19t-0.5 -19q-3 -44 5 -72q18 -57 71 -72q64 -16 111 29q13 12 44 55q93 123 110 148q18 28 20 34q4 11 -1 20q-8 5 -19 2q-21 -6 -36 -26q-17 -22 -49 -65q-34 -44 -50 -65q-35 -48 -60 -71q-9 -8 -14 -11q-5 -2 -7 3q-2 12 -2 17 q-1 49 18 111q5 17 16 49q12 33 16 50q10 36 13 42q22 56 32 84q5 13 15 38q5 14 5 27q-1 17 -14 27q-15 9 -31 11q-42 5 -69 -13q-11 -8 -21 -23q-4 -5 -9 -14q-6 -5 -10 -1q-1 1 -2 3l-3 3q-25 28 -65 36q-47 8 -92 2q-64 -12 -106 -47q-27 -23 -56 -61q-30 -39 -46 -74 q-40 -94 -45 -169q-3 -39 6 -68q22 -62 72 -80q32 -11 69 -6t66 29q18 15 32 34l30 42q19 27 29 41q5 7 13 20q10 14 14 20zM354 340q-23 -15 -48 -56q-1 -2 -2 -3q-60 -95 -106 -162q-34 -48 -55 -68q-8 -6 -9 -6q-3 2 -4 10q-3 14 1 45q9 83 31 147q20 55 50 107 q18 28 44 51l3 3q2 1 3 2q26 17 41 1l8 -10q8 -12 16 -30q13 -25 27 -31zM405 577q13 0 19 1q55 9 99 53q19 21 26 45q4 22 -3 37q-22 38 -28 47q-30 36 -70 41q-6 0 -17 2q-17 3 -25 3q-63 -6 -102 -48q-28 -34 -27 -70q2 -49 40 -80q34 -29 88 -31zM390 652q0 22 8 39 q11 30 39 56q7 4 10 -1q7 -15 6 -25q-1 -7 -3 -19q-1 -13 -2 -19q-7 -37 -44 -53q-8 0 -11 5q-3 10 -3 17z" glyph-name="aring" horiz-adv-x="614" unicode="å"/>
<glyph d="M354 340q-30 -22 -45 -51l-5 -8q-60 -95 -106 -162q-25 -36 -55 -68l-2 -2l-3 -3q-2 -1 -4 -1q-2 1 -3 2q-1 2 -1 4v4q-4 18 0 36q0 6 1 9q8 78 31 147q20 55 50 107q18 28 44 51q3 2 6 5q18 11 28 10q10 -3 21 -19q9 -14 13 -24l3 -6l2 -2q3 -9 9 -16q6 -8 16 -13z M860 391q-1 -3 -1 -4q-1 -17 -6 -33q-22 -51 -61 -88q-25 -24 -57 -29q-1 -1 -5 -1q-3 -1 -4 -1q-2 -1 -8 -1q-5 -1 -7 -1q-8 -1 -6 5q1 1 1 2q7 21 20 42q28 50 67 88q23 21 51 36q1 0 7 2q5 1 7 -4q1 -4 1 -9q1 -2 1 -4zM603 -6q67 -39 141 -23q65 13 118 49 q89 60 187 137q37 29 72 63q6 5 11 14q3 14 -9 20q-6 2 -12 0q-21 -4 -35 -16l-82 -66q-16 -13 -47 -36q-68 -54 -146 -88q-32 -15 -72 -23q-19 -2 -30 14q-6 9 -11 22q-10 29 -9 56q0 25 5 51q0 4 2 6q2 1 6 1q47 -5 88 1q107 15 171 98q29 38 42 84q7 19 7 42 q-2 39 -31 62q-27 20 -57 26q-39 10 -83 5q-54 -6 -103 -32q-55 -30 -96 -77q-66 -73 -94 -169q-10 -33 -10 -71q0 -12 1 -18q-2 -2 -5 -7q-4 -5 -6 -7q-1 -1 -2 -3q-25 -35 -58 -68l-2 -1q-5 -6 -12 -10l-4 -1q-2 3 -3 4q-2 12 -2 17q1 57 18 111q10 32 15 47q12 34 17 52 q3 15 13 42l20 52l12 32q1 4 3 7q8 20 12 31q5 15 5 27q-1 16 -14 27q-15 9 -31 11q-37 7 -69 -13q-13 -10 -21 -23q-4 -5 -5 -7t-3 -5l-1 -1v-1q-3 -4 -5 -5q-3 2 -5 4q-4 4 -5 6q-26 28 -65 36q-48 9 -92 2q-59 -10 -106 -47q-30 -27 -56 -61q-28 -35 -46 -74 q-37 -82 -45 -169q-4 -34 6 -68q16 -57 72 -80q35 -11 69 -6q37 5 66 29q20 17 32 34q17 24 48 67q6 9 11 16q12 18 19 27q8 12 8 13l2 -1v-11q0 -5 -1 -13q-1 -10 -1 -14q-4 -37 5 -72q18 -56 71 -72q64 -15 111 29q20 22 33 40q4 6 11 15l1 1q19 -45 61 -71z" glyph-name="ae" horiz-adv-x="1059" unicode="æ"/>
<glyph d="M120 -48q12 -29 26 -48l6 -10q28 -44 48 -88q8 -19 11 -36q1 -10 -3 -21q-2 -3 -3 -5q-2 -1 -6 1h-1q-11 6 -23 17q-21 23 -24 53q0 6 4 14q6 9 -3 16q-17 10 -35 6q-20 -6 -29 -21q-12 -30 -8 -59q4 -15 14 -26q30 -29 66 -41q52 -19 103 -1q46 18 57 65q2 12 1 17v4 q0 34 -15 65q-25 48 -59 88q-4 6 -11 15q-12 14 -17 21q72 17 130 59q85 57 148 109l14 11q23 18 64 55q7 6 12 15q7 15 -9 21q-8 1 -17 0q-23 -5 -41 -21q-12 -9 -34 -25q-23 -18 -34 -26q-36 -28 -105 -79q-42 -30 -85 -51q-40 -21 -87 -21q-17 3 -24 14q-10 16 -13 35 q-6 40 3 81q23 103 87 187q27 35 70 62q8 5 11 4q4 -3 5 -11q11 -49 -18 -89q-2 -3 -4 -5q-6 -6 -9 -12q-8 -18 7 -30q9 -6 13 -7q58 -18 103 21q44 45 44 104q-1 29 -15 53q-28 39 -72 50q-51 10 -98 2q-88 -14 -153 -74q-85 -80 -118 -192q-22 -73 0 -143q26 -77 102 -97 q6 -2 17 -4q1 -9 7 -22z" glyph-name="ccedilla" horiz-adv-x="541" unicode="ç"/>
<glyph d="M135 117q0 20 4 51q1 6 6 7h3q34 -5 88 1q105 13 171 98q29 38 42 84q7 20 7 42q-1 36 -31 62q-19 17 -57 26q-39 10 -83 5q-54 -6 -103 -32q-54 -30 -97 -77q-66 -74 -93 -169q-10 -33 -10 -71t14 -75q20 -48 63 -75q64 -38 141 -23q66 13 117 49q88 58 188 137 q45 36 72 63q7 8 10 14q4 14 -8 20q-6 2 -12 0q-17 -2 -35 -16q-3 -2 -129 -102q-68 -54 -146 -88q-42 -18 -72 -23q-19 -2 -31 14q-8 14 -10 22q-10 29 -9 56zM316 391q-5 -30 -7 -37q-18 -47 -61 -88q-24 -23 -57 -29q-4 -1 -12 -2q-8 -2 -12 -2q-6 -1 -6 1q0 3 1 6 q7 19 20 42q29 52 67 88q23 21 51 36q5 2 7 2q5 1 7 -4q0 -6 2 -13zM238 793q-19 1 -38 -7q-23 -15 -21 -41q5 -44 46 -82q15 -13 33 -24q13 -8 38 -25l27 -18q37 -19 46 -23q26 -11 51 -7q17 4 25 12q9 12 0 22q-3 2 -27 21q-18 14 -51 37q-30 21 -53 61q-20 32 -30 49 q-17 27 -46 25z" glyph-name="egrave" horiz-adv-x="545" unicode="è"/>
<glyph d="M135 117q0 20 4 51q1 6 6 7h3q34 -5 88 1q105 13 171 98q29 38 42 84q7 20 7 42q-1 36 -31 62q-19 17 -57 26q-39 10 -83 5q-54 -6 -103 -32q-54 -30 -97 -77q-66 -74 -93 -169q-10 -33 -10 -71t14 -75q20 -48 63 -75q64 -38 141 -23q66 13 117 49q88 58 188 137 q45 36 72 63q7 8 10 14q4 14 -8 20q-6 2 -12 0q-17 -2 -35 -16q-3 -2 -129 -102q-68 -54 -146 -88q-42 -18 -72 -23q-19 -2 -31 14q-8 14 -10 22q-10 29 -9 56zM316 391q-5 -30 -7 -37q-18 -47 -61 -88q-24 -23 -57 -29q-4 -1 -12 -2q-8 -2 -12 -2q-6 -1 -6 1q0 3 1 6 q7 19 20 42q29 52 67 88q23 21 51 36q5 2 7 2q5 1 7 -4q0 -6 2 -13zM423 810q-30 2 -46 -25q-11 -18 -30 -49q-24 -41 -53 -61q-34 -24 -51 -37l-27 -21q-10 -12 0 -22q9 -8 25 -12q26 -4 51 7q11 4 46 23l27 18q26 18 38 25q18 10 33 24q42 39 46 82q2 27 -21 41 q-20 8 -38 7z" glyph-name="eacute" horiz-adv-x="545" unicode="é"/>
<glyph d="M135 117q0 20 4 51q1 6 6 7h3q34 -5 88 1q105 13 171 98q29 38 42 84q7 20 7 42q-1 36 -31 62q-19 17 -57 26q-39 10 -83 5q-54 -6 -103 -32q-54 -30 -97 -77q-66 -74 -93 -169q-10 -33 -10 -71t14 -75q20 -48 63 -75q64 -38 141 -23q66 13 117 49q88 58 188 137 q45 36 72 63q7 8 10 14q4 14 -8 20q-6 2 -12 0q-17 -2 -35 -16q-3 -2 -129 -102q-68 -54 -146 -88q-42 -18 -72 -23q-19 -2 -31 14q-8 14 -10 22q-10 29 -9 56zM316 391q-5 -30 -7 -37q-18 -47 -61 -88q-24 -23 -57 -29q-4 -1 -12 -2q-8 -2 -12 -2q-6 -1 -6 1q0 3 1 6 q7 19 20 42q29 52 67 88q23 21 51 36q5 2 7 2q5 1 7 -4q0 -6 2 -13zM332 687q1 -3 9 -21q12 -31 27 -55q25 -38 72 -34q8 1 17 5q12 8 10 21q-1 1 -1 5q-2 4 -2 5q-2 7 -8 23q-6 15 -8 22l-12 33q-5 21 -22 54q-19 34 -57 39q-46 4 -65 -27q-20 -34 -59 -85q-33 -43 -40 -56 q-17 -36 17 -45q4 -1 8 -1h2q28 -2 50 23q21 25 36 54q17 29 26 40z" glyph-name="ecircumflex" horiz-adv-x="545" unicode="ê"/>
<glyph d="M135 117q0 20 4 51q1 6 6 7h3q34 -5 88 1q105 13 171 98q29 38 42 84q7 20 7 42q-1 36 -31 62q-19 17 -57 26q-39 10 -83 5q-54 -6 -103 -32q-54 -30 -97 -77q-66 -74 -93 -169q-10 -33 -10 -71t14 -75q20 -48 63 -75q64 -38 141 -23q66 13 117 49q88 58 188 137 q45 36 72 63q7 8 10 14q4 14 -8 20q-6 2 -12 0q-17 -2 -35 -16q-3 -2 -129 -102q-68 -54 -146 -88q-42 -18 -72 -23q-19 -2 -31 14q-8 14 -10 22q-10 29 -9 56zM316 391q-5 -30 -7 -37q-18 -47 -61 -88q-24 -23 -57 -29q-4 -1 -12 -2q-8 -2 -12 -2q-6 -1 -6 1q0 3 1 6 q7 19 20 42q29 52 67 88q23 21 51 36q5 2 7 2q5 1 7 -4q0 -6 2 -13zM203 549q44 2 74 39q12 14 3 30q-8 16 -10 25t-12 15t-21 9q-33 8 -67 -4q-25 -11 -37 -29q-17 -28 1 -56q10 -12 26 -20q16 -7 43 -9zM456 549q44 2 74 39q12 14 3 30q-8 16 -10 25t-12 15q-11 6 -21 9 q-33 8 -67 -4q-25 -11 -37 -29q-17 -28 1 -56q10 -12 26 -20q16 -7 43 -9z" glyph-name="edieresis" horiz-adv-x="545" unicode="ë"/>
<glyph d="M-17 89v-31q0 -8 4 -21q18 -61 71 -76q56 -15 101 19q15 12 27 27q13 18 55 74q71 93 94 129q7 13 9 17q4 12 -1 19q-7 6 -18 3q-16 -4 -25 -13t-22 -26q-18 -24 -55 -72q-37 -49 -55 -73t-46 -49q-9 -7 -12 -7q-3 3 -4 14q-2 51 17 119q5 16 16 48q14 42 20 63 q3 12 15 45q16 36 34 85q10 26 12 40q3 28 -20 39q-48 21 -94 -6q-8 -6 -16 -15q-37 -55 -58 -108q-12 -31 -33 -102q-14 -51 -16 -142zM67 780q-19 1 -38 -7q-23 -15 -21 -41q5 -44 46 -82q15 -14 33 -24q13 -8 38 -25l27 -18q37 -19 46 -23q26 -11 51 -7q17 4 25 12 q9 12 0 22q-3 2 -27 21q-18 14 -51 37q-30 21 -53 61q-20 32 -30 49q-17 27 -46 25z" glyph-name="igrave" horiz-adv-x="290" unicode="ì"/>
<glyph d="M-17 89v-31q0 -8 4 -21q18 -61 71 -76q56 -15 101 19q15 12 27 27q13 18 55 74q71 93 94 129q7 13 9 17q4 12 -1 19q-7 6 -18 3q-16 -4 -25 -13t-22 -26q-18 -24 -55 -72q-37 -49 -55 -73t-46 -49q-9 -7 -12 -7q-3 3 -4 14q-2 51 17 119q5 16 16 48q14 42 20 63 q3 12 15 45q16 36 34 85q10 26 12 40q3 28 -20 39q-48 21 -94 -6q-8 -6 -16 -15q-37 -55 -58 -108q-12 -31 -33 -102q-14 -51 -16 -142zM227 772q-30 2 -46 -25q-11 -18 -30 -49q-24 -41 -53 -61q-34 -24 -51 -37l-27 -21q-10 -12 0 -22q9 -8 25 -12q26 -4 51 7q11 4 46 23 l27 18q26 18 38 25q18 10 33 24q42 39 46 82q2 27 -21 41q-20 8 -38 7z" glyph-name="iacute" horiz-adv-x="290" unicode="í"/>
<glyph d="M-17 89v-31q0 -8 4 -21q18 -61 71 -76q56 -15 101 19q15 12 27 27q13 18 55 74q71 93 94 129q7 13 9 17q4 12 -1 19q-7 6 -18 3q-16 -4 -25 -13t-22 -26q-18 -24 -55 -72q-37 -49 -55 -73t-46 -49q-9 -7 -12 -7q-3 3 -4 14q-2 51 17 119q5 16 16 48q14 42 20 63 q3 12 15 45q16 36 34 85q10 26 12 40q3 28 -20 39q-48 21 -94 -6q-8 -6 -16 -15q-37 -55 -58 -108q-12 -31 -33 -102q-14 -51 -16 -142zM152 698q1 -3 9 -21q12 -31 27 -55q25 -38 72 -34q8 1 17 5q12 8 10 21q-1 2 -1 5q-2 4 -2 5q-2 8 -8 22q-6 16 -8 23l-12 33 q-5 21 -22 54q-19 34 -57 39q-46 4 -65 -27q-20 -34 -59 -85q-33 -43 -40 -56q-17 -36 17 -45q4 -1 8 -1h2q28 -2 50 23q21 26 36 54q17 29 26 40z" glyph-name="icircumflex" horiz-adv-x="290" unicode="î"/>
<glyph d="M-17 89v-31q0 -8 4 -21q18 -61 71 -76q56 -15 101 19q15 12 27 27q13 18 55 74q71 93 94 129q7 13 9 17q4 12 -1 19q-7 6 -18 3q-16 -4 -25 -13t-22 -26q-18 -24 -55 -72q-37 -49 -55 -73t-46 -49q-9 -7 -12 -7q-3 3 -4 14q-2 51 17 119q5 16 16 48q14 42 20 63 q3 12 15 45q16 36 34 85q10 26 12 40q3 28 -20 39q-48 21 -94 -6q-8 -6 -16 -15q-37 -55 -58 -108q-12 -31 -33 -102q-14 -51 -16 -142zM39 541q44 2 74 39q12 14 3 30q-8 16 -10 25t-12 15t-21 9q-33 8 -67 -4q-25 -11 -37 -29q-17 -28 1 -56q10 -12 26 -20q16 -7 43 -9z M292 541q44 2 74 39q12 14 3 30q-8 16 -10 25t-12 15q-11 6 -21 9q-33 8 -67 -4q-25 -11 -37 -29q-17 -28 1 -56q10 -12 26 -20q16 -7 43 -9z" glyph-name="idieresis" horiz-adv-x="290" unicode="ï"/>
<glyph d="M124 68q5 77 26 152q19 67 58 133q18 29 45 52q5 4 7 6q17 10 26 9q10 -3 20 -17q10 -16 14 -24q2 -5 3 -7q7 -17 19 -28q2 -2 3 -5q-3 -4 -4 -5q-32 -34 -54 -73q-10 -18 -19 -31q-3 -5 -10 -14q-5 -8 -7 -11q-45 -70 -77 -114q-12 -17 -31 -36q-3 -3 -4 -5q-3 -3 -5 -4 q-5 -2 -7 3l-1 2q-2 14 -2 17zM677 643q16 2 26 8q14 10 5 24q-6 9 -14 13q-14 8 -30 12q-3 1 -42 6q5 13 15 38l9 21q21 49 36 94q6 24 8 36q6 35 -27 45q-33 11 -67 1q-15 -5 -26 -16q-10 -11 -18 -24q-16 -29 -34 -64q-24 -47 -49 -110q-6 -14 -8 -21q-5 1 -12 1 q-23 1 -67 -1h-1q-22 -2 -38 -10q-18 -13 -7 -31q9 -10 16 -15q23 -13 47 -15q18 -2 27 -1q4 0 6 1q-8 -21 -16 -44q-14 -42 -31 -103l-6 -20q-1 -2 -1 -3q-1 -3 -1 -4q-2 -4 -3 -5l-1 1h-2q-24 18 -52 23q-45 8 -91 1q-59 -8 -106 -46q-33 -30 -58 -64q-20 -25 -37 -57 q-43 -86 -52 -183q-5 -56 23 -106q19 -25 47 -39q31 -13 65 -10q37 2 64 20q26 18 46 45l48 66l22 32l1 2q1 3 7 7l1 1q-3 -12 -3 -22q-1 -3 -1 -7q-6 -53 15 -101q8 -19 24 -31q47 -31 97 -12q34 13 57 41q72 86 107 129q21 26 58 75q6 7 9 18q1 8 -4 15q-6 6 -14 5 q-12 -2 -20 -7q-11 -7 -21 -19q-60 -66 -124 -144q-22 -26 -50 -50v19q3 43 12 86q9 47 24 89q1 7 5 18q48 159 94 295q10 32 32 93q54 2 81 4z" glyph-name="eth" horiz-adv-x="610" unicode="ð"/>
<glyph d="M179 296q-1 1 0 3v1q8 19 23 58q10 27 15 39q12 30 14 47q1 14 -9 24q-6 5 -12 8q-53 23 -104 0q-14 -7 -22 -22q-13 -27 -23 -52q-50 -128 -94 -270q-19 -56 -23 -111q-1 -40 35 -50q56 -11 85 30q20 31 44 62q108 146 135 181q60 76 120 132l8 4q0 -4 -2 -9l-12 -33 q-15 -36 -54 -153q-22 -71 -21 -135q4 -44 36 -71q38 -31 87 -14q13 4 23 11q18 14 39 38q24 30 73 85q42 47 94 113q7 10 10 17q4 16 -12 17q-10 0 -25 -8q-14 -9 -29 -27q-19 -21 -56 -65q-38 -43 -57 -64q-30 -32 -52 -50q-8 -4 -10 -4q-1 7 1 18q9 50 23 87 q15 41 47 118q36 86 43 109q13 41 14 68q1 26 -13 39q-16 14 -34 18q-42 12 -88 -3q-58 -20 -110 -70q-63 -63 -103 -113zM429 547q38 -1 71 17q27 16 37 40q11 35 -21 50q-19 8 -41 7q-31 -3 -44 -25q-1 -1 -3 -4q-1 -2 -2 -3q-12 -17 -18 -16q-5 1 -18 8q-60 33 -111 36 q-50 1 -87 -17q-28 -17 -38 -49q-6 -22 11 -32q2 -2 3 -2q28 -13 58 -9q19 4 28 12q20 16 30 26q7 7 13 4l4 -2l45 -21q41 -20 83 -20z" glyph-name="ntilde" horiz-adv-x="595" unicode="ñ"/>
<glyph d="M-11 148q2 -53 17 -93q20 -47 49 -69q72 -52 163 -28q63 19 121 80q41 45 67 93q4 5 11 7l60 9q86 14 146 38q17 7 35 17q16 9 23 21q8 15 -8 21q-6 1 -14 1q-23 -5 -27 -7q-7 -2 -43 -17q-58 -21 -134 -33q-12 -2 -18 -2q-4 0 -4 3v2l2 4q10 28 24 83q14 59 4 113 q-14 68 -73 94q-45 18 -100 10q-78 -12 -117 -66q-7 -7 -16 -7q-39 1 -73 -25q-21 -18 -42 -51q-51 -88 -53 -198zM149 234l21 -28q39 -43 100 -62q8 -2 19 -4q5 -4 3 -9q-9 -15 -28 -40q-35 -43 -76 -65q-8 -4 -12 1q-1 2 -2 3q-10 17 -17 45q-16 60 -13 114q2 29 5 45z M271 290q6 76 38 121l9 9q4 4 9 0q8 -9 10 -13q9 -17 15 -50q4 -28 -4 -78q-10 -44 -17 -65q-4 -10 -5 -14q-3 -8 -9 -3q-15 8 -25 21q-20 28 -21 63v9zM237 801q-19 1 -38 -7q-23 -15 -21 -41q5 -44 46 -82q15 -13 33 -24q13 -8 38 -25l27 -18q37 -19 46 -23q26 -11 51 -7 q17 4 25 12q9 12 0 22q-3 2 -27 21q-18 14 -51 37q-30 21 -53 61q-20 32 -30 49q-17 27 -46 25z" glyph-name="ograve" horiz-adv-x="631" unicode="ò"/>
<glyph d="M-11 148q2 -53 17 -93q20 -47 49 -69q72 -52 163 -28q63 19 121 80q41 45 67 93q4 5 11 7l60 9q86 14 146 38q17 7 35 17q16 9 23 21q8 15 -8 21q-6 1 -14 1q-23 -5 -27 -7q-7 -2 -43 -17q-58 -21 -134 -33q-12 -2 -18 -2q-4 0 -4 3v2l2 4q10 28 24 83q14 59 4 113 q-14 68 -73 94q-45 18 -100 10q-78 -12 -117 -66q-7 -7 -16 -7q-39 1 -73 -25q-21 -18 -42 -51q-51 -88 -53 -198zM149 234l21 -28q39 -43 100 -62q8 -2 19 -4q5 -4 3 -9q-9 -15 -28 -40q-35 -43 -76 -65q-8 -4 -12 1q-1 2 -2 3q-10 17 -17 45q-16 60 -13 114q2 29 5 45z M271 290q6 76 38 121l9 9q4 4 9 0q8 -9 10 -13q9 -17 15 -50q4 -28 -4 -78q-10 -44 -17 -65q-4 -10 -5 -14q-3 -8 -9 -3q-15 8 -25 21q-20 28 -21 63v9zM424 801q-30 2 -46 -25q-11 -18 -30 -49q-24 -41 -53 -61q-34 -24 -51 -37l-27 -21q-10 -12 0 -22q9 -8 25 -12 q26 -4 51 7q11 4 46 23l27 18q26 18 38 25q18 11 33 24q42 39 46 82q2 27 -21 41q-20 8 -38 7z" glyph-name="oacute" horiz-adv-x="631" unicode="ó"/>
<glyph d="M-11 148q2 -53 17 -93q20 -47 49 -69q72 -52 163 -28q63 19 121 80q41 45 67 93q4 5 11 7l60 9q86 14 146 38q17 7 35 17q16 9 23 21q8 15 -8 21q-6 1 -14 1q-23 -5 -27 -7q-7 -2 -43 -17q-58 -21 -134 -33q-12 -2 -18 -2q-4 0 -4 3v2l2 4q10 28 24 83q14 59 4 113 q-14 68 -73 94q-45 18 -100 10q-78 -12 -117 -66q-7 -7 -16 -7q-39 1 -73 -25q-21 -18 -42 -51q-51 -88 -53 -198zM149 234l21 -28q39 -43 100 -62q8 -2 19 -4q5 -4 3 -9q-9 -15 -28 -40q-35 -43 -76 -65q-8 -4 -12 1q-1 2 -2 3q-10 17 -17 45q-16 60 -13 114q2 29 5 45z M271 290q6 76 38 121l9 9q4 4 9 0q8 -9 10 -13q9 -17 15 -50q4 -28 -4 -78q-10 -44 -17 -65q-4 -10 -5 -14q-3 -8 -9 -3q-15 8 -25 21q-20 28 -21 63v9zM300 690q1 -3 9 -21q12 -31 27 -55q25 -38 72 -34q8 1 17 5q12 8 10 21q-1 2 -1 5q-2 4 -2 5q-2 8 -8 22q-6 16 -8 23 l-12 33q-5 21 -22 54q-19 34 -57 39q-46 4 -65 -27q-20 -34 -59 -85q-33 -43 -40 -56q-17 -36 17 -45q4 -1 8 -1h2q28 -2 50 23q21 26 36 54q17 29 26 40z" glyph-name="ocircumflex" horiz-adv-x="631" unicode="ô"/>
<glyph d="M-11 148q2 -53 17 -93q20 -47 49 -69q72 -52 163 -28q63 19 121 80q41 45 67 93q4 5 11 7l60 9q86 14 146 38q17 7 35 17q16 9 23 21q8 15 -8 21q-6 1 -14 1q-23 -5 -27 -7q-7 -2 -43 -17q-58 -21 -134 -33q-12 -2 -18 -2q-4 0 -4 3v2l2 4q10 28 24 83q14 59 4 113 q-14 68 -73 94q-45 18 -100 10q-78 -12 -117 -66q-7 -7 -16 -7q-39 1 -73 -25q-21 -18 -42 -51q-51 -88 -53 -198zM149 234l21 -28q39 -43 100 -62q8 -2 19 -4q5 -4 3 -9q-9 -15 -28 -40q-35 -43 -76 -65q-8 -4 -12 1q-1 2 -2 3q-10 17 -17 45q-16 60 -13 114q2 29 5 45z M271 290q6 76 38 121l9 9q4 4 9 0q8 -9 10 -13q9 -17 15 -50q4 -28 -4 -78q-10 -44 -17 -65q-4 -10 -5 -14q-3 -8 -9 -3q-15 8 -25 21q-20 28 -21 63v9zM398 583q38 -1 71 17q27 16 37 40q11 35 -21 50q-19 8 -41 7q-31 -3 -44 -25q-1 -1 -2 -4l-3 -3q-12 -17 -18 -16 q-5 1 -18 8q-60 33 -111 36q-50 1 -87 -17q-28 -17 -38 -49q-6 -22 11 -32q2 -2 3 -2q28 -13 58 -9q19 4 28 12q20 16 30 26q7 7 13 4l4 -2l45 -21q41 -20 83 -20z" glyph-name="otilde" horiz-adv-x="631" unicode="õ"/>
<glyph d="M-11 148q2 -53 17 -93q20 -47 49 -69q72 -52 163 -28q63 19 121 80q41 45 67 93q4 5 11 7l60 9q86 14 146 38q17 7 35 17q16 9 23 21q8 15 -8 21q-6 1 -14 1q-23 -5 -27 -7q-7 -2 -43 -17q-58 -21 -134 -33q-12 -2 -18 -2q-4 0 -4 3v2l2 4q10 28 24 83q14 59 4 113 q-14 68 -73 94q-45 18 -100 10q-78 -12 -117 -66q-7 -7 -16 -7q-39 1 -73 -25q-21 -18 -42 -51q-51 -88 -53 -198zM149 234l21 -28q39 -43 100 -62q8 -2 19 -4q5 -4 3 -9q-9 -15 -28 -40q-35 -43 -76 -65q-8 -4 -12 1q-1 2 -2 3q-10 17 -17 45q-16 60 -13 114q2 29 5 45z M271 290q6 76 38 121l9 9q4 4 9 0q8 -9 10 -13q9 -17 15 -50q4 -28 -4 -78q-10 -44 -17 -65q-4 -10 -5 -14q-3 -8 -9 -3q-15 8 -25 21q-20 28 -21 63v9zM187 538q44 2 74 39q12 13 3 30q-8 16 -10 25t-12 15t-21 9q-33 8 -67 -4q-25 -11 -37 -29q-17 -28 1 -56 q10 -12 26 -20q16 -7 43 -9zM440 538q44 2 74 39q12 13 3 30q-8 16 -10 25t-12 15q-11 6 -21 9q-33 8 -67 -4q-25 -11 -37 -29q-17 -28 1 -56q10 -12 26 -20q16 -7 43 -9z" glyph-name="odieresis" horiz-adv-x="631" unicode="ö"/>
<glyph d="M90 281h-33q-19 0 -35 -6q-7 -2 -12 -7q-13 -13 -2 -28q9 -10 22 -15q30 -11 58 -8q24 3 103 8q19 1 59 3q39 1 58 2q22 0 39 7q16 8 17 17q-1 12 -16 18q-16 7 -31 9q-44 6 -110 4q-19 -1 -59 -2q-39 -2 -58 -2zM166 101q11 0 27 5q17 5 27 16q8 9 5 18q-14 30 -35 37 q-30 8 -59 -2q-17 -7 -26 -21q-8 -16 1 -30q5 -6 12 -11q17 -10 48 -12zM196 321q13 0 19 2q5 1 17 5q11 4 17 10q7 10 6 16q-6 22 -22 29q-35 12 -66 0q-11 -5 -18 -12q-16 -19 2 -37q6 -6 15 -9q18 -5 30 -4z" glyph-name="divide" horiz-adv-x="374" unicode="÷"/>
<glyph d="M146 131q-3 32 -2 58q2 30 5 45q2 -3 7 -10q10 -14 14 -18l18 -18l-40 -54zM271 299q4 61 38 112l8 8l1 1q4 4 9 0q6 -6 10 -13q4 -9 6 -13q-25 -32 -72 -95zM350 289l-2 -10q-10 -44 -17 -65l-4 -10q-1 -2 -1 -4q-3 -8 -9 -3q-15 9 -23 19q33 43 56 73zM244 153 q4 -1 13 -5q9 -3 13 -4q8 -2 11 -3q6 0 8 -1q3 -2 5 -3q0 -2 -2 -6q-25 -37 -28 -40q-31 -39 -76 -65q-2 -1 -3.5 -1.5l-3 -1t-1.5 0.5q-2 0 -6 6q-8 17 -9 19l20 26q40 52 59 78zM390 485q-49 19 -100 10q-72 -7 -117 -66q-7 -7 -16 -7q-42 -1 -73 -25q-26 -23 -42 -51 q-51 -87 -53 -198q0 -43 17 -93q12 -34 38 -60l-38 -52q-18 -26 -25 -40q-5 -13 7 -19q11 -5 19 -5q17 1 29 11q14 13 29 31l33 41q55 -22 120 -4q71 23 121 80q40 42 67 93q4 5 11 7l60 9q74 11 146 38q24 10 35 17q16 9 23 21q6 16 -8 21q-10 2 -14 1q-10 -1 -27 -7 l-16 -6q-18 -8 -27 -11q-65 -22 -134 -33l-18 -2q-4 -1 -4 3v2l2 4q12 34 22 75l2 8q14 59 4 113q-4 20 -10 33q36 46 69 93q2 3 7 10q22 30 31 45l1 1q3 6 7 15q3 10 -5 16q-4 2 -9 4q-28 9 -51 -12q-13 -14 -27 -30l-45 -57q-18 -22 -26 -32q-6 4 -15 8z" glyph-name="oslash" horiz-adv-x="631" unicode="ø"/>
<glyph d="M417 44q1 6 3 11q13 48 28 88q28 79 92 232q15 35 25 77q5 25 -15 38q-4 2 -13 7q-32 10 -64 6q-47 -7 -65 -47q-45 -99 -58 -135q-3 -9 -11 -18q-9 -11 -29 -32q-19 -22 -28 -32q-115 -133 -155 -173q-5 -6 -9 -7q0 10 4 25q14 68 49 164q10 26 31 77q13 33 20 50 q15 39 23 74q5 29 -20 42q-11 7 -26 10q-23 4 -49 1q-46 -8 -63 -46q-1 -3 -4 -8q-3 -6 -4 -9q-30 -76 -46 -114q-35 -89 -49 -154q-11 -55 -8 -89q6 -40 13 -60q17 -40 55 -52q56 -15 100 13q41 27 89 80q32 38 49 56q5 6 7 6q2 -4 0 -10q-4 -34 -3 -51q2 -33 15 -57 q23 -41 70 -42q6 0 11 1q26 3 49 21q2 2 42 41l6 6q51 51 144 154l12 15q7 8 10 11q6 8 9 16q4 15 -10 18h-5h-4q-3 -1 -4 -1q-16 -5 -30 -17q-17 -14 -55 -54q-16 -16 -47 -50q-48 -50 -72 -74q-5 -5 -10 -8zM288 842q-19 1 -38 -7q-23 -15 -21 -41q5 -44 46 -82 q15 -14 33 -24q13 -8 38 -25l27 -18q37 -19 46 -23q26 -11 51 -7q17 4 25 12q9 12 0 22q-3 2 -27 21q-18 14 -51 37q-30 21 -53 61q-20 32 -30 49q-17 27 -46 25z" glyph-name="ugrave" horiz-adv-x="605" unicode="ù"/>
<glyph d="M417 44q1 6 3 11q13 48 28 88q28 79 92 232q15 35 25 77q5 25 -15 38q-4 2 -13 7q-32 10 -64 6q-47 -7 -65 -47q-45 -99 -58 -135q-3 -9 -11 -18q-9 -11 -29 -32q-19 -22 -28 -32q-115 -133 -155 -173q-5 -6 -9 -7q0 10 4 25q14 68 49 164q10 26 31 77q13 33 20 50 q15 39 23 74q5 29 -20 42q-11 7 -26 10q-23 4 -49 1q-46 -8 -63 -46q-1 -3 -4 -8q-3 -6 -4 -9q-30 -76 -46 -114q-35 -89 -49 -154q-11 -55 -8 -89q6 -40 13 -60q17 -40 55 -52q56 -15 100 13q41 27 89 80q32 38 49 56q5 6 7 6q2 -4 0 -10q-4 -34 -3 -51q2 -33 15 -57 q23 -41 70 -42q6 0 11 1q26 3 49 21q2 2 42 41l6 6q51 51 144 154l12 15q7 8 10 11q6 8 9 16q4 15 -10 18h-5h-4q-3 -1 -4 -1q-16 -5 -30 -17q-17 -14 -55 -54q-16 -16 -47 -50q-48 -50 -72 -74q-5 -5 -10 -8zM440 801q-30 2 -46 -25q-11 -18 -30 -49q-24 -41 -53 -61 q-34 -24 -51 -37l-27 -21q-10 -12 0 -22q9 -8 25 -12q26 -4 51 7q11 4 46 23l27 18q26 18 38 25q18 11 33 24q42 39 46 82q2 27 -21 41q-20 8 -38 7z" glyph-name="uacute" horiz-adv-x="605" unicode="ú"/>
<glyph d="M417 44q1 6 3 11q13 48 28 88q28 79 92 232q15 35 25 77q5 25 -15 38q-4 2 -13 7q-32 10 -64 6q-47 -7 -65 -47q-45 -99 -58 -135q-3 -9 -11 -18q-9 -11 -29 -32q-19 -22 -28 -32q-115 -133 -155 -173q-5 -6 -9 -7q0 10 4 25q14 68 49 164q10 26 31 77q13 33 20 50 q15 39 23 74q5 29 -20 42q-11 7 -26 10q-23 4 -49 1q-46 -8 -63 -46q-1 -3 -4 -8q-3 -6 -4 -9q-30 -76 -46 -114q-35 -89 -49 -154q-11 -55 -8 -89q6 -40 13 -60q17 -40 55 -52q56 -15 100 13q41 27 89 80q32 38 49 56q5 6 7 6q2 -4 0 -10q-4 -34 -3 -51q2 -33 15 -57 q23 -41 70 -42q6 0 11 1q26 3 49 21q2 2 42 41l6 6q51 51 144 154l12 15q7 8 10 11q6 8 9 16q4 15 -10 18h-5h-4q-3 -1 -4 -1q-16 -5 -30 -17q-17 -14 -55 -54q-16 -16 -47 -50q-48 -50 -72 -74q-5 -5 -10 -8zM327 725q1 -3 9 -21q12 -31 27 -55q25 -38 72 -34q8 1 17 5 q12 8 10 21q0 1 -2 5q-1 4 -1 5q-3 7 -8 23q-6 15 -8 22l-12 33q-5 21 -22 54q-19 34 -57 39q-46 4 -65 -27q-20 -34 -59 -85q-33 -43 -40 -56q-17 -36 17 -45q4 -1 8 -1h2q28 -2 50 23q21 25 36 54q17 29 26 40z" glyph-name="ucircumflex" horiz-adv-x="605" unicode="û"/>
<glyph d="M417 44q1 6 3 11q13 48 28 88q28 79 92 232q15 35 25 77q5 25 -15 38q-4 2 -13 7q-32 10 -64 6q-47 -7 -65 -47q-45 -99 -58 -135q-3 -9 -11 -18q-9 -11 -29 -32q-19 -22 -28 -32q-115 -133 -155 -173q-5 -6 -9 -7q0 10 4 25q14 68 49 164q10 26 31 77q13 33 20 50 q15 39 23 74q5 29 -20 42q-11 7 -26 10q-23 4 -49 1q-46 -8 -63 -46q-1 -3 -4 -8q-3 -6 -4 -9q-30 -76 -46 -114q-35 -89 -49 -154q-11 -55 -8 -89q6 -40 13 -60q17 -40 55 -52q56 -15 100 13q41 27 89 80q32 38 49 56q5 6 7 6q2 -4 0 -10q-4 -34 -3 -51q2 -33 15 -57 q23 -41 70 -42q6 0 11 1q26 3 49 21q2 2 42 41l6 6q51 51 144 154l12 15q7 8 10 11q6 8 9 16q4 15 -10 18h-5h-4q-3 -1 -4 -1q-16 -5 -30 -17q-17 -14 -55 -54q-16 -16 -47 -50q-48 -50 -72 -74q-5 -5 -10 -8zM228 570q44 2 74 39q12 13 3 30q-8 16 -10 25t-12 15 q-11 6 -21 9q-33 8 -67 -4q-25 -11 -37 -29q-17 -28 1 -56q10 -12 26 -20q16 -7 43 -9zM481 570q44 2 74 39q12 13 3 30q-8 16 -10 25t-12 15t-21 9q-33 8 -67 -4q-25 -11 -37 -29q-17 -28 1 -56q10 -12 26 -20q16 -7 43 -9z" glyph-name="udieresis" horiz-adv-x="605" unicode="ü"/>
<glyph d="M276 103q-9 -19 -25 -52q-4 -8 -12 -12q-93 -49 -148 -85q-43 -29 -71 -60q-44 -52 -33 -119q8 -39 32 -89q20 -35 50 -52q64 -31 120 -2q32 17 56 57q31 52 88 172q75 162 99 207q4 8 14 15q68 30 101 45q78 36 116 55q10 6 16 11q8 11 -3 19q-10 3 -17 3q-20 1 -45 -10 q-3 -1 -132 -57q-7 -4 -13 -4q7 15 8 17q9 18 28 55q31 59 45 89q29 61 42 102q6 26 -15 41q-1 1 -5 2q-3 2 -4 2q-37 18 -77 9q-21 -5 -35 -22q-10 -12 -13 -18q-36 -64 -41 -74q-11 -18 -20 -22q-3 -2 -7 -7q-3 -3 -51 -60q-16 -20 -24 -29q-33 -33 -63 -69 q-35 -40 -85 -80q-9 -6 -11 -5q-3 2 -1 11v1q12 63 26 108q12 39 73 202q13 36 16 51q4 23 -17 39l-6 3q-3 2 -5 3q-32 13 -65 9q-35 -6 -54 -34q-19 -31 -35 -66q-53 -118 -71 -214q-14 -65 4 -121q16 -47 59 -63q28 -11 62 -8q47 5 86 42q38 38 56 59q3 4 7 5zM206 -53 q-89 -219 -96 -236q-4 -1 -6 2v1q-14 26 -20 46q-21 67 27 116q25 24 66 54q23 15 29 17zM458 774q-30 2 -46 -25q-11 -18 -30 -49q-24 -41 -53 -61q-34 -24 -51 -37l-27 -21q-10 -12 0 -22q9 -8 25 -12q26 -4 51 7q11 4 46 23l27 18q26 18 38 25q18 10 33 24q42 39 46 82 q2 27 -21 41q-20 8 -38 7z" glyph-name="yacute" horiz-adv-x="617" unicode="ý"/>
<glyph d="M339 388q1 -14 0 -28q-11 -103 -52 -203q-25 -60 -64 -105q-11 -13 -21 -19q-7 -3 -12 1q-30 26 -47 58l-2 4q-6 10 -10 15q-2 2 -2 4q1 2 3 4q22 22 36 46q20 28 55 83q4 7 29 44q33 52 77 91l1 1q1 1 4 3q2 1 5 1zM194 349q-1 3 0 5v3v1q0 2 2 5q1 4 1 5q6 20 78 240 q5 16 10 40q1 12 -6 21q-6 6 -15 11q-49 22 -99 -2q-14 -9 -20 -21l-1 -2q-2 -3 -4 -11q-3 -7 -4 -10q-13 -36 -84 -250q-38 -108 -55 -162q-22 -68 -40 -122q-10 -30 -28 -85q-9 -28 -27 -79q-13 -36 -35 -105l-6 -18q-20 -64 -32 -114q-4 -19 -6 -40q3 -28 26 -37 q42 -15 78 1q14 7 23 18q15 19 24 42q37 94 66 184l26 86l16 52l1 2q1 1 2 4l2 4q3 -1 4 -1l2 -2l1 -2l24 -24q14 -13 31 -19q18 -5 40 -7q82 -2 145 47q66 52 106 130q42 85 61 170q13 47 1 97q-14 57 -69 75q-30 9 -61 6q-46 -3 -81 -33q-40 -34 -75 -77q-2 -2 -14 -17 l-4 -4q-3 -4 -4 -5z" glyph-name="thorn" horiz-adv-x="543" unicode="þ"/>
</font>
</defs>
</svg>
