<svg xmlns="http://www.w3.org/2000/svg" viewBox="0 0 443.16 187.97"><defs><style>.cls-1{font-size:17.26px;font-family:CatalishHuntera;}.cls-1,.cls-2{fill:#502a1d;}.cls-3{fill:#f1e307;}</style></defs><g id="Capa_2" data-name="Capa 2"><g id="Capa_1-2" data-name="Capa 1"><text class="cls-1" transform="matrix(1.03, -0.13, 0.13, 0.99, 203.6, 177.62)">t</text><text class="cls-1" transform="translate(209.59 176.84) rotate(-7.39) scale(1.03 1)">h</text><text class="cls-1" transform="translate(219.56 175.55) rotate(-7.39) scale(1.03 1)">e</text><text class="cls-1" transform="translate(228.56 174.38) rotate(-7.39) scale(1.03 1)"> </text><text class="cls-1" transform="translate(232.47 173.87) rotate(-7.39) scale(1.03 1)">e</text><text class="cls-1" transform="translate(241.48 172.7) rotate(-7.39) scale(1.03 1)">v</text><text class="cls-1" transform="matrix(1.03, -0.13, 0.13, 0.99, 249.95, 171.6)">o</text><text class="cls-1" transform="translate(259.81 170.32) rotate(-7.39) scale(1.03 1)">l</text><text class="cls-1" transform="translate(264.15 169.76) rotate(-7.39) scale(1.03 1)">u</text><text class="cls-1" transform="matrix(1.03, -0.13, 0.13, 0.99, 274.04, 168.48)">t</text><text class="cls-1" transform="translate(280.04 167.7) rotate(-7.39) scale(1.03 1)">i</text><text class="cls-1" transform="matrix(1.03, -0.13, 0.13, 0.99, 284.32, 167.14)">o</text><text class="cls-1" transform="matrix(1.03, -0.13, 0.13, 0.99, 294.19, 165.86)">n</text><text class="cls-1" transform="matrix(1.03, -0.13, 0.13, 0.99, 304.15, 164.57)"> </text><text class="cls-1" transform="matrix(1.03, -0.13, 0.13, 0.99, 308.04, 164.07)">o</text><text class="cls-1" transform="translate(317.91 162.79) rotate(-7.39) scale(1.03 1)">f</text><text class="cls-1" transform="matrix(1.03, -0.13, 0.13, 0.99, 323.23, 162.1)"> </text><text class="cls-1" transform="translate(327.1 161.59) rotate(-7.39) scale(1.03 1)">c</text><text class="cls-1" transform="matrix(1.03, -0.13, 0.13, 0.99, 335.19, 160.55)">a</text><text class="cls-1" transform="matrix(1.03, -0.13, 0.13, 0.99, 343.86, 159.42)">m</text><text class="cls-1" transform="matrix(1.03, -0.13, 0.13, 0.99, 358.77, 157.49)">p</text><text class="cls-1" transform="translate(368.99 156.16) rotate(-7.39) scale(1.03 1)">i</text><text class="cls-1" transform="translate(373.27 155.61) rotate(-7.39) scale(1.03 1)">n</text><text class="cls-1" transform="translate(383.24 154.31) rotate(-7.39) scale(1.03 1)">g</text><path class="cls-2" d="M103.72,140.91c-3-5.13-8.58-10-14.64-8.47-3.75-.36-8.94.4-11.87,3.74a5.36,5.36,0,0,0-3.51,2.66c-2,1.1-3.3,3.09-4.38,5.16-2,4.49-4.12,10.35-2.29,14.77a4.5,4.5,0,0,0,.9,4,5.94,5.94,0,0,0,1.94,3.51c3.29,5.83,11.07,8,17.79,6.72,7.92-2.26,16.52-8.75,17.81-17.9C106.05,150.43,106.65,144.32,103.72,140.91Zm-5,12.2a12.4,12.4,0,0,1-.32,1.87,14.21,14.21,0,0,1-.72,1.81c-.26.62-.18,1.36-.51,1.93a16,16,0,0,1-1.07,1.72c-.4.54-1.08.83-1.54,1.3A15,15,0,0,1,93.1,163a15.77,15.77,0,0,1-1.57,1.15c-.56.33-1,1-1.6,1.25s-1.3-.07-1.91.1a13.66,13.66,0,0,1-1.79.72,12.16,12.16,0,0,1-1.8-.16,12.61,12.61,0,0,1-1.84.1,10.11,10.11,0,0,1-1.6-.74,10.49,10.49,0,0,1-1.63-.59,11.69,11.69,0,0,1-1.6-.74c-.46-.36-.66-1-1.06-1.42s-1.16-.53-1.49-1a12.11,12.11,0,0,1-.66-1.71,14.58,14.58,0,0,1-.53-1.74,11.74,11.74,0,0,1-.64-1.71,14.26,14.26,0,0,1,.14-1.93,13.3,13.3,0,0,1,0-1.89,14.2,14.2,0,0,1,.08-1.95,16.61,16.61,0,0,1,1-1.79,16.49,16.49,0,0,1,.72-1.85,15.91,15.91,0,0,1,1-1.75,16.6,16.6,0,0,1,1.25-1.62,15.89,15.89,0,0,1,1.71-1.08,14.74,14.74,0,0,1,1.58-1.18,14.4,14.4,0,0,1,1.81-.64,12.65,12.65,0,0,1,1.78-.56,12.45,12.45,0,0,1,1.79-.48,13.28,13.28,0,0,1,1.84-.36,11.16,11.16,0,0,1,1.82.14l.06-.22a12,12,0,0,1,1.63.75,11.62,11.62,0,0,1,1.7.54,10.42,10.42,0,0,1,1.39,1.09,12,12,0,0,1,1.2,1.27,11.11,11.11,0,0,1,1,1.42c.33.49,1.09.69,1.34,1.23s0,1.38.14,2,.66,1.06.74,1.67-.32,1.32-.32,2A13.15,13.15,0,0,1,98.75,153.11Z"/><path class="cls-2" d="M89.7,147.36c.57-.37,1.15-.75,1.74-1.11l1.79-1.1-1,2c-.31.65-.63,1.29-.94,1.94l-1.24-.23c-.07,0-.17-.07-.19-.14-.11-.37-.17-.75-.26-1.13A.27.27,0,0,1,89.7,147.36Z"/><path class="cls-2" d="M79.75,146.79l1.6.65c.53.21,1.05.46,1.59.67.12,0,.15.07.1.23-.13.38-.21.76-.34,1.14a.39.39,0,0,1-.17.23c-.36.16-.73.31-1.09.45a.22.22,0,0,1-.21,0c-.27-.55-.57-1.09-.84-1.64s-.53-1.11-.8-1.66c0,0,0-.08,0-.11S79.71,146.77,79.75,146.79Z"/><path class="cls-2" d="M82.78,158.65c-.57.36-1.15.69-1.72,1l-1.71,1.08h0l.89-1.94c.31-.64.63-1.25.94-1.9.44.09.86.11,1.29.2.05,0,.09.12.11.18.1.37.18.75.29,1.11C82.9,158.53,82.88,158.59,82.78,158.65Z"/><path class="cls-2" d="M92.7,159.19c-.52-.22-1-.46-1.56-.68s-1.06-.4-1.59-.61c-.16-.06-.15-.13-.09-.29.12-.37.21-.74.32-1.11,0-.07,0-.17.1-.19.43-.19.86-.34,1.31-.53.29.58.6,1.13.89,1.72s.51,1.18.8,1.77A1.78,1.78,0,0,1,92.7,159.19Z"/><path class="cls-2" d="M97.27,151.79c-.55-.1-1.11-.18-1.65-.29s-1.12-.16-1.66-.26-1-.58-1.54-.68-1.14-.05-1.69-.16-1.06-.34-1.61-.44c-.16,0-.21,0-.25-.14-.16-.58-.59-1-.74-1.63s0-1.27-.2-1.85-.37-1.13-.52-1.71-.22-1.2-.37-1.78-.55-1.76-.56-1.75-.17.36-.19.43l-.51,1.77c-.17.59-.17,1.21-.34,1.8s-.63,1.12-.8,1.71-.21,1.2-.38,1.79-.1,1.23-.27,1.81c0,.16-.32.09-.49.16-.5.21-.93.64-1.43.85l-1.5.6-1.5.6c-.5.21-1,.33-1.51.53l-1.5.62c-.36.15-.69.37-1.12.55.12,0,.1.14.15.15.55.11,1.13.11,1.68.21s1.07.31,1.62.41,1.18,0,1.73.06,1,.36,1.6.47,1.13.1,1.68.2c.19,0,.16.21.21.4.14.55.39,1.06.54,1.62s.16,1.16.3,1.71.51,1,.66,1.58.31,1.1.46,1.65.23,1.13.38,1.68c0,.07,0,.26.08.38,0-.14,0-.33.06-.4.17-.59.17-1.21.34-1.79s.65-1.12.82-1.71.08-1.22.25-1.81l.51-1.76c.17-.59.38-1.17.55-1.76a.72.72,0,0,1,.43-.44c.55-.23,1.16-.23,1.72-.46s1-.76,1.57-1,1.14-.32,1.69-.55l1.66-.65c.56-.23,1.13-.39,1.68-.61.08,0,0-.11,0-.14C97.26,151.71,97.34,151.81,97.27,151.79ZM89,154.32a4,4,0,0,1-1.11,1.46,3.44,3.44,0,0,1-1.67.51,2.86,2.86,0,0,1-1.61-.2c-.5-.25-1.14-.43-1.42-.92a3.57,3.57,0,0,1-.16-1.81,3.65,3.65,0,0,1,.42-1.75,3.91,3.91,0,0,1,1.28-1.31,3.28,3.28,0,0,1,1.61-.53c.61-.07,1.25-.32,1.73-.08a3.2,3.2,0,0,1,1.27,1.15,3.6,3.6,0,0,1,.48,1.75A4.44,4.44,0,0,1,89,154.32Z"/><path class="cls-2" d="M87.69,151.37a1.74,1.74,0,0,0-1.4-.41,2.26,2.26,0,0,0-1.44.71,2.43,2.43,0,0,0-.59,1.55,1.81,1.81,0,0,0,.56,1.37,1.69,1.69,0,0,0,1.37.45,2.28,2.28,0,0,0,1.45-.73,2.45,2.45,0,0,0,.61-1.55A1.87,1.87,0,0,0,87.69,151.37Zm-1.46,2.3v0a.58.58,0,0,1-.61-.64h-.05a.83.83,0,0,1,.69-.77h0a.57.57,0,0,1,.61.62,0,0,0,0,1,0,0A.76.76,0,0,1,86.23,153.67Z"/><path class="cls-2" d="M107.19,130.23c2.83.68,9.18-1.78,11.75.28,1.81,2.13,4.52,27.79,7.2,16.78,1.3-3,2.46-14.13,3.52-15.72.46-6.95,7.76-3,11.93-5.1,1.23,0,1.84.32,1.84,1-2.56,4.41-4.32,13-5.8,17.53-1.55,2.77-3.17,6.64-4.5,9.55-1.06,3.19-2,10.61-5.24,11-2.14.27-5.49-.54-7.34,1.94-4.16.25-6.35-16.36-11.07-25.09-1.81-4.85-2.4-7.91-3.85-10C105.22,131.33,106.19,130.35,107.19,130.23Z"/><path class="cls-2" d="M157.45,124.31c3.77-.35,6.82-.45,9.68-.64.72-.15,2.78-1.22,3,.54.08,1-.28,2.56-.48,5.39,1.75,3.86-1.89,3.83-3.64,3.76-3.1.49-7.44,1.24-6.9,1.65-2.07,5.24,7.32,1.9,9.82,1.79,2.11-.11,1.05,2.72,1.1,4,2.23,7.94-6.25,5.78-9.88,6.9-2,0-2.08,4.59.1,4,9.56-1,11.46-2.83,9.73,7.94a4.18,4.18,0,0,1-2.75,1.12c-1.49,1.18-9.27.77-11.16,1.11-3.19.13-8.42,3.37-10.12-1.09-.1-.29.36-1.11.51-2.12.27-.65-1.14-4.49.42-6.77,0-1.32.31-17-.79-24.47C146.38,124.45,153.74,125.47,157.45,124.31Z"/><path class="cls-2" d="M179.73,121.24c12.68-2.43,34.44-2.55,24.36,16.07-4.14,6.38-6.89,1.56-.21,10.71,7.1,10.5,3.23,6.5-5.83,8.9-4.42,1.12-5.92-8.48-9.11-9.91-1.12,1.44-.74,6.85-1.16,10.09-.85,1.69-6,1.49-7.72,1.72-3.87,1.28-4.32-1.45-3.74-4.93-.15-6.15.8-6.86-.13-13.43.66-2.83.23-7.8.44-10.2C177.05,125.32,174.85,121.85,179.73,121.24Zm8.49,10.15c.37,2.69-.94,4.55,1.61,4.53,1.95-.11,3.76-1.32,3.79-3.23C194.47,129.67,188.63,128.68,188.22,131.39Z"/><path class="cls-2" d="M223.65,116c2.95-.16,1.74,15.57.87,16.29.56,2.49.24,9.52,2.68,9,2.52-.08,9.64-2.26,10.17.92-.17,9.27,2.22,9.86-9,10.62-3.07.51-5.43.6-8.21,1a10.76,10.76,0,0,1-4.29.55c-4.28,1.58-2.66-2.82-3.43-5.75,1.18-6.07-.42-12.07,0-16.32C214.8,117.8,206.92,118.34,223.65,116Z"/><path class="cls-2" d="M253.44,112.05c4,.35,8.88-2.53,12.12.37,2,5.69,5.05,12.22,6.61,19.14,1.31,3,4.25,9.47,3.9,13.69-.54,2.44-6.4,1.87-8.82,2.44-4.69,1.75-2.78-4.22-5.88-4a8.15,8.15,0,0,0-2.73.73c-2.25.57-6.58-.64-7.42,2.62.28,4-12.53,5.43-12.21,2.3C242.08,143.24,248.08,113,253.44,112.05Zm1.35,22.65c-.17,1.63,3.4.74,3.61.83,3.25-1.12.45-7.1-.24-8.29C256.8,125.83,255.19,134.09,254.79,134.7Z"/><path class="cls-2" d="M305.38,105.12c11.53-.13,11-4,9.63,11.14-.05.77.29,1.3,1.16,2.14.11.55.18.83.22.82-.31,1.87-.13,3.84-.34,5.61.36,2.09-.32,8.79-.44,10,.21,1.71-.69,6.5-1.36,6.15-2.12,2.16-10.55,2.78-12.2.39-.87-1.12-.76-4.41-3.35-6.06-.76-.5-5.2-11.55-6.17-7.53a37.86,37.86,0,0,1-.41,6.62c.13,4.56,1,8.42-.82,10.17-1.5.83-10.12,2.24-11.3.3,1.27-3.23.44-4.36.22-10.25,2.16-8.41-1.1-17.78,1.26-25.5,2.14-1.77,5.73-.21,10.14-1.75,1.22-.25,2,.45,2.73,2.25.16,2.84,4.55,7.74,5.77,10,1,1.38,1.5,2.53,2.73,2.53,1.44-.56.61-5.45.84-6.64-.23.12.45-3.31.56-5.2C304.56,108.74,301.77,105.61,305.38,105.12Z"/><path class="cls-2" d="M331.3,102.21c8.63-1.12,15.43-1,21.17,4,12.12,8.85-.37,31.23-14.18,32.78-5.66.72-8.74.07-13.45,1.63-1.11-.24-1.6-.65-1.54-1.42.88-6.37-.54-15.46-.09-20.21-.22-3.63.76-9.2-.06-14C323.19,103,329.82,102.79,331.3,102.21Zm4.58,12.68a66.8,66.8,0,0,1,.15,11.9c.14,2,5.74.09,5.16-.42.29-.44,1.07-3,2.84-3.73,1.13-2.6,1-8.38-2.6-9.2C340,113.71,336.08,112.17,335.88,114.89Z"/><path class="cls-2" d="M405.88,80.82,368.5,74.91c1.32-6.3,1.09-5.26,2.57-11.62l20.81-2.09L402,53.85l-27.06-7.11q2.26-9.47,4.71-19.08l26.43-1.84,11-6.38L365.92,1.92s-2.45,7.46-6.38,9.87l3.73,15.1.93-.07Q354.72,61,347.74,95.7l49.06-6.35Z"/><path class="cls-2" d="M83.34,110.65q6.16-.15,10.94-.6a4.72,4.72,0,0,1,.64.79,28.32,28.32,0,0,1,2.73,8.87,67.74,67.74,0,0,1,.81,7.69l14.42-1.87C115.27,121.71,122,117,122,117s-12.52-7.37-13.76-9.78a3.05,3.05,0,0,0,.46-.2q6.18-3.12,9.72-10.8a46.08,46.08,0,0,0,3.85-18.12q.28-9.52-3.38-15.47a26.13,26.13,0,0,0-9.34-9.18c-3.78-2.16-24.15-13.84-29.74-14.78,0,0-.55,5.33-6.09,10.37L78,65.1l3.2-.2a504.21,504.21,0,0,0-19.17,67.2l16.86-2.18c.39-1.88,9.08-8.53,9.08-8.53S82.23,115.08,83.34,110.65ZM92,64.79a28.22,28.22,0,0,1,2.85.31,25.22,25.22,0,0,1,9,3.26,7.81,7.81,0,0,1,3.87,7.4q-.34,11-5.06,14.29-4.3,3.09-14.49,3.3a266.26,266.26,0,0,1,9-25.12Z"/><path class="cls-2" d="M140.8,103.3q6.16-.15,10.94-.6a4.27,4.27,0,0,1,.64.79,28,28,0,0,1,2.74,8.87,70.31,70.31,0,0,1,.8,7.69l14.42-1.87c2.39-3.83,9.08-8.53,9.08-8.53s-12.53-7.37-13.77-9.78a3.15,3.15,0,0,0,.47-.2q6.16-3.12,9.72-10.8a46.26,46.26,0,0,0,3.84-18.12q.28-9.52-3.38-15.47A26,26,0,0,0,167,46.1c-3.78-2.16-24.16-12.89-29.75-13.84,0,0-1.34,6.41-6.07,9.43l4.36,16.06,3.2-.2a504.16,504.16,0,0,0-19.16,67.2l16.85-2.18c.4-1.88,9.08-8.53,9.08-8.53S139.69,107.73,140.8,103.3Zm8.67-45.86a27.57,27.57,0,0,1,2.85.31,25.28,25.28,0,0,1,9,3.26,7.85,7.85,0,0,1,3.87,7.4q-.36,11-5.07,14.29-4.31,3.09-14.49,3.3a266.26,266.26,0,0,1,9-25.12Z"/><path class="cls-2" d="M203.46,101.56,215.41,100c-.2,3.63-.46,7.76-.78,12.36l15.12-2c.16-1.71,9.07-8.53,9.07-8.53s-7.93-8.51-7.93-14.29c0-14.31-5.72-47.53-9.76-67.77l-11.28,9.93C195,53.16,188.29,77.37,183.4,90.69a153.82,153.82,0,0,0-7.51,26.69L193,115.17c.37-1.48,9.07-8.52,9.07-8.52S202.62,104,203.46,101.56ZM214.3,65.7A126,126,0,0,1,216,83.42l-12.28,1.17Q209.41,71.38,214.3,65.7Z"/><path class="cls-2" d="M260.72,74.11l7.64,31.31,18.29-2.37c.29-1.66,9.08-8.53,9.08-8.53s-7.93-53.15-2-78.25l-7.32,10.86q-5.7,23-10.48,46.24L255.79,18.61l-6.36,9.22,3.38,13.9q-9.19,33.66-16,67.77l16.84-2.17c.33-1.66,9.08-8.53,9.08-8.53S258.67,83,260.72,74.11Z"/><path class="cls-2" d="M338.41,39.51l1.52-6L335.79,31q7.27.55,18.75,1.58l9.07-8.53c-15.52-1.6-51.7-19.55-51.7-19.55s-2,7.46-6.73,9.42l4.36,16.86q8.79-.68,14.5-.57c-5.82,23.67-10.82,47.58-15.23,69.62l17.1-2.21c.43-2.13,9.08-8.53,9.08-8.53S334.87,53.43,338.41,39.51Z"/><path class="cls-3" d="M409.32,64.29l-31.79,2.08c1.32-6.3,1.09-5.26,2.57-11.62l20.81-2.09L404,37,383.94,38.2q2.26-9.47,4.71-19.08l26.51-1.92L419.4,1.92,393.25,3a101.61,101.61,0,0,0-24.68.21l3.73,15.1.93-.07q-9.48,34.19-16.46,68.88l49.06-6.35Z"/><path class="cls-3" d="M92.41,102.12c4.12-.1,7.76-.3,11-.6a4.72,4.72,0,0,1,.64.79,28.32,28.32,0,0,1,2.73,8.87,67.74,67.74,0,0,1,.81,7.69L122,117q-.69-9.44-2-12.67-.81-2-2.67-5.64a3.05,3.05,0,0,0,.46-.2q6.18-3.12,9.72-10.8a45.9,45.9,0,0,0,3.84-18.12q.3-9.52-3.37-15.46a26.15,26.15,0,0,0-9.34-9.19,42.78,42.78,0,0,0-14.06-4.66,60.31,60.31,0,0,0-21.77.25l4.37,16.06,3.2-.2a502.43,502.43,0,0,0-19.17,67.21L88,121.39Q90.11,111.37,92.41,102.12Zm8.68-45.86a28.22,28.22,0,0,1,2.85.31,25.29,25.29,0,0,1,9,3.26,7.81,7.81,0,0,1,3.87,7.4q-.35,11-5.06,14.29-4.3,3.09-14.5,3.3,4.2-13.63,9-25.12Z"/><path class="cls-3" d="M149.74,95q6.16-.15,10.94-.6a4.27,4.27,0,0,1,.64.79,28,28,0,0,1,2.74,8.87,71,71,0,0,1,.79,7.4l14.41-1.86q-.7-9.21-2-12.39c-.54-1.35-1.44-3.23-2.68-5.64a3.15,3.15,0,0,0,.47-.2q6.16-3.12,9.72-10.8a46.26,46.26,0,0,0,3.84-18.12q.28-9.52-3.38-15.47a26,26,0,0,0-9.34-9.18,42.72,42.72,0,0,0-14.05-4.66,60.3,60.3,0,0,0-21.77.25l4.36,16.06,3.2-.2a504.85,504.85,0,0,0-19.1,66.91L145.39,114Q147.48,104.1,149.74,95Zm8.67-45.86a27.57,27.57,0,0,1,2.85.31,25.28,25.28,0,0,1,9,3.26,7.85,7.85,0,0,1,3.87,7.4q-.36,11-5.07,14.29-4.31,3.09-14.49,3.3a266.26,266.26,0,0,1,9-25.12Z"/><path class="cls-3" d="M205.57,95l18.92-3.52q-.3,5.46-.78,12.36l15.11-2Q240,90.18,240,79.06c0-14.31-2-36.55-6.05-56.79l-11.76-.17a325.79,325.79,0,0,0-29.68,60.06A153.94,153.94,0,0,0,185,108.85l17.06-2.2Q203.25,101.76,205.57,95Zm17.81-37.82a127.24,127.24,0,0,1,1.69,17.71l-12.28,1.17Q218.49,62.85,223.38,57.18Z"/><path class="cls-3" d="M269.8,65.58l7.64,31.31,18.29-2.37Q301.88,59.57,311.42,19l-15.95-.42q-5.72,23-10.48,46.23L272.24,14.56,258.51,19.3l3.37,13.9q-9.18,33.66-16,67.78L262.7,98.8Q266.23,81.07,269.8,65.58Z"/><path class="cls-3" d="M347.49,31,349,25l-4.13-2.47q7.28.55,18.74,1.58l2.86-16.55q-23.3-2.4-32.37-3a94.86,94.86,0,0,0-19.84.91l4.36,16.86q8.79-.68,14.49-.57c-5.81,23.68-10.81,47.58-15.22,69.62L335,89.12C339.48,66.83,343.58,46.37,347.49,31Z"/><path class="cls-2" d="M407.6,65.77c-4.92.43-9.81.78-14.78,1s-10,.36-15.23.46l-1.11,0,.21-1.06,1.16-5.85,1.26-5.83.15-.69.74-.09,20.78-2.36-1.13,1,2.88-15.75,1.55,1.78-20,1.51-2.36.18.55-2.33,4.47-19.17.33-1.38,1.47-.12L415,14.86l-2.09,1.71,4.79-15.13,1.79,2.25c-2.17.29-4.34.5-6.52.7s-4.35.35-6.53.49c-4.35.28-8.71.43-13.07.58h-.2l-.15,0a100.25,100.25,0,0,0-24.11,0l1.81-2.7,3.6,15.12-2.17-1.57.93-.06L376,16l-.8,2.81C372,30.15,369,41.55,366.06,53s-5.55,22.91-8,34.44l-1.43-1.53,49.15-5.57h0l-.43.4c.28-2.75.54-5.36.89-7.81S407,68.11,407.6,65.77Zm3.43-3c-.6,3.17-1.3,6.35-2.11,9.4s-1.71,6-2.59,8.72l-.12.35-.31,0h0l-48.95,7.13-1.77.26.34-1.8q3.28-17.41,7.2-34.73c2.58-11.54,5.48-23,8.53-34.44l2.15,2.61-.94.08-1.73.14-.43-1.71L366.43,3.78l-.6-2.34,2.42-.37A104.08,104.08,0,0,1,393.49.64h-.34C397.5.4,401.86.17,406.22.08c2.19,0,4.37-.09,6.55-.08s4.37,0,6.56.14l2.3.1-.51,2.15-3.71,15.44L417,19.44l-1.71.1L388.8,21.12l1.79-1.5-4.95,19-1.81-2.15,20.07-1,2-.09-.4,1.87-3.28,15.67-.2.94-.93.09L380.2,55.76l.88-.78-1.4,5.77-1.3,5.8-.9-1c5.39-.59,10.92-1.17,16.55-1.63S405.36,63.07,411,62.8Z"/><path class="cls-2" d="M91.25,100.67c4-.29,8.08-.44,12-.48H104l.32.4h0a11.64,11.64,0,0,1,.88,1.18c.21.39.38.74.54,1.12a19.72,19.72,0,0,1,.83,2.25,37.29,37.29,0,0,1,1.07,4.54,65.91,65.91,0,0,1,.89,9.14h0l-1.11-.92q7.19-1.17,14.36-2.27l-1.2,1.49a83.73,83.73,0,0,0-1.34-9.27,18.53,18.53,0,0,0-.58-2.14,6,6,0,0,0-.4-1l-.52-1-2.08-4.17-.52-1L116.71,97s.65-.34,1-.57.79-.51,1.17-.78A16.85,16.85,0,0,0,121,93.77a21.16,21.16,0,0,0,3.38-4.6,35.87,35.87,0,0,0,3.82-11.11,49.26,49.26,0,0,0,.69-6,49.5,49.5,0,0,0,.05-6,22.82,22.82,0,0,0-3.07-10.79,24.45,24.45,0,0,0-7.94-8,36.76,36.76,0,0,0-10.9-4.12,59.27,59.27,0,0,0-23.84-.39l1.85-3L89.34,56,87,54.27l3.23-.18,3.48-.18-1.21,3.24q-3,8.16-5.78,16.42T81.39,90.16c-1.67,5.56-3.29,11.14-4.78,16.76s-3,11.24-4.3,16.9L71,122.4q8.43-.9,16.87-1.7h0l-.6.55C88.43,114.61,89.7,107.64,91.25,100.67Zm2.33,2.9c-1.39,5.88-3.06,11.76-4.89,18l-.14.48-.45.07h0q-8.35,1.38-16.75,2.65l-1.62.24.31-1.66c1.08-5.74,2.23-11.48,3.53-17.18s2.7-11.38,4.23-17,3.16-11.27,4.88-16.86,3.6-11.14,5.54-16.66l2.28,3-3.18.22L85.4,59l-.51-1.83-4.45-16-.69-2.47,2.54-.51a62.12,62.12,0,0,1,25.83.32,41.41,41.41,0,0,1,12.36,4.74A28.44,28.44,0,0,1,130,52.86a27.53,27.53,0,0,1,3.6,13,50.52,50.52,0,0,1-.15,6.53,54.11,54.11,0,0,1-.91,6.45,39.66,39.66,0,0,1-4.58,12.32,24.83,24.83,0,0,1-4.19,5.31,20.5,20.5,0,0,1-2.67,2.16c-.48.32-1,.63-1.47.91a12.39,12.39,0,0,1-1.76.84l1.06-2.56,2,4.46.5,1.12a9,9,0,0,1,.44,1.27,24,24,0,0,1,.56,2.5,84.86,84.86,0,0,1,.93,9.69l.07,1.34-1.28.14q-7.23.78-14.47,1.46l-1,.1-.08-1h0a64,64,0,0,0-1.2-8.8,36.12,36.12,0,0,0-1.17-4.2,19.14,19.14,0,0,0-.81-2c-.15-.31-.32-.63-.47-.9s-.35-.38-.5-.6l1.07.39C100.09,103.21,96.85,103.46,93.58,103.57Z"/><path class="cls-2" d="M99.32,55.66a12.56,12.56,0,0,1,2.75-.63,6.75,6.75,0,0,1,1.44.06l.62.11.42.12c1.1.32,2.16.72,3.22,1.12A32.35,32.35,0,0,1,114,59.16a9.2,9.2,0,0,1,2.72,2.56,9.69,9.69,0,0,1,1.46,3.52,13.08,13.08,0,0,1,.21,1.86c0,.6,0,1.14,0,1.71,0,1.13,0,2.26-.14,3.41a20.72,20.72,0,0,1-1.72,7,11.29,11.29,0,0,1-2.28,3.28A12,12,0,0,1,111,84.76a23.16,23.16,0,0,1-6.92,1.95,44.61,44.61,0,0,1-6.8.32L94.1,87l1-2.81c.77-2.11,1.57-4.21,2.43-6.28s1.74-4.14,2.64-6.19l5.4-12.29.26.87c-.94-.66-1.94-1.29-3-2-.55-.37-1.11-.77-1.69-1.2S100,56.18,99.32,55.66Zm3.53,1.2a3.54,3.54,0,0,1,.77.31,7.12,7.12,0,0,1,.9.52c.62.41,1.36.93,2.14,1.41l.49.3-.23.57c-.79,2.07-1.61,4.14-2.29,6.25s-1.35,4.23-1.95,6.37S101.52,76.88,101,79l-1.62,6.44L97.2,82.62a61.36,61.36,0,0,0,6.16-.71,22.79,22.79,0,0,0,5.56-1.55,9.66,9.66,0,0,0,2.1-1.31,8.35,8.35,0,0,0,1.54-2,19.54,19.54,0,0,0,2-5.44c.22-1,.38-2,.52-3.06l.17-1.54a10.75,10.75,0,0,0,0-1.39,6.06,6.06,0,0,0-2.5-4.61,20.53,20.53,0,0,0-2.63-1.57,13.36,13.36,0,0,0-2.91-1.12,19.24,19.24,0,0,0-3.1-.42l-.39,0-.18,0a.14.14,0,0,1-.17-.12A2.05,2.05,0,0,0,102.85,56.86Z"/><path class="cls-2" d="M148.9,93.94c3.94-.24,7.88-.36,11.7-.41h.5l.2.26h0a12.78,12.78,0,0,1,.79,1.07c.19.36.36.71.51,1.07a22.54,22.54,0,0,1,.78,2.17,36.16,36.16,0,0,1,1,4.42,65.42,65.42,0,0,1,.81,8.92h0l-.4-.32L179.17,109h0l-.56.68a79.29,79.29,0,0,0-1.49-9.19,20.42,20.42,0,0,0-.63-2.14,16.76,16.76,0,0,0-1-2l-2.15-4.09h0l-.57-1.1,1.37-.83.15-.08.2-.1.54-.3c.34-.21.69-.41,1-.64a16.45,16.45,0,0,0,1.86-1.47A20.13,20.13,0,0,0,181.05,84a31.46,31.46,0,0,0,4-8.9,46.57,46.57,0,0,0,1.6-9.77,40.37,40.37,0,0,0-.4-9.8A22.87,22.87,0,0,0,184.93,51,18.81,18.81,0,0,0,182.67,47a23.68,23.68,0,0,0-6.77-6.47c-5.35-3.29-12-4.73-18.51-5.32h0c0-.08,0,.16,0-.17h-.11l-.13,0-.26,0-.53-.06-1-.1c-.71-.07-1.41-.12-2.12-.15-1.41-.08-2.83-.11-4.24-.07a57.59,57.59,0,0,0-8.47.84l1.6-2.57L146.13,49l-1.8-1.28,3.22-.15,2.6-.12-.91,2.39a502.34,502.34,0,0,0-20.11,66.46l-.67-.72,16.85-1.91h0l-.28.26C146.19,107.45,147.43,100.71,148.9,93.94Zm1.68,2.1c-1.42,5.88-3.09,11.8-4.86,18l-.07.23-.21,0h-.05l-16.77,2.44-.83.12L128,116a504.66,504.66,0,0,1,18.1-67.37l1.69,2.27-3.18.25-1.39.11-.41-1.39-4.68-16-.61-2.1,2.21-.47a62.56,62.56,0,0,1,9-1.26c1.52-.1,3.05-.16,4.58-.15.77,0,1.53,0,2.29,0l1.15.06.57,0,.29,0h.26c0-.32,0-.09,0-.16h0a61.62,61.62,0,0,1,10.53,2.13,37.64,37.64,0,0,1,10,4.54,28.07,28.07,0,0,1,7.8,7.9,23.41,23.41,0,0,1,2.58,5,27.13,27.13,0,0,1,1.36,5.39,44.37,44.37,0,0,1,.13,10.73,50,50,0,0,1-2,10.46,34.84,34.84,0,0,1-4.7,9.68,23,23,0,0,1-3.71,4.06,18.78,18.78,0,0,1-2.22,1.65c-.39.25-.8.47-1.19.7l-.6.31c-.17.09-.55.25-.82.36l.8-1.94h0l1.89,4.41a17.06,17.06,0,0,1,.89,2.29,21.77,21.77,0,0,1,.51,2.42,82.43,82.43,0,0,1,.79,9.48l0,.62-.57.06h0l-14.45,1.58-.36,0,0-.37h0a63.44,63.44,0,0,0-1.3-8.72A34.24,34.24,0,0,0,162,98.56a20.45,20.45,0,0,0-.84-2c-.16-.31-.33-.63-.5-.91s-.39-.45-.58-.68h0l.7.25C157.29,95.6,153.94,95.87,150.58,96Z"/><path class="cls-2" d="M157.14,48.69a19.52,19.52,0,0,1,2-.35,7.36,7.36,0,0,1,2,.14,5.26,5.26,0,0,1,.73.2l.66.21q.65.22,1.29.48l5,2.07a12.3,12.3,0,0,1,4.87,3,8.68,8.68,0,0,1,2,5.72,28.16,28.16,0,0,1-1.6,11.25,12.51,12.51,0,0,1-1.54,2.78,10.74,10.74,0,0,1-2.4,2.36,18.47,18.47,0,0,1-5.56,2.61h0s-.08-.3-.05-.16h-.06l-.08,0-.16,0-.32,0-.63.1c-.42.06-.84.1-1.26.15-.84.08-1.67.13-2.49.17-1.65.06-3.27,0-4.88,0h0l-2.69-.14,1-2.17c1.79-4.13,3.47-8.28,5.18-12.41s3.42-8.25,5.23-12.33l.12.42c-.89-.63-1.82-1.2-2.87-1.84-.51-.33-1.07-.67-1.63-1S157.77,49.16,157.14,48.69Zm2.55.87a6.62,6.62,0,0,1,.82.46c.31.19.61.42,1,.67.68.5,1.48,1.07,2.31,1.59l.24.15-.11.27c-1.65,4.13-3.15,8.32-4.42,12.58a124.14,124.14,0,0,0-3.22,12.94l-1.74-2.31h0c1.53-.15,3-.34,4.51-.61.74-.14,1.46-.29,2.17-.47l1.06-.28.52-.16.25-.08.12,0,.07,0,0,0h0c0,.14-.05-.2,0-.16h0a13.61,13.61,0,0,0,4.21-1.49,7.16,7.16,0,0,0,2.73-3,17.85,17.85,0,0,0,1.58-4.5,37.66,37.66,0,0,0,.79-5,8.89,8.89,0,0,0-.7-4.4,5.94,5.94,0,0,0-1.36-2,14.17,14.17,0,0,0-2.06-1.54,12.35,12.35,0,0,0-5-1.65l-1.3-.13-.65,0a4,4,0,0,0-.59,0c-.29,0-.45,0-.6-.15A4.32,4.32,0,0,0,159.69,49.56Z"/><path class="cls-2" d="M204.45,93.7c6.74-1.13,13.41-2.09,19.9-3l.9-.12v.92h0l-.14,6.2-.21,6.2-1.34-1.27,15.05-2.39-1.42,1.47c.52-6.62.73-13.24.74-19.85s-.41-13.19-.94-19.8-1.31-13.18-2.21-19.75-2-13.1-3.26-19.58l2.36,2-11.75-.18,2.08-1.13C220,30,216.05,36.8,212.31,43.7s-7.23,13.95-10.51,21.09-6.32,14.4-9.07,21.74c-1.36,3.68-2.63,7.39-3.75,11.14s-2.15,7.54-2.93,11.37l-1.23-1.28,8.56-.85,8.58-.78h0l-.44.39c.3-2,.67-4,1.09-6.07l.65-3,.34-1.5.09-.38a2.74,2.74,0,0,1,.13-.48A6.64,6.64,0,0,1,204.45,93.7Zm2.24,2.6c.09.06.16,0,.15.06s-.07.13-.12.23l-.15.35L206,98.33l-1.2,2.78c-.79,1.87-1.54,3.75-2.22,5.66l-.12.34-.32,0h0l-8.49,1.43L185.11,110l-1.45.23.22-1.51a117.05,117.05,0,0,1,2.3-11.77c1-3.87,2.1-7.7,3.32-11.49,2.46-7.59,5.38-15,8.47-22.32s6.55-14.5,10.23-21.57,7.67-14,11.91-20.72l.72-1.14h1.37l11.75.15,2,0,.38,1.94q1.94,9.91,3.24,19.9t1.95,20.06c.47,6.7.64,13.44.47,20.19s-.75,13.44-1.52,20.1l-.16,1.34-1.27.13L223.86,105l-1.48.15.14-1.42.57-6.16.63-6.16h0l.91.79C218.5,93.7,212.57,95.08,206.69,96.3Z"/><path class="cls-2" d="M223.85,55.52a6.19,6.19,0,0,1,.68,1.28,3.33,3.33,0,0,1,.19,1.29,7.58,7.58,0,0,0-.11,1.15,10.5,10.5,0,0,0,.21,2.24c.23,1.47.51,2.94.78,4.42l.81,4.45c.27,1.49.51,3,.7,4.49l.22,1.71-2.07.37c-1,.18-2,.4-3,.55s-2,.31-3.06.43c-2,.24-4.09.39-6.15.47l-4.06.15,1.71-3.38a76.14,76.14,0,0,1,5.77-9.44q1.57-2.27,3.2-4.5c.54-.74,1.08-1.48,1.65-2.2a3.68,3.68,0,0,0,.68-1.21c0-.12.07-.25.1-.37a1.82,1.82,0,0,1,.3-.63A4.46,4.46,0,0,1,223.85,55.52Zm-.93,3.31c.28,0,.59-.08.62-.23s0-.15-.13-.1l-.32.17a2.7,2.7,0,0,0-1,.95c-.5.74-1,1.51-1.4,2.29a40,40,0,0,0-2.25,4.89c-1.31,3.36-2.33,6.82-3.57,10.18l-2.35-3.24q3.06-.46,6.13-.69c1-.08,2.05-.13,3.08-.16s2.07,0,3.1,0L223,74.94c.12-1.46.23-2.93.32-4.41s.15-3,.13-4.43-.07-2.95-.22-4.42a8.57,8.57,0,0,0-.41-2.18,7.26,7.26,0,0,0-.45-1c-.07,0-.1.09,0,.19A.78.78,0,0,0,222.92,58.83Z"/><path class="cls-2" d="M269.8,65.58c.63,2,1.4,4.3,2.25,6.67s1.77,4.92,2.66,7.59a77,77,0,0,1,2.35,8.32,43.55,43.55,0,0,1,1.1,8.55l-.81-.55,9.11-1.41,9.12-1.36-1,.93q1.5-9.52,3.16-19c1.09-6.34,2.33-12.66,3.56-19q3.75-18.95,8-37.78l2.07,2.68-15.95-.33,2.27-1.73c-1.85,7.67-3.61,15.36-5.35,23.05S289,57.61,287.39,65.34l-2.14,10.51-2.63-10.4L276.26,40.3,270,15.14,273,16.79l-13.76,4.66,1.47-2.69L264,32.69l.13.56-.15.52Q259.22,50.48,255,67.36l-4.09,16.9q-2,8.46-3.87,17l-1.38-1.47c5.63-.64,11.26-1.22,16.89-1.81h0l-.74.69a65,65,0,0,1,1.28-8.86c.61-3,1.4-5.88,2.21-8.68s1.64-5.52,2.4-8.11S269.2,67.91,269.8,65.58Zm0,0c-.59,3.2-1.08,6.24-1.49,9.2l-1.15,8.51c-.37,2.73-.76,5.35-1.34,7.93A54.1,54.1,0,0,1,263.55,99l-.24.62-.5.07h0c-5.6.87-11.2,1.74-16.8,2.55l-1.68.25.31-1.72q1.56-8.58,3.27-17.13c1.13-5.71,2.36-11.39,3.64-17.06q3.82-17,8.24-33.91v1.08L256.3,19.84l-.5-2,2-.69,13.71-4.81,2.41-.85.63,2.49L281,39.11l6.39,25.13-4.77.11q2.43-11.62,5.07-23.21c1.76-7.72,3.64-15.41,5.59-23.08l.46-1.79,1.82.06,15.94.51,2.71.09-.64,2.6c-3.06,12.46-6,25-8.79,37.49l-4,18.83q-2,9.42-3.85,18.87l-.17.85-.81.09-9.17,1-9.17,1-.5,0-.32-.61A37,37,0,0,1,274,90a61.72,61.72,0,0,1-1.47-7.33l-1.16-8.07C270.94,71.71,270.44,68.76,269.8,65.58Z"/><path class="cls-2" d="M346,30.59a15.11,15.11,0,0,1,1.1-2.91,12.36,12.36,0,0,1,.81-1.4A9.42,9.42,0,0,1,349,25l0,0-4.23-2.31-.8-.44.93,0c6.26.28,12.53.67,18.79,1l-.85.66L364,15.63l1.22-8.31,1.1,1.45q-13.06-.91-26.1-1.93l-6.51-.48q-3.19-.15-6.39-.06a103.67,103.67,0,0,0-12.78,1.22l1.75-2.63q2.29,8.4,4.53,16.81L318.45,20c4.86-.4,9.73-.72,14.71-.67l3,0-.69,2.94-4,17.32-3.94,17.34L323.54,74.3l-4,17.36-1.87-2c5.72-.55,11.45-1.07,17.19-1.49h0l-.82.77c.73-4.91,1.59-9.8,2.45-14.68s1.81-9.75,2.8-14.61,2-9.72,3.11-14.57S344.7,35.4,346,30.59Zm3,.77c-1.17,4.8-2.23,9.63-3.28,14.46l-3.17,14.5-3.2,14.51c-1.11,4.83-2.2,9.67-3.43,14.48l-.16.64-.66.12h0c-5.65,1.05-11.32,2-17,2.93l-2.27.37.4-2.37q1.47-8.81,3.11-17.57c1.1-5.84,2.23-11.68,3.45-17.5l1.85-8.73,2-8.7q2-8.72,4.18-17.36l2.28,3c-4.7-.11-9.49.13-14.27.46l-1.93.13-.47-1.85C315,17.23,313.59,11.59,312.2,6l-.57-2.33,2.33-.3a107.45,107.45,0,0,1,13.31-.94c2.24,0,4.47.06,6.7.25l6.54.71q13,1.44,26.08,3l1.35.16-.25,1.29L366.06,16l-1.66,8.24-.15.73-.71-.08c-6.22-.72-12.46-1.38-18.68-2.15l.12-.4,4,2.62h0l0,0a9.58,9.58,0,0,1,.33,1.68,12.51,12.51,0,0,1,.06,1.61A15.75,15.75,0,0,1,349,31.36Z"/><polygon class="cls-2" points="398.15 95.52 398.15 95.52 398.15 95.53 398.15 95.52"/><path class="cls-2" d="M373.13,127.35l-3.43.22Z"/><path class="cls-2" d="M417.34,119.71a22.35,22.35,0,0,0-2.31.13.79.79,0,0,0-.78.91c0,.24,0,.48,0,.71l-3,.2.11,1.63,3.71-.24a.82.82,0,0,0,.87-1c0-.21,0-.43,0-.68.44,0,.84-.08,1.24-.07a1.18,1.18,0,0,0,1.13-.59l0-.6C417.93,120,417.64,119.72,417.34,119.71Z"/><path class="cls-2" d="M407.71,103.42l-9.56-7.9h0a11.69,11.69,0,0,0-2.78-.16c-5.93.34-14.92.92-22.09,1.4l-1.57.1-6,7.23-4.76,5.73.76,11.83,4.84,6.12,3.17-.2,3.43-.22.51,0a7.34,7.34,0,0,0,7.11,6,7,7,0,0,0,4.35-1.44,7.3,7.3,0,0,0,2.92-5.45l.64,0,19.74-1.26.31,0,2.75-.18-.1-1.6-.11-1.63-1-16.16Zm-26.55,28.24a5.62,5.62,0,1,1,5.23-6A5.63,5.63,0,0,1,381.16,131.66Zm4.65-15q-4.79.36-9.58.61c-.19-2.39-.33-4.79-.49-7.19s-.32-4.79-.43-7.19c3.19-.24,6.39-.44,9.58-.61Q385.37,109.48,385.81,116.67Zm17.26,5.53-12.82.82s-.55-8.62-.75-11.62q-.36-5.81-.74-11.61c2.2-.13,6.59-.42,6.59-.42l6.63,5.84Z"/><polygon class="cls-2" points="365.74 126.05 364.08 130.25 365.04 130.19 367.38 125.94 365.74 126.05"/><path class="cls-2" d="M399.24,113.38a7.15,7.15,0,0,1-.78,0,.79.79,0,0,1-.82-.72.78.78,0,0,1,.73-.86c.55-.06,1.12-.08,1.68-.12a.83.83,0,0,1,.8.83c.1,1,0,1.39-.54,1.55S399.52,114,399.24,113.38Z"/><path class="cls-2" d="M384.79,125.77a4,4,0,1,1-4.3-3.72A4,4,0,0,1,384.79,125.77Z"/><path class="cls-2" d="M57.13,165.31l-39.36-2.1c.63-5,3.27-28.62,4-33.35l28.83-3.26,12.2-10.3-2-8.7-33.7-4c.78-4.75,12.55-31.27,13.44-36.09l32-3.55,7.66-6.29L17.71,41.41s-.39,6.44-3.89,8.29L19,61l.88-.06C16.19,78.08,2,164.46,0,181.85l49.25-7.2Z"/><path class="cls-3" d="M58.66,150l-32.18,3.85c.63-5,8.05-32.42,8.79-37.15l24.85-2,2-18.91L37.86,97.12c.79-4.75,6.57-35.47,7.46-40.29l32-3.54L80,39.89,48.17,42.83a156.36,156.36,0,0,0-26.57.39l5.14,11.29.89-.06C24,71.6,9.92,155.11,7.88,172.51l49.25-7.2Z"/><path class="cls-2" d="M56.47,151.89c-4.66.46-8.24.9-12.82,1.24s-12.21,2.57-16.95,2.76l-3.1,0c.47-2.6,1.62-7.09,2.25-9.52L29,131.23l1-7.17c.63-2.38,1.29-4.79,1.78-7.13h0l.17-.89,4.09-.11,24.84-2.11L59.4,115l.84-19.34,2,1.56L38,98.72l-2.51.17.34-2,7-38.29L43.1,57l2-.16,32-3.89h0l-2.7,2L77.9,39.65h0l2.2,1.9c-2,.34-4.11.57-6.16.78s-4.12.38-6.19.52l-3.09.2-3.11.14c-2.06.1-4.13.15-6.2.22,0,0-25.8,1.2-33.25,2.07l2.19-3,5,11.34-2.81-1.45.88-.05,3.51-.21-.58,2.75c-2.07,9.87-3.8,18-5.62,27.93l-5.4,29.93-5.21,30c-1.67,10-3.43,20-4.87,30l-1.5-1.14L57,164.79h0l-.55.47c-.16-2.5-.32-4.84-.35-7A46.94,46.94,0,0,1,56.47,151.89Zm4.39-3.5c-.26,3-.65,6-1.19,8.83s-1.22,5.58-1.89,8.14l-.11.41-.44.06h0L8.08,173.54l-1.64.2.15-1.34c1.12-10.1,2.55-20.11,4-30.14l4.49-30c1.54-10,3.08-20,4.71-30S23,64.09,25,54.05l2.93,2.54-.88.07L25,56.82l-.75-1.6L18.91,44l-1.2-2.56,3.4-.46c8.1-1.08,26.22-3,34.24-2.52,0,0,3.71-.23,5.78-.29L64.24,38l3.1-.06c2.08,0,4.15,0,6.23,0s4.16.1,6.25.26l2.37.19L82,40.13h0l-1.6,15.61-.2,1.93-2.51.13h0L45.64,61l2.3-1.72L39.85,97.36l-2.17-1.84,24.24-1.2L64,94.21l-.11,1.66-1.26,19.32-.07,1.11-1.35.11-24.88,1.84,1.27-1h0c-.37,2.52-.87,4.92-1.36,7.35l-3.5,7.26-2.68,15.21c-.47,2.39-1,4.86-1.23,7.14l-2.6-2.13c5.32-.43,12.77-2.8,18.25-3.08S55.46,148.54,60.86,148.39Z"/></g></g></svg>