<svg xmlns="http://www.w3.org/2000/svg" xmlns:xlink="http://www.w3.org/1999/xlink" viewBox="0 0 1971.05 1143.95"><defs><style>.cls-1{fill:none;}.cls-2{clip-path:url(#clip-path);}.cls-3{fill:#e27f1b;}.cls-4{fill:#f2e302;}</style><clipPath id="clip-path"><rect class="cls-1" width="1971.05" height="1143.95"/></clipPath></defs><g id="Capa_2" data-name="Capa 2"><g id="Capa_1-2" data-name="Capa 1"><g class="cls-2"><rect class="cls-3" width="1971.05" height="1143.95"/><path class="cls-4" d="M72.62,99.5s26.42-17.81,45.63,5h-16l-2.8-2.8-1,2.8-3-2.4-1.8,2.4H80.83l-4-3v3l-4.21,1.2s51.84-2.4,60.64,51.63L121,147.6l-1-5a37,37,0,0,1-2.81,3.06c.13-.37-2.56-6-2.56-6l-1.71,1.59-12.84-14.67-4.15-7.21-1.35,5.74-4.15-7.21-3.91-1.83-.49,1-5.5-2.69-5.38.85s31.29,15.16,37.64,58.06c0,0,1.71,16-6.35,29.45l-10-25.91,2.32-6-3.79,2.08-.49-6.23-1.71,1.58v-7.08L90.9,162s-4-20.41-16.62-33.85c0,0,17.84,39.6-4.77,75.4L72,180.84l-2.44,1.59,2.2-9.41-2.2,1.1,1.13-6-2.93,1s8.52-28.32,0-43.72c0,0-34.39,59.11-34,141H18.3s6.24-95,44-142.62l-3.45,2.09-.36-1.75-9.32,12.18-.37-6.09s-10.33,14.3-10.42,14-2-2.95-2-2.95l-1.48,6.64-2.58-1.85L11.07,176.51l-1-2.13-1,5.26-7.19,8.77s.14-56.58,54-67c0,0-10.17.73-12.92,1.65s-12,5-12,5l-1-2.48-1.65,2.66-1.92-1.47-.92,4.49L22,128.72l-1.28,5A36.2,36.2,0,0,0,3,143.84l-3-1.37v3.3l-2.84-1.29v2.39l-10.73,9.62s-5.86-24.11,33.09-38.5c0,0,18.89-7.24,34.38-7.51,0,0-11.83-1.84-18.52-1.65l.46-3.3-2.48,3.76-1.19-4.13-2.75,5.13-.82-3-.83,1.92s-16.31,2.2-26.3,5.87l-2-3-1.56,4.4L-6,115.06l-.73,3s-15.49,7-21.45,12c0,0,5.41-27.59,43.63-32.63,0,0,25.76-3.48,43,9.72,0,0-4.13-6.14-7.52-8.71l.37-3.57a37.44,37.44,0,0,1-3.67,2.56c.1-.27-.36-4.57-.36-4.57L42.5,95.08l-.92-3.3s-14.11-4.86-22.91-5.23l-2.11,1.29-2.29-4.31L12,86.37s-13.11,1.47-22.64,7.15c0,0,8.16-21.91,42.44-17.78,0,0,26.21,3.48,36.75,26.67,0,0-1.56-11.46-11.18-18.61l1.22-1.65-3.3.07,2.08-2.33-4.22,1.29s-5-5.75-9.71-8.13c0,0,14.42-4.77,24.81,10.51A31.91,31.91,0,0,1,72.62,99.5Z"/><path class="cls-4" d="M518.36,99.5s26.42-17.81,45.63,5H548l-2.8-2.8-1,2.8-3-2.4-1.8,2.4h-12.8l-4-3v3l-4.2,1.2s51.83-2.4,60.64,51.63l-12.3-9.74-1-5a37,37,0,0,1-2.81,3.06c.12-.37-2.57-6-2.57-6l-1.71,1.59L545.8,126.58l-4.15-7.21-1.35,5.74-4.15-7.21-3.92-1.83-.48,1-5.5-2.69-5.38.85s31.29,15.16,37.64,58.06c0,0,1.71,16-6.35,29.45l-10-25.91,2.33-6-3.79,2.08-.49-6.23-1.71,1.58v-7.08l-1.84.85s-4-20.41-16.62-33.85c0,0,17.85,39.6-4.76,75.4l2.44-22.73-2.44,1.59,2.2-9.41-2.2,1.1,1.13-6-2.94,1s8.53-28.32,0-43.72c0,0-34.38,59.11-34,141H464s6.23-95,44-142.62l-3.45,2.09-.37-1.75-9.31,12.18-.37-6.09s-10.33,14.3-10.43,14-2-2.95-2-2.95l-1.47,6.64L478,146.06l-21.21,30.45-1-2.13-1,5.26-7.2,8.77s.14-56.58,54-67c0,0-10.17.73-12.92,1.65s-12,5-12,5l-1-2.48L474,128.26l-1.92-1.47-.92,4.49-3.48-2.56-1.29,5a36.25,36.25,0,0,0-17.69,10.08l-3-1.37v3.3l-2.84-1.29v2.39l-10.73,9.62s-5.86-24.11,33.09-38.5c0,0,18.88-7.24,34.37-7.51,0,0-11.82-1.84-18.51-1.65l.46-3.3-2.48,3.76-1.19-4.13-2.75,5.13-.82-3-.83,1.92s-16.32,2.2-26.31,5.87l-2-3-1.56,4.4-3.85-1.38-.73,3s-15.49,7-21.45,12c0,0,5.41-27.59,43.63-32.63,0,0,25.75-3.48,43,9.72,0,0-4.13-6.14-7.52-8.71L497,94.9a37.44,37.44,0,0,1-3.67,2.56c.09-.27-.37-4.57-.37-4.57l-4.76,2.19-.92-3.3s-14.11-4.86-22.91-5.23l-2.11,1.29L460,83.53l-2.3,2.84s-13.1,1.47-22.64,7.15c0,0,8.16-21.91,42.44-17.78,0,0,26.22,3.48,36.76,26.67,0,0-1.56-11.46-11.18-18.61l1.22-1.65-3.3.07,2.08-2.33-4.22,1.29s-4.95-5.75-9.72-8.13c0,0,14.43-4.77,24.81,10.51A31.85,31.85,0,0,1,518.36,99.5Z"/><path class="cls-4" d="M943.83,99.5s26.42-17.81,45.63,5h-16l-2.8-2.8-1,2.8-3-2.4-1.81,2.4H952l-4-3v3l-4.2,1.2s51.83-2.4,60.64,51.63l-12.3-9.74-1-5a37,37,0,0,1-2.81,3.06c.12-.37-2.57-6-2.57-6l-1.71,1.59-12.83-14.67-4.15-7.21-1.35,5.74-4.15-7.21-3.91-1.83-.49,1-5.5-2.69-5.38.85s31.29,15.16,37.64,58.06c0,0,1.71,16-6.35,29.45l-10-25.91,2.32-6-3.79,2.08-.49-6.23-1.71,1.58v-7.08l-1.83.85s-4-20.41-16.63-33.85c0,0,17.85,39.6-4.76,75.4l2.44-22.73-2.44,1.59,2.2-9.41-2.2,1.1,1.13-6-2.93,1s8.52-28.32,0-43.72c0,0-34.39,59.11-34,141h-15.4s6.23-95,44-142.62l-3.45,2.09-.37-1.75-9.31,12.18L920,130.2s-10.33,14.3-10.43,14-2-2.95-2-2.95l-1.47,6.64-2.58-1.85-21.22,30.45-1-2.13-1,5.26-7.2,8.77s.14-56.58,54-67c0,0-10.17.73-12.92,1.65s-12,5-12,5l-1-2.48-1.65,2.66-1.92-1.47-.92,4.49-3.48-2.56-1.29,5a36.25,36.25,0,0,0-17.69,10.08l-3-1.37v3.3l-2.84-1.29v2.39l-10.73,9.62s-5.86-24.11,33.09-38.5c0,0,18.88-7.24,34.37-7.51,0,0-11.82-1.84-18.51-1.65l.46-3.3-2.48,3.76-1.19-4.13-2.75,5.13-.82-3-.83,1.92s-16.31,2.2-26.31,5.87l-2-3-1.56,4.4-3.85-1.38-.73,3s-15.49,7-21.45,12c0,0,5.41-27.59,43.63-32.63,0,0,25.76-3.48,43,9.72,0,0-4.13-6.14-7.52-8.71l.37-3.57a37.44,37.44,0,0,1-3.67,2.56c.09-.27-.36-4.57-.36-4.57l-4.77,2.19-.92-3.3s-14.11-4.86-22.91-5.23l-2.11,1.29-2.29-4.31-2.29,2.84s-13.11,1.47-22.64,7.15c0,0,8.15-21.91,42.43-17.78,0,0,26.22,3.48,36.76,26.67,0,0-1.56-11.46-11.18-18.61l1.22-1.65-3.3.07,2.08-2.33-4.22,1.29s-5-5.75-9.71-8.13c0,0,14.42-4.77,24.8,10.51A31.85,31.85,0,0,1,943.83,99.5Z"/><path class="cls-4" d="M1217.83-91.5s26.42-17.81,45.63,5h-16l-2.8-2.8-1,2.8-3-2.4-1.81,2.4H1226l-4-3v3l-4.2,1.2s51.83-2.4,60.64,51.63l-12.3-9.74-1-5a37,37,0,0,1-2.81,3.06c.12-.37-2.57-6-2.57-6l-1.71,1.59-12.83-14.67-4.15-7.21-1.35,5.74-4.15-7.21-3.91-1.83-.49,1-5.5-2.69-5.38.85s31.29,15.16,37.64,58.06c0,0,1.71,16-6.35,29.45l-10-25.91,2.32-6-3.79,2.08-.49-6.23-1.71,1.58v-7.08l-1.83.85s-4-20.41-16.63-33.85c0,0,17.85,39.6-4.76,75.4l2.44-22.73-2.44,1.59,2.2-9.41-2.2,1.1,1.13-6-2.93,1s8.52-28.32,0-43.72c0,0-34.39,59.11-34,141h-15.4s6.23-95,44-142.62l-3.45,2.09-.37-1.75-9.31,12.18L1194-60.8s-10.33,14.3-10.43,14-2-2.95-2-2.95l-1.47,6.64-2.58-1.85-21.22,30.45-1-2.13-1,5.26-7.2,8.77s.14-56.58,54-67c0,0-10.17.73-12.92,1.65s-12,5-12,5l-1-2.48-1.65,2.66-1.92-1.47-.92,4.49-3.48-2.56-1.29,5a36.25,36.25,0,0,0-17.69,10.08l-3-1.37v3.3l-2.84-1.29v2.39l-10.73,9.62s-5.86-24.11,33.09-38.5c0,0,18.88-7.24,34.37-7.51,0,0-11.82-1.84-18.51-1.65l.46-3.3-2.48,3.76-1.19-4.13-2.75,5.13-.82-3-.83,1.92s-16.31,2.2-26.31,5.87l-2-3-1.56,4.4-3.85-1.38-.73,3s-15.49,7-21.45,12c0,0,5.41-27.59,43.63-32.63,0,0,25.76-3.48,43,9.72,0,0-4.13-6.14-7.52-8.71l.37-3.57a37.44,37.44,0,0,1-3.67,2.56c.09-.27-.36-4.57-.36-4.57l-4.77,2.19-.92-3.3s-14.11-4.86-22.91-5.23l-2.11,1.29-2.29-4.31-2.29,2.84s-13.11,1.47-22.64,7.15c0,0,8.15-21.91,42.43-17.78,0,0,26.22,3.48,36.76,26.67,0,0-1.56-11.46-11.18-18.61l1.22-1.65-3.3.07,2.08-2.33-4.22,1.29s-4.95-5.75-9.71-8.13c0,0,14.42-4.77,24.8,10.51A31.85,31.85,0,0,1,1217.83-91.5Z"/><path class="cls-4" d="M296.13,316.89s26.41-17.81,45.63,5h-16l-2.81-2.81-1,2.81-3-2.41-1.8,2.41H304.33l-4-3v3l-4.2,1.2s51.83-2.4,60.64,51.63L344.47,365l-1-5a35.18,35.18,0,0,1-2.81,3c.12-.36-2.57-6-2.57-6l-1.71,1.58L323.57,344l-4.16-7.21-1.34,5.74-4.16-7.21L310,333.46l-.49,1-5.5-2.69-5.37.85s31.28,15.16,37.64,58c0,0,1.71,16-6.36,29.46l-10-25.91,2.32-6-3.78,2.08-.49-6.24-1.71,1.59v-7.09l-1.84.86s-4-20.41-16.62-33.85c0,0,17.84,39.59-4.77,75.4l2.45-22.73L293,399.82l2.2-9.41-2.2,1.1,1.14-6-2.94,1s8.53-28.32,0-43.72c0,0-34.38,59.11-34,141h-15.4s6.23-95,44-142.62l-3.44,2.09L282,341.5l-9.32,12.18-.37-6.09s-10.33,14.3-10.42,14-2-2.95-2-2.95l-1.47,6.64-2.59-1.85-21.21,30.44-1-2.12-1,5.26-7.2,8.76s.14-56.57,54-67c0,0-10.18.74-12.93,1.65s-12,5.05-12,5.05l-1-2.48-1.65,2.66-1.93-1.47-.91,4.49-3.49-2.56-1.28,5a36.11,36.11,0,0,0-17.69,10.08l-3-1.37v3.3l-2.84-1.29v2.39l-10.72,9.62S204,349.77,243,335.38c0,0,18.88-7.24,34.37-7.51,0,0-11.82-1.84-18.51-1.65l.45-3.3-2.47,3.76-1.19-4.13-2.75,5.13-.83-3-.82,1.92s-16.32,2.2-26.31,5.87l-2-3-1.55,4.4-3.85-1.37-.74,3s-15.49,7-21.44,12c0,0,5.4-27.59,43.63-32.63,0,0,25.75-3.48,43,9.72,0,0-4.12-6.14-7.51-8.71l.36-3.58a37.55,37.55,0,0,1-3.66,2.57c.09-.27-.37-4.58-.37-4.58l-4.76,2.2-.92-3.3s-14.12-4.86-22.92-5.23l-2.1,1.29-2.3-4.31-2.29,2.84s-13.11,1.47-22.64,7.15c0,0,8.16-21.91,42.44-17.78,0,0,26.22,3.48,36.76,26.67,0,0-1.56-11.46-11.19-18.61l1.23-1.65-3.3.06,2.07-2.32-4.21,1.29s-4.95-5.75-9.72-8.13c0,0,14.42-4.77,24.81,10.51A32,32,0,0,1,296.13,316.89Z"/><path class="cls-4" d="M741.86,316.89s26.42-17.81,45.63,5h-16l-2.8-2.81-1,2.81-3-2.41-1.8,2.41H750.07l-4-3v3l-4.21,1.2s51.84-2.4,60.64,51.63L790.2,365l-1-5a35.16,35.16,0,0,1-2.82,3c.13-.36-2.56-6-2.56-6l-1.71,1.58L769.31,344l-4.16-7.21-1.34,5.74-4.16-7.21-3.91-1.83-.49,1-5.5-2.69-5.38.85s31.29,15.16,37.65,58c0,0,1.71,16-6.36,29.46l-10-25.91,2.32-6-3.79,2.08-.49-6.24L762,385.64v-7.09l-1.83.86s-4-20.41-16.62-33.85c0,0,17.84,39.59-4.77,75.4l2.45-22.73-2.45,1.59,2.2-9.41-2.2,1.1,1.13-6-2.93,1s8.52-28.32,0-43.72c0,0-34.39,59.11-34,141h-15.4s6.24-95,44-142.62l-3.44,2.09-.37-1.75-9.32,12.18-.37-6.09s-10.33,14.3-10.42,14-2-2.95-2-2.95l-1.48,6.64-2.58-1.85-21.22,30.44-1-2.12-1,5.26-7.19,8.76s.14-56.57,54-67c0,0-10.17.74-12.92,1.65s-12,5.05-12,5.05l-1-2.48-1.64,2.66-1.93-1.47-.92,4.49-3.48-2.56-1.28,5a36.11,36.11,0,0,0-17.69,10.08l-3-1.37v3.3l-2.84-1.29v2.39l-10.72,9.62s-5.87-24.11,33.09-38.5c0,0,18.88-7.24,34.37-7.51,0,0-11.83-1.84-18.52-1.65l.46-3.3-2.47,3.76-1.2-4.13-2.75,5.13-.82-3-.82,1.92s-16.32,2.2-26.31,5.87l-2-3-1.56,4.4-3.85-1.37-.73,3s-15.49,7-21.45,12c0,0,5.41-27.59,43.63-32.63,0,0,25.76-3.48,43,9.72,0,0-4.12-6.14-7.51-8.71l.36-3.58a38.8,38.8,0,0,1-3.66,2.57c.09-.27-.37-4.58-.37-4.58l-4.77,2.2-.91-3.3s-14.12-4.86-22.92-5.23l-2.11,1.29-2.29-4.31-2.29,2.84s-13.11,1.47-22.64,7.15c0,0,8.16-21.91,42.44-17.78,0,0,26.21,3.48,36.75,26.67,0,0-1.55-11.46-11.18-18.61l1.22-1.65-3.3.06,2.08-2.32-4.21,1.29s-5-5.75-9.72-8.13c0,0,14.42-4.77,24.81,10.51A31.91,31.91,0,0,1,741.86,316.89Z"/><path class="cls-4" d="M72.62,564s26.42-17.81,45.63,5h-16l-2.8-2.8-1,2.8-3-2.4-1.8,2.4H80.83l-4-3v3l-4.21,1.21s51.84-2.41,60.64,51.63L121,612.06l-1-5a35.18,35.18,0,0,1-2.81,3.05c.13-.36-2.56-6-2.56-6l-1.71,1.59L100.06,591l-4.15-7.21-1.35,5.74-4.15-7.21-3.91-1.83-.49,1-5.5-2.69-5.38.86s31.29,15.15,37.64,58.05c0,0,1.71,16-6.35,29.46l-10-25.91,2.32-6-3.79,2.08-.49-6.24-1.71,1.59v-7.09l-1.83.86s-4-20.41-16.62-33.85c0,0,17.84,39.59-4.77,75.4L72,645.3l-2.44,1.59,2.2-9.41-2.2,1.1,1.13-6-2.93,1s8.52-28.33,0-43.72c0,0-34.39,59.11-34,141H18.3s6.24-95,44-142.62l-3.45,2.09-.36-1.75-9.32,12.17-.37-6.09s-10.33,14.3-10.42,14-2-3-2-3l-1.48,6.65-2.58-1.85L11.07,641l-1-2.12L9,644.1l-7.19,8.76s.14-56.57,54-67c0,0-10.17.74-12.92,1.65s-12,5-12,5l-1-2.47-1.65,2.66-1.92-1.47-.92,4.49L22,593.18l-1.28,5A36.11,36.11,0,0,0,3,608.3l-3-1.38v3.3l-2.84-1.28v2.38L-13.6,621s-5.86-24.11,33.09-38.5c0,0,18.89-7.24,34.38-7.52,0,0-11.83-1.83-18.52-1.65l.46-3.3-2.48,3.76-1.19-4.12-2.75,5.13-.82-3-.83,1.92s-16.31,2.2-26.3,5.87l-2-3-1.56,4.4L-6,579.52l-.73,3s-15.49,7-21.45,12c0,0,5.41-27.59,43.63-32.63,0,0,25.76-3.48,43,9.71,0,0-4.13-6.14-7.52-8.7l.37-3.58a39.44,39.44,0,0,1-3.67,2.57c.1-.28-.36-4.58-.36-4.58l-4.77,2.2-.92-3.3S27.47,551.38,18.67,551l-2.11,1.28L14.27,548,12,550.83S-1.13,552.29-10.66,558c0,0,8.16-21.91,42.44-17.78,0,0,26.21,3.48,36.75,26.67,0,0-1.56-11.46-11.18-18.61l1.22-1.65-3.3.06,2.08-2.32-4.22,1.28s-5-5.74-9.71-8.12c0,0,14.42-4.77,24.81,10.51A31.91,31.91,0,0,1,72.62,564Z"/><path class="cls-4" d="M518.36,564s26.42-17.81,45.63,5H548l-2.8-2.8-1,2.8-3-2.4-1.8,2.4h-12.8l-4-3v3l-4.2,1.21s51.83-2.41,60.64,51.63l-12.3-9.74-1-5a35.18,35.18,0,0,1-2.81,3.05c.12-.36-2.57-6-2.57-6l-1.71,1.59L545.8,591l-4.15-7.21-1.35,5.74-4.15-7.21-3.92-1.83-.48,1-5.5-2.69-5.38.86s31.29,15.15,37.64,58.05c0,0,1.71,16-6.35,29.46l-10-25.91,2.33-6-3.79,2.08-.49-6.24-1.71,1.59v-7.09l-1.84.86s-4-20.41-16.62-33.85c0,0,17.85,39.59-4.76,75.4l2.44-22.73-2.44,1.59,2.2-9.41-2.2,1.1,1.13-6-2.94,1s8.53-28.33,0-43.72c0,0-34.38,59.11-34,141H464s6.23-95,44-142.62l-3.45,2.09-.37-1.75-9.31,12.17-.37-6.09s-10.33,14.3-10.43,14-2-3-2-3l-1.47,6.65L478,610.52,456.81,641l-1-2.12-1,5.26-7.2,8.76s.14-56.57,54-67c0,0-10.17.74-12.92,1.65s-12,5-12,5l-1-2.47L474,592.72l-1.92-1.47-.92,4.49-3.48-2.56-1.29,5a36.15,36.15,0,0,0-17.69,10.08l-3-1.38v3.3l-2.84-1.28v2.38L432.14,621s-5.86-24.11,33.09-38.5c0,0,18.88-7.24,34.37-7.52,0,0-11.82-1.83-18.51-1.65l.46-3.3-2.48,3.76-1.19-4.12-2.75,5.13-.82-3-.83,1.92s-16.32,2.2-26.31,5.87l-2-3-1.56,4.4-3.85-1.37-.73,3s-15.49,7-21.45,12c0,0,5.41-27.59,43.63-32.63,0,0,25.75-3.48,43,9.71,0,0-4.13-6.14-7.52-8.7l.37-3.58a39.44,39.44,0,0,1-3.67,2.57c.09-.28-.37-4.58-.37-4.58l-4.76,2.2-.92-3.3s-14.11-4.86-22.91-5.23l-2.11,1.28L460,548l-2.3,2.84s-13.1,1.46-22.64,7.15c0,0,8.16-21.91,42.44-17.78,0,0,26.22,3.48,36.76,26.67,0,0-1.56-11.46-11.18-18.61l1.22-1.65-3.3.06,2.08-2.32-4.22,1.28s-4.95-5.74-9.72-8.12c0,0,14.43-4.77,24.81,10.51A31.85,31.85,0,0,1,518.36,564Z"/><path class="cls-4" d="M296.13,781.35s26.41-17.81,45.63,5h-16l-2.81-2.8-1,2.8-3-2.4-1.8,2.4H304.33l-4-3v3l-4.2,1.2s51.83-2.4,60.64,51.64l-12.3-9.74-1-5a35.18,35.18,0,0,1-2.81,3c.12-.37-2.57-6-2.57-6l-1.71,1.59-12.83-14.66-4.16-7.22L318.07,807l-4.16-7.21L310,797.91l-.49,1L304,796.2l-5.37.86s31.28,15.15,37.64,58.05c0,0,1.71,16-6.36,29.45l-10-25.9,2.32-6-3.78,2.07-.49-6.23-1.71,1.59V843l-1.84.86s-4-20.41-16.62-33.86c0,0,17.84,39.6-4.77,75.41l2.45-22.73L293,864.28l2.2-9.41L293,856l1.14-6-2.94,1s8.53-28.33,0-43.73c0,0-34.38,59.12-34,141h-15.4s6.23-95,44-142.63l-3.44,2.1L282,806l-9.32,12.17L272.3,812s-10.33,14.3-10.42,14-2-3-2-3l-1.47,6.64-2.59-1.84-21.21,30.44-1-2.12-1,5.25-7.2,8.77s.14-56.57,54-67c0,0-10.18.73-12.93,1.65s-12,5-12,5l-1-2.47-1.65,2.66-1.93-1.47-.91,4.49-3.49-2.57-1.28,5.05a36.11,36.11,0,0,0-17.69,10.08l-3-1.38v3.3l-2.84-1.28v2.38l-10.72,9.63S204,814.23,243,799.84c0,0,18.88-7.24,34.37-7.52,0,0-11.82-1.83-18.51-1.65l.45-3.3-2.47,3.76L255.65,787l-2.75,5.13-.83-3-.82,1.92s-16.32,2.2-26.31,5.87l-2-3-1.55,4.4-3.85-1.37-.74,3s-15.49,7-21.44,12c0,0,5.4-27.59,43.63-32.63,0,0,25.75-3.49,43,9.71,0,0-4.12-6.14-7.51-8.7l.36-3.58a39.37,39.37,0,0,1-3.66,2.57c.09-.28-.37-4.58-.37-4.58L266,776.92l-.92-3.3s-14.12-4.85-22.92-5.22l-2.1,1.28-2.3-4.3-2.29,2.84s-13.11,1.46-22.64,7.15c0,0,8.16-21.91,42.44-17.79,0,0,26.22,3.49,36.76,26.68,0,0-1.56-11.46-11.19-18.61l1.23-1.65-3.3.06,2.07-2.32L276.64,763s-4.95-5.74-9.72-8.12c0,0,14.42-4.77,24.81,10.51A32,32,0,0,1,296.13,781.35Z"/><path class="cls-4" d="M1,899.43a3.7,3.7,0,0,1,3.2.06,2.09,2.09,0,0,1,1.31,1.27,71.42,71.42,0,0,1,.8,8.58c.07,1.3.14,2.6.24,3.88L6.7,915l1.72.58c1.13.39,2.26.75,3.37,1.12,2.58.83,5,1.62,7.37,2.58.34.14,1.05.43,1.08,2.93a3.56,3.56,0,0,1-2.07,3.39c-.23.14-.47.27-.71.39-1,.49-2.5.29-4.08.07-2.3-.31-4.91-.65-7.35.82a7.53,7.53,0,0,0-1.89,1.65,18.74,18.74,0,0,0-3.07,6.56,20.14,20.14,0,0,1-1.61,4.1,1.94,1.94,0,0,1-.68.71,4.19,4.19,0,0,1-3.36,0,2.94,2.94,0,0,1-2.23-2.42,14.62,14.62,0,0,1-.16-4c.6-3.29.17-6-1.28-8s-4.06-3.46-7.75-4c-4.72-.73-5.08-2.56-5.05-4.38A3.52,3.52,0,0,1-19.37,914a7.92,7.92,0,0,1,4.7-.74c3.39.32,5.91-.1,7.91-1.31,3.25-2,4.28-5.59,4.82-8.54.12-.63.68-1.8,2.7-3.75A.94.94,0,0,1,1,899.43Z"/><path class="cls-4" d="M-7.23,850.11A51.68,51.68,0,0,1,3.7,845.32c1.84-.6,2.93.88,3.41,1.82.72,1.37,1.33,3.21.24,4.19a69.17,69.17,0,0,1-6.94,5.24l-1.21.84,0,0-2,1.45c-1,.69-1.89,1.41-2.83,2.12a61.88,61.88,0,0,1-5.48,3.91l-.64.38c-1.81,1-3.53.55-5.1-1.41a3.34,3.34,0,0,1-.16-4.3A29.11,29.11,0,0,1-7.23,850.11Z"/><path class="cls-4" d="M24.59,834.31l4-1.47c4.19-1.56,9.4-3.5,14.63-5.12a3,3,0,0,1,2.42.27,3.65,3.65,0,0,1,1.74,2.18c.29,1.11.78,3.84-1.16,5a3.39,3.39,0,0,1-.38.2c-6.91,3.14-14.12,5.78-20.92,8.23-.81.29-3,1.06-4.82-2.25C18.65,838.8,21.68,836.14,24.59,834.31Z"/><path class="cls-4" d="M115.61,783.57a2.76,2.76,0,0,1,3.27.26c.94.7,3,2.61,1.71,5.14-3,6-7.54,11-14.14,15.62l-.06,0c-.13.09-.46.31-.89.57A17.29,17.29,0,0,1,104,806c-1.61.75-2.91.48-4.33-.88a3.54,3.54,0,0,1-.4-4.92c4.9-5.29,10.19-10.91,15.75-16.17A3.68,3.68,0,0,1,115.61,783.57Z"/><path class="cls-4" d="M61.89,819.71c6.5-3.35,12.92-6.4,19.1-9.07,2.59-1.11,5-.26,6,2.17,1.33,3-1,5.09-2.58,6.13a52.34,52.34,0,0,0-8.14,3.83c-3.51,1.9-6.82,3.69-10.55,4.33-2.57.43-4.09-.29-5.23-2.51a3.81,3.81,0,0,1,1.2-4.79Z"/><path class="cls-4" d="M120.71,752.47a3.92,3.92,0,0,1,4.56.55c3.52,4.3,4.1,9.33,1.81,15.81a2.09,2.09,0,0,1-.91,1,4.36,4.36,0,0,1-1.89.56c-1.06.08-2.1-.26-4.11-2.11-1.51-4.81-2.48-9.95-.11-15.16A1.59,1.59,0,0,1,120.71,752.47Z"/><path class="cls-4" d="M236.87,1129.48a3.77,3.77,0,0,1,3.2.06,2.1,2.1,0,0,1,1.31,1.28,71.42,71.42,0,0,1,.81,8.58c.07,1.3.13,2.6.23,3.88l.14,1.81,1.72.58,3.38,1.11c2.57.84,5,1.63,7.36,2.59.34.14,1.06.43,1.08,2.93a3.56,3.56,0,0,1-2.07,3.39,6.85,6.85,0,0,1-.71.39c-1,.49-2.49.28-4.08.07-2.3-.31-4.91-.66-7.34.82a7.35,7.35,0,0,0-1.89,1.64,18.52,18.52,0,0,0-3.07,6.57,21.37,21.37,0,0,1-1.61,4.1,2,2,0,0,1-.69.71,4.19,4.19,0,0,1-3.36,0,2.92,2.92,0,0,1-2.22-2.42,14.29,14.29,0,0,1-.16-4c.6-3.28.16-6-1.29-8s-4.06-3.47-7.74-4c-4.73-.73-5.09-2.56-5.05-4.38a3.5,3.5,0,0,1,1.68-3.16,7.9,7.9,0,0,1,4.7-.74c3.39.32,5.9-.1,7.91-1.31,3.24-2,4.27-5.59,4.82-8.54.11-.63.67-1.8,2.69-3.75A1.64,1.64,0,0,1,236.87,1129.48Z"/><path class="cls-4" d="M228.64,1080.17a51.08,51.08,0,0,1,10.92-4.79c1.84-.6,2.93.88,3.42,1.82.71,1.37,1.33,3.21.23,4.19a68.05,68.05,0,0,1-6.94,5.24l-1.21.84,0,0-2,1.45c-.95.69-1.89,1.41-2.82,2.12a60.56,60.56,0,0,1-5.49,3.91l-.64.38c-1.81,1-3.52.55-5.1-1.42a3.32,3.32,0,0,1-.16-4.29A29,29,0,0,1,228.64,1080.17Z"/><path class="cls-4" d="M260.45,1064.37l4-1.47c4.19-1.56,9.41-3.5,14.63-5.12a3.07,3.07,0,0,1,2.43.27,3.63,3.63,0,0,1,1.73,2.18c.3,1.11.78,3.84-1.15,5l-.38.2c-6.92,3.14-14.13,5.78-20.93,8.23-.81.29-3,1.06-4.82-2.25C254.52,1068.86,257.55,1066.2,260.45,1064.37Z"/><path class="cls-4" d="M351.47,1013.63a2.77,2.77,0,0,1,3.28.26c.94.7,3,2.61,1.71,5.14-3,6-7.55,11-14.15,15.62l-.06,0-.89.57a14.74,14.74,0,0,1-1.53.82c-1.62.76-2.92.49-4.33-.88a3.51,3.51,0,0,1-.4-4.91c4.89-5.29,10.19-10.91,15.74-16.17A4.11,4.11,0,0,1,351.47,1013.63Z"/><path class="cls-4" d="M297.76,1049.77c6.49-3.35,12.91-6.4,19.09-9.07,2.6-1.11,5-.26,6,2.17,1.33,3-.94,5.09-2.58,6.13a53.68,53.68,0,0,0-8.14,3.82c-3.5,1.91-6.81,3.7-10.55,4.34-2.57.43-4.08-.29-5.23-2.51a3.84,3.84,0,0,1,1.2-4.79Z"/><path class="cls-4" d="M356.57,982.53c1.25-.75,3.56-.68,4.56.55,3.53,4.3,4.1,9.33,1.82,15.81a2.11,2.11,0,0,1-.92,1,4.36,4.36,0,0,1-1.89.56c-1.06.08-2.1-.26-4.1-2.11-1.52-4.81-2.48-10-.12-15.16A1.66,1.66,0,0,1,356.57,982.53Z"/><path class="cls-4" d="M211,1107.85a4.4,4.4,0,0,1,2.12-.6,3,3,0,0,1,2.84,1.54,22.29,22.29,0,0,1,2.53,13.78,2.54,2.54,0,0,1-1.2,1.94,3.56,3.56,0,0,1-.77.32c-1.34.38-2.85.54-5.26-1.95-2.59-3.53-3.23-8.32-1.74-13.16A3.3,3.3,0,0,1,211,1107.85Z"/><path class="cls-4" d="M29.35,397.69a3.74,3.74,0,0,1,3.2.06A2.12,2.12,0,0,1,33.86,399a69.78,69.78,0,0,1,.81,8.59c.07,1.3.14,2.59.23,3.87l.14,1.81,1.72.58c1.14.39,2.26.76,3.38,1.12,2.57.84,5,1.63,7.36,2.59.34.14,1.06.43,1.09,2.92a3.6,3.6,0,0,1-2.07,3.4c-.23.14-.47.26-.72.39-1,.48-2.49.28-4.08.07-2.3-.31-4.91-.66-7.34.81a7.39,7.39,0,0,0-1.89,1.65,18.56,18.56,0,0,0-3.07,6.56,20.84,20.84,0,0,1-1.61,4.11,2,2,0,0,1-.69.7,4.15,4.15,0,0,1-3.36,0,2.91,2.91,0,0,1-2.22-2.42,14.21,14.21,0,0,1-.16-4c.6-3.28.17-6-1.28-8s-4.07-3.46-7.75-4c-4.73-.72-5.09-2.56-5-4.38A3.49,3.49,0,0,1,9,412.22a7.75,7.75,0,0,1,4.7-.74c3.39.32,5.9-.1,7.91-1.31,3.24-2,4.28-5.6,4.82-8.54.11-.64.68-1.81,2.69-3.75A1.5,1.5,0,0,1,29.35,397.69Z"/><path class="cls-4" d="M21.12,348.37A52.1,52.1,0,0,1,32,343.58c1.84-.6,2.93.89,3.42,1.82.71,1.37,1.33,3.21.23,4.2a68,68,0,0,1-6.94,5.23l-1.21.84,0,0-2,1.44c-.95.69-1.88,1.41-2.82,2.13a60.41,60.41,0,0,1-5.49,3.9c-.21.13-.42.26-.64.38-1.81,1-3.52.55-5.1-1.41a3.34,3.34,0,0,1-.16-4.3A29.24,29.24,0,0,1,21.12,348.37Z"/><path class="cls-4" d="M52.93,332.57c1.21-.43,2.55-.93,4-1.47,4.19-1.56,9.41-3.49,14.63-5.12a3.11,3.11,0,0,1,2.43.28,3.58,3.58,0,0,1,1.73,2.17c.3,1.12.78,3.84-1.15,5a2.75,2.75,0,0,1-.38.2c-6.92,3.14-14.13,5.79-20.93,8.23-.81.29-3,1.07-4.82-2.24C47,337.06,50,334.4,52.93,332.57Z"/><path class="cls-4" d="M144,281.84a2.74,2.74,0,0,1,3.28.26c.94.7,3,2.6,1.71,5.13-3.05,6.06-7.55,11-14.14,15.62l-.06,0c-.14.09-.46.31-.9.57a17.21,17.21,0,0,1-1.53.83c-1.62.75-2.91.49-4.33-.88a3.51,3.51,0,0,1-.4-4.91c4.9-5.29,10.19-10.91,15.74-16.18A3.5,3.5,0,0,1,144,281.84Z"/><path class="cls-4" d="M90.24,318c6.49-3.35,12.92-6.4,19.09-9.06,2.6-1.12,5-.27,6,2.16,1.33,3-.94,5.09-2.58,6.13a53.72,53.72,0,0,0-8.14,3.83c-3.5,1.9-6.81,3.7-10.54,4.33-2.58.44-4.09-.29-5.23-2.5a3.83,3.83,0,0,1,1.19-4.8Z"/><path class="cls-4" d="M149.06,250.73c1.24-.75,3.55-.67,4.55.55,3.53,4.31,4.1,9.33,1.82,15.82a2,2,0,0,1-.92,1,4.24,4.24,0,0,1-1.89.57c-1.06.07-2.1-.26-4.1-2.11-1.51-4.81-2.48-9.95-.11-15.16A1.5,1.5,0,0,1,149.06,250.73Z"/><path class="cls-4" d="M3.49,376.06a4.29,4.29,0,0,1,2.12-.6A3,3,0,0,1,8.45,377,22.26,22.26,0,0,1,11,390.77a2.54,2.54,0,0,1-1.2,1.94A3.14,3.14,0,0,1,9,393c-1.34.38-2.85.53-5.26-2C1.16,387.55.52,382.77,2,377.93A3.26,3.26,0,0,1,3.49,376.06Z"/><path class="cls-4" d="M265.21,627.75a3.76,3.76,0,0,1,3.21.06,2.12,2.12,0,0,1,1.31,1.27,71.58,71.58,0,0,1,.8,8.59c.07,1.29.14,2.59.24,3.87l.14,1.81,1.71.58c1.14.39,2.27.75,3.38,1.12,2.58.84,5,1.63,7.36,2.58.35.14,1.06.44,1.09,2.93a3.57,3.57,0,0,1-2.07,3.4l-.72.39c-1,.48-2.49.28-4.07.07-2.31-.31-4.91-.66-7.35.81a7.56,7.56,0,0,0-1.89,1.65,18.91,18.91,0,0,0-3.07,6.56,20.49,20.49,0,0,1-1.61,4.1,1.94,1.94,0,0,1-.68.71,4.19,4.19,0,0,1-3.36,0,2.93,2.93,0,0,1-2.23-2.42,14.61,14.61,0,0,1-.16-4c.6-3.28.17-6-1.28-8s-4.06-3.46-7.75-4c-4.72-.72-5.08-2.56-5.05-4.38a3.51,3.51,0,0,1,1.68-3.15,7.75,7.75,0,0,1,4.7-.74c3.39.31,5.91-.1,7.91-1.32,3.25-2,4.28-5.59,4.82-8.53.12-.64.68-1.81,2.7-3.75A1.12,1.12,0,0,1,265.21,627.75Z"/><path class="cls-4" d="M257,578.43a51.68,51.68,0,0,1,10.93-4.79c1.84-.6,2.93.89,3.41,1.82.71,1.37,1.33,3.21.24,4.2a69.11,69.11,0,0,1-6.94,5.23l-1.21.84,0,0-2,1.44c-1,.69-1.89,1.41-2.83,2.13a61.72,61.72,0,0,1-5.48,3.9l-.65.38c-1.8,1-3.52.55-5.09-1.41a3.34,3.34,0,0,1-.16-4.3A29.21,29.21,0,0,1,257,578.43Z"/><path class="cls-4" d="M288.8,562.63c1.2-.43,2.54-.93,4-1.47,4.2-1.56,9.41-3.49,14.63-5.12a3,3,0,0,1,2.43.28,3.63,3.63,0,0,1,1.74,2.17c.29,1.12.78,3.84-1.16,5a2.28,2.28,0,0,1-.38.2c-6.91,3.14-14.13,5.79-20.92,8.23-.82.29-3,1.07-4.82-2.24C282.86,567.12,285.89,564.46,288.8,562.63Z"/><path class="cls-4" d="M379.82,511.9a2.74,2.74,0,0,1,3.27.25c.94.71,3,2.61,1.71,5.14-3.05,6.06-7.54,11-14.14,15.62l-.06,0c-.13.09-.46.31-.89.57s-1.07.61-1.54.83c-1.62.75-2.91.49-4.33-.88a3.53,3.53,0,0,1-.4-4.91c4.9-5.29,10.19-10.91,15.74-16.18A3.57,3.57,0,0,1,379.82,511.9Z"/><path class="cls-4" d="M326.1,548c6.49-3.35,12.92-6.4,19.1-9.06,2.59-1.12,5-.27,6,2.16,1.33,3-.95,5.09-2.58,6.13a52.34,52.34,0,0,0-8.14,3.83c-3.51,1.9-6.82,3.7-10.55,4.33-2.57.44-4.09-.29-5.23-2.5a3.82,3.82,0,0,1,1.2-4.8Z"/><path class="cls-4" d="M384.92,480.79a3.92,3.92,0,0,1,4.56.55c3.52,4.31,4.1,9.33,1.81,15.82a2.07,2.07,0,0,1-.91,1,4.24,4.24,0,0,1-1.89.57c-1.06.07-2.1-.26-4.11-2.11-1.51-4.81-2.48-9.95-.11-15.17A1.54,1.54,0,0,1,384.92,480.79Z"/><path class="cls-4" d="M239.36,606.12a4.26,4.26,0,0,1,2.11-.6,3,3,0,0,1,2.85,1.53,22.44,22.44,0,0,1,2.53,13.78,2.58,2.58,0,0,1-1.21,1.94,2.91,2.91,0,0,1-.76.33c-1.34.38-2.85.53-5.27-2-2.59-3.54-3.22-8.32-1.74-13.16A3.28,3.28,0,0,1,239.36,606.12Z"/><path class="cls-4" d="M501.08,857.81a3.74,3.74,0,0,1,3.2.06,2.09,2.09,0,0,1,1.31,1.27,71.61,71.61,0,0,1,.81,8.58c.06,1.3.13,2.6.23,3.88l.14,1.81,1.72.58c1.13.39,2.26.75,3.38,1.12,2.57.84,5,1.63,7.36,2.58.34.14,1.06.43,1.08,2.93a3.58,3.58,0,0,1-2.07,3.4c-.22.13-.46.26-.71.38-1,.49-2.49.29-4.08.08-2.3-.31-4.91-.66-7.35.81a7.52,7.52,0,0,0-1.88,1.65,18.76,18.76,0,0,0-3.08,6.56,19.91,19.91,0,0,1-1.61,4.1,1.86,1.86,0,0,1-.68.71,4.19,4.19,0,0,1-3.36,0,2.92,2.92,0,0,1-2.22-2.42,13.86,13.86,0,0,1-.16-4c.6-3.28.16-6-1.29-8s-4.06-3.46-7.75-4c-4.72-.72-5.08-2.56-5.05-4.38a3.51,3.51,0,0,1,1.69-3.15,7.72,7.72,0,0,1,4.69-.74c3.4.31,5.91-.1,7.92-1.32,3.24-2,4.27-5.59,4.81-8.53.12-.64.68-1.81,2.7-3.75A1.18,1.18,0,0,1,501.08,857.81Z"/><path class="cls-4" d="M492.85,808.49a51.58,51.58,0,0,1,10.92-4.79c1.84-.6,2.93.88,3.42,1.82.71,1.37,1.33,3.21.23,4.2a68,68,0,0,1-6.94,5.23l-1.21.84,0,0-2,1.44c-.95.69-1.89,1.41-2.82,2.13a64,64,0,0,1-5.49,3.9l-.64.38c-1.81,1-3.52.55-5.1-1.41a3.34,3.34,0,0,1-.16-4.3A29.24,29.24,0,0,1,492.85,808.49Z"/><path class="cls-4" d="M524.66,792.69l4-1.47c4.19-1.56,9.41-3.5,14.63-5.12a3.06,3.06,0,0,1,2.43.28,3.65,3.65,0,0,1,1.73,2.17c.3,1.12.78,3.84-1.16,5a2.18,2.18,0,0,1-.37.2C539,796.9,531.78,799.55,525,802c-.81.29-3,1.07-4.82-2.25C518.72,797.18,521.76,794.52,524.66,792.69Z"/><path class="cls-4" d="M615.68,742a2.74,2.74,0,0,1,3.27.25c.95.7,3,2.61,1.72,5.14-3,6.06-7.55,11-14.15,15.62l-.06,0c-.13.09-.46.31-.89.57s-1.07.61-1.53.83c-1.62.75-2.92.48-4.34-.88a3.52,3.52,0,0,1-.39-4.91c4.89-5.29,10.19-10.91,15.74-16.18A3.5,3.5,0,0,1,615.68,742Z"/><path class="cls-4" d="M562,778.09c6.49-3.35,12.91-6.4,19.09-9.06,2.6-1.12,5-.27,6,2.16,1.33,3-1,5.09-2.58,6.13a52.34,52.34,0,0,0-8.14,3.83c-3.5,1.9-6.81,3.7-10.55,4.33-2.57.44-4.08-.29-5.23-2.5a3.85,3.85,0,0,1,1.2-4.8Z"/><path class="cls-4" d="M620.78,710.85c1.25-.75,3.56-.67,4.56.55,3.52,4.31,4.1,9.33,1.82,15.82a2.18,2.18,0,0,1-.92,1,4.23,4.23,0,0,1-1.89.56c-1.06.08-2.1-.25-4.1-2.11-1.52-4.8-2.48-9.95-.12-15.16A1.66,1.66,0,0,1,620.78,710.85Z"/><path class="cls-4" d="M475.22,836.17a4.39,4.39,0,0,1,2.12-.59,3,3,0,0,1,2.84,1.53,22.3,22.3,0,0,1,2.53,13.78,2.54,2.54,0,0,1-1.2,1.94,3.14,3.14,0,0,1-.77.33c-1.34.37-2.85.53-5.27-1.95-2.59-3.54-3.22-8.32-1.73-13.17A3.33,3.33,0,0,1,475.22,836.17Z"/><path class="cls-4" d="M293.56,126a3.77,3.77,0,0,1,3.2.06,2.12,2.12,0,0,1,1.31,1.27,69.78,69.78,0,0,1,.81,8.59c.07,1.3.13,2.59.23,3.87l.14,1.81,1.72.59,3.38,1.11c2.57.84,5,1.63,7.36,2.59.34.14,1.06.43,1.08,2.93a3.57,3.57,0,0,1-2.06,3.39q-.35.21-.72.39c-1,.48-2.49.28-4.08.07-2.3-.31-4.91-.66-7.34.82a7.16,7.16,0,0,0-1.89,1.64,18.52,18.52,0,0,0-3.07,6.57,21.37,21.37,0,0,1-1.61,4.1,2,2,0,0,1-.69.71,4.23,4.23,0,0,1-3.36,0,2.93,2.93,0,0,1-2.22-2.43,14.21,14.21,0,0,1-.16-4c.6-3.28.16-6-1.29-8s-4.06-3.47-7.74-4c-4.73-.72-5.09-2.56-5.05-4.37a3.5,3.5,0,0,1,1.68-3.16,7.83,7.83,0,0,1,4.7-.74c3.39.32,5.9-.1,7.91-1.31,3.24-2,4.28-5.6,4.82-8.54.11-.64.67-1.8,2.69-3.75A1.64,1.64,0,0,1,293.56,126Z"/><path class="cls-4" d="M285.33,76.69a52.1,52.1,0,0,1,10.92-4.79c1.84-.59,2.93.89,3.42,1.83.71,1.36,1.33,3.2.23,4.19A68.05,68.05,0,0,1,293,83.16c-.4.28-.81.55-1.21.84l0,0-2,1.44q-1.43,1-2.82,2.13a60.56,60.56,0,0,1-5.49,3.91l-.64.37c-1.81,1-3.52.55-5.1-1.41a3.34,3.34,0,0,1-.16-4.3A29.24,29.24,0,0,1,285.33,76.69Z"/><path class="cls-4" d="M317.14,60.89c1.21-.43,2.54-.93,4-1.47,4.19-1.55,9.41-3.49,14.63-5.11a3.07,3.07,0,0,1,2.43.27,3.61,3.61,0,0,1,1.73,2.17c.3,1.12.78,3.85-1.15,5l-.38.2c-6.92,3.13-14.13,5.78-20.93,8.22-.81.3-3,1.07-4.82-2.24C311.21,65.39,314.24,62.72,317.14,60.89Z"/><path class="cls-4" d="M408.16,10.16a2.76,2.76,0,0,1,3.28.26c.94.7,3,2.6,1.71,5.14-3,6-7.55,11-14.15,15.61l-.06,0c-.13.09-.46.31-.89.57a15,15,0,0,1-1.53.83,3.46,3.46,0,0,1-4.33-.88,3.51,3.51,0,0,1-.4-4.91c4.89-5.29,10.19-10.91,15.74-16.17A3.57,3.57,0,0,1,408.16,10.16Z"/><path class="cls-4" d="M354.45,46.29c6.49-3.35,12.91-6.39,19.09-9.06,2.6-1.12,5-.27,6,2.17,1.33,3-.94,5.08-2.58,6.13a52.74,52.74,0,0,0-8.14,3.82c-3.5,1.9-6.81,3.7-10.55,4.33-2.57.44-4.08-.29-5.23-2.5a3.83,3.83,0,0,1,1.2-4.79Z"/><path class="cls-4" d="M267.7,104.38a4.29,4.29,0,0,1,2.12-.6,3,3,0,0,1,2.84,1.54,22.27,22.27,0,0,1,2.53,13.77A2.54,2.54,0,0,1,274,121a3.14,3.14,0,0,1-.77.33c-1.34.38-2.85.54-5.26-2-2.59-3.53-3.23-8.32-1.74-13.16A3.3,3.3,0,0,1,267.7,104.38Z"/><path class="cls-4" d="M529.42,356.07a3.8,3.8,0,0,1,3.21.06,2.14,2.14,0,0,1,1.31,1.27,71.78,71.78,0,0,1,.8,8.59c.07,1.3.14,2.59.24,3.87l.13,1.81,1.72.59,3.38,1.11c2.58.84,5,1.63,7.36,2.59.35.14,1.06.43,1.09,2.93a3.6,3.6,0,0,1-2.07,3.39q-.35.21-.72.39c-1,.48-2.49.28-4.08.07-2.3-.31-4.9-.66-7.34.81a7.56,7.56,0,0,0-1.89,1.65,18.91,18.91,0,0,0-3.07,6.56,20.84,20.84,0,0,1-1.61,4.11,2,2,0,0,1-.69.71,4.23,4.23,0,0,1-3.36,0,3,3,0,0,1-2.22-2.43,14.21,14.21,0,0,1-.16-4c.6-3.28.17-6-1.28-8s-4.06-3.47-7.75-4c-4.72-.72-5.08-2.56-5-4.37a3.52,3.52,0,0,1,1.68-3.16,7.83,7.83,0,0,1,4.7-.74c3.39.32,5.9-.1,7.91-1.31,3.24-2,4.28-5.6,4.82-8.54.12-.64.68-1.8,2.7-3.75A1.55,1.55,0,0,1,529.42,356.07Z"/><path class="cls-4" d="M521.19,306.75A52.2,52.2,0,0,1,532.12,302c1.83-.59,2.93.89,3.41,1.83.71,1.36,1.33,3.2.24,4.19a71.93,71.93,0,0,1-6.94,5.24c-.41.27-.81.55-1.21.84l0,0-2,1.44c-1,.69-1.89,1.41-2.83,2.13a60.56,60.56,0,0,1-5.49,3.91l-.64.37c-1.8,1-3.52.55-5.1-1.41a3.32,3.32,0,0,1-.15-4.3A29.11,29.11,0,0,1,521.19,306.75Z"/><path class="cls-4" d="M553,291c1.2-.43,2.54-.93,4-1.47,4.19-1.55,9.41-3.49,14.63-5.12a3.1,3.1,0,0,1,2.43.28,3.63,3.63,0,0,1,1.74,2.17c.29,1.12.77,3.85-1.16,5l-.38.2c-6.91,3.13-14.13,5.78-20.92,8.22-.82.29-3,1.07-4.83-2.24C547.07,295.44,550.1,292.78,553,291Z"/><path class="cls-4" d="M644,240.22a2.74,2.74,0,0,1,3.28.26c.94.7,3,2.6,1.71,5.14-3,6-7.55,11-14.14,15.61l-.06,0c-.13.09-.46.31-.9.57a15,15,0,0,1-1.53.83c-1.62.75-2.91.49-4.33-.88a3.53,3.53,0,0,1-.4-4.91c4.9-5.29,10.19-10.91,15.74-16.18A4,4,0,0,1,644,240.22Z"/><path class="cls-4" d="M590.31,276.35c6.49-3.35,12.92-6.4,19.1-9.06,2.59-1.12,5-.27,6,2.17,1.32,3-1,5.08-2.59,6.13a52.63,52.63,0,0,0-8.13,3.82c-3.51,1.9-6.82,3.7-10.55,4.33-2.57.44-4.09-.29-5.23-2.5a3.81,3.81,0,0,1,1.2-4.79Z"/><path class="cls-4" d="M649.13,209.11c1.24-.75,3.55-.67,4.55.56,3.53,4.3,4.11,9.32,1.82,15.81a2,2,0,0,1-.92,1,4.16,4.16,0,0,1-1.88.57c-1.06.07-2.1-.26-4.11-2.11-1.51-4.81-2.48-9.95-.11-15.16A1.55,1.55,0,0,1,649.13,209.11Z"/><path class="cls-4" d="M503.57,334.44a4.23,4.23,0,0,1,2.11-.6,3,3,0,0,1,2.85,1.54,22.34,22.34,0,0,1,2.52,13.77,2.54,2.54,0,0,1-1.2,1.94,2.84,2.84,0,0,1-.77.33c-1.33.38-2.84.53-5.26-1.95-2.59-3.53-3.22-8.32-1.74-13.16A3.31,3.31,0,0,1,503.57,334.44Z"/><path class="cls-4" d="M765.29,586.13a3.77,3.77,0,0,1,3.2.06,2.12,2.12,0,0,1,1.31,1.27,71.78,71.78,0,0,1,.8,8.59c.07,1.3.14,2.59.24,3.87l.14,1.81,1.72.58c1.13.39,2.26.76,3.38,1.12,2.57.84,5,1.63,7.36,2.59.34.14,1.06.43,1.08,2.92a3.57,3.57,0,0,1-2.07,3.4,6.85,6.85,0,0,1-.71.39c-1,.48-2.49.28-4.08.07-2.3-.31-4.91-.66-7.35.81a7.52,7.52,0,0,0-1.88,1.65,18.76,18.76,0,0,0-3.08,6.56,20.24,20.24,0,0,1-1.61,4.11,2,2,0,0,1-.68.7,4.19,4.19,0,0,1-3.36,0,2.93,2.93,0,0,1-2.22-2.43,14.24,14.24,0,0,1-.17-4c.6-3.28.17-6-1.28-8s-4.06-3.47-7.75-4c-4.72-.72-5.08-2.56-5-4.37a3.54,3.54,0,0,1,1.68-3.16,7.84,7.84,0,0,1,4.7-.74c3.4.32,5.91-.1,7.91-1.31,3.25-2,4.28-5.6,4.82-8.54.12-.64.68-1.81,2.7-3.75A1.26,1.26,0,0,1,765.29,586.13Z"/><path class="cls-4" d="M757.06,536.81A52.1,52.1,0,0,1,768,532c1.84-.59,2.93.89,3.42,1.82.71,1.37,1.33,3.21.23,4.2a68,68,0,0,1-6.94,5.23l-1.21.84,0,0-2,1.44c-1,.69-1.89,1.41-2.82,2.13a62,62,0,0,1-5.49,3.91l-.64.37c-1.81,1-3.53.55-5.1-1.41a3.34,3.34,0,0,1-.16-4.3A29.24,29.24,0,0,1,757.06,536.81Z"/><path class="cls-4" d="M788.87,521c1.2-.43,2.54-.93,4-1.47,4.19-1.55,9.4-3.49,14.63-5.12a3.07,3.07,0,0,1,2.42.28,3.63,3.63,0,0,1,1.74,2.17c.3,1.12.78,3.85-1.16,5l-.38.2c-6.91,3.13-14.12,5.78-20.92,8.22-.81.29-3,1.07-4.82-2.24C782.93,525.5,786,522.84,788.87,521Z"/><path class="cls-4" d="M879.89,470.28a2.73,2.73,0,0,1,3.27.26c.94.7,3,2.6,1.72,5.13-3.06,6.06-7.55,11-14.15,15.62l-.06,0c-.13.09-.46.31-.89.57a16.1,16.1,0,0,1-1.53.83,3.48,3.48,0,0,1-4.34-.88,3.52,3.52,0,0,1-.39-4.91c4.89-5.29,10.19-10.91,15.74-16.18A3.5,3.5,0,0,1,879.89,470.28Z"/><path class="cls-4" d="M826.18,506.41c6.49-3.35,12.91-6.4,19.09-9.06,2.59-1.12,5-.27,6,2.17,1.33,3-.95,5.08-2.58,6.13a52.31,52.31,0,0,0-8.14,3.82c-3.5,1.9-6.81,3.7-10.55,4.33-2.57.44-4.09-.29-5.23-2.5a3.84,3.84,0,0,1,1.2-4.8Z"/><path class="cls-4" d="M885,439.17a3.9,3.9,0,0,1,4.56.56c3.52,4.3,4.1,9.32,1.81,15.81a2.07,2.07,0,0,1-.91,1,4.24,4.24,0,0,1-1.89.57c-1.06.07-2.1-.26-4.1-2.11-1.52-4.81-2.48-9.95-.12-15.16A1.62,1.62,0,0,1,885,439.17Z"/><path class="cls-4" d="M739.43,564.5a4.29,4.29,0,0,1,2.12-.6,3,3,0,0,1,2.84,1.54,22.34,22.34,0,0,1,2.53,13.77,2.56,2.56,0,0,1-1.2,1.94,3.14,3.14,0,0,1-.77.33c-1.34.38-2.85.53-5.27-2-2.59-3.53-3.22-8.32-1.73-13.16A3.3,3.3,0,0,1,739.43,564.5Z"/><path class="cls-4" d="M793.63,84.39a3.77,3.77,0,0,1,3.2.06,2.1,2.1,0,0,1,1.31,1.28,69.43,69.43,0,0,1,.81,8.58c.07,1.3.14,2.59.24,3.87l.13,1.81,1.72.59,3.38,1.11c2.57.84,5,1.63,7.36,2.59.35.14,1.06.43,1.09,2.93a3.59,3.59,0,0,1-2.07,3.39q-.34.21-.72.39c-1,.49-2.49.28-4.08.07-2.3-.31-4.91-.66-7.34.82a7.52,7.52,0,0,0-1.89,1.64,18.87,18.87,0,0,0-3.07,6.57,20.74,20.74,0,0,1-1.61,4.1,2,2,0,0,1-.69.71,4.19,4.19,0,0,1-3.36,0,2.93,2.93,0,0,1-2.22-2.42,14.29,14.29,0,0,1-.16-4c.6-3.28.17-6-1.28-8s-4.07-3.47-7.75-4c-4.72-.73-5.08-2.56-5-4.38a3.52,3.52,0,0,1,1.68-3.16,7.83,7.83,0,0,1,4.7-.74c3.39.32,5.9-.1,7.91-1.31,3.24-2,4.28-5.59,4.82-8.54.11-.64.68-1.8,2.7-3.75A1.55,1.55,0,0,1,793.63,84.39Z"/><path class="cls-4" d="M785.4,35.08a51.44,51.44,0,0,1,10.93-4.8c1.83-.59,2.92.89,3.41,1.83.71,1.37,1.33,3.21.23,4.19A69,69,0,0,1,793,41.54l-1.22.84,0,0-2,1.45c-.95.69-1.88,1.4-2.82,2.12a60.56,60.56,0,0,1-5.49,3.91l-.64.38c-1.81,1-3.52.55-5.1-1.42a3.32,3.32,0,0,1-.16-4.29A29,29,0,0,1,785.4,35.08Z"/><path class="cls-4" d="M817.22,19.28l4-1.47c4.19-1.56,9.41-3.5,14.63-5.12a3.06,3.06,0,0,1,2.43.27A3.57,3.57,0,0,1,840,15.14c.3,1.11.78,3.84-1.15,5l-.38.2c-6.91,3.14-14.13,5.78-20.92,8.23-.82.29-3,1.06-4.83-2.25C811.28,23.77,814.31,21.11,817.22,19.28Z"/><path class="cls-4" d="M854.52,4.68c6.49-3.35,12.92-6.4,19.1-9.07,2.59-1.12,5-.26,6,2.17,1.32,3-.95,5.09-2.59,6.13a53.12,53.12,0,0,0-8.13,3.82c-3.51,1.91-6.82,3.7-10.55,4.34-2.58.43-4.09-.29-5.23-2.51a3.81,3.81,0,0,1,1.2-4.79Z"/><path class="cls-4" d="M767.77,62.76a4.4,4.4,0,0,1,2.12-.6,3,3,0,0,1,2.84,1.54,22.29,22.29,0,0,1,2.53,13.78,2.54,2.54,0,0,1-1.2,1.94,3.36,3.36,0,0,1-.77.32c-1.34.38-2.84.54-5.26-1.95-2.59-3.53-3.23-8.32-1.74-13.16A3.3,3.3,0,0,1,767.77,62.76Z"/><path class="cls-4" d="M1029.5,314.45a3.77,3.77,0,0,1,3.2.06,2.13,2.13,0,0,1,1.31,1.28,71.42,71.42,0,0,1,.8,8.58c.07,1.3.14,2.59.24,3.87l.14,1.81,1.72.59,3.38,1.11c2.57.84,5,1.63,7.36,2.59.34.14,1,.43,1.08,2.93a3.57,3.57,0,0,1-2.07,3.39,8.06,8.06,0,0,1-.71.39c-1,.48-2.5.28-4.08.07-2.3-.31-4.91-.66-7.35.82a7.69,7.69,0,0,0-1.89,1.64,18.87,18.87,0,0,0-3.07,6.57,20.14,20.14,0,0,1-1.61,4.1,1.94,1.94,0,0,1-.68.71,4.23,4.23,0,0,1-3.36,0,2.94,2.94,0,0,1-2.23-2.42,14.68,14.68,0,0,1-.16-4c.6-3.28.17-6-1.28-8s-4.06-3.47-7.75-4c-4.72-.73-5.08-2.56-5-4.38a3.52,3.52,0,0,1,1.68-3.16,7.84,7.84,0,0,1,4.7-.74c3.39.32,5.91-.1,7.91-1.31,3.25-2,4.28-5.59,4.82-8.54.12-.64.68-1.8,2.7-3.75A1.26,1.26,0,0,1,1029.5,314.45Z"/><path class="cls-4" d="M1021.26,265.14a51.9,51.9,0,0,1,10.93-4.8c1.84-.59,2.93.89,3.41,1.83.72,1.37,1.33,3.2.24,4.19a69.17,69.17,0,0,1-6.94,5.24l-1.21.84,0,0-2,1.45c-1,.69-1.89,1.4-2.82,2.12a62,62,0,0,1-5.49,3.91l-.64.38c-1.81,1-3.53.55-5.1-1.42a3.32,3.32,0,0,1-.16-4.29A29,29,0,0,1,1021.26,265.14Z"/><path class="cls-4" d="M1053.08,249.33l4-1.46c4.19-1.56,9.4-3.5,14.63-5.12a3,3,0,0,1,2.42.27,3.62,3.62,0,0,1,1.74,2.18c.3,1.11.78,3.84-1.16,5a3.39,3.39,0,0,1-.38.2c-6.91,3.14-14.12,5.78-20.92,8.22-.81.3-3,1.07-4.82-2.24C1047.14,253.83,1050.17,251.17,1053.08,249.33Z"/><path class="cls-4" d="M1144.1,198.6a2.74,2.74,0,0,1,3.27.26c.94.7,3,2.61,1.72,5.14-3.06,6.05-7.55,11-14.15,15.62l-.06,0-.89.57a15.84,15.84,0,0,1-1.53.82,3.48,3.48,0,0,1-4.34-.88,3.53,3.53,0,0,1-.4-4.91c4.9-5.29,10.19-10.91,15.75-16.17A3.24,3.24,0,0,1,1144.1,198.6Z"/><path class="cls-4" d="M1090.38,234.74c6.5-3.35,12.92-6.4,19.1-9.07,2.59-1.12,5-.27,6,2.17,1.33,3-1,5.08-2.58,6.13a52.31,52.31,0,0,0-8.14,3.82c-3.51,1.91-6.82,3.7-10.55,4.34-2.57.43-4.09-.29-5.23-2.51a3.81,3.81,0,0,1,1.2-4.79Z"/><path class="cls-4" d="M1149.2,167.5c1.24-.75,3.55-.68,4.56.55,3.52,4.3,4.1,9.33,1.81,15.81a2.09,2.09,0,0,1-.91,1,4.36,4.36,0,0,1-1.89.56c-1.06.08-2.1-.26-4.1-2.11-1.52-4.81-2.48-10-.12-15.16A1.6,1.6,0,0,1,1149.2,167.5Z"/><path class="cls-4" d="M1003.64,292.82a4.36,4.36,0,0,1,2.11-.6,3,3,0,0,1,2.85,1.54,22.43,22.43,0,0,1,2.53,13.78,2.61,2.61,0,0,1-1.2,1.94,3.56,3.56,0,0,1-.77.32c-1.34.38-2.85.54-5.27-1.95-2.59-3.53-3.22-8.32-1.73-13.16A3.3,3.3,0,0,1,1003.64,292.82Z"/><path class="cls-4" d="M1440.13,99.5s26.42-17.81,45.63,5h-16l-2.8-2.8-1,2.8-3-2.4-1.8,2.4h-12.8l-4-3v3l-4.2,1.2s51.83-2.4,60.64,51.63l-12.3-9.74-1-5a37,37,0,0,1-2.81,3.06c.12-.37-2.57-6-2.57-6l-1.71,1.59-12.83-14.67-4.15-7.21-1.35,5.74-4.15-7.21-3.92-1.83-.48,1-5.5-2.69-5.38.85s31.29,15.16,37.64,58.06c0,0,1.71,16-6.35,29.45l-10-25.91,2.33-6-3.79,2.08-.49-6.23-1.71,1.58v-7.08l-1.84.85s-4-20.41-16.62-33.85c0,0,17.85,39.6-4.76,75.4l2.44-22.73-2.44,1.59,2.2-9.41-2.2,1.1,1.13-6-2.94,1s8.53-28.32,0-43.72c0,0-34.38,59.11-34,141h-15.4s6.23-95,44-142.62l-3.45,2.09-.37-1.75-9.31,12.18-.37-6.09s-10.33,14.3-10.43,14-2-2.95-2-2.95l-1.47,6.64-2.59-1.85-21.21,30.45-1-2.13-1,5.26-7.2,8.77s.14-56.58,54-67c0,0-10.17.73-12.92,1.65s-12,5-12,5l-1-2.48-1.65,2.66-1.92-1.47-.92,4.49-3.48-2.56-1.29,5a36.25,36.25,0,0,0-17.69,10.08l-3-1.37v3.3l-2.84-1.29v2.39l-10.73,9.62s-5.86-24.11,33.09-38.5c0,0,18.88-7.24,34.37-7.51,0,0-11.82-1.84-18.51-1.65l.46-3.3-2.48,3.76-1.19-4.13-2.75,5.13-.82-3-.83,1.92s-16.32,2.2-26.31,5.87l-2-3-1.56,4.4-3.85-1.38-.73,3s-15.49,7-21.45,12c0,0,5.41-27.59,43.63-32.63,0,0,25.75-3.48,43,9.72,0,0-4.13-6.14-7.52-8.71l.37-3.57a37.44,37.44,0,0,1-3.67,2.56c.09-.27-.37-4.57-.37-4.57L1410,95.08l-.92-3.3s-14.11-4.86-22.91-5.23l-2.11,1.29-2.29-4.31-2.3,2.84s-13.1,1.47-22.64,7.15c0,0,8.16-21.91,42.44-17.78,0,0,26.22,3.48,36.76,26.67,0,0-1.56-11.46-11.18-18.61l1.22-1.65-3.3.07,2.08-2.33-4.22,1.29s-5-5.75-9.72-8.13c0,0,14.43-4.77,24.81,10.51A31.85,31.85,0,0,1,1440.13,99.5Z"/><path class="cls-4" d="M1885.87,99.5s26.41-17.81,45.63,5h-16l-2.81-2.8-1,2.8-3-2.4-1.8,2.4h-12.81l-4-3v3l-4.2,1.2s51.83-2.4,60.64,51.63l-12.3-9.74-1-5a37,37,0,0,1-2.81,3.06c.12-.37-2.57-6-2.57-6l-1.71,1.59-12.83-14.67-4.16-7.21-1.34,5.74-4.16-7.21-3.91-1.83-.49,1-5.5-2.69-5.37.85s31.28,15.16,37.64,58.06c0,0,1.71,16-6.36,29.45l-10-25.91,2.32-6-3.79,2.08-.48-6.23-1.72,1.58v-7.08l-1.83.85s-4-20.41-16.62-33.85c0,0,17.84,39.6-4.77,75.4l2.45-22.73-2.45,1.59L1885,173l-2.2,1.1,1.13-6-2.93,1s8.53-28.32,0-43.72c0,0-34.39,59.11-34,141h-15.4s6.23-95,44-142.62l-3.44,2.09-.37-1.75-9.32,12.18-.37-6.09s-10.33,14.3-10.42,14-2-2.95-2-2.95l-1.48,6.64-2.58-1.85-21.21,30.45-1-2.13-1,5.26-7.2,8.77s.14-56.58,54-67c0,0-10.18.73-12.93,1.65s-12,5-12,5l-1-2.48-1.65,2.66-1.93-1.47-.91,4.49-3.49-2.56-1.28,5a36.2,36.2,0,0,0-17.69,10.08l-3-1.37v3.3l-2.84-1.29v2.39l-10.72,9.62s-5.87-24.11,33.09-38.5c0,0,18.88-7.24,34.37-7.51,0,0-11.82-1.84-18.51-1.65l.45-3.3-2.47,3.76-1.19-4.13-2.75,5.13-.83-3-.82,1.92s-16.32,2.2-26.31,5.87l-2-3-1.55,4.4-3.85-1.38-.74,3s-15.49,7-21.45,12c0,0,5.41-27.59,43.63-32.63,0,0,25.76-3.48,43,9.72,0,0-4.12-6.14-7.51-8.71l.36-3.57a37.36,37.36,0,0,1-3.66,2.56c.09-.27-.37-4.57-.37-4.57l-4.77,2.19-.91-3.3s-14.12-4.86-22.92-5.23l-2.11,1.29-2.29-4.31-2.29,2.84s-13.11,1.47-22.64,7.15c0,0,8.16-21.91,42.44-17.78,0,0,26.22,3.48,36.76,26.67,0,0-1.56-11.46-11.19-18.61l1.23-1.65-3.3.07,2.07-2.33-4.21,1.29s-5-5.75-9.72-8.13c0,0,14.42-4.77,24.81,10.51A32,32,0,0,1,1885.87,99.5Z"/><path class="cls-4" d="M1218.08,316.89s26.42-17.81,45.63,5h-16l-2.8-2.81-1,2.81-3-2.41-1.8,2.41h-12.8l-4-3v3l-4.2,1.2s51.83-2.4,60.64,51.63l-12.3-9.74-1-5a35.18,35.18,0,0,1-2.81,3c.12-.36-2.57-6-2.57-6l-1.71,1.58L1245.52,344l-4.15-7.21L1240,342.5l-4.15-7.21-3.92-1.83-.48,1-5.5-2.69-5.38.85s31.29,15.16,37.64,58c0,0,1.71,16-6.35,29.46l-10-25.91,2.33-6-3.79,2.08-.49-6.24-1.71,1.59v-7.09l-1.84.86s-4-20.41-16.62-33.85c0,0,17.85,39.59-4.76,75.4l2.44-22.73-2.44,1.59,2.2-9.41-2.2,1.1,1.13-6-2.94,1s8.53-28.32,0-43.72c0,0-34.38,59.11-34,141h-15.4s6.23-95,44-142.62l-3.45,2.09-.37-1.75-9.31,12.18-.37-6.09s-10.33,14.3-10.43,14-2-2.95-2-2.95l-1.47,6.64-2.59-1.85-21.21,30.44-1-2.12-1,5.26-7.2,8.76s.14-56.57,54-67c0,0-10.17.74-12.92,1.65s-12,5.05-12,5.05l-1-2.48-1.65,2.66-1.92-1.47-.92,4.49-3.48-2.56-1.29,5a36.15,36.15,0,0,0-17.69,10.08l-3-1.37v3.3l-2.84-1.29v2.39l-10.73,9.62s-5.86-24.11,33.09-38.5c0,0,18.88-7.24,34.37-7.51,0,0-11.82-1.84-18.51-1.65l.46-3.3-2.48,3.76-1.19-4.13-2.75,5.13-.82-3-.83,1.92s-16.32,2.2-26.31,5.87l-2-3-1.56,4.4-3.85-1.37-.73,3s-15.49,7-21.45,12c0,0,5.41-27.59,43.63-32.63,0,0,25.75-3.48,43,9.72,0,0-4.13-6.14-7.52-8.71l.37-3.58a37.62,37.62,0,0,1-3.67,2.57c.09-.27-.37-4.58-.37-4.58l-4.76,2.2-.92-3.3s-14.11-4.86-22.91-5.23l-2.11,1.29-2.29-4.31-2.3,2.84s-13.1,1.47-22.64,7.15c0,0,8.16-21.91,42.44-17.78,0,0,26.22,3.48,36.76,26.67,0,0-1.56-11.46-11.18-18.61l1.22-1.65-3.3.06,2.08-2.32-4.22,1.29s-4.95-5.75-9.72-8.13c0,0,14.43-4.77,24.81,10.51A31.85,31.85,0,0,1,1218.08,316.89Z"/><path class="cls-4" d="M1663.63,316.89s26.42-17.81,45.63,5h-16l-2.8-2.81-1,2.81-3-2.41-1.8,2.41h-12.81l-4-3v3l-4.21,1.2s51.84-2.4,60.64,51.63L1712,365l-1-5a35.16,35.16,0,0,1-2.82,3c.13-.36-2.56-6-2.56-6l-1.71,1.58L1691.08,344l-4.16-7.21-1.34,5.74-4.16-7.21-3.91-1.83-.49,1-5.5-2.69-5.38.85s31.29,15.16,37.65,58c0,0,1.71,16-6.36,29.46l-10-25.91,2.32-6-3.79,2.08-.49-6.24-1.71,1.59v-7.09l-1.83.86s-4-20.41-16.62-33.85c0,0,17.84,39.59-4.77,75.4l2.45-22.73-2.45,1.59,2.2-9.41-2.2,1.1,1.13-6-2.93,1s8.52-28.32,0-43.72c0,0-34.39,59.11-34,141h-15.4s6.24-95,44-142.62l-3.44,2.09-.37-1.75-9.32,12.18-.37-6.09s-10.33,14.3-10.42,14-2-2.95-2-2.95l-1.48,6.64-2.58-1.85-21.22,30.44-1-2.12-1,5.26-7.19,8.76s.14-56.57,54-67c0,0-10.17.74-12.92,1.65s-12,5.05-12,5.05l-1-2.48-1.64,2.66-1.93-1.47-.92,4.49-3.48-2.56-1.28,5A36.11,36.11,0,0,0,1594,361.23l-3-1.37v3.3l-2.84-1.29v2.39l-10.72,9.62s-5.87-24.11,33.09-38.5c0,0,18.88-7.24,34.37-7.51,0,0-11.83-1.84-18.52-1.65l.46-3.3-2.47,3.76-1.2-4.13-2.75,5.13-.82-3-.82,1.92s-16.32,2.2-26.31,5.87l-2-3-1.56,4.4-3.85-1.37-.73,3s-15.49,7-21.45,12c0,0,5.41-27.59,43.63-32.63,0,0,25.76-3.48,43,9.72,0,0-4.12-6.14-7.51-8.71l.36-3.58a38.8,38.8,0,0,1-3.66,2.57c.09-.27-.37-4.58-.37-4.58l-4.77,2.2-.91-3.3s-14.12-4.86-22.92-5.23l-2.11,1.29-2.29-4.31-2.29,2.84s-13.11,1.47-22.64,7.15c0,0,8.16-21.91,42.44-17.78,0,0,26.21,3.48,36.75,26.67,0,0-1.55-11.46-11.18-18.61l1.22-1.65-3.3.06,2.08-2.32-4.21,1.29s-5-5.75-9.72-8.13c0,0,14.42-4.77,24.81,10.51A31.91,31.91,0,0,1,1663.63,316.89Z"/><path class="cls-4" d="M994.58,564s26.41-17.81,45.62,5h-16l-2.8-2.8-1,2.8-3-2.4-1.8,2.4h-12.81l-4-3v3l-4.2,1.21s51.83-2.41,60.63,51.63l-12.3-9.74-1-5a36.84,36.84,0,0,1-2.81,3.05c.12-.36-2.57-6-2.57-6l-1.71,1.59L1022,591l-4.16-7.21-1.34,5.74-4.16-7.21-3.91-1.83-.49,1-5.5-2.69-5.38.86s31.29,15.15,37.65,58.05c0,0,1.71,16-6.36,29.46l-10-25.91,2.32-6-3.79,2.08-.49-6.24-1.71,1.59v-7.09l-1.83.86s-4-20.41-16.62-33.85c0,0,17.84,39.59-4.77,75.4l2.45-22.73-2.45,1.59,2.2-9.41-2.2,1.1,1.13-6-2.93,1s8.52-28.33,0-43.72c0,0-34.39,59.11-34,141h-15.4s6.24-95,44-142.62l-3.44,2.09-.37-1.75-9.32,12.17-.37-6.09s-10.33,14.3-10.42,14-2-3-2-3l-1.48,6.65-2.58-1.85L933,641l-1-2.12-1,5.26-7.19,8.76s.14-56.57,54-67c0,0-10.18.74-12.93,1.65s-12,5-12,5l-1-2.47-1.65,2.66-1.93-1.47-.92,4.49-3.48-2.56-1.28,5A36.11,36.11,0,0,0,925,608.3l-3-1.38v3.3l-2.84-1.28v2.38L908.36,621s-5.87-24.11,33.09-38.5c0,0,18.88-7.24,34.37-7.52,0,0-11.83-1.83-18.52-1.65l.46-3.3-2.47,3.76-1.19-4.12-2.75,5.13-.83-3-.82,1.92s-16.32,2.2-26.31,5.87l-2-3-1.56,4.4L916,579.52l-.73,3s-15.49,7-21.45,12c0,0,5.41-27.59,43.63-32.63,0,0,25.76-3.48,43,9.71,0,0-4.12-6.14-7.51-8.7l.36-3.58a40.74,40.74,0,0,1-3.66,2.57c.09-.28-.37-4.58-.37-4.58l-4.77,2.2-.91-3.3s-14.12-4.86-22.92-5.23l-2.11,1.28-2.29-4.3-2.29,2.84s-13.11,1.46-22.64,7.15c0,0,8.16-21.91,42.44-17.78,0,0,26.21,3.48,36.75,26.67,0,0-1.55-11.46-11.18-18.61l1.22-1.65-3.3.06,2.08-2.32-4.21,1.28s-5-5.74-9.72-8.12c0,0,14.42-4.77,24.81,10.51A32,32,0,0,1,994.58,564Z"/><path class="cls-4" d="M1440.13,564s26.42-17.81,45.63,5h-16l-2.8-2.8-1,2.8-3-2.4-1.8,2.4h-12.8l-4-3v3l-4.2,1.21s51.83-2.41,60.64,51.63l-12.3-9.74-1-5a35.18,35.18,0,0,1-2.81,3.05c.12-.36-2.57-6-2.57-6l-1.71,1.59L1467.57,591l-4.15-7.21-1.35,5.74-4.15-7.21-3.92-1.83-.48,1-5.5-2.69-5.38.86s31.29,15.15,37.64,58.05c0,0,1.71,16-6.35,29.46l-10-25.91,2.33-6-3.79,2.08-.49-6.24-1.71,1.59v-7.09l-1.84.86s-4-20.41-16.62-33.85c0,0,17.85,39.59-4.76,75.4l2.44-22.73-2.44,1.59,2.2-9.41-2.2,1.1,1.13-6-2.94,1s8.53-28.33,0-43.72c0,0-34.38,59.11-34,141h-15.4s6.23-95,44-142.62l-3.45,2.09-.37-1.75-9.31,12.17-.37-6.09s-10.33,14.3-10.43,14-2-3-2-3l-1.47,6.65-2.59-1.85L1378.58,641l-1-2.12-1,5.26-7.2,8.76s.14-56.57,54-67c0,0-10.17.74-12.92,1.65s-12,5-12,5l-1-2.47-1.65,2.66-1.92-1.47-.92,4.49-3.48-2.56-1.29,5a36.15,36.15,0,0,0-17.69,10.08l-3-1.38v3.3l-2.84-1.28v2.38L1353.91,621s-5.86-24.11,33.09-38.5c0,0,18.88-7.24,34.37-7.52,0,0-11.82-1.83-18.51-1.65l.46-3.3-2.48,3.76-1.19-4.12-2.75,5.13-.82-3-.83,1.92s-16.32,2.2-26.31,5.87l-2-3-1.56,4.4-3.85-1.37-.73,3s-15.49,7-21.45,12c0,0,5.41-27.59,43.63-32.63,0,0,25.75-3.48,43,9.71,0,0-4.13-6.14-7.52-8.7l.37-3.58a39.44,39.44,0,0,1-3.67,2.57c.09-.28-.37-4.58-.37-4.58l-4.76,2.2-.92-3.3s-14.11-4.86-22.91-5.23l-2.11,1.28-2.29-4.3-2.3,2.84s-13.1,1.46-22.64,7.15c0,0,8.16-21.91,42.44-17.78,0,0,26.22,3.48,36.76,26.67,0,0-1.56-11.46-11.18-18.61l1.22-1.65-3.3.06,2.08-2.32-4.22,1.28s-5-5.74-9.72-8.12c0,0,14.43-4.77,24.81,10.51A31.85,31.85,0,0,1,1440.13,564Z"/><path class="cls-4" d="M1885.87,564s26.41-17.81,45.63,5h-16l-2.81-2.8-1,2.8-3-2.4-1.8,2.4h-12.81l-4-3v3l-4.2,1.21s51.83-2.41,60.64,51.63l-12.3-9.74-1-5a35.18,35.18,0,0,1-2.81,3.05c.12-.36-2.57-6-2.57-6l-1.71,1.59L1913.31,591l-4.16-7.21-1.34,5.74-4.16-7.21-3.91-1.83-.49,1-5.5-2.69-5.37.86s31.28,15.15,37.64,58.05c0,0,1.71,16-6.36,29.46l-10-25.91,2.32-6-3.79,2.08-.48-6.24-1.72,1.59v-7.09l-1.83.86s-4-20.41-16.62-33.85c0,0,17.84,39.59-4.77,75.4l2.45-22.73-2.45,1.59,2.2-9.41-2.2,1.1,1.13-6-2.93,1s8.53-28.33,0-43.72c0,0-34.39,59.11-34,141h-15.4s6.23-95,44-142.62l-3.44,2.09-.37-1.75-9.32,12.17-.37-6.09s-10.33,14.3-10.42,14-2-3-2-3l-1.48,6.65-2.58-1.85L1824.32,641l-1-2.12-1,5.26-7.2,8.76s.14-56.57,54-67c0,0-10.18.74-12.93,1.65s-12,5-12,5l-1-2.47-1.65,2.66-1.93-1.47-.91,4.49-3.49-2.56-1.28,5a36.11,36.11,0,0,0-17.69,10.08l-3-1.38v3.3l-2.84-1.28v2.38L1799.65,621s-5.87-24.11,33.09-38.5c0,0,18.88-7.24,34.37-7.52,0,0-11.82-1.83-18.51-1.65l.45-3.3-2.47,3.76-1.19-4.12-2.75,5.13-.83-3-.82,1.92s-16.32,2.2-26.31,5.87l-2-3-1.55,4.4-3.85-1.37-.74,3s-15.49,7-21.45,12c0,0,5.41-27.59,43.63-32.63,0,0,25.76-3.48,43,9.71,0,0-4.12-6.14-7.51-8.7l.36-3.58a39.37,39.37,0,0,1-3.66,2.57c.09-.28-.37-4.58-.37-4.58l-4.77,2.2-.91-3.3s-14.12-4.86-22.92-5.23l-2.11,1.28-2.29-4.3-2.29,2.84s-13.11,1.46-22.64,7.15c0,0,8.16-21.91,42.44-17.78,0,0,26.22,3.48,36.76,26.67,0,0-1.56-11.46-11.19-18.61l1.23-1.65-3.3.06,2.07-2.32-4.21,1.28s-5-5.74-9.72-8.12c0,0,14.42-4.77,24.81,10.51A32,32,0,0,1,1885.87,564Z"/><path class="cls-4" d="M1218.08,781.35s26.42-17.81,45.63,5h-16l-2.8-2.8-1,2.8-3-2.4-1.8,2.4h-12.8l-4-3v3l-4.2,1.2s51.83-2.4,60.64,51.64l-12.3-9.74-1-5a35.18,35.18,0,0,1-2.81,3c.12-.37-2.57-6-2.57-6l-1.71,1.59-12.83-14.66-4.15-7.22L1240,807l-4.15-7.21-3.92-1.84-.48,1-5.5-2.69-5.38.86s31.29,15.15,37.64,58.05c0,0,1.71,16-6.35,29.45l-10-25.9,2.33-6-3.79,2.07-.49-6.23-1.71,1.59V843l-1.84.86s-4-20.41-16.62-33.86c0,0,17.85,39.6-4.76,75.41l2.44-22.73-2.44,1.59,2.2-9.41L1215,856l1.13-6-2.94,1s8.53-28.33,0-43.73c0,0-34.38,59.12-34,141h-15.4s6.23-95,44-142.63l-3.45,2.1-.37-1.75-9.31,12.17-.37-6.09s-10.33,14.3-10.43,14-2-3-2-3l-1.47,6.64-2.59-1.84-21.21,30.44-1-2.12-1,5.25-7.2,8.77s.14-56.57,54-67c0,0-10.17.73-12.92,1.65s-12,5-12,5l-1-2.47-1.65,2.66-1.92-1.47-.92,4.49-3.48-2.57-1.29,5.05a36.15,36.15,0,0,0-17.69,10.08l-3-1.38v3.3l-2.84-1.28v2.38l-10.73,9.63s-5.86-24.11,33.09-38.5c0,0,18.88-7.24,34.37-7.52,0,0-11.82-1.83-18.51-1.65l.46-3.3-2.48,3.76L1177.6,787l-2.75,5.13-.82-3-.83,1.92s-16.32,2.2-26.31,5.87l-2-3-1.56,4.4-3.85-1.37-.73,3s-15.49,7-21.45,12c0,0,5.41-27.59,43.63-32.63,0,0,25.75-3.49,43,9.71,0,0-4.13-6.14-7.52-8.7l.37-3.58a39.44,39.44,0,0,1-3.67,2.57c.09-.28-.37-4.58-.37-4.58l-4.76,2.19-.92-3.3s-14.11-4.85-22.91-5.22l-2.11,1.28-2.29-4.3-2.3,2.84s-13.1,1.46-22.64,7.15c0,0,8.16-21.91,42.44-17.79,0,0,26.22,3.49,36.76,26.68,0,0-1.56-11.46-11.18-18.61L1204,764l-3.3.06,2.08-2.32-4.22,1.28s-4.95-5.74-9.72-8.12c0,0,14.43-4.77,24.81,10.51A31.85,31.85,0,0,1,1218.08,781.35Z"/><path class="cls-4" d="M744.12,781.35s26.41-17.81,45.62,5h-16l-2.8-2.8-1,2.8-3-2.4-1.8,2.4H752.32l-4-3v3l-4.2,1.2s51.83-2.4,60.63,51.64l-12.3-9.74-1-5a36.84,36.84,0,0,1-2.81,3c.12-.37-2.57-6-2.57-6l-1.71,1.59-12.83-14.66-4.16-7.22L766.06,807l-4.16-7.21L758,797.91l-.49,1L752,796.2l-5.38.86s31.29,15.15,37.65,58.05c0,0,1.71,16-6.36,29.45l-10-25.9,2.32-6-3.79,2.07-.49-6.23-1.71,1.59V843l-1.83.86s-4-20.41-16.62-33.86c0,0,17.84,39.6-4.77,75.41l2.45-22.73L741,864.28l2.2-9.41L741,856l1.13-6-2.93,1s8.52-28.33,0-43.73c0,0-34.39,59.12-34,141H689.8s6.23-95,44-142.63l-3.44,2.1L730,806l-9.32,12.17-.37-6.09s-10.33,14.3-10.42,14-2-3-2-3l-1.48,6.64-2.58-1.84-21.22,30.44-1-2.12-1,5.25-7.19,8.77s.14-56.57,54-67c0,0-10.18.73-12.93,1.65s-12,5-12,5l-1-2.47-1.65,2.66-1.93-1.47-.92,4.49-3.48-2.57-1.28,5.05a36.11,36.11,0,0,0-17.69,10.08l-3-1.38v3.3l-2.84-1.28v2.38l-10.72,9.63S652,814.23,691,799.84c0,0,18.88-7.24,34.37-7.52,0,0-11.82-1.83-18.52-1.65l.46-3.3-2.47,3.76L703.64,787l-2.75,5.13-.83-3-.82,1.92s-16.32,2.2-26.31,5.87l-2-3-1.56,4.4-3.85-1.37-.73,3s-15.49,7-21.45,12c0,0,5.41-27.59,43.63-32.63,0,0,25.76-3.49,43,9.71,0,0-4.12-6.14-7.51-8.7l.36-3.58a40.74,40.74,0,0,1-3.66,2.57c.09-.28-.37-4.58-.37-4.58L714,776.92l-.91-3.3s-14.12-4.85-22.92-5.22l-2.11,1.28-2.29-4.3-2.29,2.84s-13.11,1.46-22.64,7.15c0,0,8.16-21.91,42.44-17.79,0,0,26.21,3.49,36.76,26.68,0,0-1.56-11.46-11.19-18.61l1.22-1.65-3.3.06,2.08-2.32L724.63,763s-5-5.74-9.72-8.12c0,0,14.42-4.77,24.81,10.51A32,32,0,0,1,744.12,781.35Z"/><path class="cls-4" d="M1663.63,781.35s26.42-17.81,45.63,5h-16l-2.8-2.8-1,2.8-3-2.4-1.8,2.4h-12.81l-4-3v3l-4.21,1.2s51.84-2.4,60.64,51.64l-12.3-9.74-1-5a35.16,35.16,0,0,1-2.82,3c.13-.37-2.56-6-2.56-6l-1.71,1.59-12.83-14.66-4.16-7.22-1.34,5.75-4.16-7.21-3.91-1.84-.49,1-5.5-2.69-5.38.86s31.29,15.15,37.65,58.05c0,0,1.71,16-6.36,29.45l-10-25.9,2.32-6-3.79,2.07-.49-6.23-1.71,1.59V843l-1.83.86s-4-20.41-16.62-33.86c0,0,17.84,39.6-4.77,75.41l2.45-22.73-2.45,1.59,2.2-9.41-2.2,1.1,1.13-6-2.93,1s8.52-28.33,0-43.73c0,0-34.39,59.12-34,141h-15.4s6.24-95,44-142.63l-3.44,2.1-.37-1.75-9.32,12.17-.37-6.09s-10.33,14.3-10.42,14-2-3-2-3l-1.48,6.64-2.58-1.84-21.22,30.44-1-2.12-1,5.25-7.19,8.77s.14-56.57,54-67c0,0-10.17.73-12.92,1.65s-12,5-12,5l-1-2.47-1.64,2.66-1.93-1.47-.92,4.49-3.48-2.57-1.28,5.05A36.11,36.11,0,0,0,1594,825.69l-3-1.38v3.3l-2.84-1.28v2.38l-10.72,9.63s-5.87-24.11,33.09-38.5c0,0,18.88-7.24,34.37-7.52,0,0-11.83-1.83-18.52-1.65l.46-3.3-2.47,3.76-1.2-4.12-2.75,5.13-.82-3-.82,1.92s-16.32,2.2-26.31,5.87l-2-3-1.56,4.4-3.85-1.37-.73,3s-15.49,7-21.45,12c0,0,5.41-27.59,43.63-32.63,0,0,25.76-3.49,43,9.71,0,0-4.12-6.14-7.51-8.7l.36-3.58a40.74,40.74,0,0,1-3.66,2.57c.09-.28-.37-4.58-.37-4.58l-4.77,2.19-.91-3.3s-14.12-4.85-22.92-5.22l-2.11,1.28-2.29-4.3-2.29,2.84s-13.11,1.46-22.64,7.15c0,0,8.16-21.91,42.44-17.79,0,0,26.21,3.49,36.75,26.68,0,0-1.55-11.46-11.18-18.61l1.22-1.65-3.3.06,2.08-2.32-4.21,1.28s-5-5.74-9.72-8.12c0,0,14.42-4.77,24.81,10.51A31.91,31.91,0,0,1,1663.63,781.35Z"/><path class="cls-4" d="M1447.63,1019.35s26.42-17.81,45.63,5h-16l-2.8-2.8-1,2.8-3-2.4-1.8,2.4h-12.81l-4-3v3l-4.21,1.2s51.84-2.4,60.64,51.64l-12.3-9.74-1-5a35.16,35.16,0,0,1-2.82,3c.13-.37-2.56-6-2.56-6l-1.71,1.59-12.83-14.66-4.16-7.22-1.34,5.75-4.16-7.21-3.91-1.84-.49,1-5.5-2.69-5.38.86s31.29,15.15,37.65,58c0,0,1.71,16-6.36,29.45l-10-25.9,2.32-6-3.79,2.07-.49-6.23-1.71,1.59V1081l-1.83.86s-4-20.41-16.62-33.86c0,0,17.84,39.6-4.77,75.41l2.45-22.73-2.45,1.59,2.2-9.41-2.2,1.1,1.13-6-2.93,1s8.52-28.33,0-43.73c0,0-34.39,59.12-34,141h-15.4s6.24-95,44-142.63l-3.44,2.1-.37-1.75-9.32,12.17-.37-6.09s-10.33,14.3-10.42,14-2-3-2-3l-1.48,6.64-2.58-1.84-21.22,30.44-1-2.12-1,5.25-7.19,8.77s.14-56.57,54-67c0,0-10.17.73-12.92,1.65s-12,5-12,5l-1-2.47-1.64,2.66-1.93-1.47-.92,4.49-3.48-2.57-1.28,5a36.11,36.11,0,0,0-17.69,10.08l-3-1.38v3.3l-2.84-1.28v2.38l-10.72,9.63s-5.87-24.11,33.09-38.5c0,0,18.88-7.24,34.37-7.52,0,0-11.83-1.83-18.52-1.65l.46-3.3-2.47,3.76-1.2-4.12-2.75,5.13-.82-3-.82,1.92s-16.32,2.2-26.31,5.87l-2-3-1.56,4.4-3.85-1.37-.73,3s-15.49,7-21.45,12c0,0,5.41-27.59,43.63-32.63,0,0,25.76-3.49,43,9.71,0,0-4.12-6.14-7.51-8.7l.36-3.58a40.74,40.74,0,0,1-3.66,2.57c.09-.28-.37-4.58-.37-4.58l-4.77,2.19-.91-3.3s-14.12-4.85-22.92-5.22l-2.11,1.28-2.29-4.3-2.29,2.84s-13.11,1.46-22.64,7.15c0,0,8.16-21.91,42.44-17.79,0,0,26.21,3.49,36.75,26.68,0,0-1.55-11.46-11.18-18.61l1.22-1.65-3.3.06,2.08-2.32-4.21,1.28s-5-5.74-9.72-8.12c0,0,14.42-4.77,24.81,10.51A31.91,31.91,0,0,1,1447.63,1019.35Z"/><path class="cls-4" d="M1132.65,669.37a3.74,3.74,0,0,1,3.2.06,2.09,2.09,0,0,1,1.31,1.27,71.61,71.61,0,0,1,.81,8.58c.06,1.3.13,2.6.23,3.88l.14,1.81,1.72.58c1.13.39,2.26.75,3.38,1.12,2.57.83,5,1.62,7.36,2.58.34.14,1.06.43,1.08,2.93a3.58,3.58,0,0,1-2.07,3.4c-.22.13-.46.26-.71.38-1,.49-2.49.29-4.08.07-2.3-.3-4.91-.65-7.35.82a7.32,7.32,0,0,0-1.88,1.65,18.56,18.56,0,0,0-3.07,6.56,21.37,21.37,0,0,1-1.61,4.1,2,2,0,0,1-.69.71,4.19,4.19,0,0,1-3.36,0,2.92,2.92,0,0,1-2.22-2.42,14.22,14.22,0,0,1-.16-4c.6-3.28.16-6-1.29-8s-4.06-3.46-7.75-4c-4.72-.73-5.08-2.56-5-4.38a3.5,3.5,0,0,1,1.68-3.16,7.82,7.82,0,0,1,4.7-.73c3.39.31,5.9-.11,7.91-1.32,3.24-2,4.27-5.59,4.82-8.54.11-.63.67-1.8,2.69-3.75A1.6,1.6,0,0,1,1132.65,669.37Z"/><path class="cls-4" d="M1124.42,620.05a51.58,51.58,0,0,1,10.92-4.79c1.84-.6,2.93.88,3.42,1.82.71,1.37,1.33,3.21.23,4.19a66.62,66.62,0,0,1-6.94,5.24l-1.21.84,0,0-2,1.45c-1,.69-1.89,1.41-2.82,2.12a60.56,60.56,0,0,1-5.49,3.91l-.64.38c-1.81,1-3.52.55-5.1-1.41a3.34,3.34,0,0,1-.16-4.3A29.14,29.14,0,0,1,1124.42,620.05Z"/><path class="cls-4" d="M1156.23,604.25l4-1.47c4.19-1.56,9.41-3.5,14.63-5.12a3,3,0,0,1,2.43.28,3.65,3.65,0,0,1,1.73,2.17c.3,1.12.78,3.84-1.15,5l-.38.2c-6.92,3.14-14.13,5.79-20.93,8.23-.81.29-3,1.06-4.82-2.25C1150.3,608.74,1153.33,606.08,1156.23,604.25Z"/><path class="cls-4" d="M1247.25,553.51a2.77,2.77,0,0,1,3.28.26c.94.7,3,2.61,1.71,5.14-3,6.06-7.55,11-14.15,15.62l-.06,0c-.13.09-.46.31-.89.57s-1.07.61-1.53.83a3.48,3.48,0,0,1-4.33-.88,3.52,3.52,0,0,1-.4-4.92c4.89-5.28,10.19-10.91,15.74-16.17A4.11,4.11,0,0,1,1247.25,553.51Z"/><path class="cls-4" d="M1193.54,589.65c6.49-3.35,12.91-6.4,19.09-9.06,2.6-1.12,5-.27,6,2.16,1.33,3-.94,5.09-2.58,6.13a52.34,52.34,0,0,0-8.14,3.83c-3.5,1.9-6.81,3.69-10.55,4.33-2.57.43-4.08-.29-5.23-2.51a3.84,3.84,0,0,1,1.2-4.79Z"/><path class="cls-4" d="M1252.35,522.41c1.25-.75,3.56-.67,4.56.55,3.52,4.3,4.1,9.33,1.82,15.81a2.16,2.16,0,0,1-.92,1,4.36,4.36,0,0,1-1.89.56c-1.06.08-2.1-.26-4.1-2.11-1.52-4.8-2.48-10-.12-15.16A1.66,1.66,0,0,1,1252.35,522.41Z"/><path class="cls-4" d="M1106.79,647.73a4.51,4.51,0,0,1,2.12-.6,3,3,0,0,1,2.84,1.54,22.3,22.3,0,0,1,2.53,13.78,2.54,2.54,0,0,1-1.2,1.94,2.78,2.78,0,0,1-.77.32c-1.34.38-2.85.54-5.26-2-2.6-3.53-3.23-8.32-1.74-13.16A3.3,3.3,0,0,1,1106.79,647.73Z"/><path class="cls-4" d="M1368.51,899.43a3.7,3.7,0,0,1,3.2.06,2.11,2.11,0,0,1,1.32,1.27,71.42,71.42,0,0,1,.8,8.58c.07,1.3.14,2.6.24,3.88l.13,1.81,1.72.58c1.14.39,2.26.75,3.38,1.12,2.57.83,5,1.62,7.36,2.58.35.14,1.06.43,1.09,2.93a3.59,3.59,0,0,1-2.07,3.39q-.35.21-.72.39c-1,.49-2.49.29-4.08.07-2.3-.31-4.91-.65-7.34.82a7.36,7.36,0,0,0-1.89,1.65,18.74,18.74,0,0,0-3.07,6.56,20.74,20.74,0,0,1-1.61,4.1,2,2,0,0,1-.69.71,4.19,4.19,0,0,1-3.36,0,3,3,0,0,1-2.22-2.42,14.23,14.23,0,0,1-.16-4c.6-3.29.17-6-1.28-8s-4.07-3.46-7.75-4c-4.72-.73-5.08-2.56-5-4.38a3.52,3.52,0,0,1,1.68-3.16,7.9,7.9,0,0,1,4.7-.74c3.39.32,5.9-.1,7.91-1.31,3.24-2,4.28-5.59,4.82-8.54.12-.63.68-1.8,2.7-3.75A1.08,1.08,0,0,1,1368.51,899.43Z"/><path class="cls-4" d="M1360.28,850.11a51.68,51.68,0,0,1,10.93-4.79c1.83-.6,2.92.88,3.41,1.82.71,1.37,1.33,3.21.23,4.19a69,69,0,0,1-6.93,5.24l-1.22.84,0,0-2,1.45c-1,.69-1.88,1.41-2.82,2.12a60.56,60.56,0,0,1-5.49,3.91l-.64.38c-1.81,1-3.52.55-5.1-1.41a3.33,3.33,0,0,1-.15-4.3A29,29,0,0,1,1360.28,850.11Z"/><path class="cls-4" d="M1392.1,834.31l4-1.47c4.19-1.56,9.41-3.5,14.63-5.12a3.06,3.06,0,0,1,2.43.27,3.6,3.6,0,0,1,1.73,2.18c.3,1.11.78,3.84-1.15,5l-.38.2c-6.91,3.14-14.13,5.78-20.92,8.23-.82.29-3,1.06-4.83-2.25C1386.16,838.8,1389.19,836.14,1392.1,834.31Z"/><path class="cls-4" d="M1483.11,783.57a2.77,2.77,0,0,1,3.28.26c.94.7,3,2.61,1.71,5.14-3,6-7.55,11-14.14,15.62l-.06,0c-.14.09-.46.31-.9.57a17.21,17.21,0,0,1-1.53.83c-1.62.75-2.91.48-4.33-.88a3.54,3.54,0,0,1-.4-4.92c4.9-5.29,10.19-10.91,15.74-16.17A4.11,4.11,0,0,1,1483.11,783.57Z"/><path class="cls-4" d="M1429.4,819.71c6.49-3.35,12.92-6.4,19.1-9.07,2.59-1.11,5-.26,6,2.17,1.32,3-1,5.09-2.59,6.13a52.23,52.23,0,0,0-8.13,3.83c-3.51,1.9-6.82,3.69-10.55,4.33-2.57.43-4.09-.29-5.23-2.51a3.81,3.81,0,0,1,1.2-4.79Z"/><path class="cls-4" d="M1488.22,752.47c1.24-.75,3.55-.67,4.55.55,3.53,4.3,4.1,9.33,1.82,15.81a2.06,2.06,0,0,1-.92,1,4.36,4.36,0,0,1-1.88.56c-1.07.08-2.1-.26-4.11-2.11-1.51-4.81-2.48-9.95-.11-15.16A1.54,1.54,0,0,1,1488.22,752.47Z"/><path class="cls-4" d="M1342.65,877.79a4.51,4.51,0,0,1,2.12-.6,3,3,0,0,1,2.84,1.54,22.29,22.29,0,0,1,2.53,13.78,2.54,2.54,0,0,1-1.2,1.94,3.36,3.36,0,0,1-.77.32c-1.34.38-2.84.54-5.26-1.95-2.59-3.53-3.23-8.32-1.74-13.16A3.34,3.34,0,0,1,1342.65,877.79Z"/><path class="cls-4" d="M1604.38,1129.48a3.77,3.77,0,0,1,3.2.06,2.13,2.13,0,0,1,1.31,1.28,71.42,71.42,0,0,1,.8,8.58c.07,1.3.14,2.6.24,3.88l.14,1.81,1.72.58,3.38,1.11c2.57.84,5,1.63,7.36,2.59.34.14,1,.43,1.08,2.93a3.56,3.56,0,0,1-2.07,3.39,8.06,8.06,0,0,1-.71.39c-1,.49-2.49.28-4.08.07-2.3-.31-4.91-.66-7.35.82a7.69,7.69,0,0,0-1.89,1.64,18.87,18.87,0,0,0-3.07,6.57,20.14,20.14,0,0,1-1.61,4.1,1.94,1.94,0,0,1-.68.71,4.19,4.19,0,0,1-3.36,0,2.94,2.94,0,0,1-2.23-2.42,14.68,14.68,0,0,1-.16-4c.6-3.28.17-6-1.28-8s-4.06-3.47-7.75-4c-4.72-.73-5.08-2.56-5-4.38A3.52,3.52,0,0,1,1584,1144a7.92,7.92,0,0,1,4.7-.74c3.39.32,5.91-.1,7.91-1.31,3.25-2,4.28-5.59,4.82-8.54.12-.63.68-1.8,2.7-3.75A1.26,1.26,0,0,1,1604.38,1129.48Z"/><path class="cls-4" d="M1596.14,1080.17a51.4,51.4,0,0,1,10.93-4.79c1.84-.6,2.93.88,3.41,1.82.72,1.37,1.33,3.21.24,4.19a68.05,68.05,0,0,1-6.94,5.24l-1.21.84,0,0-2,1.45c-1,.69-1.89,1.41-2.82,2.12a62,62,0,0,1-5.49,3.91l-.64.38c-1.81,1-3.53.55-5.1-1.42a3.32,3.32,0,0,1-.16-4.29A29,29,0,0,1,1596.14,1080.17Z"/><path class="cls-4" d="M1628,1064.37l4-1.47c4.19-1.56,9.4-3.5,14.63-5.12a3,3,0,0,1,2.42.27,3.65,3.65,0,0,1,1.74,2.18c.3,1.11.78,3.84-1.16,5a3.39,3.39,0,0,1-.38.2c-6.91,3.14-14.12,5.78-20.92,8.23-.81.29-3,1.06-4.82-2.25C1622,1068.86,1625.05,1066.2,1628,1064.37Z"/><path class="cls-4" d="M1719,1013.63a2.76,2.76,0,0,1,3.27.26c.94.7,3,2.61,1.72,5.14-3.06,6-7.55,11-14.15,15.62l-.06,0-.89.57a15.84,15.84,0,0,1-1.53.82c-1.62.76-2.92.49-4.34-.88a3.52,3.52,0,0,1-.39-4.91c4.89-5.29,10.18-10.91,15.74-16.17A3.68,3.68,0,0,1,1719,1013.63Z"/><path class="cls-4" d="M1665.26,1049.77c6.5-3.35,12.92-6.4,19.1-9.07,2.59-1.11,5-.26,6,2.17,1.33,3-1,5.09-2.58,6.13a53.24,53.24,0,0,0-8.14,3.82c-3.51,1.91-6.82,3.7-10.55,4.34-2.57.43-4.09-.29-5.23-2.51a3.81,3.81,0,0,1,1.2-4.79Z"/><path class="cls-4" d="M1724.08,982.53c1.24-.75,3.55-.68,4.56.55,3.52,4.3,4.1,9.33,1.81,15.81a2.09,2.09,0,0,1-.91,1,4.36,4.36,0,0,1-1.89.56c-1.06.08-2.1-.26-4.1-2.11-1.52-4.81-2.48-10-.12-15.16A1.66,1.66,0,0,1,1724.08,982.53Z"/><path class="cls-4" d="M1578.52,1107.85a4.37,4.37,0,0,1,2.12-.6,3,3,0,0,1,2.84,1.54,22.43,22.43,0,0,1,2.53,13.78,2.59,2.59,0,0,1-1.2,1.94,3.56,3.56,0,0,1-.77.32c-1.34.38-2.85.54-5.27-1.95-2.59-3.53-3.22-8.32-1.73-13.16A3.3,3.3,0,0,1,1578.52,1107.85Z"/><path class="cls-4" d="M894.79,880.52a3.74,3.74,0,0,1,3.2.06,2.12,2.12,0,0,1,1.31,1.27,71.61,71.61,0,0,1,.8,8.58c.07,1.3.14,2.6.24,3.88l.14,1.81,1.72.58c1.13.39,2.26.75,3.38,1.12,2.57.83,5,1.63,7.36,2.58.34.14,1,.43,1.08,2.93a3.58,3.58,0,0,1-2.07,3.4c-.23.13-.46.26-.71.38-1,.49-2.5.29-4.08.07-2.3-.3-4.91-.65-7.35.82a7.53,7.53,0,0,0-1.89,1.65,18.91,18.91,0,0,0-3.07,6.56,19.91,19.91,0,0,1-1.61,4.1,1.94,1.94,0,0,1-.68.71,4.19,4.19,0,0,1-3.36,0,2.94,2.94,0,0,1-2.23-2.42,14.61,14.61,0,0,1-.16-4c.6-3.28.17-6-1.28-8s-4.06-3.46-7.75-4c-4.72-.72-5.08-2.56-5-4.38a3.5,3.5,0,0,1,1.68-3.15,7.77,7.77,0,0,1,4.7-.74c3.39.31,5.91-.1,7.91-1.32,3.25-2,4.28-5.59,4.82-8.54.12-.63.68-1.8,2.7-3.75A1.24,1.24,0,0,1,894.79,880.52Z"/><path class="cls-4" d="M886.55,831.2a51.91,51.91,0,0,1,10.93-4.79c1.84-.6,2.93.88,3.41,1.82.72,1.37,1.33,3.21.24,4.19a67.7,67.7,0,0,1-6.94,5.24l-1.21.84,0,0-2,1.44c-1,.69-1.89,1.41-2.82,2.13a64,64,0,0,1-5.49,3.9l-.64.38c-1.81,1-3.53.55-5.1-1.41a3.34,3.34,0,0,1-.16-4.3A29.11,29.11,0,0,1,886.55,831.2Z"/><path class="cls-4" d="M918.37,815.4l4-1.47c4.19-1.56,9.4-3.5,14.63-5.12a3,3,0,0,1,2.42.28,3.63,3.63,0,0,1,1.74,2.17c.3,1.12.78,3.84-1.16,5a3.39,3.39,0,0,1-.38.2c-6.91,3.14-14.12,5.79-20.92,8.23-.81.29-3,1.07-4.82-2.25C912.43,819.89,915.46,817.23,918.37,815.4Z"/><path class="cls-4" d="M1009.39,764.67a2.74,2.74,0,0,1,3.27.25c.94.7,3,2.61,1.72,5.14-3.06,6.06-7.55,11-14.15,15.62l-.06,0c-.13.09-.46.31-.89.57s-1.07.61-1.53.83c-1.62.75-2.92.48-4.34-.88a3.53,3.53,0,0,1-.4-4.91c4.9-5.29,10.19-10.91,15.75-16.18A3.18,3.18,0,0,1,1009.39,764.67Z"/><path class="cls-4" d="M955.67,800.8c6.5-3.35,12.92-6.4,19.1-9.06,2.59-1.12,5-.27,6,2.16,1.33,3-.95,5.09-2.58,6.13a52.34,52.34,0,0,0-8.14,3.83c-3.51,1.9-6.82,3.7-10.55,4.33-2.57.44-4.09-.29-5.23-2.5a3.82,3.82,0,0,1,1.2-4.8Z"/><path class="cls-4" d="M1014.49,733.56a3.92,3.92,0,0,1,4.56.55c3.52,4.3,4.1,9.33,1.81,15.82a2.11,2.11,0,0,1-.91,1,4.36,4.36,0,0,1-1.89.56c-1.06.08-2.1-.25-4.1-2.11-1.52-4.8-2.48-9.95-.12-15.16A1.66,1.66,0,0,1,1014.49,733.56Z"/><path class="cls-4" d="M868.93,858.88a4.35,4.35,0,0,1,2.11-.59,3,3,0,0,1,2.85,1.53,22.44,22.44,0,0,1,2.53,13.78,2.59,2.59,0,0,1-1.2,1.94,3.14,3.14,0,0,1-.77.33c-1.34.37-2.85.53-5.27-2-2.59-3.54-3.22-8.32-1.73-13.17A3.3,3.3,0,0,1,868.93,858.88Z"/><path class="cls-4" d="M1130.65,1110.58a3.74,3.74,0,0,1,3.2.06,2.09,2.09,0,0,1,1.31,1.27,69.62,69.62,0,0,1,.81,8.58c.07,1.3.13,2.6.23,3.88l.14,1.81,1.72.58c1.14.39,2.26.75,3.38,1.12,2.57.83,5,1.62,7.36,2.58.34.14,1.06.43,1.08,2.93a3.59,3.59,0,0,1-2.06,3.4c-.23.13-.47.26-.72.38-1,.49-2.49.29-4.08.07-2.3-.3-4.91-.65-7.34.82a7.2,7.2,0,0,0-1.89,1.65,18.56,18.56,0,0,0-3.07,6.56,21.37,21.37,0,0,1-1.61,4.1,2,2,0,0,1-.69.71,4.19,4.19,0,0,1-3.36,0,2.92,2.92,0,0,1-2.22-2.42,14.22,14.22,0,0,1-.16-4c.6-3.28.17-6-1.29-8s-4.06-3.46-7.74-4c-4.73-.73-5.09-2.56-5.05-4.38a3.47,3.47,0,0,1,1.68-3.15,7.75,7.75,0,0,1,4.7-.74c3.39.31,5.9-.1,7.91-1.32,3.24-2,4.28-5.59,4.82-8.54.11-.63.67-1.8,2.69-3.75A1.6,1.6,0,0,1,1130.65,1110.58Z"/><path class="cls-4" d="M1122.42,1061.26a51.58,51.58,0,0,1,10.92-4.79c1.84-.6,2.93.88,3.42,1.82.71,1.37,1.33,3.21.23,4.19a66.62,66.62,0,0,1-6.94,5.24l-1.21.84,0,0-2,1.45c-1,.69-1.89,1.41-2.82,2.12a60.56,60.56,0,0,1-5.49,3.91c-.21.13-.42.26-.64.38-1.81,1-3.52.55-5.1-1.41a3.34,3.34,0,0,1-.16-4.3A29.14,29.14,0,0,1,1122.42,1061.26Z"/><path class="cls-4" d="M1154.23,1045.46l4-1.47c4.19-1.56,9.41-3.5,14.63-5.12a3.06,3.06,0,0,1,2.43.28,3.58,3.58,0,0,1,1.73,2.17c.3,1.12.78,3.84-1.15,5l-.38.2c-6.92,3.14-14.13,5.79-20.93,8.23-.81.29-3,1.07-4.82-2.25C1148.3,1050,1151.33,1047.29,1154.23,1045.46Z"/><path class="cls-4" d="M1245.25,994.72a2.77,2.77,0,0,1,3.28.26c.94.7,3,2.61,1.71,5.14-3,6.06-7.55,11-14.15,15.62l-.06,0c-.13.09-.46.31-.89.57a17.21,17.21,0,0,1-1.53.83,3.89,3.89,0,0,1-4.73-5.79c4.89-5.29,10.19-10.91,15.74-16.18A4.11,4.11,0,0,1,1245.25,994.72Z"/><path class="cls-4" d="M1191.54,1030.86c6.49-3.35,12.91-6.4,19.09-9.06,2.6-1.12,5-.27,6,2.16,1.33,3-.94,5.09-2.58,6.13a52.78,52.78,0,0,0-8.14,3.83c-3.5,1.9-6.81,3.7-10.55,4.33-2.57.43-4.08-.29-5.23-2.51a3.84,3.84,0,0,1,1.2-4.79Z"/><path class="cls-4" d="M1250.35,963.62c1.25-.75,3.56-.67,4.56.55,3.53,4.3,4.1,9.33,1.82,15.81a2.06,2.06,0,0,1-.92,1,4.36,4.36,0,0,1-1.89.56c-1.06.08-2.1-.25-4.1-2.11-1.52-4.8-2.48-10-.12-15.16A1.66,1.66,0,0,1,1250.35,963.62Z"/><path class="cls-4" d="M1104.79,1088.94a4.39,4.39,0,0,1,2.12-.59,3,3,0,0,1,2.84,1.53,22.3,22.3,0,0,1,2.53,13.78,2.54,2.54,0,0,1-1.2,1.94,3.14,3.14,0,0,1-.77.33c-1.34.37-2.85.53-5.26-2-2.59-3.53-3.23-8.32-1.74-13.16A3.3,3.3,0,0,1,1104.79,1088.94Z"/><path class="cls-4" d="M520.59,1028.07s26.42-17.82,45.63,5h-16l-2.8-2.8-1,2.8-3-2.4-1.8,2.4H528.8l-4-3v3l-4.21,1.2s51.84-2.4,60.64,51.63l-12.3-9.74-1-5a37,37,0,0,1-2.81,3.06c.13-.37-2.56-6-2.56-6l-1.71,1.59L548,1055.14l-4.15-7.21-1.35,5.74-4.15-7.21-3.91-1.83-.49,1-5.5-2.69-5.38.85s31.29,15.16,37.64,58.06c0,0,1.71,16-6.35,29.45l-10-25.91,2.32-6-3.79,2.08-.49-6.23-1.71,1.59v-7.09l-1.83.85s-4-20.41-16.62-33.85c0,0,17.84,39.6-4.77,75.41l2.44-22.74-2.44,1.59,2.2-9.41-2.2,1.1,1.13-6-2.93,1s8.52-28.32,0-43.72c0,0-34.39,59.11-34,141h-15.4s6.23-95,44-142.62l-3.45,2.09-.36-1.75-9.32,12.18-.37-6.09s-10.33,14.3-10.42,14-2-3-2-3l-1.48,6.64-2.58-1.84L459,1105.07l-1-2.12-1,5.25-7.19,8.77s.14-56.57,54-67c0,0-10.17.73-12.92,1.65s-12,5-12,5l-1-2.48-1.65,2.66-1.92-1.47-.92,4.5-3.48-2.57-1.28,5A36.26,36.26,0,0,0,451,1072.4l-3-1.37v3.3L445.1,1073v2.39l-10.73,9.62s-5.86-24.1,33.09-38.5c0,0,18.89-7.24,34.38-7.51,0,0-11.83-1.83-18.52-1.65l.46-3.3-2.48,3.76-1.19-4.13-2.75,5.14-.82-3-.83,1.93s-16.31,2.2-26.3,5.86l-2-3-1.56,4.4-3.85-1.38-.73,3s-15.49,7-21.45,12c0,0,5.41-27.59,43.63-32.63,0,0,25.76-3.48,43,9.72,0,0-4.13-6.14-7.52-8.71l.37-3.57a37.44,37.44,0,0,1-3.67,2.56c.09-.27-.36-4.57-.36-4.57l-4.77,2.19-.92-3.3s-14.11-4.86-22.91-5.22l-2.11,1.28-2.29-4.31-2.29,2.84s-13.11,1.47-22.64,7.15c0,0,8.16-21.91,42.44-17.78,0,0,26.21,3.48,36.75,26.67,0,0-1.56-11.46-11.18-18.6l1.22-1.65-3.3.06,2.08-2.33-4.22,1.29s-5-5.75-9.71-8.13c0,0,14.42-4.77,24.81,10.51A31.92,31.92,0,0,1,520.59,1028.07Z"/><path class="cls-4" d="M95.59,1028.07s26.42-17.82,45.63,5h-16l-2.8-2.8-1,2.8-3-2.4-1.8,2.4H103.8l-4-3v3l-4.21,1.2s51.84-2.4,60.64,51.63l-12.3-9.74-1-5a37,37,0,0,1-2.81,3.06c.13-.37-2.56-6-2.56-6l-1.71,1.59L123,1055.14l-4.15-7.21-1.35,5.74-4.15-7.21-3.91-1.83-.49,1-5.5-2.69-5.38.85s31.29,15.16,37.64,58.06c0,0,1.71,16-6.35,29.45l-10-25.91,2.32-6-3.79,2.08-.49-6.23-1.71,1.59v-7.09l-1.83.85s-4-20.41-16.62-33.85c0,0,17.84,39.6-4.77,75.41l2.44-22.74L92.48,1111l2.2-9.41-2.2,1.1,1.13-6-2.93,1s8.52-28.32,0-43.72c0,0-34.39,59.11-34,141H41.27s6.23-95,44-142.62l-3.45,2.09-.36-1.75-9.32,12.18-.37-6.09s-10.33,14.3-10.42,14-2-3-2-3l-1.48,6.64-2.58-1.84L34,1105.07,33,1103l-1,5.25L24.82,1117s.14-56.57,54-67c0,0-10.17.73-12.92,1.65s-12,5-12,5l-1-2.48-1.65,2.66-1.92-1.47-.92,4.5-3.48-2.57-1.28,5A36.26,36.26,0,0,0,26,1072.4l-3-1.37v3.3L20.1,1073v2.39l-10.73,9.62s-5.86-24.1,33.09-38.5c0,0,18.89-7.24,34.38-7.51,0,0-11.83-1.83-18.52-1.65l.46-3.3-2.48,3.76-1.19-4.13-2.75,5.14-.82-3-.83,1.93s-16.31,2.2-26.3,5.86l-2-3-1.56,4.4L17,1043.62l-.73,3s-15.49,7-21.45,12c0,0,5.41-27.59,43.63-32.63,0,0,25.76-3.48,43,9.72,0,0-4.13-6.14-7.52-8.71l.37-3.57A37.44,37.44,0,0,1,70.6,1026c.09-.27-.36-4.57-.36-4.57l-4.77,2.19-.92-3.3s-14.11-4.86-22.91-5.22l-2.11,1.28-2.29-4.31L35,1014.93s-13.11,1.47-22.64,7.15c0,0,8.16-21.91,42.44-17.78,0,0,26.21,3.48,36.75,26.67,0,0-1.56-11.46-11.18-18.6l1.22-1.65-3.3.06,2.08-2.33-4.22,1.29s-4.95-5.75-9.71-8.13c0,0,14.42-4.77,24.81,10.51A31.92,31.92,0,0,1,95.59,1028.07Z"/><path class="cls-4" d="M966.15,1028.07s26.41-17.82,45.63,5h-16l-2.81-2.8-1,2.8-3-2.4-1.8,2.4H974.35l-4-3v3l-4.2,1.2s51.83-2.4,60.64,51.63l-12.3-9.74-1-5a37,37,0,0,1-2.81,3.06c.12-.37-2.57-6-2.57-6l-1.71,1.59-12.83-14.67-4.16-7.21-1.34,5.74-4.16-7.21-3.91-1.83-.49,1-5.5-2.69-5.37.85s31.28,15.16,37.64,58.06c0,0,1.71,16-6.36,29.45l-10-25.91,2.32-6-3.79,2.08-.48-6.23-1.72,1.59v-7.09l-1.83.85s-4-20.41-16.62-33.85c0,0,17.84,39.6-4.77,75.41l2.45-22.74L963,1111l2.2-9.41-2.2,1.1,1.13-6-2.93,1s8.53-28.32,0-43.72c0,0-34.39,59.11-34,141h-15.4s6.23-95,44-142.62l-3.44,2.09-.37-1.75-9.32,12.18-.37-6.09s-10.33,14.3-10.42,14-2-3-2-3l-1.48,6.64-2.58-1.84-21.21,30.44-1-2.12-1,5.25-7.2,8.77s.14-56.57,54-67c0,0-10.18.73-12.93,1.65s-12,5-12,5l-1-2.48-1.65,2.66-1.93-1.47-.91,4.5-3.49-2.57-1.28,5a36.2,36.2,0,0,0-17.69,10.08l-3-1.37v3.3l-2.84-1.29v2.39l-10.72,9.62s-5.87-24.1,33.09-38.5c0,0,18.88-7.24,34.37-7.51,0,0-11.82-1.83-18.51-1.65l.45-3.3-2.47,3.76-1.19-4.13-2.75,5.14-.83-3-.82,1.93S905,1040,895,1043.62l-2-3-1.55,4.4-3.85-1.38-.74,3s-15.49,7-21.45,12c0,0,5.41-27.59,43.63-32.63,0,0,25.76-3.48,43,9.72,0,0-4.12-6.14-7.51-8.71l.36-3.57a37.36,37.36,0,0,1-3.66,2.56c.09-.27-.37-4.57-.37-4.57l-4.77,2.19-.91-3.3s-14.12-4.86-22.92-5.22l-2.11,1.28-2.29-4.31-2.29,2.84s-13.11,1.47-22.64,7.15c0,0,8.16-21.91,42.44-17.78,0,0,26.22,3.48,36.76,26.67,0,0-1.56-11.46-11.19-18.6l1.23-1.65-3.3.06,2.07-2.33-4.21,1.29s-4.95-5.75-9.72-8.13c0,0,14.42-4.77,24.81,10.51A32,32,0,0,1,966.15,1028.07Z"/><path class="cls-4" d="M658.67,1133.47a3.77,3.77,0,0,1,3.2.06,2.14,2.14,0,0,1,1.31,1.27,71.78,71.78,0,0,1,.8,8.59c.07,1.3.14,2.59.24,3.87l.14,1.81,1.72.58c1.13.39,2.26.76,3.38,1.12,2.57.84,5,1.63,7.36,2.59.34.14,1,.43,1.08,2.92a3.57,3.57,0,0,1-2.07,3.4,8.06,8.06,0,0,1-.71.39c-1,.48-2.5.28-4.08.07-2.3-.31-4.91-.66-7.35.81a7.74,7.74,0,0,0-1.89,1.65,18.91,18.91,0,0,0-3.07,6.56,20.24,20.24,0,0,1-1.61,4.11,2,2,0,0,1-.68.7,4.19,4.19,0,0,1-3.36,0,3,3,0,0,1-2.23-2.43,14.59,14.59,0,0,1-.16-4c.6-3.28.17-6-1.28-8s-4.06-3.47-7.75-4c-4.72-.72-5.08-2.56-5-4.38a3.51,3.51,0,0,1,1.68-3.15,7.77,7.77,0,0,1,4.7-.74c3.39.32,5.91-.1,7.91-1.31,3.25-2,4.28-5.6,4.82-8.54.12-.64.68-1.81,2.7-3.75A1.26,1.26,0,0,1,658.67,1133.47Z"/><path class="cls-4" d="M650.43,1084.15a52.2,52.2,0,0,1,10.93-4.79c1.84-.59,2.93.89,3.41,1.82.72,1.37,1.33,3.21.24,4.2a69.11,69.11,0,0,1-6.94,5.23l-1.21.84,0,0-2,1.44c-1,.69-1.89,1.41-2.83,2.13a60.45,60.45,0,0,1-5.48,3.91l-.64.37c-1.81,1-3.53.55-5.1-1.41a3.34,3.34,0,0,1-.16-4.3A29.21,29.21,0,0,1,650.43,1084.15Z"/><path class="cls-4" d="M682.25,1068.35c1.2-.43,2.54-.93,4-1.47,4.19-1.55,9.4-3.49,14.63-5.12a3.07,3.07,0,0,1,2.42.28,3.63,3.63,0,0,1,1.74,2.17c.3,1.12.78,3.85-1.16,5l-.38.19c-6.91,3.14-14.12,5.79-20.92,8.23-.81.29-3,1.07-4.82-2.24C676.31,1072.84,679.34,1070.18,682.25,1068.35Z"/><path class="cls-4" d="M773.27,1017.62a2.72,2.72,0,0,1,3.27.26c.94.7,3,2.6,1.72,5.13-3.06,6.06-7.55,11-14.15,15.62l-.06,0c-.13.09-.46.31-.89.57a16.1,16.1,0,0,1-1.53.83,3.48,3.48,0,0,1-4.34-.88,3.53,3.53,0,0,1-.4-4.91c4.9-5.29,10.19-10.91,15.75-16.18A3.18,3.18,0,0,1,773.27,1017.62Z"/><path class="cls-4" d="M719.55,1053.75c6.5-3.35,12.92-6.4,19.1-9.06,2.59-1.12,5-.27,6,2.17,1.33,3-1,5.08-2.58,6.12a53.27,53.27,0,0,0-8.14,3.83c-3.51,1.9-6.82,3.7-10.55,4.33-2.57.44-4.09-.29-5.23-2.5a3.83,3.83,0,0,1,1.2-4.8Z"/><path class="cls-4" d="M778.37,986.51a3.92,3.92,0,0,1,4.56.55c3.52,4.31,4.1,9.33,1.81,15.82a2.07,2.07,0,0,1-.91,1,4.24,4.24,0,0,1-1.89.57c-1.06.07-2.1-.26-4.1-2.11-1.52-4.81-2.49-10-.12-15.16A1.56,1.56,0,0,1,778.37,986.51Z"/><path class="cls-4" d="M632.81,1111.84a4.26,4.26,0,0,1,2.11-.6,3,3,0,0,1,2.85,1.54,22.4,22.4,0,0,1,2.53,13.77,2.59,2.59,0,0,1-1.2,1.94,3.14,3.14,0,0,1-.77.33c-1.34.38-2.85.53-5.27-2-2.59-3.53-3.22-8.32-1.73-13.16A3.26,3.26,0,0,1,632.81,1111.84Z"/><path class="cls-4" d="M1396.86,397.69a3.74,3.74,0,0,1,3.2.06,2.12,2.12,0,0,1,1.31,1.27,69.77,69.77,0,0,1,.8,8.59c.07,1.3.14,2.59.24,3.87l.14,1.81,1.72.58c1.13.39,2.26.76,3.38,1.12,2.57.84,5,1.63,7.36,2.59.34.14,1.06.43,1.08,2.92a3.57,3.57,0,0,1-2.07,3.4c-.22.14-.46.26-.71.39-1,.48-2.49.28-4.08.07-2.3-.31-4.91-.66-7.35.81a7.52,7.52,0,0,0-1.88,1.65,18.76,18.76,0,0,0-3.08,6.56,20.24,20.24,0,0,1-1.61,4.11,1.9,1.9,0,0,1-.68.7,4.15,4.15,0,0,1-3.36,0,2.91,2.91,0,0,1-2.22-2.42,13.85,13.85,0,0,1-.16-4c.6-3.28.16-6-1.29-8s-4.06-3.46-7.75-4c-4.72-.72-5.08-2.56-5-4.38a3.53,3.53,0,0,1,1.68-3.15,7.77,7.77,0,0,1,4.7-.74c3.4.32,5.91-.1,7.91-1.31,3.25-2,4.28-5.6,4.82-8.54.12-.64.68-1.81,2.7-3.75A1,1,0,0,1,1396.86,397.69Z"/><path class="cls-4" d="M1388.63,348.37a52.1,52.1,0,0,1,10.92-4.79c1.84-.6,2.93.89,3.42,1.82.71,1.37,1.33,3.21.23,4.2a68,68,0,0,1-6.94,5.23l-1.21.84,0,0-2,1.44c-1,.69-1.89,1.41-2.82,2.13a61.83,61.83,0,0,1-5.49,3.9l-.64.38c-1.81,1-3.53.55-5.1-1.41a3.34,3.34,0,0,1-.16-4.3A29.24,29.24,0,0,1,1388.63,348.37Z"/><path class="cls-4" d="M1420.44,332.57c1.2-.43,2.54-.93,4-1.47,4.19-1.56,9.41-3.49,14.63-5.12a3.07,3.07,0,0,1,2.42.28,3.63,3.63,0,0,1,1.74,2.17c.3,1.12.78,3.84-1.16,5a2.28,2.28,0,0,1-.38.2c-6.91,3.14-14.12,5.79-20.92,8.23-.81.29-3,1.07-4.82-2.24C1414.5,337.06,1417.53,334.4,1420.44,332.57Z"/><path class="cls-4" d="M1511.46,281.84a2.73,2.73,0,0,1,3.27.26c.94.7,3,2.6,1.72,5.13-3,6.06-7.55,11-14.15,15.62l-.06,0c-.13.09-.46.31-.89.57s-1.07.61-1.53.83a3.48,3.48,0,0,1-4.34-.88,3.52,3.52,0,0,1-.39-4.91c4.89-5.29,10.19-10.91,15.74-16.18A3.5,3.5,0,0,1,1511.46,281.84Z"/><path class="cls-4" d="M1457.75,318c6.49-3.35,12.91-6.4,19.09-9.06,2.59-1.12,5-.27,6,2.16,1.33,3-1,5.09-2.58,6.13a53.27,53.27,0,0,0-8.14,3.83c-3.5,1.9-6.81,3.7-10.55,4.33-2.57.44-4.08-.29-5.23-2.5a3.84,3.84,0,0,1,1.2-4.8Z"/><path class="cls-4" d="M1516.56,250.73c1.25-.75,3.55-.67,4.56.55,3.52,4.31,4.1,9.33,1.81,15.82a2.07,2.07,0,0,1-.91,1,4.24,4.24,0,0,1-1.89.57c-1.06.07-2.1-.26-4.1-2.11-1.52-4.81-2.48-9.95-.12-15.16A1.62,1.62,0,0,1,1516.56,250.73Z"/><path class="cls-4" d="M1371,376.06a4.29,4.29,0,0,1,2.12-.6A3,3,0,0,1,1376,377a22.33,22.33,0,0,1,2.53,13.77,2.56,2.56,0,0,1-1.2,1.94,3.14,3.14,0,0,1-.77.33c-1.34.38-2.85.53-5.27-2-2.59-3.54-3.22-8.32-1.73-13.16A3.26,3.26,0,0,1,1371,376.06Z"/><path class="cls-4" d="M1632.72,627.75a3.74,3.74,0,0,1,3.2.06,2.09,2.09,0,0,1,1.31,1.27,69.59,69.59,0,0,1,.81,8.59c.07,1.29.14,2.59.23,3.87l.14,1.81,1.72.58c1.14.39,2.26.75,3.38,1.12,2.57.84,5,1.63,7.36,2.58.34.14,1.06.44,1.09,2.93a3.6,3.6,0,0,1-2.07,3.4l-.72.39c-1,.48-2.49.28-4.08.07-2.3-.31-4.91-.66-7.34.81a7.56,7.56,0,0,0-1.89,1.65,18.73,18.73,0,0,0-3.07,6.56,20.49,20.49,0,0,1-1.61,4.1,2,2,0,0,1-.69.71,4.19,4.19,0,0,1-3.36,0,2.92,2.92,0,0,1-2.22-2.42,14.22,14.22,0,0,1-.16-4c.6-3.28.17-6-1.28-8s-4.07-3.46-7.75-4c-4.72-.72-5.09-2.56-5-4.38a3.49,3.49,0,0,1,1.68-3.15,7.75,7.75,0,0,1,4.7-.74c3.39.31,5.9-.1,7.91-1.32,3.24-2,4.28-5.59,4.82-8.53.11-.64.68-1.81,2.69-3.75A1.5,1.5,0,0,1,1632.72,627.75Z"/><path class="cls-4" d="M1624.49,578.43a51.58,51.58,0,0,1,10.92-4.79c1.84-.6,2.93.89,3.42,1.82.71,1.37,1.33,3.21.23,4.2a68,68,0,0,1-6.94,5.23l-1.21.84,0,0-2,1.44c-1,.69-1.88,1.41-2.82,2.13a60.41,60.41,0,0,1-5.49,3.9c-.21.13-.42.26-.64.38-1.81,1-3.52.55-5.1-1.41a3.34,3.34,0,0,1-.16-4.3A29.24,29.24,0,0,1,1624.49,578.43Z"/><path class="cls-4" d="M1656.31,562.63c1.2-.43,2.54-.93,4-1.47,4.19-1.56,9.41-3.49,14.63-5.12a3.06,3.06,0,0,1,2.43.28,3.58,3.58,0,0,1,1.73,2.17c.3,1.12.78,3.84-1.15,5a2.75,2.75,0,0,1-.38.2c-6.92,3.14-14.13,5.79-20.93,8.23-.81.29-3,1.07-4.82-2.24C1650.37,567.12,1653.4,564.46,1656.31,562.63Z"/><path class="cls-4" d="M1747.32,511.9a2.75,2.75,0,0,1,3.28.25c.94.71,3,2.61,1.71,5.14-3,6.06-7.55,11-14.14,15.62l-.06,0c-.14.09-.46.31-.9.57a17.21,17.21,0,0,1-1.53.83c-1.62.75-2.91.49-4.33-.88a3.53,3.53,0,0,1-.4-4.91c4.9-5.29,10.19-10.91,15.74-16.18A3.5,3.5,0,0,1,1747.32,511.9Z"/><path class="cls-4" d="M1693.61,548c6.49-3.35,12.92-6.4,19.09-9.06,2.6-1.12,5-.27,6,2.16,1.32,3-1,5.09-2.59,6.13a52.23,52.23,0,0,0-8.13,3.83c-3.51,1.9-6.82,3.7-10.55,4.33-2.58.44-4.09-.29-5.23-2.5a3.82,3.82,0,0,1,1.2-4.8Z"/><path class="cls-4" d="M1752.43,480.79c1.24-.75,3.55-.67,4.55.55,3.53,4.31,4.1,9.33,1.82,15.82a2,2,0,0,1-.92,1,4.23,4.23,0,0,1-1.88.57c-1.07.07-2.1-.26-4.11-2.11-1.51-4.81-2.48-9.95-.11-15.17A1.54,1.54,0,0,1,1752.43,480.79Z"/><path class="cls-4" d="M1606.86,606.12a4.29,4.29,0,0,1,2.12-.6,3,3,0,0,1,2.84,1.53,22.3,22.3,0,0,1,2.53,13.78,2.54,2.54,0,0,1-1.2,1.94,3,3,0,0,1-.77.33c-1.34.38-2.84.53-5.26-2-2.59-3.54-3.23-8.32-1.74-13.16A3.26,3.26,0,0,1,1606.86,606.12Z"/><path class="cls-4" d="M1868.59,857.81a3.74,3.74,0,0,1,3.2.06,2.12,2.12,0,0,1,1.31,1.27,71.61,71.61,0,0,1,.8,8.58c.07,1.3.14,2.6.24,3.88l.14,1.81,1.72.58c1.13.39,2.26.75,3.37,1.12,2.58.84,5,1.63,7.37,2.58.34.14,1,.43,1.08,2.93a3.58,3.58,0,0,1-2.07,3.4c-.23.13-.47.26-.72.38-1,.49-2.49.29-4.07.08-2.3-.31-4.91-.66-7.35.81a7.56,7.56,0,0,0-1.89,1.65,18.91,18.91,0,0,0-3.07,6.56,19.91,19.91,0,0,1-1.61,4.1,1.94,1.94,0,0,1-.68.71,4.19,4.19,0,0,1-3.36,0,2.94,2.94,0,0,1-2.23-2.42,14.61,14.61,0,0,1-.16-4c.6-3.28.17-6-1.28-8s-4.06-3.46-7.75-4c-4.72-.72-5.08-2.56-5-4.38a3.5,3.5,0,0,1,1.68-3.15,7.77,7.77,0,0,1,4.7-.74c3.39.31,5.91-.1,7.91-1.32,3.25-2,4.28-5.59,4.82-8.53.12-.64.68-1.81,2.7-3.75A1,1,0,0,1,1868.59,857.81Z"/><path class="cls-4" d="M1860.35,808.49a51.68,51.68,0,0,1,10.93-4.79c1.84-.6,2.93.88,3.41,1.82.72,1.37,1.33,3.21.24,4.2A69.11,69.11,0,0,1,1868,815l-1.21.84,0,0-2,1.44c-1,.69-1.89,1.41-2.83,2.13a63.85,63.85,0,0,1-5.48,3.9l-.65.38c-1.8,1-3.52.55-5.09-1.41a3.34,3.34,0,0,1-.16-4.3A29.21,29.21,0,0,1,1860.35,808.49Z"/><path class="cls-4" d="M1892.17,792.69l4-1.47c4.19-1.56,9.4-3.5,14.63-5.12a3,3,0,0,1,2.42.28,3.63,3.63,0,0,1,1.74,2.17c.29,1.12.78,3.84-1.16,5a2.28,2.28,0,0,1-.38.2c-6.91,3.14-14.13,5.79-20.92,8.23-.81.29-3,1.07-4.82-2.25C1886.23,797.18,1889.26,794.52,1892.17,792.69Z"/><path class="cls-4" d="M1983.19,742a2.74,2.74,0,0,1,3.27.25c.94.7,3,2.61,1.71,5.14-3.05,6.06-7.54,11-14.14,15.62l-.06,0c-.13.09-.46.31-.89.57a17.29,17.29,0,0,1-1.54.83c-1.61.75-2.91.48-4.33-.88a3.53,3.53,0,0,1-.4-4.91c4.9-5.29,10.19-10.91,15.75-16.18A3.18,3.18,0,0,1,1983.19,742Z"/><path class="cls-4" d="M1929.47,778.09c6.5-3.35,12.92-6.4,19.1-9.06,2.59-1.12,5-.27,6,2.16,1.33,3-.95,5.09-2.58,6.13a52.34,52.34,0,0,0-8.14,3.83c-3.51,1.9-6.82,3.7-10.55,4.33-2.57.44-4.09-.29-5.23-2.5a3.82,3.82,0,0,1,1.2-4.8Z"/><path class="cls-4" d="M1842.73,836.17a4.35,4.35,0,0,1,2.11-.59,3,3,0,0,1,2.85,1.53,22.44,22.44,0,0,1,2.53,13.78,2.58,2.58,0,0,1-1.21,1.94,2.91,2.91,0,0,1-.76.33c-1.34.37-2.85.53-5.27-1.95-2.59-3.54-3.22-8.32-1.74-13.17A3.39,3.39,0,0,1,1842.73,836.17Z"/><path class="cls-4" d="M1661.07,126a3.77,3.77,0,0,1,3.2.06,2.12,2.12,0,0,1,1.31,1.27,71.78,71.78,0,0,1,.8,8.59c.07,1.3.14,2.59.24,3.87l.14,1.81,1.72.59,3.38,1.11c2.57.84,5,1.63,7.36,2.59.34.14,1.06.43,1.08,2.93a3.57,3.57,0,0,1-2.07,3.39,8.06,8.06,0,0,1-.71.39c-1,.48-2.49.28-4.08.07-2.3-.31-4.91-.66-7.35.82a7.28,7.28,0,0,0-1.88,1.64,18.72,18.72,0,0,0-3.08,6.57,20.14,20.14,0,0,1-1.61,4.1,2,2,0,0,1-.68.71,4.23,4.23,0,0,1-3.36,0,3,3,0,0,1-2.23-2.43,14.59,14.59,0,0,1-.16-4c.6-3.28.17-6-1.28-8s-4.06-3.47-7.75-4c-4.72-.72-5.08-2.56-5-4.37a3.52,3.52,0,0,1,1.68-3.16,7.84,7.84,0,0,1,4.7-.74c3.39.32,5.91-.1,7.91-1.31,3.25-2,4.28-5.6,4.82-8.54.12-.64.68-1.8,2.7-3.75A1.26,1.26,0,0,1,1661.07,126Z"/><path class="cls-4" d="M1652.83,76.69a52.43,52.43,0,0,1,10.93-4.79c1.84-.59,2.93.89,3.42,1.83.71,1.36,1.32,3.2.23,4.19a68.05,68.05,0,0,1-6.94,5.24c-.4.28-.81.55-1.21.84l0,0-2,1.44q-1.42,1-2.82,2.13a62,62,0,0,1-5.49,3.91l-.64.37c-1.81,1-3.53.55-5.1-1.41a3.34,3.34,0,0,1-.16-4.3A29.3,29.3,0,0,1,1652.83,76.69Z"/><path class="cls-4" d="M1684.65,60.89c1.2-.43,2.54-.93,4-1.47,4.19-1.55,9.4-3.49,14.63-5.11a3,3,0,0,1,2.42.27,3.63,3.63,0,0,1,1.74,2.17c.3,1.12.78,3.85-1.16,5a3.39,3.39,0,0,1-.38.2c-6.91,3.13-14.12,5.78-20.92,8.22-.81.3-3,1.07-4.82-2.24C1678.71,65.39,1681.74,62.72,1684.65,60.89Z"/><path class="cls-4" d="M1775.67,10.16a2.74,2.74,0,0,1,3.27.26c.94.7,3,2.6,1.72,5.14-3.06,6-7.55,11-14.15,15.61l-.06,0c-.13.09-.46.31-.89.57a16.1,16.1,0,0,1-1.53.83,3.48,3.48,0,0,1-4.34-.88,3.52,3.52,0,0,1-.39-4.91c4.89-5.29,10.19-10.91,15.74-16.17A3.24,3.24,0,0,1,1775.67,10.16Z"/><path class="cls-4" d="M1722,46.29c6.5-3.35,12.92-6.39,19.1-9.06,2.59-1.12,5-.27,6,2.17,1.33,3-.95,5.08-2.58,6.13a52.31,52.31,0,0,0-8.14,3.82c-3.51,1.9-6.82,3.7-10.55,4.33-2.57.44-4.09-.29-5.23-2.5a3.81,3.81,0,0,1,1.2-4.79Z"/><path class="cls-4" d="M1635.21,104.38a4.26,4.26,0,0,1,2.12-.6,3,3,0,0,1,2.84,1.54,22.34,22.34,0,0,1,2.53,13.77,2.56,2.56,0,0,1-1.2,1.94,3.14,3.14,0,0,1-.77.33c-1.34.38-2.85.54-5.27-2-2.59-3.53-3.22-8.32-1.73-13.16A3.3,3.3,0,0,1,1635.21,104.38Z"/><path class="cls-4" d="M1896.93,356.07a3.77,3.77,0,0,1,3.2.06,2.12,2.12,0,0,1,1.31,1.27,69.78,69.78,0,0,1,.81,8.59c.07,1.3.14,2.59.23,3.87l.14,1.81,1.72.59,3.38,1.11c2.57.84,5,1.63,7.36,2.59.34.14,1.06.43,1.09,2.93a3.6,3.6,0,0,1-2.07,3.39q-.35.21-.72.39c-1,.48-2.49.28-4.08.07-2.3-.31-4.91-.66-7.34.81a7.39,7.39,0,0,0-1.89,1.65,18.56,18.56,0,0,0-3.07,6.56,20.84,20.84,0,0,1-1.61,4.11,2,2,0,0,1-.69.71,4.23,4.23,0,0,1-3.36,0,2.93,2.93,0,0,1-2.22-2.43,14.21,14.21,0,0,1-.16-4c.6-3.28.17-6-1.29-8s-4.06-3.47-7.74-4c-4.73-.72-5.09-2.56-5-4.37a3.5,3.5,0,0,1,1.68-3.16,7.83,7.83,0,0,1,4.7-.74c3.39.32,5.9-.1,7.91-1.31,3.24-2,4.28-5.6,4.82-8.54.11-.64.68-1.8,2.69-3.75A1.64,1.64,0,0,1,1896.93,356.07Z"/><path class="cls-4" d="M1888.7,306.75a52.1,52.1,0,0,1,10.92-4.79c1.84-.59,2.93.89,3.42,1.83.71,1.36,1.33,3.2.23,4.19a69.54,69.54,0,0,1-6.94,5.24l-1.21.84,0,0-2,1.44c-.95.69-1.89,1.41-2.82,2.13a60.56,60.56,0,0,1-5.49,3.91l-.64.37c-1.81,1-3.52.55-5.1-1.41a3.34,3.34,0,0,1-.16-4.3A29.24,29.24,0,0,1,1888.7,306.75Z"/><path class="cls-4" d="M1920.51,291c1.21-.43,2.55-.93,4-1.47,4.19-1.55,9.41-3.49,14.63-5.12a3.11,3.11,0,0,1,2.43.28,3.58,3.58,0,0,1,1.73,2.17c.3,1.12.78,3.85-1.15,5l-.38.2c-6.92,3.13-14.13,5.78-20.93,8.22-.81.29-3,1.07-4.82-2.24C1914.58,295.44,1917.61,292.78,1920.51,291Z"/><path class="cls-4" d="M1957.82,276.35c6.49-3.35,12.91-6.4,19.09-9.06,2.6-1.12,5-.27,6,2.17,1.33,3-.94,5.08-2.58,6.13a52.74,52.74,0,0,0-8.14,3.82c-3.5,1.9-6.81,3.7-10.54,4.33-2.58.44-4.09-.29-5.24-2.5a3.83,3.83,0,0,1,1.2-4.79Z"/><path class="cls-4" d="M1871.07,334.44a4.29,4.29,0,0,1,2.12-.6,3,3,0,0,1,2.84,1.54,22.27,22.27,0,0,1,2.53,13.77,2.54,2.54,0,0,1-1.2,1.94,3.14,3.14,0,0,1-.77.33c-1.34.38-2.85.53-5.26-1.95-2.59-3.53-3.23-8.32-1.74-13.16A3.3,3.3,0,0,1,1871.07,334.44Z"/><path class="cls-4" d="M1888.1,1028.07s26.42-17.82,45.63,5h-16l-2.8-2.8-1,2.8-3-2.4-1.8,2.4H1896.3l-4-3v3l-4.2,1.2s51.83-2.4,60.64,51.63l-12.3-9.74-1-5a37,37,0,0,1-2.81,3.06c.12-.37-2.57-6-2.57-6l-1.71,1.59-12.83-14.67-4.16-7.21-1.34,5.74-4.16-7.21-3.91-1.83-.48,1-5.5-2.69-5.38.85s31.29,15.16,37.64,58.06c0,0,1.71,16-6.35,29.45l-10-25.91,2.33-6-3.79,2.08-.49-6.23-1.71,1.59v-7.09l-1.84.85s-4-20.41-16.62-33.85c0,0,17.85,39.6-4.76,75.41l2.44-22.74L1885,1111l2.2-9.41-2.2,1.1,1.13-6-2.94,1s8.53-28.32,0-43.72c0,0-34.38,59.11-34,141h-15.4s6.23-95,44-142.62l-3.45,2.09-.37-1.75-9.31,12.18-.37-6.09s-10.34,14.3-10.43,14-2-3-2-3l-1.47,6.64-2.59-1.84-21.21,30.44-1-2.12-1,5.25-7.2,8.77s.14-56.57,54-67c0,0-10.17.73-12.92,1.65s-12,5-12,5l-1-2.48-1.65,2.66-1.92-1.47-.92,4.5-3.48-2.57-1.29,5a36.25,36.25,0,0,0-17.69,10.08l-3-1.37v3.3l-2.84-1.29v2.39l-10.73,9.62s-5.87-24.1,33.09-38.5c0,0,18.88-7.24,34.37-7.51,0,0-11.82-1.83-18.51-1.65l.46-3.3-2.48,3.76-1.19-4.13-2.75,5.14-.83-3-.82,1.93s-16.32,2.2-26.31,5.86l-2-3-1.56,4.4-3.85-1.38-.73,3s-15.5,7-21.45,12c0,0,5.4-27.59,43.63-32.63,0,0,25.75-3.48,43,9.72,0,0-4.13-6.14-7.52-8.71l.37-3.57a37.44,37.44,0,0,1-3.67,2.56c.09-.27-.37-4.57-.37-4.57l-4.76,2.19-.92-3.3s-14.12-4.86-22.91-5.22l-2.11,1.28-2.29-4.31-2.3,2.84s-13.1,1.47-22.64,7.15c0,0,8.16-21.91,42.44-17.78,0,0,26.22,3.48,36.76,26.67,0,0-1.56-11.46-11.18-18.6l1.22-1.65-3.3.06,2.08-2.33-4.22,1.29s-4.95-5.75-9.72-8.13c0,0,14.43-4.77,24.81,10.51A31.87,31.87,0,0,1,1888.1,1028.07Z"/></g></g></g></svg>