<svg xmlns="http://www.w3.org/2000/svg" xmlns:xlink="http://www.w3.org/1999/xlink" viewBox="0 0 1962.29 1127.2"><defs><style>.cls-1{fill:none;}.cls-2{fill:#502a1d;}.cls-3{clip-path:url(#clip-path);}.cls-4{fill:#efd39c;}</style><clipPath id="clip-path"><rect class="cls-1" x="10.1" width="1942.08" height="1127.2"/></clipPath></defs><g id="Capa_2" data-name="Capa 2"><g id="Capa_1-2" data-name="Capa 1"><rect class="cls-2" y="0.36" width="1962.29" height="1126.48"/><g class="cls-3"><path class="cls-4" d="M422.38,478a4.11,4.11,0,0,1,3.51.06,2.35,2.35,0,0,1,1.44,1.4,77,77,0,0,1,.88,9.42c.08,1.42.15,2.84.26,4.25l.15,2,1.89.64,3.71,1.22c2.82.92,5.49,1.79,8.07,2.84.38.15,1.17.47,1.19,3.21a3.94,3.94,0,0,1-2.27,3.73q-.37.23-.78.42c-1.09.53-2.73.31-4.48.08-2.52-.34-5.38-.72-8.06.89a8.43,8.43,0,0,0-2.07,1.81,20.69,20.69,0,0,0-3.37,7.2,22.58,22.58,0,0,1-1.76,4.5,2.19,2.19,0,0,1-.76.78,4.62,4.62,0,0,1-3.68,0,3.23,3.23,0,0,1-2.44-2.66,16,16,0,0,1-.18-4.41c.66-3.6.19-6.55-1.41-8.79s-4.45-3.8-8.5-4.42c-5.18-.8-5.57-2.81-5.54-4.81A3.85,3.85,0,0,1,400,494a8.59,8.59,0,0,1,5.15-.81c3.72.35,6.48-.11,8.68-1.44,3.56-2.16,4.7-6.14,5.29-9.37.13-.7.74-2,3-4.12A1.89,1.89,0,0,1,422.38,478Z"/><path class="cls-4" d="M413.35,423.89a56.61,56.61,0,0,1,12-5.25c2-.66,3.22,1,3.75,2,.78,1.5,1.46,3.52.26,4.6a75.06,75.06,0,0,1-7.62,5.74l-1.32.93,0,0-2.18,1.58c-1.05.76-2.07,1.55-3.1,2.33a66.37,66.37,0,0,1-6,4.29l-.7.41c-2,1.13-3.87.61-5.6-1.54a3.67,3.67,0,0,1-.17-4.72A32,32,0,0,1,413.35,423.89Z"/><path class="cls-4" d="M448.26,406.56l4.37-1.61c4.6-1.71,10.32-3.84,16.05-5.62a3.37,3.37,0,0,1,2.67.3,4,4,0,0,1,1.9,2.39c.33,1.22.85,4.21-1.27,5.5a4.13,4.13,0,0,1-.42.22c-7.58,3.44-15.5,6.34-22.95,9-.89.32-3.26,1.17-5.29-2.46C441.74,411.49,445.07,408.57,448.26,406.56Z"/><path class="cls-4" d="M548.12,350.89a3,3,0,0,1,3.6.28c1,.77,3.28,2.86,1.88,5.64-3.35,6.65-8.29,12.09-15.52,17.14l-.07,0c-.14.1-.5.34-1,.63s-1.17.67-1.68.91c-1.78.82-3.2.53-4.75-1a3.86,3.86,0,0,1-.44-5.39c5.37-5.8,11.18-12,17.27-17.75A4.88,4.88,0,0,1,548.12,350.89Z"/><path class="cls-4" d="M489.19,390.54c7.12-3.68,14.17-7,20.95-10,2.85-1.22,5.45-.29,6.63,2.38,1.45,3.3-1,5.58-2.84,6.73a57.38,57.38,0,0,0-8.92,4.19c-3.85,2.09-7.48,4.06-11.58,4.76-2.82.48-4.48-.32-5.74-2.75a4.19,4.19,0,0,1,1.32-5.26Z"/><path class="cls-4" d="M553.72,316.76c1.37-.82,3.9-.74,5,.61,3.87,4.72,4.5,10.23,2,17.35a2.26,2.26,0,0,1-1,1.11,4.57,4.57,0,0,1-2.07.62c-1.17.08-2.3-.28-4.5-2.31-1.67-5.28-2.73-10.92-.13-16.64A1.78,1.78,0,0,1,553.72,316.76Z"/><path class="cls-4" d="M394,454.27a4.71,4.71,0,0,1,2.32-.65,3.28,3.28,0,0,1,3.12,1.68,24.49,24.49,0,0,1,2.77,15.12,2.8,2.8,0,0,1-1.31,2.13,3.23,3.23,0,0,1-.85.35c-1.47.42-3.12.59-5.77-2.14-2.85-3.87-3.54-9.12-1.91-14.44A3.66,3.66,0,0,1,394,454.27Z"/><path class="cls-4" d="M681.18,730.44a4.11,4.11,0,0,1,3.51.06,2.32,2.32,0,0,1,1.44,1.4,79.07,79.07,0,0,1,.88,9.42c.08,1.42.15,2.84.26,4.25l.15,2,1.89.64c1.24.43,2.48.83,3.7,1.23,2.83.92,5.49,1.78,8.08,2.84.38.15,1.16.47,1.19,3.21a3.91,3.91,0,0,1-2.27,3.72c-.25.15-.51.3-.78.43-1.09.53-2.74.31-4.48.08-2.52-.34-5.39-.73-8.06.89a8.05,8.05,0,0,0-2.07,1.81,20.69,20.69,0,0,0-3.37,7.2,22.57,22.57,0,0,1-1.77,4.5,2.08,2.08,0,0,1-.75.78,4.61,4.61,0,0,1-3.69,0,3.23,3.23,0,0,1-2.44-2.65,16,16,0,0,1-.17-4.41c.66-3.6.18-6.56-1.41-8.79s-4.46-3.8-8.5-4.43c-5.18-.79-5.58-2.81-5.54-4.8a3.85,3.85,0,0,1,1.84-3.46,8.48,8.48,0,0,1,5.16-.81c3.72.34,6.48-.11,8.68-1.44,3.56-2.16,4.69-6.14,5.29-9.37.12-.7.74-2,3-4.12A1.18,1.18,0,0,1,681.18,730.44Z"/><path class="cls-4" d="M672.14,676.32a56.94,56.94,0,0,1,12-5.25c2-.66,3.22,1,3.75,2,.78,1.5,1.46,3.52.25,4.6a75.27,75.27,0,0,1-7.61,5.74l-1.33.92,0,0L677,685.88c-1.05.76-2.07,1.55-3.1,2.33a66.37,66.37,0,0,1-6,4.29l-.71.41c-2,1.13-3.86.61-5.59-1.55a3.64,3.64,0,0,1-.17-4.71A32,32,0,0,1,672.14,676.32Z"/><path class="cls-4" d="M707.05,659l4.38-1.62c4.6-1.7,10.32-3.83,16.05-5.61a3.34,3.34,0,0,1,2.66.3,4,4,0,0,1,1.91,2.38c.32,1.23.85,4.22-1.27,5.5a2.78,2.78,0,0,1-.42.22c-7.58,3.45-15.5,6.35-23,9-.89.32-3.26,1.17-5.29-2.46C700.54,663.91,703.86,661,707.05,659Z"/><path class="cls-4" d="M806.92,603.32a3,3,0,0,1,3.59.28c1,.77,3.28,2.86,1.88,5.64-3.35,6.64-8.28,12.09-15.52,17.14l-.06,0c-.15.1-.51.34-1,.63a17.92,17.92,0,0,1-1.68.9c-1.78.83-3.2.54-4.76-1a3.87,3.87,0,0,1-.43-5.39c5.37-5.8,11.18-12,17.27-17.75A3.84,3.84,0,0,1,806.92,603.32Z"/><path class="cls-4" d="M748,643c7.13-3.68,14.18-7,21-10,2.84-1.22,5.44-.29,6.62,2.38,1.46,3.29-1,5.58-2.83,6.73a57.49,57.49,0,0,0-8.93,4.19c-3.84,2.09-7.48,4.06-11.57,4.76-2.82.47-4.49-.32-5.74-2.75a4.2,4.2,0,0,1,1.31-5.26Z"/><path class="cls-4" d="M812.52,569.19c1.36-.82,3.9-.74,5,.61,3.87,4.72,4.5,10.23,2,17.35a2.29,2.29,0,0,1-1,1.11,4.88,4.88,0,0,1-2.07.62c-1.17.08-2.31-.28-4.51-2.32-1.66-5.27-2.72-10.91-.12-16.63A1.67,1.67,0,0,1,812.52,569.19Z"/><path class="cls-4" d="M652.8,706.7a4.87,4.87,0,0,1,2.33-.66,3.3,3.3,0,0,1,3.12,1.69A24.56,24.56,0,0,1,661,722.85,2.78,2.78,0,0,1,659.7,725a3.18,3.18,0,0,1-.84.36c-1.47.42-3.12.59-5.78-2.14-2.84-3.87-3.53-9.13-1.9-14.44A3.57,3.57,0,0,1,652.8,706.7Z"/><path class="cls-4" d="M940,982.86a4.17,4.17,0,0,1,3.52.07,2.3,2.3,0,0,1,1.43,1.4,77,77,0,0,1,.89,9.42c.07,1.42.15,2.84.26,4.25l.15,2,1.88.64,3.71,1.23c2.82.92,5.49,1.78,8.08,2.83.37.16,1.16.48,1.19,3.22a3.91,3.91,0,0,1-2.27,3.72c-.25.15-.51.29-.79.43-1.09.53-2.73.31-4.47.07-2.53-.33-5.39-.72-8.06.9a8.05,8.05,0,0,0-2.07,1.81,20.43,20.43,0,0,0-3.37,7.2,22.57,22.57,0,0,1-1.77,4.5,2.16,2.16,0,0,1-.75.78,4.65,4.65,0,0,1-3.69,0,3.22,3.22,0,0,1-2.44-2.66,15.5,15.5,0,0,1-.17-4.4c.65-3.6.18-6.56-1.41-8.79s-4.46-3.81-8.5-4.43c-5.19-.79-5.58-2.81-5.54-4.8a3.83,3.83,0,0,1,1.84-3.46,8.53,8.53,0,0,1,5.16-.82c3.72.35,6.48-.11,8.68-1.44,3.55-2.15,4.69-6.13,5.28-9.37.13-.69.75-2,3-4.11A1.94,1.94,0,0,1,940,982.86Z"/><path class="cls-4" d="M930.94,928.75a57,57,0,0,1,12-5.26c2-.65,3.21,1,3.75,2,.78,1.51,1.45,3.52.25,4.61a76.41,76.41,0,0,1-7.61,5.74l-1.33.92,0,0-2.18,1.59c-1,.76-2.07,1.54-3.09,2.33a67.91,67.91,0,0,1-6,4.29c-.23.14-.46.28-.7.41-2,1.13-3.87.61-5.59-1.55a3.64,3.64,0,0,1-.18-4.71A32,32,0,0,1,930.94,928.75Z"/><path class="cls-4" d="M965.85,911.41c1.32-.47,2.79-1,4.37-1.61,4.6-1.71,10.33-3.83,16.06-5.61a3.35,3.35,0,0,1,2.66.3,3.94,3.94,0,0,1,1.9,2.38c.33,1.23.86,4.22-1.26,5.5l-.42.22c-7.59,3.44-15.5,6.35-23,9-.89.32-3.26,1.17-5.29-2.46C959.34,916.34,962.66,913.42,965.85,911.41Z"/><path class="cls-4" d="M1065.72,855.75a3,3,0,0,1,3.59.28c1,.77,3.28,2.86,1.88,5.64-3.35,6.64-8.28,12.09-15.52,17.13l-.07.05c-.14.1-.5.34-1,.62a15.94,15.94,0,0,1-1.68.91c-1.77.83-3.19.54-4.75-1a3.86,3.86,0,0,1-.44-5.39c5.37-5.81,11.18-12,17.27-17.75A3.8,3.8,0,0,1,1065.72,855.75Z"/><path class="cls-4" d="M1006.78,895.4c7.12-3.68,14.17-7,21-9.95,2.85-1.23,5.45-.29,6.63,2.38,1.46,3.29-1,5.58-2.83,6.72a58.47,58.47,0,0,0-8.93,4.2c-3.85,2.09-7.48,4.06-11.58,4.75-2.82.48-4.48-.31-5.73-2.74a4.19,4.19,0,0,1,1.31-5.26Z"/><path class="cls-4" d="M1071.32,821.62c1.36-.83,3.89-.74,5,.6,3.86,4.72,4.5,10.24,2,17.35a2.28,2.28,0,0,1-1,1.12,4.83,4.83,0,0,1-2.07.62c-1.16.08-2.3-.29-4.5-2.32-1.66-5.27-2.72-10.92-.13-16.63A1.75,1.75,0,0,1,1071.32,821.62Z"/><path class="cls-4" d="M911.6,959.13a4.75,4.75,0,0,1,2.32-.66,3.29,3.29,0,0,1,3.12,1.69,24.46,24.46,0,0,1,2.78,15.11,2.8,2.8,0,0,1-1.32,2.13,3.55,3.55,0,0,1-.84.36c-1.47.42-3.13.59-5.78-2.14-2.84-3.88-3.54-9.13-1.91-14.44A3.63,3.63,0,0,1,911.6,959.13Z"/><path class="cls-4" d="M1324.51,1108.18a3,3,0,0,1,3.6.28c1,.77,3.28,2.86,1.88,5.64-3.35,6.64-8.28,12.09-15.52,17.13l-.07,0c-.14.09-.5.33-1,.62a17,17,0,0,1-1.68.91c-1.78.82-3.2.54-4.75-1a3.85,3.85,0,0,1-.44-5.38c5.37-5.81,11.18-12,17.27-17.75A3.74,3.74,0,0,1,1324.51,1108.18Z"/><path class="cls-4" d="M1330.11,1074.05c1.37-.83,3.9-.74,5,.6,3.87,4.72,4.5,10.24,2,17.35a2.33,2.33,0,0,1-1,1.12,4.83,4.83,0,0,1-2.07.62c-1.17.08-2.3-.29-4.5-2.32-1.67-5.28-2.73-10.92-.13-16.63A1.73,1.73,0,0,1,1330.11,1074.05Z"/><path class="cls-4" d="M198.31,199.49a4.15,4.15,0,0,1,3.51.07,2.31,2.31,0,0,1,1.44,1.39,77.41,77.41,0,0,1,.88,9.42c.08,1.43.15,2.85.26,4.25l.15,2,1.89.64c1.24.42,2.48.83,3.71,1.22,2.82.92,5.48,1.79,8.07,2.84.38.16,1.16.47,1.19,3.21a3.94,3.94,0,0,1-2.27,3.73c-.25.15-.51.29-.78.43-1.09.53-2.74.31-4.48.07-2.52-.34-5.38-.72-8.06.9a8.18,8.18,0,0,0-2.07,1.8,20.65,20.65,0,0,0-3.37,7.21,22.82,22.82,0,0,1-1.77,4.5,2.06,2.06,0,0,1-.75.77,4.6,4.6,0,0,1-3.69,0,3.22,3.22,0,0,1-2.43-2.66,15.53,15.53,0,0,1-.18-4.4c.66-3.6.18-6.56-1.41-8.8s-4.46-3.8-8.5-4.42c-5.18-.79-5.58-2.81-5.54-4.8a3.88,3.88,0,0,1,1.84-3.47,8.62,8.62,0,0,1,5.16-.81c3.72.35,6.48-.11,8.68-1.44,3.56-2.15,4.69-6.14,5.29-9.37.13-.7.74-2,3-4.11A1.15,1.15,0,0,1,198.31,199.49Z"/><path class="cls-4" d="M189.28,145.38a57.11,57.11,0,0,1,12-5.26c2-.65,3.22,1,3.75,2,.78,1.5,1.46,3.52.26,4.6a75.12,75.12,0,0,1-7.62,5.75l-1.33.92,0,0-2.18,1.59c-1.05.75-2.07,1.54-3.1,2.33a66.37,66.37,0,0,1-6,4.29l-.71.41c-2,1.12-3.86.6-5.59-1.55a3.66,3.66,0,0,1-.17-4.72A31.91,31.91,0,0,1,189.28,145.38Z"/><path class="cls-4" d="M224.18,128c1.32-.47,2.79-1,4.38-1.61,4.6-1.71,10.32-3.83,16.05-5.62a3.38,3.38,0,0,1,2.66.31,3.92,3.92,0,0,1,1.91,2.38c.32,1.23.85,4.22-1.27,5.5a4.13,4.13,0,0,1-.42.22c-7.58,3.44-15.5,6.35-23,9-.89.32-3.25,1.17-5.29-2.47C217.67,133,221,130.05,224.18,128Z"/><path class="cls-4" d="M324.05,72.38a3,3,0,0,1,3.6.28c1,.77,3.27,2.86,1.87,5.64-3.34,6.64-8.28,12.09-15.52,17.13l-.06,0c-.15.09-.51.34-1,.62a18.2,18.2,0,0,1-1.68.91c-1.78.83-3.2.54-4.76-1a3.87,3.87,0,0,1-.43-5.39c5.37-5.81,11.18-12,17.27-17.75A3.74,3.74,0,0,1,324.05,72.38Z"/><path class="cls-4" d="M265.12,112c7.12-3.67,14.17-7,20.95-9.94,2.84-1.23,5.45-.29,6.63,2.38,1.45,3.29-1,5.58-2.84,6.72a57.53,57.53,0,0,0-8.93,4.2c-3.84,2.09-7.48,4.06-11.57,4.75-2.82.48-4.49-.32-5.74-2.74a4.21,4.21,0,0,1,1.32-5.27Z"/><path class="cls-4" d="M329.65,38.25c1.36-.83,3.9-.74,5,.6,3.87,4.72,4.5,10.24,2,17.35a2.31,2.31,0,0,1-1,1.12,4.88,4.88,0,0,1-2.07.62c-1.17.08-2.31-.29-4.51-2.32-1.66-5.27-2.72-10.92-.12-16.63A1.67,1.67,0,0,1,329.65,38.25Z"/><path class="cls-4" d="M169.93,175.76a4.76,4.76,0,0,1,2.33-.66,3.29,3.29,0,0,1,3.12,1.69,24.46,24.46,0,0,1,2.77,15.11,2.78,2.78,0,0,1-1.32,2.13,3.55,3.55,0,0,1-.84.36c-1.47.41-3.12.59-5.78-2.14-2.84-3.88-3.53-9.13-1.9-14.44A3.57,3.57,0,0,1,169.93,175.76Z"/><path class="cls-4" d="M161.39,709.69a4.08,4.08,0,0,1,3.51.07,2.31,2.31,0,0,1,1.44,1.39,77.22,77.22,0,0,1,.88,9.42c.08,1.43.15,2.85.26,4.25l.15,2,1.89.64,3.71,1.22c2.82.92,5.49,1.79,8.07,2.84.38.15,1.17.47,1.19,3.21a3.94,3.94,0,0,1-2.27,3.73q-.37.22-.78.42c-1.09.53-2.73.31-4.48.08-2.52-.34-5.38-.72-8.06.89a8.43,8.43,0,0,0-2.07,1.81,20.69,20.69,0,0,0-3.37,7.2,22.34,22.34,0,0,1-1.76,4.5,2.19,2.19,0,0,1-.76.78,4.58,4.58,0,0,1-3.68,0,3.23,3.23,0,0,1-2.44-2.66,15.92,15.92,0,0,1-.18-4.4c.66-3.6.19-6.56-1.41-8.8s-4.45-3.8-8.5-4.42c-5.18-.8-5.58-2.81-5.54-4.81a3.85,3.85,0,0,1,1.85-3.46,8.59,8.59,0,0,1,5.15-.81c3.72.35,6.48-.11,8.68-1.44,3.56-2.15,4.7-6.14,5.29-9.37.13-.7.74-2,3-4.12A1.89,1.89,0,0,1,161.39,709.69Z"/><path class="cls-4" d="M152.36,655.58a56.09,56.09,0,0,1,12-5.26c2-.65,3.22,1,3.75,2,.78,1.5,1.46,3.52.26,4.6a75.12,75.12,0,0,1-7.62,5.75l-1.32.92,0,0-2.18,1.58c-1.05.76-2.07,1.55-3.1,2.34a68.24,68.24,0,0,1-6,4.28l-.7.42c-2,1.12-3.87.6-5.6-1.55a3.67,3.67,0,0,1-.17-4.72A31.91,31.91,0,0,1,152.36,655.58Z"/><path class="cls-4" d="M187.27,638.24l4.37-1.61c4.6-1.71,10.32-3.84,16.05-5.62a3.37,3.37,0,0,1,2.67.3,4,4,0,0,1,1.9,2.39c.33,1.22.85,4.21-1.27,5.5a4.13,4.13,0,0,1-.42.22c-7.58,3.44-15.5,6.34-22.95,9-.9.32-3.26,1.17-5.29-2.46C180.75,643.17,184.08,640.25,187.27,638.24Z"/><path class="cls-4" d="M287.13,582.57a3,3,0,0,1,3.6.29c1,.77,3.28,2.86,1.88,5.63-3.35,6.65-8.29,12.09-15.52,17.14l-.07,0c-.14.1-.5.34-1,.63a17,17,0,0,1-1.68.91c-1.78.82-3.2.53-4.75-1a3.86,3.86,0,0,1-.44-5.39c5.37-5.8,11.18-12,17.27-17.74A4.31,4.31,0,0,1,287.13,582.57Z"/><path class="cls-4" d="M228.2,622.22c7.12-3.67,14.17-7,21-9.94,2.85-1.23,5.45-.3,6.63,2.37,1.45,3.3-1,5.58-2.84,6.73a57.42,57.42,0,0,0-8.92,4.2c-3.85,2.08-7.48,4-11.58,4.75-2.82.48-4.48-.32-5.74-2.75a4.19,4.19,0,0,1,1.32-5.26Z"/><path class="cls-4" d="M292.73,548.44c1.37-.82,3.9-.74,5,.61,3.87,4.72,4.5,10.23,2,17.35a2.26,2.26,0,0,1-1,1.11,4.61,4.61,0,0,1-2.07.62c-1.17.09-2.31-.28-4.5-2.31-1.67-5.28-2.73-10.92-.13-16.64A1.78,1.78,0,0,1,292.73,548.44Z"/><path class="cls-4" d="M133,686a4.71,4.71,0,0,1,2.32-.65,3.28,3.28,0,0,1,3.12,1.68,24.49,24.49,0,0,1,2.77,15.12,2.79,2.79,0,0,1-1.31,2.13,3.62,3.62,0,0,1-.85.36c-1.47.41-3.12.58-5.77-2.14-2.85-3.88-3.54-9.13-1.91-14.45A3.66,3.66,0,0,1,133,686Z"/><path class="cls-4" d="M420.19,962.12a4.11,4.11,0,0,1,3.51.06,2.32,2.32,0,0,1,1.44,1.4A79.07,79.07,0,0,1,426,973c.08,1.42.15,2.84.26,4.25l.15,2,1.89.64c1.24.43,2.48.83,3.7,1.23,2.83.92,5.49,1.79,8.08,2.84.38.15,1.16.47,1.19,3.21a3.91,3.91,0,0,1-2.27,3.72,7.37,7.37,0,0,1-.78.43c-1.09.53-2.74.31-4.48.08-2.52-.34-5.39-.72-8.06.89a8.25,8.25,0,0,0-2.07,1.81,20.69,20.69,0,0,0-3.37,7.2,22.57,22.57,0,0,1-1.77,4.5,2.08,2.08,0,0,1-.75.78,4.61,4.61,0,0,1-3.69,0,3.22,3.22,0,0,1-2.44-2.65,16,16,0,0,1-.17-4.41c.66-3.6.18-6.55-1.41-8.79s-4.46-3.8-8.5-4.43c-5.18-.79-5.58-2.8-5.54-4.8a3.86,3.86,0,0,1,1.84-3.46,8.55,8.55,0,0,1,5.16-.81c3.72.34,6.48-.11,8.68-1.44,3.56-2.16,4.69-6.14,5.29-9.37.12-.7.74-2,3-4.12A1.18,1.18,0,0,1,420.19,962.12Z"/><path class="cls-4" d="M411.15,908a56.94,56.94,0,0,1,12-5.25c2-.66,3.21,1,3.75,2,.78,1.5,1.46,3.52.25,4.6a73.81,73.81,0,0,1-7.61,5.74l-1.33.93,0,0L416,917.56c-1.05.76-2.08,1.55-3.1,2.33a66.37,66.37,0,0,1-6,4.29l-.71.41c-2,1.13-3.86.61-5.59-1.55a3.64,3.64,0,0,1-.17-4.71A32,32,0,0,1,411.15,908Z"/><path class="cls-4" d="M446.06,890.67l4.38-1.61c4.6-1.71,10.32-3.84,16.05-5.62a3.34,3.34,0,0,1,2.66.3,4,4,0,0,1,1.91,2.39c.32,1.22.85,4.21-1.27,5.5a2.74,2.74,0,0,1-.42.21c-7.58,3.45-15.5,6.35-23,9-.89.32-3.26,1.17-5.29-2.46C439.55,895.6,442.87,892.68,446.06,890.67Z"/><path class="cls-4" d="M545.93,835a3,3,0,0,1,3.59.28c1,.77,3.28,2.86,1.88,5.64-3.35,6.65-8.28,12.09-15.52,17.14l-.06,0c-.15.1-.51.34-1,.63s-1.17.67-1.68.91c-1.78.82-3.2.53-4.76-1a3.87,3.87,0,0,1-.43-5.39c5.37-5.8,11.18-12,17.27-17.75A4.37,4.37,0,0,1,545.93,835Z"/><path class="cls-4" d="M487,874.65c7.13-3.68,14.18-7,21-9.95,2.84-1.22,5.44-.29,6.62,2.38,1.46,3.3-1,5.58-2.83,6.73a57.49,57.49,0,0,0-8.93,4.19c-3.84,2.09-7.48,4.06-11.57,4.76-2.83.48-4.49-.32-5.74-2.75a4.2,4.2,0,0,1,1.31-5.26Z"/><path class="cls-4" d="M551.53,800.87c1.36-.82,3.9-.74,5,.61,3.87,4.72,4.5,10.23,2,17.35a2.29,2.29,0,0,1-1,1.11,4.61,4.61,0,0,1-2.07.62c-1.17.08-2.31-.28-4.51-2.31-1.66-5.28-2.72-10.92-.12-16.64A1.67,1.67,0,0,1,551.53,800.87Z"/><path class="cls-4" d="M391.81,938.38a4.87,4.87,0,0,1,2.33-.66,3.32,3.32,0,0,1,3.12,1.69A24.56,24.56,0,0,1,400,954.53a2.81,2.81,0,0,1-1.32,2.13,3.16,3.16,0,0,1-.84.35c-1.47.42-3.12.59-5.78-2.14-2.84-3.87-3.53-9.13-1.9-14.44A3.57,3.57,0,0,1,391.81,938.38Z"/><path class="cls-4" d="M804.73,1087.43a3,3,0,0,1,3.59.28c1,.77,3.28,2.86,1.88,5.64-3.35,6.64-8.28,12.09-15.52,17.14l-.07,0c-.14.1-.5.34-1,.63a15.73,15.73,0,0,1-1.68.9c-1.77.83-3.19.54-4.75-1a3.86,3.86,0,0,1-.44-5.39c5.37-5.8,11.18-12,17.27-17.75A3.8,3.8,0,0,1,804.73,1087.43Z"/><path class="cls-4" d="M745.79,1127.08c7.12-3.68,14.17-7,21-9.95,2.85-1.23,5.45-.29,6.63,2.38,1.46,3.29-1,5.58-2.83,6.72a58.47,58.47,0,0,0-8.93,4.2c-3.85,2.09-7.48,4.06-11.58,4.75-2.82.48-4.48-.31-5.73-2.74a4.19,4.19,0,0,1,1.31-5.26Z"/><path class="cls-4" d="M810.33,1053.3c1.36-.82,3.89-.74,5,.6,3.86,4.73,4.5,10.24,2,17.36a2.3,2.3,0,0,1-1,1.11,4.83,4.83,0,0,1-2.07.62c-1.16.08-2.3-.29-4.5-2.32-1.66-5.27-2.72-10.91-.13-16.63A1.75,1.75,0,0,1,810.33,1053.3Z"/><path class="cls-4" d="M28.05,860.12a3,3,0,0,1,3.6.28c1,.77,3.28,2.86,1.88,5.64-3.35,6.64-8.28,12.09-15.52,17.14l-.07,0c-.14.1-.5.34-1,.63s-1.17.67-1.68.91c-1.78.82-3.2.53-4.75-1a3.86,3.86,0,0,1-.44-5.39c5.37-5.8,11.18-12,17.27-17.75A4.88,4.88,0,0,1,28.05,860.12Z"/><path class="cls-4" d="M33.66,826c1.36-.82,3.89-.74,5,.61,3.87,4.72,4.5,10.23,2,17.35a2.26,2.26,0,0,1-1,1.11,4.57,4.57,0,0,1-2.07.62c-1.16.08-2.3-.28-4.5-2.31-1.66-5.28-2.72-10.92-.13-16.64A1.75,1.75,0,0,1,33.66,826Z"/><path class="cls-4" d="M286.85,1112.55a3,3,0,0,1,3.6.28c1,.77,3.27,2.86,1.88,5.64-3.35,6.64-8.29,12.09-15.52,17.14l-.07,0c-.15.1-.51.34-1,.63a17.92,17.92,0,0,1-1.68.9c-1.78.83-3.2.54-4.76-1a3.87,3.87,0,0,1-.43-5.39c5.37-5.8,11.18-12,17.27-17.75A3.74,3.74,0,0,1,286.85,1112.55Z"/><path class="cls-4" d="M292.45,1078.42c1.37-.83,3.9-.74,5,.6,3.87,4.73,4.5,10.24,2,17.36a2.28,2.28,0,0,1-1,1.11,4.88,4.88,0,0,1-2.07.62c-1.17.08-2.31-.29-4.51-2.32-1.66-5.27-2.72-10.91-.12-16.63A1.72,1.72,0,0,1,292.45,1078.42Z"/><path class="cls-4" d="M712.28,179.92a4.11,4.11,0,0,1,3.51.06,2.32,2.32,0,0,1,1.44,1.4,77,77,0,0,1,.88,9.42c.08,1.42.15,2.84.26,4.25l.15,2,1.89.64c1.24.43,2.48.83,3.71,1.23,2.82.92,5.48,1.78,8.07,2.84.38.15,1.16.47,1.19,3.21a3.91,3.91,0,0,1-2.27,3.72c-.25.15-.51.3-.78.43-1.09.53-2.74.31-4.48.08-2.52-.34-5.38-.73-8.06.89a8.22,8.22,0,0,0-2.07,1.81,20.69,20.69,0,0,0-3.37,7.2,22.57,22.57,0,0,1-1.77,4.5,2.08,2.08,0,0,1-.75.78,4.59,4.59,0,0,1-3.68,0,3.21,3.21,0,0,1-2.44-2.65,15.61,15.61,0,0,1-.18-4.41c.66-3.6.18-6.56-1.41-8.79s-4.46-3.8-8.5-4.43c-5.18-.79-5.58-2.81-5.54-4.8a3.85,3.85,0,0,1,1.84-3.46,8.48,8.48,0,0,1,5.16-.81c3.72.34,6.48-.11,8.68-1.45,3.56-2.15,4.69-6.13,5.29-9.36.13-.7.74-2,3-4.12A1.89,1.89,0,0,1,712.28,179.92Z"/><path class="cls-4" d="M703.25,125.8a57.11,57.11,0,0,1,12-5.26c2-.65,3.22,1,3.75,2,.78,1.5,1.46,3.52.26,4.6a76.57,76.57,0,0,1-7.62,5.74c-.44.31-.88.62-1.33.92l0,0-2.18,1.58c-1.05.76-2.07,1.54-3.1,2.33a66.37,66.37,0,0,1-6,4.29l-.71.41c-2,1.13-3.86.61-5.59-1.55a3.64,3.64,0,0,1-.17-4.71A31.94,31.94,0,0,1,703.25,125.8Z"/><path class="cls-4" d="M738.15,108.47l4.38-1.62c4.6-1.7,10.32-3.83,16.05-5.61a3.34,3.34,0,0,1,2.66.3,4,4,0,0,1,1.91,2.38c.32,1.23.85,4.22-1.27,5.5a2.78,2.78,0,0,1-.42.22c-7.58,3.45-15.5,6.35-23,9-.9.32-3.26,1.17-5.3-2.46C731.64,113.39,735,110.47,738.15,108.47Z"/><path class="cls-4" d="M838,52.8a3,3,0,0,1,3.6.28c1,.77,3.27,2.86,1.87,5.64-3.34,6.64-8.28,12.09-15.51,17.14l-.07,0c-.15.1-.51.34-1,.63a17.92,17.92,0,0,1-1.68.9c-1.78.83-3.2.54-4.76-1a3.87,3.87,0,0,1-.43-5.39c5.37-5.8,11.18-12,17.27-17.75A3.74,3.74,0,0,1,838,52.8Z"/><path class="cls-4" d="M779.09,92.45c7.12-3.68,14.17-7,20.95-10,2.84-1.22,5.45-.29,6.63,2.38,1.45,3.29-1,5.58-2.84,6.72a58.47,58.47,0,0,0-8.93,4.2c-3.84,2.09-7.48,4.06-11.57,4.76-2.82.47-4.49-.32-5.74-2.75a4.19,4.19,0,0,1,1.32-5.26Z"/><path class="cls-4" d="M843.62,18.67c1.37-.82,3.9-.74,5,.61,3.87,4.72,4.5,10.23,2,17.35a2.28,2.28,0,0,1-1,1.11,4.88,4.88,0,0,1-2.07.62c-1.17.08-2.31-.28-4.51-2.32-1.66-5.27-2.72-10.91-.12-16.63A1.67,1.67,0,0,1,843.62,18.67Z"/><path class="cls-4" d="M683.91,156.18a4.8,4.8,0,0,1,2.32-.66,3.3,3.3,0,0,1,3.12,1.69,24.49,24.49,0,0,1,2.77,15.12,2.78,2.78,0,0,1-1.32,2.12,3.55,3.55,0,0,1-.84.36c-1.47.42-3.12.59-5.78-2.14-2.84-3.87-3.53-9.13-1.9-14.44A3.55,3.55,0,0,1,683.91,156.18Z"/><path class="cls-4" d="M971.07,432.34a4.17,4.17,0,0,1,3.52.07,2.35,2.35,0,0,1,1.44,1.4,79.09,79.09,0,0,1,.88,9.41c.07,1.43.15,2.85.26,4.26l.15,2,1.88.64,3.71,1.23c2.83.91,5.49,1.78,8.08,2.83.38.16,1.16.48,1.19,3.22a3.91,3.91,0,0,1-2.27,3.72c-.25.15-.51.29-.79.43-1.08.53-2.73.31-4.47.07-2.53-.33-5.39-.72-8.06.9a7.87,7.87,0,0,0-2.07,1.81,20.43,20.43,0,0,0-3.37,7.2,22.57,22.57,0,0,1-1.77,4.5,2.25,2.25,0,0,1-.75.78,4.65,4.65,0,0,1-3.69,0,3.22,3.22,0,0,1-2.44-2.66,15.5,15.5,0,0,1-.17-4.4c.65-3.6.18-6.56-1.41-8.79s-4.46-3.81-8.5-4.43c-5.18-.79-5.58-2.81-5.54-4.8a3.88,3.88,0,0,1,1.84-3.47,8.62,8.62,0,0,1,5.16-.81c3.72.35,6.48-.11,8.68-1.44,3.56-2.15,4.69-6.13,5.28-9.37.13-.7.75-2,3-4.11A1.39,1.39,0,0,1,971.07,432.34Z"/><path class="cls-4" d="M962,378.23A57.21,57.21,0,0,1,974,373c2-.65,3.21,1,3.75,2,.78,1.51,1.46,3.52.25,4.61a75.27,75.27,0,0,1-7.61,5.74l-1.33.92,0,0-2.19,1.59c-1,.76-2.07,1.54-3.09,2.33a66.49,66.49,0,0,1-6,4.29c-.23.14-.46.28-.7.41-2,1.13-3.86.6-5.59-1.55a3.64,3.64,0,0,1-.18-4.71A32,32,0,0,1,962,378.23Z"/><path class="cls-4" d="M997,360.89c1.32-.47,2.79-1,4.38-1.61,4.59-1.71,10.32-3.83,16-5.61a3.35,3.35,0,0,1,2.66.3,3.94,3.94,0,0,1,1.9,2.38c.33,1.23.86,4.22-1.26,5.5a4.13,4.13,0,0,1-.42.22c-7.59,3.44-15.5,6.35-23,9-.89.32-3.26,1.17-5.29-2.46C990.44,365.82,993.76,362.9,997,360.89Z"/><path class="cls-4" d="M1096.82,305.23a3,3,0,0,1,3.59.28c1,.77,3.28,2.86,1.88,5.64-3.35,6.64-8.28,12.09-15.52,17.13l-.06.05c-.15.1-.51.34-1,.62a15.94,15.94,0,0,1-1.68.91c-1.77.83-3.19.54-4.75-1a3.86,3.86,0,0,1-.44-5.39c5.38-5.81,11.18-12,17.28-17.75A3.43,3.43,0,0,1,1096.82,305.23Z"/><path class="cls-4" d="M1037.88,344.88c7.13-3.68,14.17-7,20.95-9.95,2.85-1.23,5.45-.29,6.63,2.38,1.46,3.29-1,5.58-2.83,6.72a58.47,58.47,0,0,0-8.93,4.2c-3.85,2.09-7.48,4.06-11.57,4.75-2.83.48-4.49-.31-5.74-2.74a4.19,4.19,0,0,1,1.31-5.26Z"/><path class="cls-4" d="M1102.42,271.1c1.36-.83,3.9-.74,5,.6,3.86,4.72,4.5,10.24,2,17.35a2.31,2.31,0,0,1-1,1.12,4.88,4.88,0,0,1-2.08.62c-1.16.08-2.3-.29-4.5-2.32-1.66-5.27-2.72-10.92-.13-16.63A1.75,1.75,0,0,1,1102.42,271.1Z"/><path class="cls-4" d="M942.7,408.61A4.75,4.75,0,0,1,945,408a3.29,3.29,0,0,1,3.12,1.69,24.46,24.46,0,0,1,2.78,15.11,2.8,2.8,0,0,1-1.32,2.13,3.55,3.55,0,0,1-.84.36c-1.47.41-3.13.59-5.78-2.14-2.84-3.88-3.54-9.13-1.9-14.44A3.57,3.57,0,0,1,942.7,408.61Z"/><path class="cls-4" d="M1229.87,684.77a4.11,4.11,0,0,1,3.51.07,2.31,2.31,0,0,1,1.44,1.39,77.42,77.42,0,0,1,.89,9.42c.07,1.43.15,2.85.25,4.25l.16,2,1.88.64c1.25.42,2.48.83,3.71,1.22,2.82.92,5.49,1.79,8.08,2.84.37.16,1.16.47,1.19,3.21a4,4,0,0,1-2.27,3.73c-.25.15-.52.29-.79.43-1.09.53-2.73.31-4.47.07-2.53-.34-5.39-.72-8.06.9a8,8,0,0,0-2.07,1.8,20.5,20.5,0,0,0-3.38,7.21,22.22,22.22,0,0,1-1.76,4.5,2.22,2.22,0,0,1-.75.77,4.6,4.6,0,0,1-3.69,0,3.22,3.22,0,0,1-2.44-2.66,15.91,15.91,0,0,1-.18-4.4c.66-3.6.19-6.56-1.4-8.8s-4.46-3.8-8.51-4.42c-5.18-.8-5.57-2.81-5.54-4.8a3.86,3.86,0,0,1,1.85-3.47,8.59,8.59,0,0,1,5.15-.81c3.73.35,6.48-.11,8.68-1.44,3.56-2.15,4.7-6.14,5.29-9.37.13-.7.75-2,3-4.11A1.39,1.39,0,0,1,1229.87,684.77Z"/><path class="cls-4" d="M1220.84,630.66a57,57,0,0,1,12-5.26c2-.65,3.21,1,3.74,2,.78,1.5,1.46,3.52.26,4.6a75,75,0,0,1-7.61,5.75l-1.33.92,0,0-2.18,1.59c-1,.75-2.07,1.54-3.1,2.33a66.22,66.22,0,0,1-6,4.28c-.23.15-.46.28-.7.42-2,1.12-3.87.6-5.6-1.55a3.67,3.67,0,0,1-.17-4.72A31.91,31.91,0,0,1,1220.84,630.66Z"/><path class="cls-4" d="M1255.75,613.32l4.37-1.61c4.6-1.71,10.32-3.84,16.05-5.62a3.41,3.41,0,0,1,2.67.31,3.94,3.94,0,0,1,1.9,2.38c.33,1.23.86,4.22-1.27,5.5-.13.08-.27.15-.41.22-7.59,3.44-15.5,6.35-23,9-.89.32-3.26,1.17-5.29-2.47C1249.23,618.25,1252.56,615.33,1255.75,613.32Z"/><path class="cls-4" d="M1355.61,557.66a3,3,0,0,1,3.6.28c1,.77,3.28,2.86,1.88,5.64-3.35,6.64-8.28,12.09-15.52,17.13l-.07,0c-.14.09-.5.33-1,.62a17,17,0,0,1-1.68.91c-1.78.82-3.2.53-4.75-1a3.85,3.85,0,0,1-.44-5.38c5.37-5.81,11.18-12,17.27-17.75A3.74,3.74,0,0,1,1355.61,557.66Z"/><path class="cls-4" d="M1296.68,597.3c7.12-3.67,14.17-7,21-9.94,2.85-1.23,5.45-.3,6.63,2.38,1.46,3.29-1,5.58-2.83,6.72a57.53,57.53,0,0,0-8.93,4.2c-3.85,2.09-7.48,4.06-11.58,4.75-2.82.48-4.48-.32-5.74-2.75a4.2,4.2,0,0,1,1.32-5.26Z"/><path class="cls-4" d="M1361.22,523.53c1.36-.83,3.89-.74,5,.6,3.87,4.72,4.5,10.24,2,17.35a2.33,2.33,0,0,1-1,1.12,4.83,4.83,0,0,1-2.07.62c-1.16.08-2.3-.29-4.5-2.32-1.66-5.28-2.72-10.92-.13-16.64A1.73,1.73,0,0,1,1361.22,523.53Z"/><path class="cls-4" d="M1201.5,661a4.82,4.82,0,0,1,2.32-.65,3.28,3.28,0,0,1,3.12,1.69,24.53,24.53,0,0,1,2.78,15.11,2.8,2.8,0,0,1-1.32,2.13,3.62,3.62,0,0,1-.85.36c-1.46.41-3.12.59-5.77-2.14-2.84-3.88-3.54-9.13-1.91-14.44A3.69,3.69,0,0,1,1201.5,661Z"/><path class="cls-4" d="M1261,134.25a4.13,4.13,0,0,1,3.52.07,2.29,2.29,0,0,1,1.43,1.39,77.42,77.42,0,0,1,.89,9.42c.07,1.43.15,2.85.26,4.25l.15,2,1.88.64,3.71,1.22c2.82.92,5.49,1.79,8.08,2.84.37.15,1.16.47,1.19,3.21a3.94,3.94,0,0,1-2.27,3.73,8.41,8.41,0,0,1-.79.42c-1.09.54-2.73.32-4.47.08-2.53-.34-5.39-.72-8.06.9a8,8,0,0,0-2.07,1.8,20.34,20.34,0,0,0-3.37,7.2,22.68,22.68,0,0,1-1.77,4.51,2.13,2.13,0,0,1-.75.77,4.6,4.6,0,0,1-3.69.05,3.22,3.22,0,0,1-2.44-2.66,15.51,15.51,0,0,1-.17-4.4c.65-3.6.18-6.56-1.41-8.8s-4.46-3.8-8.5-4.42c-5.19-.8-5.58-2.81-5.55-4.8a3.86,3.86,0,0,1,1.85-3.47,8.61,8.61,0,0,1,5.16-.81c3.72.35,6.47-.11,8.67-1.44,3.56-2.15,4.7-6.14,5.29-9.37.13-.7.75-2,3-4.11A1.39,1.39,0,0,1,1261,134.25Z"/><path class="cls-4" d="M1251.94,80.14a57,57,0,0,1,12-5.26c2-.65,3.21,1,3.74,2,.79,1.5,1.46,3.52.26,4.6a75,75,0,0,1-7.61,5.75c-.45.3-.89.61-1.33.92l0,0-2.18,1.59c-1,.75-2.07,1.54-3.1,2.33a66.22,66.22,0,0,1-6,4.28c-.23.15-.46.28-.7.42-2,1.12-3.87.6-5.6-1.55a3.67,3.67,0,0,1-.17-4.72A32,32,0,0,1,1251.94,80.14Z"/><path class="cls-4" d="M1286.85,62.8l4.37-1.61c4.6-1.71,10.33-3.84,16.06-5.62a3.38,3.38,0,0,1,2.66.31,3.94,3.94,0,0,1,1.9,2.38c.33,1.23.86,4.22-1.27,5.5a4,4,0,0,1-.41.22c-7.59,3.44-15.5,6.35-23,9-.89.32-3.26,1.17-5.29-2.47C1280.33,67.73,1283.66,64.81,1286.85,62.8Z"/><path class="cls-4" d="M1386.72,7.14a3,3,0,0,1,3.59.28c1,.77,3.28,2.86,1.88,5.64-3.35,6.64-8.28,12.09-15.52,17.13l-.07,0c-.14.09-.5.33-1,.62a17,17,0,0,1-1.68.91c-1.77.82-3.2.53-4.75-1a3.85,3.85,0,0,1-.44-5.38c5.37-5.81,11.18-12,17.27-17.75A3.8,3.8,0,0,1,1386.72,7.14Z"/><path class="cls-4" d="M1327.78,46.78c7.12-3.67,14.17-7,21-9.94,2.85-1.23,5.45-.3,6.63,2.37,1.46,3.3-1,5.59-2.83,6.73a57.53,57.53,0,0,0-8.93,4.2c-3.85,2.08-7.48,4.06-11.58,4.75-2.82.48-4.48-.32-5.74-2.75a4.21,4.21,0,0,1,1.32-5.26Z"/><path class="cls-4" d="M1232.6,110.51a4.74,4.74,0,0,1,2.32-.65,3.27,3.27,0,0,1,3.12,1.69,24.53,24.53,0,0,1,2.78,15.11,2.8,2.8,0,0,1-1.32,2.13,3.55,3.55,0,0,1-.84.36c-1.47.41-3.13.58-5.78-2.14-2.84-3.88-3.54-9.13-1.91-14.44A3.69,3.69,0,0,1,1232.6,110.51Z"/><path class="cls-4" d="M1519.77,386.68a4.08,4.08,0,0,1,3.51.07,2.31,2.31,0,0,1,1.44,1.39,77.22,77.22,0,0,1,.88,9.42c.08,1.43.15,2.85.26,4.25l.15,2,1.89.64,3.71,1.22c2.82.92,5.49,1.79,8.07,2.84.38.15,1.17.47,1.19,3.21a3.94,3.94,0,0,1-2.27,3.73q-.37.22-.78.42c-1.09.53-2.73.31-4.48.08-2.52-.34-5.38-.72-8.06.89a8.43,8.43,0,0,0-2.07,1.81,20.69,20.69,0,0,0-3.37,7.2,23,23,0,0,1-1.76,4.5,2.19,2.19,0,0,1-.76.78,4.58,4.58,0,0,1-3.68.05,3.23,3.23,0,0,1-2.44-2.66,15.92,15.92,0,0,1-.18-4.4c.66-3.6.19-6.56-1.41-8.8s-4.45-3.8-8.5-4.42c-5.18-.8-5.58-2.81-5.54-4.81a3.85,3.85,0,0,1,1.85-3.46,8.59,8.59,0,0,1,5.15-.81c3.72.35,6.48-.11,8.68-1.44,3.56-2.15,4.7-6.14,5.29-9.37.13-.7.74-2,3-4.11A1.39,1.39,0,0,1,1519.77,386.68Z"/><path class="cls-4" d="M1510.74,332.57a56.09,56.09,0,0,1,12-5.26c2-.65,3.22,1,3.75,2,.78,1.5,1.46,3.52.26,4.6a75.12,75.12,0,0,1-7.62,5.75l-1.32.92,0,0-2.18,1.58c-1,.76-2.07,1.55-3.1,2.34a68.24,68.24,0,0,1-6,4.28l-.7.42c-2,1.12-3.87.6-5.6-1.55a3.67,3.67,0,0,1-.17-4.72A31.91,31.91,0,0,1,1510.74,332.57Z"/><path class="cls-4" d="M1545.65,315.23l4.37-1.61c4.6-1.71,10.32-3.84,16-5.62a3.37,3.37,0,0,1,2.67.3,4,4,0,0,1,1.9,2.39c.33,1.22.85,4.21-1.27,5.5a4.13,4.13,0,0,1-.42.22c-7.58,3.44-15.5,6.34-23,9-.9.32-3.26,1.17-5.29-2.46C1539.13,320.16,1542.46,317.24,1545.65,315.23Z"/><path class="cls-4" d="M1645.51,259.56a3,3,0,0,1,3.6.29c1,.77,3.28,2.86,1.88,5.63-3.35,6.65-8.29,12.09-15.52,17.14l-.07,0c-.15.1-.5.34-1,.63a17,17,0,0,1-1.68.91c-1.78.82-3.2.53-4.75-1a3.86,3.86,0,0,1-.44-5.39c5.37-5.8,11.18-12,17.27-17.74A4.31,4.31,0,0,1,1645.51,259.56Z"/><path class="cls-4" d="M1586.58,299.21c7.12-3.67,14.17-7,21-9.94,2.85-1.23,5.45-.3,6.63,2.37,1.45,3.3-1,5.58-2.84,6.73a57.42,57.42,0,0,0-8.92,4.2c-3.85,2.08-7.48,4.05-11.58,4.75-2.82.48-4.48-.32-5.74-2.75a4.19,4.19,0,0,1,1.32-5.26Z"/><path class="cls-4" d="M1651.11,225.43c1.37-.82,3.9-.74,5,.61,3.87,4.72,4.5,10.23,2,17.35a2.2,2.2,0,0,1-1,1.11,4.61,4.61,0,0,1-2.07.62c-1.17.09-2.31-.28-4.5-2.31-1.67-5.28-2.73-10.92-.13-16.64A1.78,1.78,0,0,1,1651.11,225.43Z"/><path class="cls-4" d="M1491.4,362.94a4.71,4.71,0,0,1,2.32-.65,3.28,3.28,0,0,1,3.12,1.68,24.49,24.49,0,0,1,2.77,15.12,2.79,2.79,0,0,1-1.31,2.13,3.62,3.62,0,0,1-.85.36c-1.47.41-3.12.58-5.77-2.14-2.85-3.88-3.54-9.13-1.91-14.44A3.64,3.64,0,0,1,1491.4,362.94Z"/><path class="cls-4" d="M1809.67,88.59a4.11,4.11,0,0,1,3.51.06,2.32,2.32,0,0,1,1.44,1.4,77,77,0,0,1,.88,9.42c.08,1.42.15,2.84.26,4.25l.15,2,1.89.64c1.24.43,2.48.83,3.71,1.23,2.82.92,5.48,1.79,8.07,2.84.38.15,1.16.47,1.19,3.21a3.91,3.91,0,0,1-2.27,3.72,7.37,7.37,0,0,1-.78.43c-1.09.53-2.74.31-4.48.08-2.52-.34-5.39-.72-8.06.89a8.43,8.43,0,0,0-2.07,1.81,20.69,20.69,0,0,0-3.37,7.2,22.57,22.57,0,0,1-1.77,4.5,2.08,2.08,0,0,1-.75.78,4.61,4.61,0,0,1-3.69,0,3.21,3.21,0,0,1-2.43-2.65,15.61,15.61,0,0,1-.18-4.41c.66-3.6.18-6.55-1.41-8.79s-4.46-3.8-8.5-4.43c-5.18-.79-5.58-2.8-5.54-4.8a3.85,3.85,0,0,1,1.84-3.46,8.55,8.55,0,0,1,5.16-.81c3.72.34,6.48-.11,8.68-1.44,3.56-2.16,4.69-6.14,5.29-9.37.13-.7.74-2,3-4.12A1.46,1.46,0,0,1,1809.67,88.59Z"/><path class="cls-4" d="M1800.64,34.47a56.61,56.61,0,0,1,12-5.25c2-.66,3.22,1,3.75,2,.78,1.5,1.46,3.52.26,4.6a75.06,75.06,0,0,1-7.62,5.74l-1.33.93,0,0L1805.47,44c-1,.76-2.07,1.55-3.1,2.33a66.37,66.37,0,0,1-6,4.29l-.71.41c-2,1.13-3.86.61-5.59-1.55a3.64,3.64,0,0,1-.17-4.71A31.94,31.94,0,0,1,1800.64,34.47Z"/><path class="cls-4" d="M1835.54,17.14l4.38-1.61c4.6-1.71,10.32-3.84,16-5.62a3.34,3.34,0,0,1,2.66.3,4,4,0,0,1,1.91,2.39c.32,1.22.85,4.21-1.27,5.5a2.74,2.74,0,0,1-.42.21c-7.58,3.45-15.5,6.35-23,9-.89.32-3.25,1.17-5.29-2.46C1829,22.07,1832.35,19.15,1835.54,17.14Z"/><path class="cls-4" d="M1876.48,1.12c7.12-3.68,14.17-7,21-9.95,2.84-1.22,5.45-.29,6.63,2.38,1.45,3.3-1,5.58-2.84,6.73a57.49,57.49,0,0,0-8.93,4.19c-3.84,2.09-7.48,4.06-11.57,4.76-2.82.48-4.49-.32-5.74-2.75a4.19,4.19,0,0,1,1.32-5.26Z"/><path class="cls-4" d="M1781.29,64.85a4.87,4.87,0,0,1,2.33-.66,3.3,3.3,0,0,1,3.12,1.69A24.49,24.49,0,0,1,1789.51,81a2.78,2.78,0,0,1-1.32,2.12,2.88,2.88,0,0,1-.84.36c-1.47.42-3.12.59-5.78-2.14-2.84-3.87-3.53-9.13-1.9-14.44A3.57,3.57,0,0,1,1781.29,64.85Z"/><path class="cls-4" d="M67.81,190.4a80.74,80.74,0,0,0-8.94-.08,3.09,3.09,0,0,0-3.26,3.32c0,.94,0,1.88,0,2.78H43.81v6.34q7.2,0,14.4,0c2.43,0,3.55-1.16,3.61-3.58,0-.82,0-1.64,0-2.63,1.75,0,3.3-.1,4.83,0a4.57,4.57,0,0,0,4.51-2v-2.33C70.05,191.6,69,190.5,67.81,190.4Z"/><path class="cls-4" d="M34.62,125-.39,92.1h0a46.48,46.48,0,0,0-10.72-1.33c-23-.14-57.94-.14-85.78-.07H-103L-128,117.2l-19.83,21v45.94L-130.66,209H-103c2.41,15.62,14.51,24.06,26,24.83a27.05,27.05,0,0,0,17.17-4.5C-52.6,224.5-48.5,217.63-47.21,209h91V133.66ZM-75,227.64a21.84,21.84,0,0,1-21.84-21.72,21.83,21.83,0,0,1,21.72-21.83A21.83,21.83,0,0,1-53.33,205.8,21.84,21.84,0,0,1-75,227.64Zm21.7-56.83q-18.58.19-37.19,0c-.17-9.3-.12-18.61-.12-27.92s0-18.61.12-27.92q18.6-.21,37.19,0Q-53.24,142.89-53.35,170.81ZM12,196.5H-37.76V151.34q0-22.54,0-45.09c8.53.07,25.59,0,25.59,0L12,130.53Z"/><path class="cls-4" d="M-.59,161.41c-1.1,0-2.08.06-3,0a3.08,3.08,0,0,1-3-3,3,3,0,0,1,3-3.15c2.17-.09,4.35,0,6.53,0,1.78.22,2.8,1.42,2.89,3.4.17,3.86-.47,5.38-2.45,5.84C1.66,164.85.34,163.87-.59,161.41Z"/><polygon class="cls-4" points="514.36 92.09 514.36 92.1 514.37 92.1 514.36 92.09"/><path class="cls-4" d="M409.7,209h0Z"/><path class="cls-4" d="M582.57,190.4a80.76,80.76,0,0,0-8.94-.08,3.09,3.09,0,0,0-3.27,3.32c0,.94,0,1.88,0,2.78h-11.8v6.34q7.22,0,14.41,0c2.42,0,3.54-1.16,3.61-3.58,0-.82,0-1.64,0-2.63,1.74,0,3.29-.1,4.82,0a4.59,4.59,0,0,0,4.52-2v-2.33C584.8,191.6,583.73,190.5,582.57,190.4Z"/><path class="cls-4" d="M549.38,125l-35-32.92h0a46.48,46.48,0,0,0-10.72-1.33c-23-.14-57.93-.14-85.77-.07h-6.09L386.71,117.2l-19.83,21v45.94L384.09,209h27.62c2.4,15.62,14.51,24.06,26,24.83a27.09,27.09,0,0,0,17.17-4.5c7.27-4.81,11.36-11.68,12.66-20.33h91V133.66ZM439.7,227.64a21.78,21.78,0,1,1,21.72-21.84A21.84,21.84,0,0,1,439.7,227.64Zm21.71-56.83q-18.6.19-37.2,0c-.16-9.3-.11-18.61-.11-27.92s-.05-18.61.11-27.92q18.6-.21,37.2,0Q461.5,142.89,461.41,170.81Zm65.37,25.69H477s0-33.49,0-45.16q0-22.54,0-45.09c8.53.07,25.6,0,25.6,0l24.17,24.25Z"/><polygon class="cls-4" points="381.47 202.11 373.99 217.95 377.73 217.95 387.83 202.11 381.47 202.11"/><path class="cls-4" d="M514.16,161.41c-1.1,0-2.07.06-3,0a3.09,3.09,0,0,1-3-3,3,3,0,0,1,3-3.15c2.18-.09,4.35,0,6.53,0,1.79.22,2.8,1.42,2.89,3.4.17,3.86-.47,5.38-2.45,5.84C516.42,164.85,515.1,163.87,514.16,161.41Z"/><path class="cls-4" d="M455.2,205.76a15.56,15.56,0,1,1-15.71-15.45A15.61,15.61,0,0,1,455.2,205.76Z"/><polygon class="cls-4" points="1029.11 92.09 1029.12 92.1 1029.12 92.1 1029.11 92.09"/><path class="cls-4" d="M924.46,209h0Z"/><path class="cls-4" d="M1097.32,190.4a80.76,80.76,0,0,0-8.94-.08,3.08,3.08,0,0,0-3.26,3.32c0,.94,0,1.88,0,2.78h-11.79v6.34q7.2,0,14.4,0c2.42,0,3.55-1.16,3.61-3.58,0-.82,0-1.64,0-2.63,1.74,0,3.29-.1,4.83,0a4.58,4.58,0,0,0,4.51-2v-2.33C1099.56,191.6,1098.48,190.5,1097.32,190.4Z"/><path class="cls-4" d="M1064.13,125l-35-32.92h0a46.57,46.57,0,0,0-10.73-1.33c-23-.14-57.93-.14-85.77-.07h-6.09L901.46,117.2l-19.83,21v45.94L898.84,209h27.62c2.4,15.62,14.51,24.06,26,24.83a27.07,27.07,0,0,0,17.17-4.5C976.91,224.5,981,217.63,982.3,209h91V133.66ZM954.46,227.64a21.78,21.78,0,1,1,21.72-21.84A21.84,21.84,0,0,1,954.46,227.64Zm21.7-56.83q-18.6.19-37.19,0c-.17-9.3-.12-18.61-.12-27.92s-.05-18.61.12-27.92q18.59-.21,37.19,0Q976.25,142.89,976.16,170.81Zm65.37,25.69H991.75s0-33.49,0-45.16q0-22.54,0-45.09c8.54.07,25.6,0,25.6,0l24.18,24.25Z"/><polygon class="cls-4" points="896.22 202.11 888.74 217.95 892.48 217.95 902.59 202.11 896.22 202.11"/><path class="cls-4" d="M1028.92,161.41c-1.11,0-2.08.06-3,0a3.1,3.1,0,0,1-3-3,3,3,0,0,1,3-3.15c2.17-.09,4.35,0,6.52,0a3.17,3.17,0,0,1,2.89,3.4c.17,3.86-.47,5.38-2.45,5.84C1031.17,164.85,1029.85,163.87,1028.92,161.41Z"/><path class="cls-4" d="M970,205.76a15.56,15.56,0,1,1-15.7-15.45A15.6,15.6,0,0,1,970,205.76Z"/><polygon class="cls-4" points="1543.87 92.09 1543.87 92.1 1543.87 92.1 1543.87 92.09"/><path class="cls-4" d="M1439.21,209h0Z"/><path class="cls-4" d="M1612.07,190.4a80.71,80.71,0,0,0-8.94-.08,3.09,3.09,0,0,0-3.26,3.32c0,.94,0,1.88,0,2.78h-11.8v6.34q7.2,0,14.4,0c2.43,0,3.55-1.16,3.61-3.58,0-.82,0-1.64,0-2.63,1.74,0,3.29-.1,4.82,0a4.57,4.57,0,0,0,4.51-2v-2.33C1614.31,191.6,1613.24,190.5,1612.07,190.4Z"/><path class="cls-4" d="M1578.88,125l-35-32.92h0a46.48,46.48,0,0,0-10.72-1.33c-23-.14-57.94-.14-85.78-.07h-6.09l-25.07,26.49-19.83,21v45.94L1413.6,209h27.61c2.41,15.62,14.51,24.06,26,24.83a27.05,27.05,0,0,0,17.17-4.5c7.27-4.81,11.37-11.68,12.66-20.33h91V133.66ZM1469.21,227.64a21.78,21.78,0,1,1,21.72-21.84A21.84,21.84,0,0,1,1469.21,227.64Zm21.7-56.83q-18.59.19-37.19,0c-.17-9.3-.12-18.61-.12-27.92s0-18.61.12-27.92q18.6-.21,37.19,0Q1491,142.89,1490.91,170.81Zm65.38,25.69H1506.5V151.34q0-22.54,0-45.09c8.53.07,25.6,0,25.6,0l24.17,24.25Z"/><polygon class="cls-4" points="1410.98 202.11 1403.49 217.95 1407.23 217.95 1417.34 202.11 1410.98 202.11"/><path class="cls-4" d="M1543.67,161.41c-1.1,0-2.08.06-3,0a3.08,3.08,0,0,1-3-3,3,3,0,0,1,3-3.15c2.17-.09,4.35,0,6.53,0,1.78.22,2.8,1.42,2.89,3.4.17,3.86-.47,5.38-2.45,5.84C1545.92,164.85,1544.6,163.87,1543.67,161.41Z"/><path class="cls-4" d="M1484.71,205.76A15.56,15.56,0,1,1,1469,190.31,15.61,15.61,0,0,1,1484.71,205.76Z"/><path class="cls-4" d="M1954,209h0Z"/><path class="cls-4" d="M2093.64,125l-35-32.92h0a46.48,46.48,0,0,0-10.72-1.33c-23-.14-57.93-.14-85.77-.07H1956L1931,117.2l-19.83,21v45.94L1928.35,209H1956c2.4,15.62,14.51,24.06,26,24.83a27.09,27.09,0,0,0,17.17-4.5c7.27-4.81,11.36-11.68,12.66-20.33h91V133.66ZM1984,227.64a21.78,21.78,0,1,1,21.72-21.84A21.84,21.84,0,0,1,1984,227.64Zm21.71-56.83q-18.6.19-37.2,0c-.16-9.3-.11-18.61-.11-27.92s0-18.61.11-27.92q18.6-.21,37.2,0Q2005.76,142.89,2005.67,170.81ZM2071,196.5h-49.78s0-33.49,0-45.16q0-22.54,0-45.09c8.53.07,25.6,0,25.6,0L2071,130.53Z"/><polygon class="cls-4" points="1925.73 202.11 1918.25 217.95 1921.99 217.95 1932.09 202.11 1925.73 202.11"/><polygon class="cls-4" points="256.02 361.35 256.02 361.35 256.03 361.36 256.02 361.35"/><path class="cls-4" d="M151.36,478.23h0Z"/><path class="cls-4" d="M324.23,459.65a80.76,80.76,0,0,0-8.94-.07c-2.06,0-3.18,1.23-3.26,3.32,0,.93,0,1.88,0,2.77H300.23V472c4.8,0,9.6,0,14.4,0,2.42,0,3.55-1.17,3.61-3.59,0-.82,0-1.64,0-2.63,1.74,0,3.29-.1,4.82,0a4.61,4.61,0,0,0,4.52-2V461.5C326.46,460.86,325.39,459.75,324.23,459.65Z"/><path class="cls-4" d="M291,394.27l-35-32.92h0A46.63,46.63,0,0,0,245.3,360c-23-.13-57.93-.13-85.77-.07h-6.09l-25.07,26.49-19.83,21v45.93l17.21,24.89h27.62c2.4,15.62,14.51,24.07,26,24.84a27.21,27.21,0,0,0,17.17-4.5c7.27-4.82,11.36-11.69,12.66-20.34h91V402.92ZM181.36,496.9a21.78,21.78,0,1,1,21.72-21.84A21.85,21.85,0,0,1,181.36,496.9Zm21.71-56.84q-18.6.21-37.19,0c-.17-9.31-.12-18.62-.12-27.93s0-18.61.11-27.92q18.6-.21,37.2,0Q203.16,412.15,203.07,440.06Zm65.37,25.69H218.66s0-33.49,0-45.16q0-22.54,0-45.09c8.53.07,25.6,0,25.6,0l24.18,24.25Z"/><polygon class="cls-4" points="123.13 471.36 115.65 487.2 119.39 487.2 129.49 471.36 123.13 471.36"/><path class="cls-4" d="M255.83,430.67c-1.11,0-2.08.06-3.05,0a3.08,3.08,0,0,1-3-3,3,3,0,0,1,3-3.16c2.17-.09,4.35,0,6.52,0a3.19,3.19,0,0,1,2.89,3.4c.17,3.86-.47,5.38-2.45,5.84C258.08,434.11,256.76,433.13,255.83,430.67Z"/><path class="cls-4" d="M196.86,475a15.56,15.56,0,1,1-15.7-15.46A15.6,15.6,0,0,1,196.86,475Z"/><polygon class="cls-4" points="770.77 361.35 770.78 361.35 770.78 361.36 770.77 361.35"/><path class="cls-4" d="M666.12,478.23h0Z"/><path class="cls-4" d="M839,459.65a80.76,80.76,0,0,0-8.94-.07c-2.06,0-3.18,1.23-3.26,3.32,0,.93,0,1.88,0,2.77H815V472c4.8,0,9.6,0,14.4,0,2.43,0,3.55-1.17,3.61-3.59,0-.82,0-1.64,0-2.63,1.75,0,3.3-.1,4.83,0a4.59,4.59,0,0,0,4.51-2V461.5C841.22,460.86,840.14,459.75,839,459.65Z"/><path class="cls-4" d="M805.79,394.27l-35-32.92h0A46.5,46.5,0,0,0,760.05,360c-23-.13-57.93-.13-85.77-.07h-6.09l-25.07,26.49-19.83,21v45.93l17.21,24.89h27.62c2.4,15.62,14.51,24.07,26,24.84a27.18,27.18,0,0,0,17.17-4.5c7.27-4.82,11.37-11.69,12.66-20.34h91V402.92ZM696.12,496.9a21.78,21.78,0,1,1,21.72-21.84A21.85,21.85,0,0,1,696.12,496.9Zm21.7-56.84q-18.6.21-37.19,0c-.17-9.31-.12-18.62-.12-27.93s0-18.61.12-27.92q18.58-.21,37.19,0Q717.91,412.15,717.82,440.06Zm65.37,25.69H733.41V420.59q0-22.54,0-45.09c8.53.07,25.59,0,25.59,0l24.18,24.25Z"/><polygon class="cls-4" points="637.88 471.36 630.4 487.2 634.14 487.2 644.25 471.36 637.88 471.36"/><path class="cls-4" d="M770.58,430.67c-1.1,0-2.08.06-3,0a3.09,3.09,0,0,1-3-3,3,3,0,0,1,3-3.16c2.17-.09,4.35,0,6.52,0a3.18,3.18,0,0,1,2.89,3.4c.17,3.86-.47,5.38-2.45,5.84C772.83,434.11,771.51,433.13,770.58,430.67Z"/><path class="cls-4" d="M711.61,475a15.56,15.56,0,1,1-15.7-15.46A15.59,15.59,0,0,1,711.61,475Z"/><polygon class="cls-4" points="1285.53 361.35 1285.53 361.35 1285.54 361.36 1285.53 361.35"/><path class="cls-4" d="M1180.87,478.23h0Z"/><path class="cls-4" d="M1353.73,459.65a80.56,80.56,0,0,0-8.93-.07c-2.06,0-3.18,1.23-3.27,3.32,0,.93,0,1.88,0,2.77h-11.8V472c4.8,0,9.6,0,14.41,0,2.42,0,3.54-1.17,3.6-3.59,0-.82,0-1.64,0-2.63,1.74,0,3.29-.1,4.82,0a4.59,4.59,0,0,0,4.51-2V461.5C1356,460.86,1354.9,459.75,1353.73,459.65Z"/><path class="cls-4" d="M1320.54,394.27l-35-32.92h0a46.48,46.48,0,0,0-10.72-1.33c-23-.13-57.94-.13-85.78-.07h-6.09l-25.06,26.49-19.84,21v45.93l17.22,24.89h27.61c2.41,15.62,14.52,24.07,26,24.84a27.18,27.18,0,0,0,17.17-4.5c7.28-4.82,11.37-11.69,12.67-20.34h91V402.92ZM1210.87,496.9a21.78,21.78,0,1,1,21.72-21.84A21.85,21.85,0,0,1,1210.87,496.9Zm21.7-56.84q-18.58.21-37.19,0c-.17-9.31-.11-18.62-.11-27.93s0-18.61.11-27.92q18.6-.21,37.19,0Q1232.68,412.15,1232.57,440.06ZM1298,465.75h-49.79V420.59q0-22.54,0-45.09c8.53.07,25.6,0,25.6,0l24.17,24.25Z"/><polygon class="cls-4" points="1152.64 471.36 1145.15 487.2 1148.9 487.2 1159 471.36 1152.64 471.36"/><path class="cls-4" d="M1285.33,430.67c-1.1,0-2.08.06-3,0a3.07,3.07,0,0,1-3-3,3,3,0,0,1,3-3.16c2.17-.09,4.35,0,6.53,0a3.19,3.19,0,0,1,2.89,3.4c.17,3.86-.47,5.38-2.45,5.84C1287.58,434.11,1286.27,433.13,1285.33,430.67Z"/><path class="cls-4" d="M1226.37,475a15.56,15.56,0,1,1-15.71-15.46A15.61,15.61,0,0,1,1226.37,475Z"/><polygon class="cls-4" points="1800.28 361.35 1800.29 361.35 1800.29 361.36 1800.28 361.35"/><path class="cls-4" d="M1695.62,478.23h0Z"/><path class="cls-4" d="M1868.49,459.65a80.76,80.76,0,0,0-8.94-.07c-2.06,0-3.18,1.23-3.26,3.32,0,.93,0,1.88,0,2.77h-11.79V472c4.8,0,9.6,0,14.4,0,2.42,0,3.55-1.17,3.61-3.59,0-.82,0-1.64,0-2.63,1.74,0,3.29-.1,4.82,0a4.61,4.61,0,0,0,4.52-2V461.5C1870.72,460.86,1869.65,459.75,1868.49,459.65Z"/><path class="cls-4" d="M1835.3,394.27l-35-32.92h0a46.63,46.63,0,0,0-10.73-1.33c-23-.13-57.93-.13-85.77-.07h-6.09l-25.07,26.49-19.83,21v45.93L1670,478.23h27.62c2.4,15.62,14.51,24.07,26,24.84a27.21,27.21,0,0,0,17.17-4.5c7.27-4.82,11.36-11.69,12.66-20.34h91V402.92ZM1725.62,496.9a21.78,21.78,0,1,1,21.72-21.84A21.85,21.85,0,0,1,1725.62,496.9Zm21.71-56.84q-18.6.21-37.19,0c-.17-9.31-.12-18.62-.12-27.93s0-18.61.11-27.92q18.6-.21,37.2,0Q1747.42,412.15,1747.33,440.06Zm65.37,25.69h-49.78s0-33.49,0-45.16q0-22.54,0-45.09c8.53.07,25.6,0,25.6,0l24.18,24.25Z"/><polygon class="cls-4" points="1667.39 471.36 1659.91 487.2 1663.65 487.2 1673.75 471.36 1667.39 471.36"/><path class="cls-4" d="M1800.09,430.67c-1.11,0-2.08.06-3,0a3.08,3.08,0,0,1-3-3,3,3,0,0,1,3-3.16c2.17-.09,4.35,0,6.52,0a3.19,3.19,0,0,1,2.89,3.4c.17,3.86-.47,5.38-2.45,5.84C1802.34,434.11,1801,433.13,1800.09,430.67Z"/><path class="cls-4" d="M1741.12,475a15.56,15.56,0,1,1-15.7-15.46A15.6,15.6,0,0,1,1741.12,475Z"/><path class="cls-4" d="M65.89,728.9a83.28,83.28,0,0,0-8.94-.07,3.07,3.07,0,0,0-3.26,3.32c0,.94,0,1.88,0,2.78H41.89v6.33q7.2,0,14.4,0c2.42,0,3.55-1.17,3.61-3.58,0-.82,0-1.65,0-2.63,1.74,0,3.29-.11,4.82,0a4.59,4.59,0,0,0,4.52-2v-2.33C68.12,730.11,67.05,729,65.89,728.9Z"/><path class="cls-4" d="M32.7,663.53l-35-32.92h0A46.09,46.09,0,0,0-13,629.28c-23-.14-57.93-.14-85.77-.08l-6.09,0L-130,655.71l-19.83,20.95v45.93l17.21,24.89H-105c2.4,15.63,14.51,24.07,26,24.84a27.09,27.09,0,0,0,17.17-4.5c7.27-4.82,11.37-11.68,12.66-20.34h91V672.17ZM-77,766.15a21.85,21.85,0,0,1-21.83-21.72,21.84,21.84,0,0,1,21.72-21.84,21.82,21.82,0,0,1,21.83,21.72A21.84,21.84,0,0,1-77,766.15Zm21.71-56.83q-18.6.2-37.19,0c-.17-9.31-.12-18.61-.12-27.92s0-18.62.11-27.92q18.6-.21,37.2,0Q-55.18,681.4-55.27,709.32ZM10.1,735H-39.68s0-33.49,0-45.16q0-22.55,0-45.08c8.53.07,25.6,0,25.6,0L10.1,669Z"/><path class="cls-4" d="M-2.51,699.92c-1.11,0-2.08.06-3,0a3.09,3.09,0,0,1-3-3,3,3,0,0,1,3-3.16c2.17-.09,4.35,0,6.52,0a3.19,3.19,0,0,1,2.89,3.41c.17,3.85-.47,5.38-2.45,5.84C-.26,703.36-1.58,702.38-2.51,699.92Z"/><polygon class="cls-4" points="512.44 630.6 512.44 630.61 512.44 630.61 512.44 630.6"/><path class="cls-4" d="M407.78,747.48h0Z"/><path class="cls-4" d="M580.64,728.9a83.28,83.28,0,0,0-8.94-.07c-2.06,0-3.17,1.24-3.26,3.32,0,.94,0,1.88,0,2.78H556.64v6.33q7.2,0,14.4,0c2.43,0,3.55-1.17,3.61-3.58,0-.82,0-1.65,0-2.63,1.75,0,3.3-.11,4.83,0a4.57,4.57,0,0,0,4.51-2v-2.33C582.88,730.11,581.8,729,580.64,728.9Z"/><path class="cls-4" d="M547.45,663.53l-35-32.92h0a45.94,45.94,0,0,0-10.72-1.33c-23-.14-57.94-.14-85.78-.08l-6.09,0-25.07,26.49L365,676.66v45.93l17.21,24.89h27.62c2.4,15.63,14.51,24.07,26,24.84a27.05,27.05,0,0,0,17.17-4.5c7.27-4.82,11.37-11.68,12.66-20.34h91V672.17ZM437.78,766.15a21.78,21.78,0,1,1,21.72-21.84A21.85,21.85,0,0,1,437.78,766.15Zm21.7-56.83q-18.59.2-37.19,0c-.17-9.31-.12-18.61-.12-27.92s-.05-18.62.12-27.92q18.58-.21,37.19,0Q459.57,681.4,459.48,709.32ZM524.85,735H475.07V689.84q0-22.55,0-45.08c8.53.07,25.59,0,25.59,0L524.85,669Z"/><polygon class="cls-4" points="379.55 740.61 372.06 756.46 375.8 756.46 385.91 740.61 379.55 740.61"/><path class="cls-4" d="M512.24,699.92c-1.1,0-2.08.06-3,0a3.1,3.1,0,0,1-3-3,3,3,0,0,1,3-3.16c2.17-.09,4.35,0,6.53,0a3.2,3.2,0,0,1,2.89,3.41c.16,3.85-.47,5.38-2.46,5.84C514.49,703.36,513.17,702.38,512.24,699.92Z"/><path class="cls-4" d="M453.27,744.27a15.55,15.55,0,1,1-15.7-15.45A15.6,15.6,0,0,1,453.27,744.27Z"/><polygon class="cls-4" points="1027.19 630.6 1027.19 630.61 1027.2 630.61 1027.19 630.6"/><path class="cls-4" d="M922.53,747.48h0Z"/><path class="cls-4" d="M1095.4,728.9a83.28,83.28,0,0,0-8.94-.07c-2.06,0-3.18,1.24-3.27,3.32,0,.94,0,1.88,0,2.78h-11.8v6.33q7.2,0,14.41,0c2.42,0,3.54-1.17,3.6-3.58,0-.82,0-1.65,0-2.63,1.74,0,3.29-.11,4.82,0a4.57,4.57,0,0,0,4.51-2v-2.33C1097.63,730.11,1096.56,729,1095.4,728.9Z"/><path class="cls-4" d="M1062.2,663.53l-35-32.92h0a45.94,45.94,0,0,0-10.72-1.33c-23-.14-57.93-.14-85.78-.08l-6.08,0-25.07,26.49-19.83,20.95v45.93l17.21,24.89h27.61c2.41,15.63,14.52,24.07,26,24.84a27.1,27.1,0,0,0,17.18-4.5c7.27-4.82,11.36-11.68,12.66-20.34h91V672.17ZM952.53,766.15a21.78,21.78,0,1,1,21.72-21.84A21.86,21.86,0,0,1,952.53,766.15Zm21.71-56.83q-18.6.2-37.2,0c-.16-9.31-.11-18.61-.11-27.92s0-18.62.11-27.92q18.6-.21,37.19,0Q974.33,681.4,974.24,709.32ZM1039.61,735H989.83s0-33.49,0-45.16q0-22.55,0-45.08c8.53.07,25.6,0,25.6,0L1039.6,669Z"/><polygon class="cls-4" points="894.3 740.61 886.82 756.46 890.56 756.46 900.66 740.61 894.3 740.61"/><path class="cls-4" d="M1027,699.92c-1.1,0-2.07.06-3,0a3.09,3.09,0,0,1-3-3,3,3,0,0,1,3-3.16c2.18-.09,4.35,0,6.53,0,1.79.23,2.8,1.43,2.89,3.41.17,3.85-.47,5.38-2.45,5.84C1029.24,703.36,1027.93,702.38,1027,699.92Z"/><path class="cls-4" d="M968,744.27a15.56,15.56,0,1,1-15.71-15.45A15.61,15.61,0,0,1,968,744.27Z"/><polygon class="cls-4" points="1541.94 630.6 1541.95 630.61 1541.95 630.61 1541.94 630.6"/><path class="cls-4" d="M1437.29,747.48h0Z"/><path class="cls-4" d="M1610.15,728.9a83.28,83.28,0,0,0-8.94-.07,3.07,3.07,0,0,0-3.26,3.32c0,.94,0,1.88,0,2.78h-11.79v6.33q7.2,0,14.4,0c2.42,0,3.55-1.17,3.61-3.58,0-.82,0-1.65,0-2.63,1.74,0,3.29-.11,4.83,0a4.58,4.58,0,0,0,4.51-2v-2.33C1612.38,730.11,1611.31,729,1610.15,728.9Z"/><path class="cls-4" d="M1577,663.53l-35-32.92h0a46.09,46.09,0,0,0-10.73-1.33c-23-.14-57.93-.14-85.77-.08l-6.09,0-25.07,26.49-19.83,20.95v45.93l17.21,24.89h27.62c2.4,15.63,14.51,24.07,26,24.84a27.07,27.07,0,0,0,17.17-4.5c7.27-4.82,11.37-11.68,12.66-20.34h91V672.17ZM1467.29,766.15A21.78,21.78,0,1,1,1489,744.31,21.85,21.85,0,0,1,1467.29,766.15Zm21.7-56.83q-18.6.2-37.19,0c-.17-9.31-.12-18.61-.12-27.92s0-18.62.12-27.92q18.59-.21,37.19,0Q1489.08,681.4,1489,709.32ZM1554.36,735h-49.78s0-33.49,0-45.16q0-22.55,0-45.08c8.54.07,25.6,0,25.6,0L1554.36,669Z"/><polygon class="cls-4" points="1409.05 740.61 1401.57 756.46 1405.31 756.46 1415.41 740.61 1409.05 740.61"/><path class="cls-4" d="M1541.75,699.92c-1.11,0-2.08.06-3,0a3.09,3.09,0,0,1-3-3,3,3,0,0,1,3-3.16c2.17-.09,4.35,0,6.52,0a3.19,3.19,0,0,1,2.89,3.41c.17,3.85-.47,5.38-2.45,5.84C1544,703.36,1542.68,702.38,1541.75,699.92Z"/><path class="cls-4" d="M1482.78,744.27a15.56,15.56,0,1,1-15.7-15.45A15.61,15.61,0,0,1,1482.78,744.27Z"/><polygon class="cls-4" points="254.1 899.86 254.1 899.86 254.1 899.86 254.1 899.86"/><path class="cls-4" d="M149.44,1016.74h0Z"/><path class="cls-4" d="M322.3,998.16a80.74,80.74,0,0,0-8.94-.08,3.09,3.09,0,0,0-3.26,3.32c0,.94,0,1.88,0,2.78H298.3v6.34q7.2,0,14.4,0c2.43,0,3.55-1.16,3.61-3.58,0-.82,0-1.64,0-2.63,1.74,0,3.29-.1,4.82,0a4.57,4.57,0,0,0,4.51-2V1000C324.54,999.36,323.47,998.26,322.3,998.16Z"/><path class="cls-4" d="M289.11,932.78l-35-32.92h0a46.48,46.48,0,0,0-10.72-1.33c-23-.14-57.94-.14-85.78-.07h-6.09L126.44,925l-19.83,20.95v45.94l17.22,24.89h27.61c2.41,15.62,14.51,24.06,26,24.83a27.05,27.05,0,0,0,17.17-4.5c7.27-4.81,11.37-11.68,12.66-20.33h91V941.42ZM179.44,1035.4a21.78,21.78,0,1,1,21.72-21.83A21.84,21.84,0,0,1,179.44,1035.4Zm21.7-56.83q-18.58.2-37.19,0c-.17-9.31-.12-18.62-.12-27.93s-.05-18.61.12-27.92q18.6-.21,37.19,0Q201.25,950.65,201.14,978.57Zm65.38,25.69H216.73V959.1q0-22.54,0-45.09c8.53.07,25.59,0,25.59,0l24.18,24.25Z"/><polygon class="cls-4" points="121.21 1009.87 113.72 1025.71 117.47 1025.71 127.57 1009.87 121.21 1009.87"/><path class="cls-4" d="M253.9,969.17c-1.1,0-2.08.06-3,0a3.07,3.07,0,0,1-3-3,3,3,0,0,1,3-3.15c2.17-.09,4.35,0,6.53,0,1.78.22,2.8,1.42,2.89,3.4.17,3.86-.47,5.38-2.45,5.84C256.15,972.62,254.83,971.63,253.9,969.17Z"/><path class="cls-4" d="M194.93,1013.52a15.55,15.55,0,1,1-15.7-15.45A15.59,15.59,0,0,1,194.93,1013.52Z"/><polygon class="cls-4" points="768.85 899.86 768.85 899.86 768.86 899.86 768.85 899.86"/><path class="cls-4" d="M664.19,1016.74h0Z"/><path class="cls-4" d="M837.06,998.16a80.76,80.76,0,0,0-8.94-.08,3.08,3.08,0,0,0-3.26,3.32c0,.94,0,1.88,0,2.78h-11.8v6.34q7.22,0,14.41,0c2.42,0,3.54-1.16,3.61-3.58,0-.82,0-1.64,0-2.63,1.74,0,3.29-.1,4.82,0a4.59,4.59,0,0,0,4.52-2V1000C839.29,999.36,838.22,998.26,837.06,998.16Z"/><path class="cls-4" d="M803.87,932.78l-35-32.92h0a46.48,46.48,0,0,0-10.72-1.33c-23-.14-57.93-.14-85.77-.07h-6.09L641.2,925l-19.83,20.95v45.94l17.21,24.89H666.2c2.4,15.62,14.51,24.06,26,24.83a27.09,27.09,0,0,0,17.17-4.5c7.27-4.81,11.36-11.68,12.66-20.33h91V941.42ZM694.19,1035.4a21.78,21.78,0,1,1,21.72-21.83A21.84,21.84,0,0,1,694.19,1035.4Zm21.71-56.83q-18.6.2-37.2,0c-.16-9.31-.11-18.62-.11-27.93s-.05-18.61.11-27.92q18.6-.21,37.2,0Q716,950.65,715.9,978.57Zm65.37,25.69H731.49s0-33.49,0-45.16q0-22.54,0-45.09c8.53.07,25.6,0,25.6,0l24.18,24.25Z"/><polygon class="cls-4" points="635.96 1009.87 628.48 1025.71 632.22 1025.71 642.32 1009.87 635.96 1009.87"/><path class="cls-4" d="M768.65,969.17c-1.1,0-2.07.06-3,0a3.08,3.08,0,0,1-3-3,3,3,0,0,1,3-3.15c2.18-.09,4.35,0,6.53,0,1.79.22,2.8,1.42,2.89,3.4.17,3.86-.47,5.38-2.45,5.84C770.91,972.62,769.59,971.63,768.65,969.17Z"/><path class="cls-4" d="M709.69,1013.52A15.56,15.56,0,1,1,694,998.07,15.61,15.61,0,0,1,709.69,1013.52Z"/><polygon class="cls-4" points="1283.6 899.86 1283.61 899.86 1283.61 899.86 1283.6 899.86"/><path class="cls-4" d="M1179,1016.74h0Z"/><path class="cls-4" d="M1351.81,998.16a80.76,80.76,0,0,0-8.94-.08,3.08,3.08,0,0,0-3.26,3.32c0,.94,0,1.88,0,2.78h-11.79v6.34q7.2,0,14.4,0c2.43,0,3.55-1.16,3.61-3.58,0-.82,0-1.64,0-2.63,1.74,0,3.29-.1,4.83,0a4.58,4.58,0,0,0,4.51-2V1000C1354.05,999.36,1353,998.26,1351.81,998.16Z"/><path class="cls-4" d="M1318.62,932.78l-35-32.92h0a46.5,46.5,0,0,0-10.73-1.33c-23-.14-57.93-.14-85.77-.07H1181L1156,925l-19.83,20.95v45.94l17.21,24.89H1181c2.4,15.62,14.51,24.06,26,24.83a27.07,27.07,0,0,0,17.17-4.5c7.27-4.81,11.37-11.68,12.66-20.33h91V941.42ZM1209,1035.4a21.78,21.78,0,1,1,21.72-21.83A21.84,21.84,0,0,1,1209,1035.4Zm21.7-56.83q-18.6.2-37.19,0c-.17-9.31-.12-18.62-.12-27.93s0-18.61.12-27.92q18.58-.21,37.19,0Q1230.74,950.65,1230.65,978.57Zm65.37,25.69h-49.78s0-33.49,0-45.16q0-22.54,0-45.09c8.54.07,25.6,0,25.6,0L1296,938.29Z"/><polygon class="cls-4" points="1150.71 1009.87 1143.23 1025.71 1146.97 1025.71 1157.08 1009.87 1150.71 1009.87"/><path class="cls-4" d="M1283.41,969.17c-1.11,0-2.08.06-3,0a3.09,3.09,0,0,1-3-3,3,3,0,0,1,3-3.15c2.17-.09,4.35,0,6.52,0a3.17,3.17,0,0,1,2.89,3.4c.17,3.86-.47,5.38-2.45,5.84C1285.66,972.62,1284.34,971.63,1283.41,969.17Z"/><path class="cls-4" d="M1224.44,1013.52a15.56,15.56,0,1,1-15.7-15.45A15.6,15.6,0,0,1,1224.44,1013.52Z"/><path class="cls-4" d="M1453.7,982.86a4.15,4.15,0,0,1,3.51.07,2.32,2.32,0,0,1,1.44,1.4,75.11,75.11,0,0,1,.88,9.42c.08,1.42.16,2.84.26,4.25l.16,2,1.88.64,3.71,1.23c2.82.92,5.49,1.78,8.08,2.83.37.16,1.16.48,1.19,3.22a4,4,0,0,1-2.27,3.72c-.25.15-.52.29-.79.43-1.09.53-2.73.31-4.47.07-2.53-.33-5.39-.72-8.06.9a8.26,8.26,0,0,0-2.08,1.81,20.61,20.61,0,0,0-3.37,7.2,22,22,0,0,1-1.76,4.5,2.25,2.25,0,0,1-.75.78,4.65,4.65,0,0,1-3.69,0,3.22,3.22,0,0,1-2.44-2.66,15.91,15.91,0,0,1-.18-4.4c.66-3.6.19-6.56-1.4-8.79s-4.46-3.81-8.51-4.43c-5.18-.79-5.57-2.81-5.54-4.8a3.83,3.83,0,0,1,1.85-3.46,8.51,8.51,0,0,1,5.15-.82c3.72.35,6.48-.11,8.68-1.44,3.56-2.15,4.7-6.13,5.29-9.37.13-.69.75-2,3-4.11A1.94,1.94,0,0,1,1453.7,982.86Z"/><path class="cls-4" d="M1444.67,928.75a57,57,0,0,1,12-5.26c2-.65,3.21,1,3.74,2,.78,1.51,1.46,3.52.26,4.61a76.41,76.41,0,0,1-7.61,5.74l-1.33.92,0,0-2.18,1.59c-1,.76-2.07,1.54-3.1,2.33a66.37,66.37,0,0,1-6,4.29l-.7.41c-2,1.13-3.87.61-5.6-1.55a3.65,3.65,0,0,1-.17-4.71A31.84,31.84,0,0,1,1444.67,928.75Z"/><path class="cls-4" d="M1479.58,911.41c1.32-.47,2.79-1,4.37-1.61,4.6-1.71,10.32-3.83,16-5.61a3.37,3.37,0,0,1,2.67.3,3.94,3.94,0,0,1,1.9,2.38c.33,1.23.86,4.22-1.27,5.5-.13.08-.27.15-.41.22-7.59,3.44-15.5,6.35-23,9-.89.32-3.26,1.17-5.29-2.46C1473.06,916.34,1476.39,913.42,1479.58,911.41Z"/><path class="cls-4" d="M1579.44,855.75a3,3,0,0,1,3.6.28c1,.77,3.28,2.86,1.88,5.64-3.35,6.64-8.28,12.09-15.52,17.13l-.07.05c-.14.1-.5.34-1,.62a17,17,0,0,1-1.68.91c-1.78.83-3.2.54-4.75-1a3.86,3.86,0,0,1-.44-5.39c5.37-5.81,11.18-12,17.27-17.75A3.74,3.74,0,0,1,1579.44,855.75Z"/><path class="cls-4" d="M1520.51,895.4c7.12-3.68,14.17-7,21-9.95,2.85-1.23,5.45-.29,6.63,2.38,1.45,3.29-1,5.58-2.84,6.72a58.8,58.8,0,0,0-8.92,4.2c-3.85,2.09-7.48,4.06-11.58,4.75-2.82.48-4.48-.31-5.74-2.74a4.19,4.19,0,0,1,1.32-5.26Z"/><path class="cls-4" d="M1585,821.62c1.37-.83,3.9-.74,5,.6,3.87,4.72,4.5,10.24,2,17.35a2.28,2.28,0,0,1-1,1.12,4.83,4.83,0,0,1-2.07.62c-1.16.08-2.3-.29-4.5-2.32-1.66-5.27-2.72-10.92-.13-16.63A1.78,1.78,0,0,1,1585,821.62Z"/><path class="cls-4" d="M1425.33,959.13a4.72,4.72,0,0,1,2.32-.66,3.3,3.3,0,0,1,3.12,1.69,24.53,24.53,0,0,1,2.78,15.11,2.83,2.83,0,0,1-1.32,2.13,3.62,3.62,0,0,1-.85.36c-1.46.42-3.12.59-5.77-2.14-2.84-3.88-3.54-9.13-1.91-14.44A3.63,3.63,0,0,1,1425.33,959.13Z"/><path class="cls-4" d="M1838.24,1108.18a3,3,0,0,1,3.6.28c1,.77,3.27,2.86,1.87,5.64-3.34,6.64-8.28,12.09-15.51,17.13l-.07,0-1,.62a18.2,18.2,0,0,1-1.68.91c-1.78.82-3.2.54-4.76-1a3.86,3.86,0,0,1-.43-5.38c5.37-5.81,11.18-12,17.27-17.75A3.74,3.74,0,0,1,1838.24,1108.18Z"/><path class="cls-4" d="M1843.84,1074.05c1.37-.83,3.9-.74,5,.6,3.87,4.72,4.5,10.24,2,17.35a2.31,2.31,0,0,1-1,1.12,4.88,4.88,0,0,1-2.07.62c-1.17.08-2.31-.29-4.51-2.32-1.66-5.28-2.72-10.92-.12-16.63A1.62,1.62,0,0,1,1843.84,1074.05Z"/><path class="cls-4" d="M1743.6,684.77a4.11,4.11,0,0,1,3.51.07,2.31,2.31,0,0,1,1.44,1.39,77.41,77.41,0,0,1,.88,9.42c.08,1.43.15,2.85.26,4.25l.15,2,1.89.64c1.24.42,2.48.83,3.71,1.22,2.82.92,5.49,1.79,8.07,2.84.38.16,1.17.47,1.19,3.21a3.94,3.94,0,0,1-2.27,3.73c-.25.15-.51.29-.78.43-1.09.53-2.74.31-4.48.07-2.52-.34-5.38-.72-8.06.9a8.18,8.18,0,0,0-2.07,1.8,20.65,20.65,0,0,0-3.37,7.21,23.46,23.46,0,0,1-1.76,4.5,2.16,2.16,0,0,1-.76.77,4.58,4.58,0,0,1-3.68,0,3.22,3.22,0,0,1-2.44-2.66,15.53,15.53,0,0,1-.18-4.4c.66-3.6.19-6.56-1.41-8.8s-4.45-3.8-8.5-4.42c-5.18-.8-5.58-2.81-5.54-4.8a3.86,3.86,0,0,1,1.85-3.47,8.59,8.59,0,0,1,5.15-.81c3.72.35,6.48-.11,8.68-1.44,3.56-2.15,4.7-6.14,5.29-9.37.13-.7.74-2,3-4.11A1.39,1.39,0,0,1,1743.6,684.77Z"/><path class="cls-4" d="M1734.57,630.66a57.11,57.11,0,0,1,12-5.26c2-.65,3.22,1,3.75,2,.78,1.5,1.46,3.52.26,4.6a75.12,75.12,0,0,1-7.62,5.75l-1.32.92,0,0-2.18,1.59c-1.05.75-2.07,1.54-3.1,2.33a66.22,66.22,0,0,1-6,4.28c-.23.15-.47.28-.7.42-2,1.12-3.87.6-5.6-1.55a3.67,3.67,0,0,1-.17-4.72A31.91,31.91,0,0,1,1734.57,630.66Z"/><path class="cls-4" d="M1769.48,613.32l4.37-1.61c4.6-1.71,10.32-3.84,16.05-5.62a3.41,3.41,0,0,1,2.67.31,3.94,3.94,0,0,1,1.9,2.38c.32,1.23.85,4.22-1.27,5.5a4.13,4.13,0,0,1-.42.22c-7.58,3.44-15.5,6.35-23,9-.9.32-3.26,1.17-5.29-2.47C1763,618.25,1766.29,615.33,1769.48,613.32Z"/><path class="cls-4" d="M1869.34,557.66a3,3,0,0,1,3.6.28c1,.77,3.28,2.86,1.88,5.64-3.35,6.64-8.29,12.09-15.52,17.13l-.07,0c-.15.09-.5.33-1,.62a17,17,0,0,1-1.68.91c-1.78.82-3.2.53-4.76-1a3.86,3.86,0,0,1-.43-5.38c5.37-5.81,11.18-12,17.27-17.75A3.74,3.74,0,0,1,1869.34,557.66Z"/><path class="cls-4" d="M1810.41,597.3c7.12-3.67,14.17-7,20.95-9.94,2.85-1.23,5.45-.3,6.63,2.38,1.45,3.29-1,5.58-2.84,6.72a58,58,0,0,0-8.93,4.2c-3.84,2.09-7.47,4.06-11.57,4.75-2.82.48-4.48-.32-5.74-2.75a4.2,4.2,0,0,1,1.32-5.26Z"/><path class="cls-4" d="M1874.94,523.53c1.37-.83,3.9-.74,5,.6,3.87,4.72,4.5,10.24,2,17.35a2.26,2.26,0,0,1-1,1.12,4.88,4.88,0,0,1-2.07.62c-1.17.08-2.31-.29-4.5-2.32-1.67-5.28-2.73-10.92-.13-16.64A1.76,1.76,0,0,1,1874.94,523.53Z"/><path class="cls-4" d="M1715.23,661a4.82,4.82,0,0,1,2.32-.65,3.29,3.29,0,0,1,3.12,1.69,24.46,24.46,0,0,1,2.77,15.11,2.79,2.79,0,0,1-1.31,2.13,3.62,3.62,0,0,1-.85.36c-1.47.41-3.12.59-5.77-2.14-2.85-3.88-3.54-9.13-1.91-14.44A3.64,3.64,0,0,1,1715.23,661Z"/><path class="cls-4" d="M1951,747.48h0Z"/><path class="cls-4" d="M2090.69,663.53l-35-32.92h0a45.94,45.94,0,0,0-10.72-1.33c-23-.14-57.93-.14-85.77-.08l-6.09,0L1928,655.71l-19.83,20.95v45.93l17.21,24.89H1953c2.4,15.63,14.51,24.07,26,24.84a27.09,27.09,0,0,0,17.17-4.5c7.27-4.82,11.36-11.68,12.66-20.34h91V672.17ZM1981,766.15a21.78,21.78,0,1,1,21.72-21.84A21.85,21.85,0,0,1,1981,766.15Zm21.71-56.83q-18.6.2-37.2,0c-.16-9.31-.11-18.61-.11-27.92s-.05-18.62.11-27.92q18.6-.21,37.2,0Q2002.81,681.4,2002.72,709.32ZM2068.09,735h-49.78s0-33.49,0-45.16q0-22.55,0-45.08c8.53.07,25.6,0,25.6,0L2068.09,669Z"/><polygon class="cls-4" points="1922.78 740.61 1915.3 756.46 1919.04 756.46 1929.14 740.61 1922.78 740.61"/><polygon class="cls-4" points="1797.33 899.86 1797.34 899.86 1797.34 899.86 1797.33 899.86"/><path class="cls-4" d="M1692.67,1016.74h0Z"/><path class="cls-4" d="M1865.54,998.16a80.76,80.76,0,0,0-8.94-.08,3.08,3.08,0,0,0-3.26,3.32c0,.94,0,1.88,0,2.78h-11.79v6.34q7.2,0,14.4,0c2.42,0,3.55-1.16,3.61-3.58,0-.82,0-1.64,0-2.63,1.74,0,3.29-.1,4.82,0a4.59,4.59,0,0,0,4.52-2V1000C1867.77,999.36,1866.7,998.26,1865.54,998.16Z"/><path class="cls-4" d="M1832.35,932.78l-35-32.92h0a46.63,46.63,0,0,0-10.73-1.33c-23-.14-57.93-.14-85.77-.07h-6.09L1669.68,925l-19.83,20.95v45.94l17.21,24.89h27.62c2.4,15.62,14.51,24.06,26,24.83a27.09,27.09,0,0,0,17.17-4.5c7.27-4.81,11.36-11.68,12.66-20.33h91V941.42ZM1722.67,1035.4a21.78,21.78,0,1,1,21.72-21.83A21.84,21.84,0,0,1,1722.67,1035.4Zm21.71-56.83q-18.6.2-37.19,0c-.17-9.31-.12-18.62-.12-27.93s0-18.61.11-27.92q18.6-.21,37.2,0Q1744.47,950.65,1744.38,978.57Zm65.37,25.69H1760s0-33.49,0-45.16q0-22.54,0-45.09c8.53.07,25.6,0,25.6,0l24.18,24.25Z"/><polygon class="cls-4" points="1664.44 1009.87 1656.96 1025.71 1660.7 1025.71 1670.8 1009.87 1664.44 1009.87"/><path class="cls-4" d="M1797.14,969.17c-1.11,0-2.08.06-3.05,0a3.08,3.08,0,0,1-3-3,3,3,0,0,1,3-3.15c2.17-.09,4.35,0,6.52,0,1.79.22,2.8,1.42,2.89,3.4.17,3.86-.47,5.38-2.45,5.84C1799.39,972.62,1798.07,971.63,1797.14,969.17Z"/><path class="cls-4" d="M1738.17,1013.52a15.56,15.56,0,1,1-15.7-15.45A15.6,15.6,0,0,1,1738.17,1013.52Z"/></g></g></g></svg>